# https://github.com/mikedh/trimesh
v -0.00832505 -0.00097619 0.03876565
v -0.00831687 0.00097572 0.03876565
v -0.00804685 -0.00294356 0.03876565
v -0.03234913 -0.00097619 0.04585822
v -0.00825959 0.00143924 0.03876565
v -0.03234913 0.00097572 0.04586991
v -0.00785865 -0.00396844 0.03876565
v -0.03234913 -0.00293841 0.04599844
v -0.07436671 -0.00097619 0.05885153
v -0.00799775 0.00297914 0.03876565
v -0.03234913 0.00293794 0.04601597
v -0.00784228 0.00388042 0.03876565
v -0.07434217 0.00097572 0.05886321
v -0.00779318 -0.00418990 0.03876565
v -0.00758044 -0.00489032 0.03876565
v -0.00690946 -0.00685769 0.03876565
v -0.00687674 -0.00693494 0.03876565
v -0.03234913 -0.00490062 0.04634314
v -0.07305750 -0.00226374 0.05865873
v -0.07547136 -0.00293841 0.05965193
v -0.07547136 -0.00097619 0.05931307
v -0.07547136 0.00097572 0.05932476
v -0.00687674 0.00685207 0.03876565
v -0.00740860 0.00539972 0.03876565
v -0.00781773 0.00397827 0.03876565
v -0.07302477 0.00222721 0.05867042
v -0.07547136 0.00293794 0.05971620
v -0.00687674 -0.01804901 0.05052039
v -0.02451021 -0.01805931 0.05250093
v -0.02646585 -0.01795116 0.05261778
v -0.03039349 -0.01771425 0.05286316
v -0.03139177 -0.01764730 0.05292742
v -0.03085990 -0.01559753 0.05104035
v -0.03234913 -0.01432544 0.05053208
v -0.03185817 -0.01203876 0.04883781
v -0.03315920 -0.01158555 0.04907734
v -0.07434217 -0.00768172 0.06082039
v -0.07639600 -0.00584310 0.06079118
v -0.07676421 -0.00453496 0.06056917
v -0.07706697 -0.00293841 0.06037053
v -0.07725517 -0.00097619 0.06025368
v -0.07700969 0.00293794 0.06040559
v -0.07723881 0.00097572 0.06025953
v -0.03239004 0.01084345 0.04861580
v -0.03306920 0.01154387 0.04911240
v -0.03175998 0.01198679 0.04887870
v -0.03234913 0.01422711 0.05059634
v -0.03039349 0.01455672 0.05034513
v -0.03039349 0.01553526 0.05108709
v -0.03088445 0.01757472 0.05300922
v -0.02957523 0.01766228 0.05291574
v -0.00687674 0.01800219 0.05057297
v -0.07624871 0.00572418 0.06083208
v -0.07671512 0.00442119 0.06059838
v -0.00687674 -0.01902239 0.05161875
v -0.01365192 -0.01959406 0.05293911
v -0.01667129 -0.01944471 0.05310270
v -0.02451021 -0.01904299 0.05357008
v -0.02646585 -0.01892969 0.05371614
v -0.03216911 -0.01668422 0.05238409
v -0.03234913 -0.01530397 0.05127405
v -0.02646585 -0.01975887 0.05469180
v -0.02766869 -0.01966616 0.05481449
v -0.03187454 -0.02173138 0.05864705
v -0.07350754 -0.01391342 0.06639396
v -0.07472675 -0.01185850 0.06460621
v -0.07472675 -0.00990144 0.06263151
v -0.03244732 -0.01271343 0.04948630
v -0.07361392 -0.00877355 0.06134620
v -0.07303295 -0.00808343 0.06062760
v -0.07541409 -0.00887141 0.06212907
v -0.07682967 -0.00825339 0.06244455
v -0.07563502 -0.00696069 0.06102487
v -0.07746791 -0.00682164 0.06208818
v -0.07857256 -0.00614697 0.06258477
v -0.07742700 -0.00507058 0.06124104
v -0.07804887 -0.00293841 0.06104824
v -0.07823708 -0.00097619 0.06090803
v -0.07821253 0.00097572 0.06092555
v -0.07799160 0.00293794 0.06108914
v -0.07417034 0.00753704 0.06087882
v -0.07286930 0.00801086 0.06067434
v -0.03239004 0.01268206 0.04955057
v -0.03234913 0.01521080 0.05135584
v -0.03234913 0.01633868 0.05233735
v -0.03234913 0.01732237 0.05325459
v -0.03234913 0.01808459 0.05423610
v -0.03166997 0.02165881 0.05871132
v -0.02721864 0.01956784 0.05494302
v -0.02591762 0.01966569 0.05481449
v -0.02451021 0.01974295 0.05470933
v -0.02451021 0.01891377 0.05372782
v -0.01667129 0.01935153 0.05322538
v -0.01470747 0.01945454 0.05310854
v -0.00687674 0.01898587 0.05167133
v -0.07739427 0.00500316 0.06131699
v -0.07852347 0.00605894 0.06263151
v -0.07741882 0.00676966 0.06218165
v -0.07674785 0.00815506 0.06250882
v -0.07554501 0.00687267 0.06113004
v -0.00687674 -0.01988762 0.05260026
v -0.01667129 -0.02024813 0.05408421
v -0.02451021 -0.01987217 0.05455159
v -0.02443657 -0.02096916 0.05605306
v -0.02503390 -0.02152023 0.05691773
v -0.02646585 -0.02058804 0.05587195
v -0.03039349 -0.02187044 0.05849515
v -0.03039349 -0.02268931 0.05979798
v -0.03245550 -0.02214855 0.05965193
v -0.07150281 -0.01522672 0.06774938
v -0.07453037 -0.01373832 0.06662765
v -0.07602778 -0.01157525 0.06491586
v -0.07538135 -0.01073577 0.06377076
v -0.07603596 -0.00956153 0.06292947
v -0.07696878 -0.01026710 0.06423814
v -0.07754974 -0.00894866 0.06361302
v -0.07813888 -0.00744996 0.06298205
v -0.07933354 -0.00674953 0.06378829
v -0.08047092 -0.00604396 0.06458868
v -0.08072458 -0.00490062 0.06431409
v -0.07981632 -0.00490062 0.06333258
v -0.07884259 -0.00490062 0.06232771
v -0.07915353 -0.00293841 0.06202975
v -0.07930900 -0.00097619 0.06188953
v -0.07929263 0.00097572 0.06190122
v -0.07911261 0.00293794 0.06207065
v -0.07877713 0.00490015 0.06238613
v -0.07547136 0.00856192 0.06215244
v -0.07446491 0.00979282 0.06274251
v -0.03392018 0.01785798 0.05459249
v -0.07438308 0.01173443 0.06471721
v -0.07291840 0.01385115 0.06646991
v -0.03233277 0.02200387 0.05973957
v -0.03153905 0.02357467 0.06260814
v -0.03039349 0.02244164 0.05979798
v -0.03039349 0.02175666 0.05860031
v -0.02451021 0.02057212 0.05587195
v -0.01667129 0.02112319 0.05552726
v -0.01667129 0.02014466 0.05420105
v -0.00687674 0.01983565 0.05265284
v -0.07975904 0.00490015 0.06342022
v -0.08040547 0.00592504 0.06466464
v -0.07926809 0.00664606 0.06385839
v -0.07871167 0.00822716 0.06436083
v -0.07805706 0.00736708 0.06305216
v -0.07685422 0.01015333 0.06432578
v -0.07547136 0.00954561 0.06295284
v -0.07745973 0.00884518 0.06368897
v -0.00687674 -0.02101551 0.05408421
v -0.01667129 -0.02123182 0.05535783
v -0.02443657 -0.02203009 0.05767722
v -0.02646585 -0.02205069 0.05803945
v -0.01667129 -0.02191679 0.05633934
v -0.02842967 -0.02286957 0.05979798
v -0.02842967 -0.02344639 0.06095476
v -0.03039349 -0.02335884 0.06115341
v -0.03180090 -0.02365755 0.06240950
v -0.03241459 -0.02318373 0.06175516
v -0.07081547 -0.01574173 0.06847967
v -0.07211650 -0.01557693 0.06891200
v -0.07350754 -0.01457264 0.06763837
v -0.07355664 -0.01537607 0.06957802
v -0.07529953 -0.01392887 0.06783117
v -0.07645328 -0.01372287 0.06860820
v -0.07583140 -0.01337265 0.06730536
v -0.07685422 -0.01206451 0.06622453
v -0.07756611 -0.01090057 0.06553514
v -0.07826981 -0.00964393 0.06484575
v -0.07878531 -0.00833579 0.06429072
v -0.08009453 -0.00735210 0.06502686
v -0.08062639 -0.00816583 0.06633554
v -0.08993817 -0.00154271 0.07467836
v -0.08101916 -0.00293841 0.06396356
v -0.08013544 -0.00293841 0.06298205
v -0.09022457 -0.00023457 0.07444467
v -0.08029091 -0.00097619 0.06281847
v -0.08027454 0.00097572 0.06283599
v -0.08009453 0.00293794 0.06302879
v -0.07547136 0.01053444 0.06393435
v -0.07547136 0.01151812 0.06499764
v -0.07422761 0.01362454 0.06683797
v -0.07354845 0.01420651 0.06755074
v -0.07155190 0.01485028 0.06763837
v -0.03225094 0.02377553 0.06377660
v -0.03039349 0.02411544 0.06371818
v -0.03039349 0.02364678 0.06243871
v -0.03039349 0.02322961 0.06145720
v -0.07040634 0.01564341 0.06871920
v -0.07155190 0.01549920 0.06913401
v -0.07260746 0.01570006 0.07050695
v -0.02842967 0.02260644 0.05979798
v -0.01667129 0.02255494 0.05783497
v -0.02451021 0.02199872 0.05807451
v -0.02646585 0.02191632 0.05823809
v -0.02842967 0.02184422 0.05843088
v -0.02451021 0.02141160 0.05709884
v -0.01667129 0.02178756 0.05650876
v -0.01470747 0.02120044 0.05540457
v -0.00687674 0.02073693 0.05391477
v -0.08097825 0.00293794 0.06400446
v -0.08063458 0.00490015 0.06440173
v -0.09022457 0.00018775 0.07444467
v -0.08979089 0.00149589 0.07473678
v -0.09035549 0.00225296 0.07604546
v -0.08053638 0.00805206 0.06644654
v -0.08002088 0.00722803 0.06514371
v -0.07936628 0.00879368 0.06571041
v -0.07816343 0.00953531 0.06496843
v -0.07670693 0.01195074 0.06638227
v -0.07743518 0.01078680 0.06567535
v -0.00687674 -0.02157173 0.05488460
v -0.00882419 -0.02150478 0.05497808
v -0.01667129 -0.02280777 0.05783497
v -0.01470747 -0.02197859 0.05625754
v -0.01460928 -0.02305498 0.05802192
v -0.02711227 -0.02349789 0.06083792
v -0.01519842 -0.02349789 0.05886906
v -0.02842967 -0.02385325 0.06193043
v -0.03039349 -0.02377085 0.06213491
v -0.03039349 -0.02435282 0.06371818
v -0.03241459 -0.02391506 0.06364223
v -0.07293476 -0.01579323 0.07022067
v -0.07423579 -0.01560268 0.07102692
v -0.07547136 -0.01457779 0.06958971
v -0.07671512 -0.01389797 0.06958971
v -0.07769703 -0.01318725 0.06958971
v -0.07859711 -0.01192546 0.06831608
v -0.07730427 -0.01265163 0.06781364
v -0.07816343 -0.01152889 0.06701325
v -0.07879350 -0.01022075 0.06615442
v -0.08010271 -0.00947398 0.06703077
v -0.08055275 -0.00999929 0.06833945
v -0.09037185 -0.00233584 0.07598704
v -0.08112553 -0.00097619 0.06379997
v -0.09042095 -0.00092469 0.07539112
v -0.08111735 0.00097572 0.06381750
v -0.07547136 0.01232155 0.06597915
v -0.07556137 0.01332583 0.06755074
v -0.07496404 0.01394900 0.06814081
v -0.07336025 0.01519535 0.06974745
v -0.03358470 0.02360557 0.06446600
v -0.03545033 0.02357467 0.06646407
v -0.03044259 0.02533603 0.07152351
v -0.02842967 0.02425965 0.06371818
v -0.02913337 0.02544418 0.07085164
v -0.02782416 0.02552659 0.07032000
v -0.02557395 0.02549569 0.06854393
v -0.02646585 0.02488282 0.06567535
v -0.02451021 0.02504762 0.06567535
v -0.02842967 0.02372403 0.06225760
v -0.02842967 0.02330687 0.06127609
v -0.07547136 0.01481938 0.07155273
v -0.07547136 0.01509234 0.07350990
v -0.07350754 0.01557646 0.07350990
v -0.03234913 0.02505792 0.07350990
v -0.02982889 0.02552659 0.07215448
v -0.03639133 0.02380128 0.06959555
v -0.03580218 0.02368798 0.06763837
v -0.01667129 0.02330687 0.05926634
v -0.01470747 0.02338412 0.05911443
v -0.01470747 0.02270944 0.05783497
v -0.01470747 0.02186482 0.05638608
v -0.00687674 0.02148885 0.05501313
v -0.09041277 0.00089332 0.07542618
v -0.09040459 0.00236112 0.07743593
v -0.08043002 0.01182198 0.07398897
v -0.08034819 0.01172928 0.07268029
v -0.08014362 0.01155417 0.07155273
v -0.08066731 0.01017393 0.06958971
v -0.08046275 0.00989582 0.06847967
v -0.08001270 0.00935505 0.06717099
v -0.07870349 0.01011213 0.06627711
v -0.07626508 0.01361939 0.06887694
v -0.07801615 0.01142027 0.06720604
v -0.07738609 0.01223915 0.06777275
v -0.00687674 -0.02206614 0.05569668
v -0.01274365 -0.02299833 0.05777655
v -0.01274365 -0.02355454 0.05875806
v -0.01388921 -0.02352879 0.05880480
v -0.02581124 -0.02354424 0.06072691
v -0.02451021 -0.02406441 0.06175516
v -0.01460928 -0.02384810 0.05962856
v -0.01667129 -0.02386355 0.05998494
v -0.02451021 -0.02359060 0.06062175
v -0.02842967 -0.02450218 0.06371818
v -0.02469023 -0.02532105 0.06575130
v -0.02646585 -0.02515624 0.06567535
v -0.02545939 -0.02548071 0.06666855
v -0.02646585 -0.02542406 0.06705414
v -0.02825784 -0.02560431 0.06972408
v -0.02961614 -0.02553221 0.07047189
v -0.03031985 -0.02561461 0.07162283
v -0.03154723 -0.02553221 0.07232975
v -0.03628496 -0.02375025 0.06772601
v -0.07456310 -0.01571083 0.07233559
v -0.03626859 -0.02405926 0.06958971
v -0.07531590 -0.01521642 0.07162867
v -0.07714061 -0.01418123 0.07155273
v -0.07812253 -0.01350141 0.07155273
v -0.07950538 -0.01242502 0.07155273
v -0.08024181 -0.01163190 0.07090423
v -0.07894078 -0.01220357 0.06958971
v -0.07991451 -0.01132289 0.06958971
v -0.09041277 -0.00247489 0.07743593
v -0.08047092 -0.01185850 0.07221291
v -0.08054457 -0.01195121 0.07350990
v -0.09045368 -0.00099679 0.07743593
v -0.09045368 0.00098602 0.07743593
v -0.07556137 0.01422196 0.06955465
v -0.01470747 0.02543904 0.06489249
v -0.01667129 0.02497037 0.06371818
v -0.01667129 0.02433175 0.06175516
v -0.02254639 0.02601070 0.07155273
v -0.02254639 0.02585105 0.06958971
v -0.02254639 0.02565534 0.06786038
v -0.02451021 0.02537724 0.06730536
v -0.02254639 0.02544418 0.06687887
v -0.02109807 0.02548024 0.06666855
v -0.01667129 0.02375493 0.06024784
v -0.07665784 0.01385630 0.07017978
v -0.07691968 0.01402626 0.07155273
v -0.07711607 0.01417046 0.07350990
v -0.07547136 0.01514384 0.07547292
v -0.07336025 0.01565371 0.07557808
v -0.03234913 0.02484162 0.07547292
v -0.03044259 0.02541844 0.07369101
v -0.07378575 0.01558161 0.07743593
v -0.07282021 0.01576701 0.07871540
v -0.02982889 0.02552659 0.07315352
v -0.02254639 0.02606221 0.07350990
v -0.01470747 0.02382188 0.06009594
v -0.01274365 0.02344592 0.05898591
v -0.00983065 0.02352317 0.05881064
v -0.01059981 0.02304421 0.05802777
v -0.01274365 0.02281760 0.05783497
v -0.00687674 0.02207082 0.05599464
v -0.09029821 0.00220146 0.07894325
v -0.08042183 0.01181683 0.07684586
v -0.08045456 0.01184773 0.07547292
v -0.07809797 0.01349064 0.07350990
v -0.07957084 0.01239880 0.07340474
v -0.07790159 0.01334128 0.07155273
v -0.07916171 0.01235760 0.07155273
v -0.07873622 0.01203829 0.06958971
v -0.07971812 0.01115761 0.06958971
v -0.07847437 0.01181683 0.06851472
v -0.07924354 0.01065804 0.06784285
v -0.07736154 0.01309923 0.06955465
v -0.00687674 -0.02312708 0.05755454
v -0.01078801 -0.02359575 0.05868795
v -0.00882419 -0.02414681 0.05979798
v -0.01078801 -0.02407471 0.05979798
v -0.01274365 -0.02399746 0.05979798
v -0.02451021 -0.02477514 0.06371818
v -0.01667129 -0.02456913 0.06175516
v -0.01470747 -0.02466183 0.06175516
v -0.02254639 -0.02534166 0.06526055
v -0.02254639 -0.02559401 0.06623622
v -0.02415836 -0.02553221 0.06645238
v -0.02451021 -0.02600088 0.06958971
v -0.02646585 -0.02580002 0.06958971
v -0.02646585 -0.02557341 0.06803565
v -0.02254639 -0.02591332 0.06763837
v -0.02842967 -0.02582062 0.07155273
v -0.02254639 -0.02639744 0.07155273
v -0.02254639 -0.02642319 0.07350990
v -0.03056532 -0.02563522 0.07366764
v -0.03154723 -0.02553221 0.07311846
v -0.07477585 -0.01580354 0.07547292
v -0.07469402 -0.01576233 0.07350990
v -0.07567593 -0.01530912 0.07350990
v -0.07732063 -0.01433059 0.07350990
v -0.07830254 -0.01364046 0.07350990
v -0.07939082 -0.01285249 0.07350990
v -0.08055275 -0.01197696 0.07547292
v -0.08938994 -0.00345343 0.07743593
v -0.09028185 -0.00221738 0.07939311
v -0.09024093 -0.00097619 0.08047394
v -0.09024093 0.00045555 0.08047978
v -0.01470747 0.02563990 0.06587400
v -0.01319369 0.02546478 0.06478148
v -0.01470747 0.02507852 0.06371818
v -0.01470747 0.02443990 0.06175516
v -0.01470747 0.02607251 0.06958971
v -0.02059075 0.02590770 0.06958971
v -0.01470747 0.02591285 0.06763837
v -0.07711607 0.01419106 0.07547292
v -0.07547136 0.01497389 0.07743593
v -0.03234913 0.02448110 0.07743593
v -0.03039349 0.02488796 0.07743593
v -0.03039349 0.02522788 0.07547292
v -0.02934612 0.02548024 0.07446220
v -0.07349118 0.01535500 0.07938142
v -0.07205923 0.01557646 0.08002408
v -0.07146190 0.01590092 0.07938142
v -0.02858514 0.02539268 0.07536775
v -0.02269367 0.02572744 0.07563650
v -0.02059075 0.02584075 0.07547292
v -0.02059075 0.02607766 0.07350990
v -0.00687674 0.02616006 0.06958971
v -0.01078801 0.02612401 0.06958971
v -0.01274365 0.02387853 0.05996742
v -0.01059981 0.02384248 0.05964024
v -0.00687674 0.02405364 0.05979798
v -0.00687674 0.02358497 0.05869963
v -0.00687674 0.02305451 0.05771812
v -0.09008546 0.00175855 0.08025193
v -0.07868712 0.01193014 0.08075437
v -0.08030728 0.01164688 0.07815454
v -0.07955448 0.01230095 0.07747099
v -0.07696878 0.01409321 0.07743593
v -0.07939082 0.01259451 0.07547292
v -0.00687674 -0.02366785 0.05854189
v -0.00687674 -0.02421377 0.05979214
v -0.01274365 -0.02473908 0.06175516
v -0.02254639 -0.02489874 0.06371818
v -0.01470747 -0.02524380 0.06349033
v -0.01674494 -0.02525410 0.06384087
v -0.01614760 -0.02551676 0.06458284
v -0.02254639 -0.02619143 0.06958971
v -0.02059075 -0.02600088 0.06763837
v -0.02059075 -0.02623263 0.06958971
v -0.01274365 -0.02613993 0.06763837
v -0.01078801 -0.02616053 0.06763837
v -0.00882419 -0.02618113 0.06763837
v -0.00687674 -0.02619658 0.06763253
v -0.02059075 -0.02641289 0.07155273
v -0.02059075 -0.02645409 0.07350990
v -0.02059075 -0.02618113 0.07547292
v -0.02254639 -0.02610903 0.07547292
v -0.02920701 -0.02548071 0.07643106
v -0.03002527 -0.02556311 0.07512238
v -0.03133449 -0.02547556 0.07442714
v -0.07466947 -0.01576233 0.07702113
v -0.07574958 -0.01532972 0.07547292
v -0.07729608 -0.01435119 0.07547292
v -0.07939082 -0.01285249 0.07547292
v -0.08047092 -0.01187911 0.07743593
v -0.08039728 -0.01178640 0.07851092
v -0.09020002 -0.00199593 0.08040383
v -0.07885078 -0.00097619 0.08853633
v -0.07884259 0.00097572 0.08853049
v -0.07860530 0.00293794 0.08835522
v -0.00882419 0.02574290 0.06567535
v -0.01078801 0.02569654 0.06567535
v -0.01189266 0.02548539 0.06468216
v -0.01262091 0.02521758 0.06390513
v -0.01078801 0.02462016 0.06175516
v -0.01274365 0.02453776 0.06175516
v -0.00687674 0.02603646 0.06763837
v -0.00882419 0.02601070 0.06763837
v -0.01078801 0.02597980 0.06763837
v -0.01274365 0.02594890 0.06763837
v -0.00687674 0.02578410 0.06567535
v -0.07672330 0.01391295 0.07905426
v -0.07565957 0.01436102 0.07958007
v -0.03039349 0.02438840 0.07939311
v -0.02842967 0.02457380 0.07939311
v -0.02842967 0.02505792 0.07743593
v -0.07350754 0.01462883 0.08135613
v -0.07505405 0.01401081 0.08135613
v -0.07146190 0.01524685 0.08121591
v -0.07075001 0.01572066 0.08046810
v -0.02212908 0.02555749 0.07666475
v -0.02059075 0.02558324 0.07674070
v -0.00687674 0.02548539 0.07646027
v -0.00687674 0.02567594 0.07547292
v -0.00687674 0.02598496 0.07350990
v -0.00687674 0.02613946 0.07155273
v -0.00882419 0.02613431 0.07155273
v -0.00882419 0.02397639 0.05979798
v -0.00687674 0.02474891 0.06175516
v -0.07841710 0.00393192 0.08822085
v -0.07805706 0.00523491 0.08796379
v -0.07887532 0.00651731 0.08665511
v -0.07840073 0.00782545 0.08624614
v -0.07846619 0.00983917 0.08434155
v -0.07889986 0.01021513 0.08331330
v -0.07823708 0.01162113 0.08205721
v -0.07752519 0.01246060 0.08138534
v -0.07644509 0.01371725 0.08036293
v -0.07906352 0.01216704 0.07939311
v -0.00687674 -0.02491419 0.06174932
v -0.00882419 -0.02486268 0.06175516
v -0.01078801 -0.02480604 0.06175516
v -0.01470747 -0.02555281 0.06447184
v -0.01274365 -0.02527470 0.06339101
v -0.01470747 -0.02580517 0.06567535
v -0.01274365 -0.02585152 0.06567535
v -0.01078801 -0.02588757 0.06567535
v -0.00687674 -0.02594938 0.06566951
v -0.00687674 -0.02630988 0.06958386
v -0.00687674 -0.02629444 0.07154688
v -0.00687674 -0.02614508 0.07350406
v -0.00687674 -0.02583607 0.07546707
v -0.00687674 -0.02555796 0.07677575
v -0.01078801 -0.02538800 0.07792669
v -0.01274365 -0.02540860 0.07803769
v -0.01470747 -0.02542406 0.07813117
v -0.02059075 -0.02575367 0.07710292
v -0.02842967 -0.02479574 0.07939311
v -0.03039349 -0.02461033 0.07939311
v -0.03039349 -0.02510990 0.07743593
v -0.03056532 -0.02541376 0.07565403
v -0.06958808 -0.01656576 0.07939311
v -0.07313933 -0.01586534 0.07906594
v -0.07444854 -0.01566963 0.07832981
v -0.07538135 -0.01531427 0.07758199
v -0.07714061 -0.01425334 0.07743593
v -0.07684604 -0.01402158 0.07939311
v -0.07659238 -0.01382072 0.08059078
v -0.07882623 -0.01202331 0.08095885
v -0.08013544 -0.01138984 0.07981960
v -0.07836800 -0.01172460 0.08226169
v -0.07901442 -0.01035980 0.08331330
v -0.07858075 -0.00992719 0.08442919
v -0.07849892 -0.00791862 0.08631625
v -0.07884259 -0.00685769 0.08663174
v -0.07809797 -0.00530234 0.08799884
v -0.07845801 -0.00399419 0.08824422
v -0.07864621 -0.00293841 0.08838443
v -0.07743518 -0.00097619 0.08947695
v -0.07743518 0.00097572 0.08945358
v -0.07743518 0.00293794 0.08913225
v -0.00687674 0.02555234 0.06446016
v -0.00882419 0.02552659 0.06454194
v -0.01078801 0.02550084 0.06462958
v -0.03189091 0.02366223 0.08075437
v -0.03025439 0.02376523 0.08138534
v -0.02950977 0.02353862 0.08237269
v -0.02842967 0.02393519 0.08135613
v -0.02451021 0.02465106 0.07939311
v -0.07350754 0.01396445 0.08274660
v -0.07459583 0.01377390 0.08243111
v -0.07155190 0.01423741 0.08312635
v -0.06958808 0.01541680 0.08171251
v -0.03081898 0.02342017 0.08206305
v -0.02059075 0.02471286 0.07939311
v -0.01470747 0.02480042 0.07939311
v -0.01274365 0.02480556 0.07939311
v -0.01470747 0.02529998 0.07761705
v -0.01274365 0.02529998 0.07753525
v -0.00687674 0.02523818 0.07744177
v -0.07741063 0.00470960 0.08860644
v -0.07674785 0.00625465 0.08841364
v -0.07757429 0.00703747 0.08735618
v -0.07617507 0.00756279 0.08805142
v -0.07709152 0.00848467 0.08674274
v -0.07643691 0.00978767 0.08624614
v -0.07762338 0.00900999 0.08587808
v -0.07743518 0.01026148 0.08481478
v -0.07633054 0.01168293 0.08418965
v -0.07752519 0.01126061 0.08344768
v -0.07692786 0.01210524 0.08288097
v -0.07603596 0.01348549 0.08135613
v -0.00687674 -0.02534680 0.06317484
v -0.01078801 -0.02530560 0.06331506
v -0.01274365 -0.02557856 0.06437252
v -0.01078801 -0.02559916 0.06429072
v -0.00687674 -0.02564036 0.06416220
v -0.00687674 -0.02532620 0.07776310
v -0.00882419 -0.02536226 0.07783321
v -0.01078801 -0.02497599 0.07939311
v -0.01274365 -0.02502234 0.07939311
v -0.01470747 -0.02503264 0.07939311
v -0.02646585 -0.02418801 0.08135613
v -0.02842967 -0.02415711 0.08135613
v -0.03048350 -0.02389960 0.08150218
v -0.07252564 -0.01567993 0.08036878
v -0.07174011 -0.01607134 0.07958590
v -0.03234913 -0.02470303 0.07743593
v -0.07367938 -0.01554088 0.07958590
v -0.07547136 -0.01482500 0.07939311
v -0.07544682 -0.01412973 0.08128602
v -0.07608506 -0.01350656 0.08189946
v -0.07692786 -0.01210056 0.08331330
v -0.07647783 -0.01177610 0.08431234
v -0.07790159 -0.01133834 0.08331330
v -0.07653510 -0.00987054 0.08632210
v -0.07784431 -0.00922677 0.08573202
v -0.07728789 -0.00867055 0.08665511
v -0.07626508 -0.00764051 0.08810400
v -0.07743518 -0.00693494 0.08766583
v -0.07678876 -0.00633237 0.08844286
v -0.07743518 -0.00474612 0.08864734
v -0.07610961 -0.00293841 0.09000275
v -0.07743518 -0.00293841 0.08918483
v -0.07637145 -0.00097619 0.09013713
v -0.07634690 0.00097572 0.09012544
v -0.07605233 0.00293794 0.08997354
v -0.02959160 0.01964509 0.08830848
v -0.02842967 0.01907857 0.08940684
v -0.02503390 0.02153521 0.08621109
v -0.02373286 0.02157641 0.08627536
v -0.02443657 0.02201932 0.08544574
v -0.02254639 0.02216868 0.08527632
v -0.02842967 0.02355407 0.08240190
v -0.03567944 0.01972750 0.08643894
v -0.02059075 0.02405364 0.08135613
v -0.07350754 0.01334643 0.08372811
v -0.07546318 0.01273871 0.08330746
v -0.07502950 0.01206919 0.08468041
v -0.07155190 0.01356789 0.08410786
v -0.01470747 0.02406394 0.08135613
v -0.01274365 0.02406394 0.08135613
v -0.01078801 0.02477982 0.07939311
v -0.00687674 0.02467681 0.07939311
v -0.00882419 0.02473861 0.07939311
v -0.07542227 0.00489500 0.08971063
v -0.07550410 0.00688812 0.08877586
v -0.07486586 0.00813446 0.08841364
v -0.07565138 0.00896364 0.08734450
v -0.07513588 0.01020998 0.08663758
v -0.07573320 0.01094645 0.08546327
v -0.00687674 -0.02485238 0.07938727
v -0.00882419 -0.02491934 0.07939311
v -0.01078801 -0.02423437 0.08135613
v -0.00882419 -0.02418286 0.08135613
v -0.01274365 -0.02428072 0.08135613
v -0.01470747 -0.02429102 0.08135613
v -0.02059075 -0.02426527 0.08135613
v -0.02451021 -0.02421377 0.08135613
v -0.02842967 -0.02366270 0.08264728
v -0.02989435 -0.02361120 0.08253628
v -0.03120357 -0.02348759 0.08225000
v -0.07121642 -0.01581899 0.08071347
v -0.07174011 -0.01543272 0.08136197
v -0.07350754 -0.01493316 0.08135613
v -0.07478403 -0.01387222 0.08260054
v -0.07544682 -0.01305850 0.08327825
v -0.07547136 -0.01206966 0.08467456
v -0.07547136 -0.01120958 0.08565607
v -0.07547136 -0.01022590 0.08664927
v -0.07556137 -0.00885596 0.08767751
v -0.07496404 -0.00823278 0.08846623
v -0.07556137 -0.00693494 0.08884597
v -0.07544682 -0.00494697 0.08975153
v -0.07477585 -0.00432895 0.09031240
v -0.07513588 -0.00293841 0.09047598
v -0.07538954 -0.00097619 0.09059283
v -0.07536499 0.00097572 0.09058699
v -0.07507042 0.00293794 0.09044677
v -0.07472675 0.00424093 0.09028318
v -0.03030348 0.01900132 0.08905630
v -0.03039349 0.01795584 0.09049351
v -0.02842967 0.01810004 0.09064540
v -0.02646585 0.01908887 0.08952368
v -0.02451021 0.01990260 0.08860060
v -0.02646585 0.01982535 0.08854218
v -0.02443657 0.02099959 0.08705239
v -0.02254639 0.02090689 0.08726855
v -0.02254639 0.02158156 0.08628704
v -0.02059075 0.02217898 0.08527632
v -0.02059075 0.02313691 0.08348857
v -0.02254639 0.02312661 0.08345936
v -0.02451021 0.02310601 0.08342431
v -0.02059075 0.02360042 0.08250706
v -0.02254639 0.02359012 0.08247785
v -0.07350754 0.01236275 0.08494915
v -0.07350754 0.01048294 0.08701149
v -0.01274365 0.02357982 0.08245448
v -0.01078801 0.02356952 0.08242527
v -0.01078801 0.02403819 0.08135613
v -0.00693401 0.02386308 0.08152555
v -0.00687674 0.02386308 0.08151971
v -0.00882419 0.02399184 0.08135613
v -0.07350754 0.00685722 0.08955874
v -0.07350754 0.00852587 0.08867071
v -0.07350754 0.00950956 0.08799300
v -0.07242744 0.00977221 0.08819164
v -0.00687674 -0.02412106 0.08134444
v -0.00882419 -0.02364210 0.08255964
v -0.01274365 -0.02368845 0.08267649
v -0.00687674 -0.02361120 0.08248954
v -0.01470747 -0.02369875 0.08269402
v -0.02059075 -0.02370905 0.08274076
v -0.02451021 -0.02368845 0.08269402
v -0.02254639 -0.02323523 0.08369890
v -0.02451021 -0.02321463 0.08367553
v -0.02451021 -0.02230820 0.08527632
v -0.02451021 -0.02163353 0.08636299
v -0.02842967 -0.02304468 0.08362879
v -0.02842967 -0.01917175 0.08954705
v -0.03041804 -0.01910480 0.08910888
v -0.03581855 -0.01977432 0.08650321
v -0.06857345 -0.01567478 0.08232011
v -0.06958808 -0.01557693 0.08208642
v -0.07350754 -0.01411943 0.08296861
v -0.07350754 -0.01348596 0.08395012
v -0.07350754 -0.01250743 0.08510105
v -0.07350754 -0.01159585 0.08608256
v -0.07339298 -0.01047826 0.08731529
v -0.07396577 -0.00953578 0.08802221
v -0.07339298 -0.00885596 0.08865318
v -0.07340117 -0.00670318 0.08975153
v -0.07398213 -0.00563195 0.09009039
v -0.07350754 -0.00293841 0.09099595
v -0.07350754 -0.00097619 0.09129391
v -0.07350754 0.00097572 0.09127638
v -0.07350754 0.00293794 0.09093752
v -0.07350754 0.00464779 0.09041756
v -0.07350754 0.00563148 0.09008455
v -0.03039349 0.01692065 0.09147502
v -0.02842967 0.01709061 0.09162691
v -0.02646585 0.01710091 0.09163276
v -0.02646585 0.01810519 0.09065125
v -0.02254639 0.01908887 0.08959963
v -0.02451021 0.01908887 0.08958211
v -0.02254639 0.01992320 0.08861812
v -0.02059075 0.02090174 0.08727439
v -0.02059075 0.02158671 0.08629288
v -0.01942882 0.02157641 0.08628120
v -0.01274365 0.02208627 0.08518284
v -0.01274365 0.02306996 0.08343599
v -0.00882419 0.02354892 0.08237853
v -0.00687674 0.02382703 0.08160735
v -0.00762953 0.02352832 0.08234932
v -0.07174829 0.00681087 0.08995602
v -0.07168283 0.00899969 0.08884013
v -0.02969797 0.01382540 0.09416833
v -0.03039349 0.01593697 0.09235720
v -0.01274365 -0.02317858 0.08365800
v -0.02059075 -0.02324553 0.08371642
v -0.00687674 -0.02303953 0.08347105
v -0.01274365 -0.02223610 0.08527632
v -0.02254639 -0.02236485 0.08527632
v -0.02254639 -0.02167473 0.08642725
v -0.02451021 -0.02096916 0.08733865
v -0.02842967 -0.01818806 0.09073888
v -0.03039349 -0.01804901 0.09058699
v -0.02646585 -0.01991337 0.08867071
v -0.02451021 -0.01999063 0.08871160
v -0.02646585 -0.01918205 0.08965222
v -0.07206741 -0.01366106 0.08421886
v -0.07265655 -0.00984479 0.08825590
v -0.07155190 -0.00881990 0.08912056
v -0.07155190 -0.00712035 0.08995017
v -0.07340117 -0.00494697 0.09041172
v -0.06867981 -0.00785682 0.09018386
v -0.03024620 -0.01062761 0.09572822
v -0.02842967 -0.00535899 0.09791325
v -0.06863072 -0.00195988 0.09214104
v -0.07155190 -0.00097619 0.09174961
v -0.07155190 0.00097572 0.09171455
v -0.06841797 0.00165039 0.09211183
v -0.02954250 0.00408643 0.09804761
v -0.07252564 0.00587869 0.09017802
v -0.02842967 0.00526581 0.09787235
v -0.02842967 0.01610693 0.09250326
v -0.02646585 0.01612238 0.09251494
v -0.02451021 0.01709576 0.09163276
v -0.02451021 0.01811034 0.09065125
v -0.02254639 0.01811034 0.09064540
v -0.02059075 0.01810004 0.09063956
v -0.02059075 0.01908372 0.08958795
v -0.02059075 0.01991805 0.08860644
v -0.01274365 0.02072663 0.08723350
v -0.01274365 0.02150430 0.08616435
v -0.00882419 0.02299270 0.08336004
v -0.00687674 0.02208627 0.08476220
v -0.00687674 0.02304936 0.08313219
v -0.00687674 0.02310086 0.08304456
v -0.03027075 0.01063744 0.09569317
v -0.06846707 0.00775850 0.09015465
v -0.06958808 0.00747524 0.09006702
v -0.03036076 0.01284687 0.09462403
v -0.02842967 0.01273871 0.09497456
v -0.02842967 0.01389750 0.09422091
v -0.02842967 0.01487603 0.09348477
v -0.02059075 -0.02238031 0.08527632
v -0.00687674 -0.02206099 0.08506015
v -0.01164718 -0.02156658 0.08626367
v -0.01274365 -0.02159748 0.08630457
v -0.02059075 -0.02167988 0.08643310
v -0.02254639 -0.02098976 0.08740876
v -0.02842967 -0.01718893 0.09172039
v -0.02451021 -0.01918205 0.08969311
v -0.02646585 -0.01819837 0.09075057
v -0.02646585 -0.01720438 0.09173208
v -0.03039349 -0.01701898 0.09156849
v -0.02254639 -0.02001123 0.08872329
v -0.03039349 -0.01603529 0.09243900
v -0.02986981 -0.01389282 0.09422091
v -0.03046713 -0.01288339 0.09469413
v -0.02842967 -0.01273918 0.09509725
v -0.02842967 -0.01094692 0.09588012
v -0.02646585 -0.01112203 0.09588596
v -0.02254639 -0.00881990 0.09686163
v -0.02646585 -0.00543624 0.09793078
v -0.02842967 -0.00438046 0.09808851
v -0.02955886 -0.00413840 0.09805346
v -0.02985344 -0.00293841 0.09811772
v -0.06880255 0.00034225 0.09215857
v -0.03014801 -0.00097619 0.09818783
v -0.03013983 0.00097572 0.09818199
v -0.02983707 0.00293794 0.09811188
v -0.02842967 0.00293794 0.09825210
v -0.02842967 0.00428728 0.09808267
v -0.02954250 0.00989067 0.09607876
v -0.02646585 0.00533277 0.09790741
v -0.02254639 0.00881943 0.09679736
v -0.02842967 0.01092070 0.09582754
v -0.02646585 0.01489664 0.09349061
v -0.02451021 0.01488633 0.09349061
v -0.02254639 0.01611208 0.09250326
v -0.02254639 0.01709061 0.09162691
v -0.02059075 0.01708031 0.09162107
v -0.01274365 0.01791978 0.09044677
v -0.01274365 0.01889832 0.08942437
v -0.01274365 0.01979960 0.08844286
v -0.01078801 0.01974295 0.08838443
v -0.01078801 0.02061333 0.08723350
v -0.00687674 0.02133435 0.08593650
v -0.00687674 0.02197297 0.08494915
v -0.02646585 0.01102886 0.09583922
v -0.02451021 0.01118336 0.09581585
v -0.02646585 0.01273871 0.09499793
v -0.02646585 0.01391810 0.09423843
v -0.00687674 -0.02141722 0.08604166
v -0.00882419 -0.02147902 0.08613514
v -0.01091075 -0.02093826 0.08704654
v -0.01274365 -0.02087130 0.08728608
v -0.02059075 -0.02098976 0.08741461
v -0.02842967 -0.01621040 0.09259090
v -0.02254639 -0.01918720 0.08970479
v -0.02451021 -0.01820352 0.09075057
v -0.02646585 -0.01622070 0.09260258
v -0.02254639 -0.01820352 0.09075057
v -0.02254639 -0.01719408 0.09173208
v -0.02059075 -0.02001123 0.08871745
v -0.02842967 -0.01498466 0.09357241
v -0.02842967 -0.01400098 0.09429101
v -0.02646585 -0.01401128 0.09430270
v -0.02646585 -0.01273918 0.09510894
v -0.02451021 -0.01127654 0.09586259
v -0.02451021 -0.01029800 0.09624818
v -0.02254639 -0.00685769 0.09749845
v -0.02254639 -0.01030830 0.09627739
v -0.02059075 -0.00881990 0.09682657
v -0.02451021 -0.00532294 0.09791909
v -0.02646585 -0.00445256 0.09810604
v -0.02842967 -0.00293841 0.09826963
v -0.02646585 -0.00293841 0.09829884
v -0.02842967 -0.00097619 0.09840400
v -0.02842967 0.00097572 0.09839816
v -0.02646585 0.00097572 0.09843322
v -0.02646585 0.00293794 0.09828131
v -0.02646585 0.00435423 0.09809435
v -0.02451021 0.00522461 0.09789572
v -0.02254639 0.00685722 0.09744002
v -0.02254639 0.01022543 0.09624818
v -0.02451021 0.01020483 0.09621898
v -0.02059075 0.00881943 0.09675646
v -0.02451021 0.01390780 0.09422675
v -0.02254639 0.01487088 0.09347893
v -0.02059075 0.01610178 0.09249158
v -0.01274365 0.01683310 0.09142828
v -0.01078801 0.01785283 0.09037666
v -0.01078801 0.01883137 0.08936010
v -0.00882419 0.01967599 0.08830264
v -0.00882419 0.02048972 0.08723350
v -0.00687674 0.02022191 0.08741461
v -0.02254639 0.01120396 0.09579248
v -0.02451021 0.01273871 0.09496872
v -0.02254639 0.01388720 0.09421506
v -0.00687674 -0.02052109 0.08723350
v -0.00882419 -0.02066015 0.08723350
v -0.00882419 -0.01976402 0.08839612
v -0.01078801 -0.01983097 0.08847207
v -0.01274365 -0.01989277 0.08854218
v -0.02059075 -0.01918205 0.08969895
v -0.02451021 -0.01622070 0.09259090
v -0.02646585 -0.01499496 0.09357825
v -0.02059075 -0.01819837 0.09073888
v -0.02254639 -0.01621555 0.09257921
v -0.02059075 -0.01717863 0.09172039
v -0.02451021 -0.01497436 0.09357241
v -0.02254639 -0.01495376 0.09356072
v -0.02059075 -0.01493316 0.09354904
v -0.02451021 -0.01399583 0.09428517
v -0.02059075 -0.01394947 0.09425596
v -0.02451021 -0.01273918 0.09507388
v -0.02254639 -0.01129199 0.09583922
v -0.02059075 -0.00685769 0.09745171
v -0.02059075 -0.01025680 0.09625987
v -0.01862693 -0.01017440 0.09622482
v -0.01862693 -0.00881990 0.09675062
v -0.01862693 -0.00685769 0.09738160
v -0.02451021 -0.00433925 0.09808851
v -0.02254639 -0.00520448 0.09789572
v -0.02254639 -0.00422080 0.09807098
v -0.02646585 -0.00097619 0.09844490
v -0.02254639 -0.00293841 0.09822873
v -0.02254639 0.00097572 0.09836311
v -0.02451021 0.00424608 0.09807683
v -0.02254639 0.00293794 0.09821120
v -0.02059075 0.00401432 0.09803593
v -0.01946974 0.00394222 0.09802424
v -0.02254639 0.00510616 0.09787235
v -0.02059075 0.00685722 0.09739328
v -0.02059075 0.01016878 0.09622482
v -0.01862693 0.00881943 0.09668636
v -0.01862693 0.01009152 0.09619561
v -0.02059075 0.01483998 0.09347308
v -0.01862693 0.01478333 0.09342050
v -0.01274365 0.01584942 0.09227542
v -0.01078801 0.01577216 0.09221115
v -0.00945425 0.01571551 0.09216441
v -0.01078801 0.01675070 0.09135817
v -0.00882419 0.01777043 0.09030071
v -0.00882419 0.01875411 0.08928415
v -0.00750679 0.01962964 0.08824422
v -0.00687674 0.01886227 0.08899788
v -0.02254639 0.01273871 0.09492782
v -0.02059075 0.01115246 0.09576328
v -0.02059075 0.01273871 0.09487524
v -0.02059075 0.01386145 0.09419169
v -0.00687674 -0.01968677 0.08830264
v -0.00882419 -0.01882154 0.08937763
v -0.01078801 -0.01890394 0.08945358
v -0.01274365 -0.01897089 0.08951784
v -0.01274365 -0.01799236 0.09051688
v -0.02059075 -0.01620010 0.09256753
v -0.01862693 -0.01711168 0.09166197
v -0.01862693 -0.01613315 0.09251494
v -0.01862693 -0.01486105 0.09349061
v -0.01862693 -0.01387737 0.09420338
v -0.01862693 -0.01273918 0.09489277
v -0.02059075 -0.01273918 0.09498625
v -0.02254639 -0.01273918 0.09503299
v -0.02059075 -0.01123533 0.09581001
v -0.02059075 -0.00507058 0.09786651
v -0.01862693 -0.01115808 0.09576328
v -0.01078801 -0.01078212 0.09534262
v -0.00882419 -0.01078212 0.09519073
v -0.01274365 -0.00963878 0.09599697
v -0.01078801 -0.00943792 0.09592686
v -0.01078801 -0.00845939 0.09627739
v -0.01861056 -0.00474612 0.09786651
v -0.00687674 -0.00802678 0.09611966
v -0.00882419 -0.00685769 0.09661625
v -0.01078801 -0.00490062 0.09724138
v -0.01924881 -0.00398904 0.09803009
v -0.02059075 -0.00409205 0.09804761
v -0.02451021 -0.00097619 0.09840985
v -0.02254639 -0.00097619 0.09836895
v -0.02059075 -0.00293841 0.09818783
v -0.02059075 0.00097572 0.09832805
v -0.02059075 0.00293794 0.09817030
v -0.01874149 0.00302549 0.09810019
v -0.01816870 0.00373621 0.09799504
v -0.01874149 0.00471990 0.09783145
v -0.02059075 0.00499286 0.09784314
v -0.01862693 0.00685722 0.09731733
v -0.00882419 0.00818081 0.09617808
v -0.01078801 0.00838682 0.09625402
v -0.01078801 0.00936535 0.09589765
v -0.01862693 0.01107521 0.09572822
v -0.00882419 0.01078165 0.09513231
v -0.01078801 0.01078165 0.09528421
v -0.01862693 0.01380480 0.09415080
v -0.01078801 0.01470093 0.09298817
v -0.01274365 0.01470093 0.09311671
v -0.00881601 0.01487603 0.09271359
v -0.00815322 0.01564856 0.09211183
v -0.00687674 0.01665284 0.09112447
v -0.00687674 0.01768803 0.09021892
v -0.01862693 0.01273871 0.09480514
v -0.00687674 -0.01873913 0.08928415
v -0.00882419 -0.01784300 0.09036498
v -0.01078801 -0.01792541 0.09044677
v -0.00687674 -0.01776060 0.09027734
v -0.01274365 -0.01689022 0.09149839
v -0.01274365 -0.01591169 0.09232215
v -0.00882419 -0.01573658 0.09218194
v -0.01274365 -0.01470140 0.09320434
v -0.01078801 -0.01470140 0.09306997
v -0.01274365 -0.01355806 0.09399889
v -0.01078801 -0.01344476 0.09393463
v -0.01078801 -0.01246622 0.09449549
v -0.00882419 -0.01233232 0.09441954
v -0.00687674 -0.01219842 0.09433775
v -0.00687674 -0.01078727 0.09503299
v -0.00882419 -0.00922677 0.09585091
v -0.01794777 -0.00382424 0.09800673
v -0.00687674 -0.00901046 0.09576912
v -0.00687674 -0.00686284 0.09645267
v -0.00882419 -0.00490062 0.09708364
v -0.01861056 -0.00307746 0.09811188
v -0.02059075 -0.00097619 0.09832805
v -0.01862693 -0.00097619 0.09827547
v -0.01862693 0.00097572 0.09826378
v -0.01742409 0.00242807 0.09807098
v -0.01078801 0.00293794 0.09748676
v -0.00882419 0.00293794 0.09732317
v -0.00687674 0.00488985 0.09687916
v -0.00882419 0.00490015 0.09703690
v -0.01078801 0.00490015 0.09719464
v -0.01078801 0.00685722 0.09672141
v -0.00687674 0.00796450 0.09610213
v -0.00882419 0.00915934 0.09582169
v -0.00687674 0.01077135 0.09498040
v -0.00882419 0.01227520 0.09439033
v -0.01078801 0.01240395 0.09446044
v -0.00687674 0.01214129 0.09430854
v -0.01078801 0.01338763 0.09389373
v -0.00687674 0.01460307 0.09275449
v -0.00687674 0.01557646 0.09205924
v -0.00882419 -0.01671512 0.09134649
v -0.00687674 -0.01769365 0.09033577
v -0.00775227 -0.01569023 0.09214104
v -0.00882419 -0.01470140 0.09292391
v -0.00700766 -0.01486105 0.09267269
v -0.00882419 -0.01331600 0.09385868
v -0.00687674 -0.01318210 0.09377689
v -0.01739136 -0.00252124 0.09808267
v -0.00687674 -0.00490577 0.09692005
v -0.01078801 -0.00293841 0.09751597
v -0.01078801 -0.00097619 0.09762697
v -0.01078801 0.00097572 0.09762113
v -0.00687674 0.00097057 0.09727643
v -0.00687674 0.00293279 0.09714790
v -0.00687674 0.00685207 0.09641761
v -0.00882419 0.00685722 0.09656952
v -0.00687674 0.00893789 0.09574575
v -0.00882419 0.01325888 0.09381778
v -0.00687674 0.01311983 0.09373599
v -0.00687674 -0.01641126 0.09145165
v -0.00687674 -0.01564388 0.09210598
v -0.00687674 -0.01504646 0.09253247
v -0.00687674 -0.01484045 0.09267269
v -0.00687674 -0.00294356 0.09716543
v -0.00882419 -0.00293841 0.09734654
v -0.00687674 -0.00098649 0.09727059
f 1 2 5
f 1 5 10
f 1 10 12
f 1 12 25
f 1 25 24
f 1 24 23
f 1 23 17
f 1 17 16
f 1 16 15
f 1 15 14
f 1 14 7
f 1 7 3
f 1 3 4
f 1 4 2
f 2 4 6
f 2 6 5
f 3 7 4
f 4 7 8
f 4 8 9
f 4 9 6
f 5 6 10
f 6 11 12
f 6 12 10
f 6 9 13
f 6 13 11
f 7 14 8
f 8 14 15
f 8 15 16
f 8 16 17
f 8 17 18
f 8 18 19
f 8 19 9
f 9 19 20
f 9 20 21
f 9 21 22
f 9 22 13
f 11 23 24
f 11 24 25
f 11 25 12
f 11 13 26
f 11 26 23
f 13 22 27
f 13 27 26
f 17 23 52
f 17 52 95
f 17 95 140
f 17 140 199
f 17 199 263
f 17 263 336
f 17 336 406
f 17 406 405
f 17 405 404
f 17 404 472
f 17 472 525
f 17 525 454
f 17 454 450
f 17 450 400
f 17 400 469
f 17 469 468
f 17 468 467
f 17 467 466
f 17 466 543
f 17 543 607
f 17 607 665
f 17 665 716
f 17 716 762
f 17 762 761
f 17 761 760
f 17 760 814
f 17 814 813
f 17 813 862
f 17 862 913
f 17 913 967
f 17 967 966
f 17 966 1008
f 17 1008 1007
f 17 1007 1027
f 17 1027 1005
f 17 1005 1002
f 17 1002 1025
f 17 1025 1000
f 17 1000 1023
f 17 1023 996
f 17 996 1022
f 17 1022 1021
f 17 1021 1034
f 17 1034 1032
f 17 1032 1017
f 17 1017 987
f 17 987 940
f 17 940 986
f 17 986 983
f 17 983 982
f 17 982 1015
f 17 1015 1031
f 17 1031 1030
f 17 1030 1029
f 17 1029 1028
f 17 1028 1010
f 17 1010 972
f 17 972 969
f 17 969 918
f 17 918 866
f 17 866 819
f 17 819 771
f 17 771 724
f 17 724 674
f 17 674 671
f 17 671 615
f 17 615 561
f 17 561 496
f 17 496 495
f 17 495 494
f 17 494 493
f 17 493 492
f 17 492 426
f 17 426 491
f 17 491 560
f 17 560 556
f 17 556 483
f 17 483 414
f 17 414 413
f 17 413 349
f 17 349 276
f 17 276 211
f 17 211 149
f 17 149 101
f 17 101 55
f 17 55 28
f 17 28 29
f 17 29 30
f 17 30 31
f 17 31 32
f 17 32 33
f 17 33 34
f 17 34 35
f 17 35 36
f 17 36 37
f 17 37 38
f 17 38 18
f 18 38 19
f 19 38 20
f 20 38 39
f 20 39 40
f 20 40 21
f 21 40 41
f 21 41 22
f 22 42 27
f 22 41 43
f 22 43 42
f 23 44 45
f 23 45 46
f 23 46 47
f 23 47 48
f 23 48 49
f 23 49 50
f 23 50 51
f 23 51 52
f 23 26 53
f 23 53 44
f 26 27 53
f 27 42 54
f 27 54 53
f 28 55 56
f 28 56 57
f 28 57 29
f 29 58 30
f 29 57 58
f 30 58 31
f 31 58 59
f 31 59 32
f 32 60 61
f 32 61 33
f 32 59 62
f 32 62 63
f 32 63 64
f 32 64 65
f 32 65 66
f 32 66 67
f 32 67 60
f 33 61 34
f 34 68 35
f 34 61 69
f 34 69 70
f 34 70 68
f 35 68 37
f 35 37 36
f 37 70 69
f 37 69 71
f 37 71 72
f 37 72 73
f 37 73 38
f 37 68 70
f 38 73 72
f 38 72 74
f 38 74 75
f 38 75 76
f 38 76 39
f 39 76 77
f 39 77 40
f 40 77 78
f 40 78 41
f 41 78 43
f 42 43 79
f 42 79 80
f 42 80 54
f 43 78 79
f 44 53 45
f 45 53 81
f 45 81 46
f 46 81 82
f 46 82 83
f 46 83 47
f 47 84 49
f 47 49 48
f 47 83 82
f 47 82 84
f 49 84 85
f 49 85 50
f 50 85 86
f 50 86 87
f 50 87 88
f 50 88 89
f 50 89 90
f 50 90 51
f 51 90 91
f 51 91 92
f 51 92 93
f 51 93 52
f 52 93 94
f 52 94 95
f 53 54 96
f 53 96 97
f 53 97 98
f 53 98 99
f 53 99 100
f 53 100 81
f 54 80 96
f 55 101 56
f 56 102 57
f 56 101 102
f 57 102 103
f 57 103 58
f 58 103 62
f 58 62 59
f 60 67 61
f 61 67 69
f 62 103 104
f 62 104 105
f 62 105 106
f 62 106 107
f 62 107 63
f 63 107 64
f 64 107 108
f 64 108 109
f 64 109 65
f 65 110 111
f 65 111 66
f 65 109 110
f 66 111 112
f 66 112 113
f 66 113 67
f 67 113 114
f 67 114 71
f 67 71 69
f 71 114 72
f 72 114 115
f 72 115 116
f 72 116 117
f 72 117 74
f 74 117 75
f 75 118 119
f 75 119 120
f 75 120 121
f 75 121 122
f 75 122 76
f 75 117 118
f 76 122 77
f 77 122 123
f 77 123 78
f 78 123 124
f 78 124 125
f 78 125 79
f 79 125 126
f 79 126 80
f 80 126 127
f 80 127 96
f 81 100 99
f 81 99 128
f 81 128 82
f 82 128 129
f 82 129 84
f 84 129 85
f 85 129 86
f 86 130 87
f 86 129 131
f 86 131 132
f 86 132 130
f 87 130 88
f 88 133 134
f 88 134 135
f 88 135 136
f 88 136 90
f 88 90 89
f 88 130 132
f 88 132 133
f 90 137 91
f 90 136 137
f 91 137 138
f 91 138 139
f 91 139 93
f 91 93 92
f 93 139 94
f 94 139 140
f 94 140 95
f 96 127 97
f 97 127 141
f 97 141 142
f 97 142 143
f 97 143 144
f 97 144 145
f 97 145 98
f 98 145 99
f 99 146 147
f 99 147 128
f 99 145 148
f 99 148 146
f 101 149 150
f 101 150 102
f 102 150 103
f 103 150 104
f 104 150 105
f 105 151 152
f 105 152 108
f 105 108 107
f 105 107 106
f 105 150 153
f 105 153 151
f 108 152 154
f 108 154 155
f 108 155 156
f 108 156 109
f 109 156 157
f 109 157 158
f 109 158 110
f 110 159 160
f 110 160 161
f 110 161 111
f 110 158 157
f 110 157 159
f 111 162 163
f 111 163 164
f 111 164 165
f 111 165 166
f 111 166 112
f 111 161 162
f 112 166 115
f 112 115 114
f 112 114 113
f 115 166 167
f 115 167 168
f 115 168 116
f 116 168 169
f 116 169 117
f 117 169 118
f 118 169 170
f 118 170 119
f 119 171 172
f 119 172 120
f 119 170 171
f 120 173 174
f 120 174 121
f 120 172 175
f 120 175 173
f 121 174 122
f 122 174 123
f 123 174 176
f 123 176 124
f 124 176 125
f 125 176 177
f 125 177 126
f 126 177 178
f 126 178 127
f 127 178 141
f 128 147 129
f 129 147 179
f 129 179 131
f 131 179 180
f 131 180 181
f 131 181 132
f 132 181 182
f 132 182 183
f 132 183 133
f 133 183 134
f 134 184 185
f 134 185 186
f 134 186 187
f 134 187 135
f 134 183 188
f 134 188 189
f 134 189 190
f 134 190 184
f 135 187 191
f 135 191 192
f 135 192 193
f 135 193 194
f 135 194 195
f 135 195 136
f 136 195 196
f 136 196 137
f 137 196 138
f 138 197 262
f 138 262 198
f 138 198 139
f 138 196 197
f 139 198 140
f 140 198 199
f 141 178 200
f 141 200 201
f 141 201 142
f 142 201 202
f 142 202 203
f 142 203 204
f 142 204 205
f 142 205 206
f 142 206 143
f 143 206 144
f 144 206 205
f 144 205 207
f 144 207 208
f 144 208 148
f 144 148 145
f 146 209 180
f 146 180 179
f 146 179 147
f 146 148 208
f 146 208 210
f 146 210 209
f 149 211 212
f 149 212 153
f 149 153 150
f 151 154 152
f 151 153 213
f 151 213 154
f 153 212 211
f 153 211 214
f 153 214 215
f 153 215 213
f 154 216 155
f 154 213 217
f 154 217 216
f 155 216 218
f 155 218 219
f 155 219 156
f 156 219 157
f 157 219 220
f 157 220 221
f 157 221 160
f 157 160 159
f 160 222 162
f 160 162 161
f 160 221 222
f 162 223 224
f 162 224 163
f 162 222 223
f 163 224 164
f 164 225 226
f 164 226 227
f 164 227 228
f 164 228 166
f 164 166 165
f 164 224 225
f 166 228 229
f 166 229 167
f 167 229 230
f 167 230 168
f 168 230 231
f 168 231 171
f 168 171 169
f 169 171 170
f 171 231 232
f 171 232 233
f 171 233 172
f 172 233 175
f 173 234 176
f 173 176 174
f 173 175 234
f 175 233 235
f 175 235 202
f 175 202 176
f 175 176 234
f 176 202 236
f 176 236 177
f 177 236 200
f 177 200 178
f 180 237 181
f 180 209 237
f 181 237 209
f 181 209 238
f 181 238 239
f 181 239 182
f 182 239 240
f 182 240 189
f 182 189 183
f 183 189 188
f 184 241 242
f 184 242 243
f 184 243 185
f 184 190 241
f 185 244 186
f 185 243 245
f 185 245 246
f 185 246 247
f 185 247 248
f 185 248 249
f 185 249 244
f 186 244 250
f 186 250 251
f 186 251 187
f 187 251 191
f 189 240 190
f 190 240 252
f 190 252 253
f 190 253 254
f 190 254 255
f 190 255 256
f 190 256 243
f 190 243 257
f 190 257 258
f 190 258 242
f 190 242 241
f 191 251 259
f 191 259 192
f 192 259 260
f 192 260 261
f 192 261 197
f 192 197 193
f 193 197 194
f 194 197 196
f 194 196 195
f 197 261 262
f 198 262 263
f 198 263 199
f 200 236 202
f 200 202 201
f 202 235 264
f 202 264 204
f 202 204 203
f 204 264 265
f 204 265 266
f 204 266 267
f 204 267 268
f 204 268 269
f 204 269 270
f 204 270 205
f 205 270 271
f 205 271 207
f 207 271 272
f 207 272 208
f 208 272 210
f 209 273 238
f 209 210 274
f 209 274 275
f 209 275 273
f 210 272 274
f 211 276 214
f 213 215 217
f 214 276 215
f 215 276 277
f 215 277 278
f 215 278 279
f 215 279 217
f 216 280 281
f 216 281 218
f 216 217 280
f 217 279 282
f 217 282 283
f 217 283 284
f 217 284 280
f 218 281 285
f 218 285 220
f 218 220 219
f 220 285 286
f 220 286 287
f 220 287 288
f 220 288 289
f 220 289 290
f 220 290 291
f 220 291 292
f 220 292 293
f 220 293 221
f 221 293 294
f 221 294 222
f 222 295 223
f 222 294 296
f 222 296 293
f 222 293 295
f 223 295 297
f 223 297 224
f 224 297 225
f 225 297 298
f 225 298 299
f 225 299 226
f 226 299 300
f 226 300 301
f 226 301 302
f 226 302 227
f 227 229 228
f 227 302 303
f 227 303 232
f 227 232 229
f 229 232 230
f 230 232 231
f 232 301 233
f 232 303 301
f 233 304 235
f 233 301 305
f 233 305 306
f 233 306 304
f 235 304 307
f 235 307 308
f 235 308 264
f 238 273 239
f 239 273 309
f 239 309 240
f 240 309 252
f 242 258 243
f 243 256 245
f 243 258 257
f 244 249 310
f 244 310 311
f 244 311 312
f 244 312 250
f 245 256 246
f 246 256 313
f 246 313 314
f 246 314 315
f 246 315 247
f 247 315 316
f 247 316 248
f 248 316 315
f 248 315 249
f 249 315 317
f 249 317 318
f 249 318 310
f 250 312 319
f 250 319 251
f 251 319 259
f 252 309 320
f 252 320 321
f 252 321 253
f 253 321 322
f 253 322 323
f 253 323 254
f 254 324 255
f 254 323 324
f 255 325 326
f 255 326 256
f 255 324 327
f 255 327 328
f 255 328 325
f 256 326 329
f 256 329 330
f 256 330 313
f 259 319 260
f 260 319 331
f 260 331 332
f 260 332 261
f 261 332 333
f 261 333 334
f 261 334 335
f 261 335 336
f 261 336 262
f 262 336 263
f 264 308 265
f 265 308 337
f 265 337 338
f 265 338 339
f 265 339 266
f 266 339 340
f 266 340 341
f 266 341 267
f 267 341 340
f 267 340 342
f 267 342 343
f 267 343 268
f 268 343 344
f 268 344 345
f 268 345 269
f 269 345 270
f 270 345 346
f 270 346 347
f 270 347 272
f 270 272 271
f 272 347 274
f 273 275 346
f 273 346 348
f 273 348 320
f 273 320 309
f 274 346 275
f 274 347 346
f 276 349 277
f 277 349 278
f 278 349 350
f 278 350 351
f 278 351 352
f 278 352 353
f 278 353 279
f 279 353 282
f 280 284 281
f 281 354 285
f 281 284 283
f 281 283 355
f 281 355 354
f 282 353 356
f 282 356 355
f 282 355 283
f 285 354 357
f 285 357 286
f 286 357 358
f 286 358 359
f 286 359 288
f 286 288 287
f 288 360 361
f 288 361 362
f 288 362 289
f 288 359 363
f 288 363 360
f 289 362 290
f 290 292 291
f 290 362 361
f 290 361 292
f 292 361 364
f 292 364 293
f 293 296 294
f 293 364 365
f 293 365 366
f 293 366 367
f 293 367 368
f 293 368 369
f 293 369 370
f 293 370 295
f 295 370 371
f 295 371 297
f 297 371 298
f 298 372 299
f 298 371 372
f 299 372 373
f 299 373 374
f 299 374 305
f 299 305 300
f 300 305 301
f 301 303 302
f 304 306 375
f 304 375 376
f 304 376 377
f 304 377 378
f 304 378 307
f 305 374 306
f 306 374 375
f 307 378 379
f 307 379 308
f 308 379 337
f 310 380 381
f 310 381 382
f 310 382 311
f 310 318 315
f 310 315 380
f 311 382 383
f 311 383 312
f 312 383 331
f 312 331 319
f 313 330 384
f 313 384 385
f 313 385 314
f 314 385 386
f 314 386 315
f 315 386 380
f 315 318 317
f 320 348 344
f 320 344 342
f 320 342 321
f 321 342 340
f 321 340 322
f 322 340 387
f 322 387 323
f 323 388 327
f 323 327 324
f 323 387 388
f 325 389 390
f 325 390 391
f 325 391 326
f 325 328 389
f 326 391 392
f 326 392 329
f 327 388 328
f 328 388 393
f 328 393 394
f 328 394 395
f 328 395 389
f 329 392 330
f 330 392 396
f 330 396 397
f 330 397 398
f 330 398 399
f 330 399 400
f 330 400 401
f 330 401 384
f 331 383 402
f 331 402 332
f 332 402 333
f 333 402 403
f 333 403 404
f 333 404 405
f 333 405 406
f 333 406 334
f 334 406 336
f 334 336 335
f 337 379 407
f 337 407 408
f 337 408 409
f 337 409 338
f 338 409 410
f 338 410 411
f 338 411 387
f 338 387 412
f 338 412 339
f 339 412 340
f 340 412 387
f 342 344 343
f 344 348 346
f 344 346 345
f 349 413 350
f 350 413 414
f 350 414 351
f 351 415 352
f 351 414 415
f 352 415 356
f 352 356 353
f 354 355 416
f 354 416 357
f 355 356 417
f 355 417 418
f 355 418 416
f 356 415 417
f 357 416 419
f 357 419 358
f 358 419 363
f 358 363 359
f 360 363 420
f 360 420 365
f 360 365 364
f 360 364 361
f 363 419 421
f 363 421 420
f 365 420 422
f 365 422 423
f 365 423 424
f 365 424 425
f 365 425 426
f 365 426 427
f 365 427 428
f 365 428 366
f 366 428 429
f 366 429 430
f 366 430 431
f 366 431 432
f 366 432 367
f 367 432 433
f 367 433 368
f 368 433 434
f 368 434 369
f 369 434 435
f 369 435 371
f 369 371 370
f 371 435 372
f 372 435 436
f 372 436 373
f 373 436 437
f 373 437 374
f 374 437 375
f 375 438 376
f 375 437 438
f 376 438 439
f 376 439 377
f 377 440 378
f 377 439 440
f 378 440 441
f 378 441 379
f 379 441 442
f 379 442 443
f 379 443 407
f 380 386 444
f 380 444 445
f 380 445 446
f 380 446 381
f 381 446 382
f 382 446 447
f 382 447 448
f 382 448 449
f 382 449 383
f 383 449 402
f 384 401 450
f 384 450 451
f 384 451 452
f 384 452 453
f 384 453 386
f 384 386 385
f 386 453 454
f 386 454 444
f 387 411 388
f 388 411 455
f 388 455 456
f 388 456 393
f 389 395 390
f 390 457 458
f 390 458 459
f 390 459 391
f 390 395 457
f 391 459 396
f 391 396 392
f 393 460 394
f 393 456 461
f 393 461 460
f 394 460 462
f 394 462 463
f 394 463 395
f 395 463 457
f 396 459 397
f 397 459 464
f 397 464 398
f 398 464 465
f 398 465 466
f 398 466 467
f 398 467 468
f 398 468 399
f 399 468 469
f 399 469 470
f 399 470 400
f 400 470 469
f 400 450 401
f 402 449 448
f 402 448 471
f 402 471 403
f 403 471 404
f 404 471 448
f 404 448 472
f 407 443 473
f 407 473 474
f 407 474 475
f 407 475 476
f 407 476 477
f 407 477 478
f 407 478 479
f 407 479 408
f 408 479 480
f 408 480 481
f 408 481 482
f 408 482 409
f 409 482 455
f 409 455 411
f 409 411 410
f 414 483 484
f 414 484 485
f 414 485 415
f 415 485 417
f 416 418 419
f 417 486 418
f 417 485 487
f 417 487 486
f 418 486 419
f 419 486 421
f 420 421 422
f 421 486 488
f 421 488 489
f 421 489 490
f 421 490 423
f 421 423 422
f 423 490 491
f 423 491 424
f 424 491 425
f 425 491 426
f 426 492 427
f 427 492 428
f 428 492 493
f 428 493 494
f 428 494 429
f 429 494 495
f 429 495 496
f 429 496 497
f 429 497 498
f 429 498 499
f 429 499 500
f 429 500 430
f 430 501 431
f 430 500 501
f 431 501 502
f 431 502 503
f 431 503 504
f 431 504 432
f 432 504 433
f 433 504 505
f 433 505 506
f 433 506 507
f 433 507 434
f 434 507 508
f 434 508 435
f 435 508 509
f 435 509 436
f 436 509 438
f 436 438 437
f 438 509 439
f 439 509 510
f 439 510 511
f 439 511 512
f 439 512 513
f 439 513 440
f 440 513 512
f 440 512 514
f 440 514 515
f 440 515 516
f 440 516 517
f 440 517 518
f 440 518 519
f 440 519 520
f 440 520 521
f 440 521 441
f 441 521 522
f 441 522 442
f 442 522 523
f 442 523 524
f 442 524 443
f 443 524 473
f 444 454 525
f 444 525 526
f 444 526 527
f 444 527 446
f 444 446 445
f 446 527 472
f 446 472 448
f 446 448 447
f 450 454 451
f 451 454 452
f 452 454 453
f 455 482 481
f 455 481 456
f 456 481 461
f 457 528 529
f 457 529 530
f 457 530 458
f 457 463 528
f 458 530 531
f 458 531 532
f 458 532 465
f 458 465 464
f 458 464 459
f 460 533 462
f 460 461 534
f 460 534 533
f 461 481 534
f 462 535 536
f 462 536 537
f 462 537 463
f 462 533 535
f 463 537 528
f 465 532 538
f 465 538 539
f 465 539 540
f 465 540 541
f 465 541 542
f 465 542 466
f 466 542 543
f 472 527 526
f 472 526 525
f 473 524 544
f 473 544 474
f 474 544 545
f 474 545 475
f 475 545 546
f 475 546 476
f 476 546 547
f 476 547 548
f 476 548 549
f 476 549 550
f 476 550 477
f 477 550 549
f 477 549 551
f 477 551 552
f 477 552 553
f 477 553 478
f 478 553 479
f 479 553 554
f 479 554 480
f 480 554 481
f 481 554 555
f 481 555 534
f 483 556 557
f 483 557 484
f 484 557 487
f 484 487 485
f 486 487 558
f 486 558 488
f 487 557 558
f 488 558 489
f 489 558 559
f 489 559 490
f 490 559 560
f 490 560 491
f 496 561 562
f 496 562 497
f 497 562 563
f 497 563 498
f 498 563 564
f 498 564 499
f 499 565 500
f 499 564 565
f 500 565 566
f 500 566 567
f 500 567 501
f 501 567 502
f 502 567 568
f 502 568 569
f 502 569 570
f 502 570 505
f 502 505 503
f 503 505 571
f 503 571 504
f 504 571 505
f 505 570 506
f 506 570 569
f 506 569 507
f 507 572 573
f 507 573 508
f 507 569 572
f 508 573 510
f 508 510 509
f 510 573 511
f 511 573 574
f 511 574 575
f 511 575 514
f 511 514 512
f 514 575 576
f 514 576 577
f 514 577 578
f 514 578 516
f 514 516 515
f 516 578 577
f 516 577 579
f 516 579 580
f 516 580 517
f 517 580 579
f 517 579 581
f 517 581 582
f 517 582 583
f 517 583 518
f 518 583 519
f 519 583 584
f 519 584 585
f 519 585 520
f 520 585 586
f 520 586 587
f 520 587 521
f 521 587 522
f 522 587 588
f 522 588 523
f 523 588 589
f 523 589 524
f 524 589 590
f 524 590 544
f 528 537 529
f 529 537 530
f 530 591 592
f 530 592 593
f 530 593 594
f 530 594 595
f 530 595 596
f 530 596 597
f 530 597 531
f 530 537 536
f 530 536 535
f 530 535 598
f 530 598 591
f 531 597 599
f 531 599 538
f 531 538 532
f 533 534 600
f 533 600 535
f 534 555 554
f 534 554 601
f 534 601 602
f 534 602 600
f 535 600 603
f 535 603 598
f 538 599 539
f 539 599 540
f 540 542 541
f 540 599 604
f 540 604 605
f 540 605 663
f 540 663 606
f 540 606 542
f 542 606 543
f 543 606 608
f 543 608 607
f 544 590 609
f 544 609 545
f 545 609 610
f 545 610 547
f 545 547 546
f 547 610 611
f 547 611 612
f 547 612 549
f 547 549 548
f 549 612 613
f 549 613 614
f 549 614 552
f 549 552 551
f 552 554 553
f 552 614 602
f 552 602 601
f 552 601 554
f 556 560 559
f 556 559 557
f 557 559 558
f 561 615 616
f 561 616 563
f 561 563 562
f 563 617 619
f 563 619 564
f 563 616 618
f 563 618 617
f 564 619 620
f 564 620 565
f 565 620 621
f 565 621 622
f 565 622 566
f 566 622 623
f 566 623 567
f 567 623 624
f 567 624 568
f 568 624 625
f 568 625 569
f 569 626 627
f 569 627 628
f 569 628 572
f 569 625 626
f 572 574 573
f 572 628 574
f 574 628 629
f 574 629 575
f 575 577 576
f 575 629 630
f 575 630 577
f 577 630 631
f 577 631 632
f 577 632 579
f 579 632 633
f 579 633 634
f 579 634 582
f 579 582 581
f 582 584 583
f 582 634 635
f 582 635 636
f 582 636 584
f 584 636 637
f 584 637 585
f 585 637 586
f 586 637 638
f 586 638 639
f 586 639 588
f 586 588 587
f 588 639 640
f 588 640 641
f 588 641 589
f 589 641 642
f 589 642 590
f 590 642 643
f 590 643 609
f 591 598 644
f 591 644 592
f 592 644 645
f 592 645 646
f 592 646 647
f 592 647 648
f 592 648 649
f 592 649 593
f 593 649 650
f 593 650 594
f 594 650 648
f 594 648 651
f 594 651 652
f 594 652 596
f 594 596 595
f 596 652 653
f 596 653 654
f 596 654 655
f 596 655 656
f 596 656 597
f 597 656 655
f 597 655 654
f 597 654 657
f 597 657 658
f 597 658 599
f 598 645 644
f 598 603 645
f 599 657 604
f 599 658 657
f 600 602 659
f 600 659 603
f 602 614 613
f 602 613 660
f 602 660 659
f 603 659 645
f 604 657 605
f 605 657 661
f 605 661 662
f 605 662 663
f 606 663 608
f 607 664 665
f 607 608 666
f 607 666 664
f 608 663 666
f 609 643 610
f 610 643 667
f 610 667 611
f 611 613 612
f 611 667 668
f 611 668 669
f 611 669 613
f 613 669 670
f 613 670 660
f 615 671 616
f 616 671 618
f 617 618 672
f 617 672 673
f 617 673 619
f 618 671 674
f 618 674 672
f 619 673 675
f 619 675 676
f 619 676 620
f 620 676 621
f 621 676 677
f 621 677 623
f 621 623 622
f 623 677 678
f 623 678 679
f 623 679 680
f 623 680 681
f 623 681 682
f 623 682 624
f 624 682 683
f 624 683 684
f 624 684 685
f 624 685 686
f 624 686 625
f 625 686 687
f 625 687 626
f 626 687 627
f 627 688 628
f 627 687 688
f 628 688 629
f 629 631 630
f 629 688 689
f 629 689 631
f 631 689 690
f 631 690 632
f 632 690 691
f 632 691 692
f 632 692 693
f 632 693 633
f 633 693 634
f 634 693 635
f 635 693 694
f 635 694 695
f 635 695 696
f 635 696 636
f 636 696 638
f 636 638 637
f 638 696 697
f 638 697 639
f 639 697 698
f 639 698 640
f 640 698 641
f 641 698 699
f 641 699 642
f 642 699 700
f 642 700 643
f 643 700 701
f 643 701 702
f 643 702 667
f 645 703 704
f 645 704 646
f 645 659 670
f 645 670 703
f 646 704 705
f 646 705 706
f 646 706 707
f 646 707 708
f 646 708 647
f 647 708 648
f 648 708 709
f 648 709 651
f 648 650 649
f 651 709 710
f 651 710 711
f 651 711 652
f 652 711 653
f 653 711 712
f 653 712 713
f 653 713 714
f 653 714 654
f 654 714 661
f 654 661 657
f 659 660 670
f 661 714 662
f 662 715 663
f 662 714 715
f 663 715 666
f 664 716 665
f 664 666 716
f 666 715 717
f 666 717 716
f 667 702 718
f 667 718 719
f 667 719 668
f 668 670 669
f 668 719 670
f 670 719 720
f 670 720 721
f 670 721 703
f 672 722 673
f 672 674 722
f 673 722 723
f 673 723 675
f 674 724 725
f 674 725 722
f 675 723 676
f 676 723 678
f 676 678 677
f 678 726 679
f 678 723 726
f 679 726 680
f 680 726 727
f 680 727 681
f 681 728 683
f 681 683 682
f 681 727 728
f 683 729 730
f 683 730 684
f 683 728 731
f 683 731 732
f 683 732 733
f 683 733 729
f 684 730 734
f 684 734 685
f 685 734 686
f 686 734 688
f 686 688 687
f 688 734 689
f 689 734 690
f 690 734 730
f 690 730 735
f 690 735 691
f 691 735 692
f 692 735 693
f 693 735 694
f 694 735 736
f 694 736 695
f 695 736 737
f 695 737 696
f 696 738 697
f 696 737 739
f 696 739 740
f 696 740 741
f 696 741 738
f 697 738 742
f 697 742 743
f 697 743 698
f 698 743 699
f 699 743 744
f 699 744 700
f 700 744 745
f 700 745 746
f 700 746 701
f 701 747 702
f 701 746 748
f 701 748 747
f 702 747 718
f 703 721 704
f 704 721 749
f 704 749 750
f 704 750 705
f 705 750 751
f 705 751 752
f 705 752 706
f 706 752 707
f 707 709 708
f 707 752 753
f 707 753 754
f 707 754 755
f 707 755 756
f 707 756 709
f 709 756 710
f 710 712 711
f 710 756 757
f 710 757 758
f 710 758 712
f 712 758 713
f 713 759 717
f 713 717 715
f 713 715 714
f 713 758 760
f 713 760 761
f 713 761 762
f 713 762 759
f 716 717 762
f 717 759 762
f 718 747 763
f 718 763 764
f 718 764 765
f 718 765 719
f 719 765 764
f 719 764 766
f 719 766 720
f 720 766 767
f 720 767 768
f 720 768 769
f 720 769 749
f 720 749 721
f 722 725 770
f 722 770 723
f 723 770 726
f 724 771 725
f 725 772 773
f 725 773 774
f 725 774 770
f 725 771 772
f 726 770 727
f 727 770 774
f 727 774 775
f 727 775 728
f 728 732 731
f 728 775 732
f 729 776 730
f 729 733 777
f 729 777 778
f 729 778 779
f 729 779 776
f 730 776 780
f 730 780 735
f 732 777 733
f 732 775 781
f 732 781 777
f 735 780 782
f 735 782 783
f 735 783 736
f 736 739 737
f 736 783 784
f 736 784 739
f 738 741 742
f 739 784 740
f 740 784 785
f 740 785 786
f 740 786 741
f 741 786 787
f 741 787 788
f 741 788 789
f 741 789 790
f 741 790 791
f 741 791 742
f 742 791 792
f 742 792 743
f 743 793 744
f 743 792 794
f 743 794 795
f 743 795 793
f 744 793 795
f 744 795 796
f 744 796 746
f 744 746 745
f 746 796 797
f 746 797 798
f 746 798 748
f 747 748 799
f 747 799 763
f 748 798 800
f 748 800 801
f 748 801 802
f 748 802 799
f 749 769 750
f 750 769 803
f 750 803 804
f 750 804 805
f 750 805 806
f 750 806 751
f 751 806 753
f 751 753 752
f 753 806 807
f 753 807 754
f 754 807 808
f 754 808 809
f 754 809 755
f 755 809 810
f 755 810 756
f 756 810 757
f 757 810 811
f 757 811 812
f 757 812 813
f 757 813 758
f 758 813 814
f 758 814 760
f 763 799 802
f 763 802 767
f 763 767 766
f 763 766 764
f 767 802 815
f 767 815 816
f 767 816 817
f 767 817 818
f 767 818 768
f 768 818 769
f 769 818 803
f 771 819 820
f 771 820 772
f 772 820 821
f 772 821 822
f 772 822 773
f 773 822 823
f 773 823 774
f 774 823 775
f 775 823 781
f 776 824 780
f 776 779 824
f 777 781 825
f 777 825 778
f 778 825 826
f 778 826 779
f 779 827 824
f 779 826 828
f 779 828 829
f 779 829 827
f 780 824 782
f 781 823 830
f 781 830 825
f 782 824 831
f 782 831 783
f 783 831 832
f 783 832 785
f 783 785 784
f 785 832 833
f 785 833 834
f 785 834 835
f 785 835 787
f 785 787 786
f 787 835 836
f 787 836 788
f 788 837 789
f 788 836 838
f 788 838 839
f 788 839 837
f 789 840 841
f 789 841 790
f 789 837 840
f 790 842 791
f 790 841 843
f 790 843 842
f 791 842 792
f 792 842 844
f 792 844 794
f 794 844 845
f 794 845 795
f 795 845 796
f 796 845 797
f 797 845 846
f 797 846 847
f 797 847 798
f 798 847 848
f 798 848 800
f 800 848 849
f 800 849 850
f 800 850 801
f 801 851 852
f 801 852 802
f 801 850 853
f 801 853 851
f 802 852 815
f 803 818 804
f 804 818 854
f 804 854 855
f 804 855 856
f 804 856 805
f 805 856 807
f 805 807 806
f 807 856 857
f 807 857 808
f 808 857 858
f 808 858 859
f 808 859 809
f 809 859 811
f 809 811 810
f 811 859 860
f 811 860 861
f 811 861 812
f 812 861 813
f 813 861 862
f 815 852 816
f 816 852 851
f 816 851 863
f 816 863 817
f 817 863 864
f 817 864 865
f 817 865 854
f 817 854 818
f 819 866 867
f 819 867 820
f 820 867 821
f 821 867 868
f 821 868 822
f 822 869 870
f 822 870 830
f 822 830 823
f 822 868 869
f 824 827 831
f 825 828 826
f 825 830 871
f 825 871 828
f 827 872 873
f 827 873 831
f 827 829 872
f 828 871 874
f 828 874 829
f 829 875 872
f 829 874 876
f 829 876 923
f 829 923 875
f 830 870 871
f 831 873 833
f 831 833 832
f 833 873 877
f 833 877 878
f 833 878 879
f 833 879 880
f 833 880 834
f 834 880 881
f 834 881 882
f 834 882 883
f 834 883 835
f 835 883 838
f 835 838 836
f 837 839 884
f 837 884 840
f 838 883 885
f 838 885 839
f 839 885 886
f 839 886 887
f 839 887 888
f 839 888 884
f 840 889 841
f 840 884 890
f 840 890 891
f 840 891 889
f 841 889 843
f 842 843 892
f 842 892 844
f 843 889 891
f 843 891 893
f 843 893 892
f 844 892 845
f 845 892 846
f 846 892 894
f 846 894 896
f 846 896 847
f 847 895 848
f 847 896 895
f 848 895 849
f 849 895 897
f 849 897 898
f 849 898 899
f 849 899 900
f 849 900 850
f 850 900 853
f 851 853 901
f 851 901 863
f 853 900 902
f 853 902 903
f 853 903 901
f 854 865 855
f 855 865 904
f 855 904 856
f 856 904 905
f 856 905 906
f 856 906 857
f 857 906 907
f 857 907 908
f 857 908 909
f 857 909 858
f 858 909 910
f 858 910 911
f 858 911 859
f 859 911 860
f 860 911 912
f 860 912 862
f 860 862 861
f 862 912 913
f 863 914 864
f 863 901 915
f 863 915 916
f 863 916 914
f 864 914 917
f 864 917 865
f 865 917 904
f 866 918 868
f 866 868 867
f 868 918 919
f 868 919 920
f 868 920 869
f 869 920 870
f 870 921 871
f 870 920 921
f 871 921 874
f 872 875 873
f 873 875 877
f 874 921 922
f 874 922 876
f 875 923 877
f 876 924 925
f 876 925 923
f 876 922 924
f 877 923 878
f 878 923 879
f 879 923 925
f 879 925 926
f 879 926 927
f 879 927 881
f 879 881 880
f 881 927 928
f 881 928 929
f 881 929 930
f 881 930 882
f 882 930 883
f 883 930 929
f 883 929 931
f 883 931 885
f 884 888 932
f 884 932 890
f 885 931 886
f 886 931 933
f 886 933 934
f 886 934 935
f 886 935 936
f 886 936 887
f 887 936 937
f 887 937 938
f 887 938 888
f 888 939 932
f 888 938 940
f 888 940 941
f 888 941 942
f 888 942 939
f 890 932 943
f 890 943 944
f 890 944 891
f 891 944 893
f 892 893 945
f 892 945 948
f 892 948 894
f 893 946 945
f 893 944 947
f 893 947 990
f 893 990 946
f 894 948 896
f 895 896 897
f 896 948 949
f 896 949 898
f 896 898 897
f 898 950 951
f 898 951 952
f 898 952 953
f 898 953 899
f 898 949 950
f 899 953 900
f 900 953 954
f 900 954 902
f 901 903 915
f 902 954 955
f 902 955 956
f 902 956 957
f 902 957 903
f 903 958 915
f 903 957 959
f 903 959 960
f 903 960 958
f 904 917 961
f 904 961 905
f 905 961 906
f 906 961 907
f 907 962 908
f 907 961 963
f 907 963 962
f 908 962 964
f 908 964 965
f 908 965 966
f 908 966 967
f 908 967 909
f 909 967 910
f 910 967 911
f 911 967 913
f 911 913 912
f 914 916 917
f 915 958 968
f 915 968 916
f 916 968 917
f 917 968 961
f 918 969 919
f 919 970 971
f 919 971 920
f 919 969 972
f 919 972 970
f 920 971 922
f 920 922 921
f 922 973 924
f 922 971 973
f 924 973 925
f 925 973 974
f 925 974 926
f 926 974 975
f 926 975 976
f 926 976 927
f 927 976 977
f 927 977 978
f 927 978 928
f 928 933 929
f 928 978 979
f 928 979 980
f 928 980 933
f 929 933 931
f 932 939 943
f 933 980 981
f 933 981 982
f 933 982 935
f 933 935 934
f 935 982 983
f 935 983 936
f 936 983 937
f 937 983 984
f 937 984 938
f 938 984 940
f 939 942 985
f 939 985 943
f 940 984 986
f 940 987 941
f 941 987 1017
f 941 1017 988
f 941 988 942
f 942 988 985
f 943 947 944
f 943 985 989
f 943 989 947
f 945 946 948
f 946 990 948
f 947 989 991
f 947 991 990
f 948 990 991
f 948 991 992
f 948 992 949
f 949 992 950
f 950 992 993
f 950 993 951
f 951 993 994
f 951 994 995
f 951 995 996
f 951 996 997
f 951 997 998
f 951 998 952
f 952 998 954
f 952 954 953
f 954 998 999
f 954 999 1000
f 954 1000 955
f 955 1000 1001
f 955 1001 957
f 955 957 956
f 957 1001 1002
f 957 1002 959
f 958 960 1003
f 958 1003 1004
f 958 1004 968
f 959 1002 1005
f 959 1005 960
f 960 1005 1003
f 961 968 1006
f 961 1006 962
f 961 962 963
f 962 1006 1007
f 962 1007 964
f 964 1007 965
f 965 1007 1008
f 965 1008 966
f 968 1004 1006
f 970 1009 971
f 970 972 1010
f 970 1010 1009
f 971 1009 973
f 973 1009 1011
f 973 1011 975
f 973 975 974
f 975 1011 977
f 975 977 976
f 977 979 978
f 977 1011 1012
f 977 1012 979
f 979 1012 1013
f 979 1013 1014
f 979 1014 980
f 980 1014 981
f 981 1014 1015
f 981 1015 982
f 983 986 984
f 985 1016 989
f 985 988 1017
f 985 1017 1018
f 985 1018 1016
f 989 1016 991
f 991 1016 1018
f 991 1018 1019
f 991 1019 1020
f 991 1020 992
f 992 1020 993
f 993 1020 994
f 994 1020 995
f 995 1021 1022
f 995 1022 996
f 995 1020 1021
f 996 1023 997
f 997 1023 998
f 998 1023 1024
f 998 1024 999
f 999 1024 1000
f 1000 1025 1001
f 1000 1024 1023
f 1001 1025 1002
f 1003 1005 1026
f 1003 1026 1006
f 1003 1006 1004
f 1005 1027 1026
f 1006 1026 1007
f 1007 1026 1027
f 1009 1010 1028
f 1009 1028 1011
f 1011 1028 1029
f 1011 1029 1030
f 1011 1030 1012
f 1012 1030 1013
f 1013 1030 1031
f 1013 1031 1015
f 1013 1015 1014
f 1017 1032 1033
f 1017 1033 1018
f 1018 1033 1019
f 1019 1033 1034
f 1019 1034 1021
f 1019 1021 1020
f 1032 1034 1033

