# https://github.com/mikedh/trimesh
v -0.01861502 0.03172261 -0.08919604
v -0.01861502 0.03168534 -0.09115648
v -0.02057816 0.03159218 -0.08919604
v -0.02057816 0.03160460 -0.08723560
v -0.01861502 0.03171639 -0.08723560
v -0.00489208 0.03169776 -0.07743834
v 0.00490457 0.03170397 -0.07743834
v 0.00883085 0.03170397 -0.07743834
v 0.04410069 0.03169776 -0.07743834
v 0.04410069 0.03169776 -0.08135922
v 0.05782362 0.03167292 -0.08527763
v 0.05978676 0.03163565 -0.08723560
v -0.01469826 0.03151765 -0.09311692
v -0.01469826 0.03141207 -0.09440988
v -0.01589902 0.03141207 -0.09427638
v -0.01861502 0.03150523 -0.09249393
v -0.02005402 0.03145554 -0.09227391
v -0.02065440 0.03150523 -0.09109962
v 0.06174991 0.03157976 -0.08919604
v 0.06180708 0.03146175 -0.09129740
v 0.06119718 0.03138722 -0.09234313
v -0.02159785 0.03138722 -0.09040741
v -0.02164550 0.03141207 -0.08919604
v -0.02167409 0.03143070 -0.08723560
v -0.02163597 0.03140586 -0.08527763
v -0.02057816 0.03157355 -0.08527763
v -0.01861502 0.03168534 -0.08331720
v -0.00881837 0.03166671 -0.07547790
v 0.04999011 0.03169155 -0.07743834
v -0.01060997 0.03161702 -0.07368557
v 0.05390687 0.03168534 -0.07939879
v 0.05978676 0.03166671 -0.08527763
v 0.06174991 0.03161702 -0.08723560
v -0.01262076 0.03128785 -0.09502545
v -0.01469826 0.03112017 -0.09539133
v 0.05782362 0.03105185 -0.09507736
v -0.02136913 0.03130648 -0.09171519
v -0.01469826 0.03013887 -0.09667439
v 0.06298878 0.03146796 -0.08919604
v 0.06290301 0.03143691 -0.09073868
v 0.06250276 0.03134375 -0.09204647
v -0.02229352 0.03054878 -0.09109962
v -0.02279860 0.03020719 -0.08922571
v -0.02265565 0.03044320 -0.08723560
v -0.02158832 0.03138101 -0.08417504
v -0.02277954 0.03021340 -0.08525786
v -0.02001590 0.03149281 -0.08135922
v -0.01861502 0.03164808 -0.08135922
v -0.02063534 0.03149902 -0.08344080
v -0.01666140 0.03165429 -0.07939879
v -0.01273512 0.03164187 -0.07547790
v -0.01078151 0.03165429 -0.07547790
v -0.01078151 0.03161702 -0.07368557
v 0.04999011 0.03151765 -0.07610337
v 0.05194373 0.03165429 -0.07743834
v 0.05782362 0.03167292 -0.07939879
v 0.05587001 0.03167913 -0.07939879
v -0.00864683 0.03161081 -0.07368557
v 0.06174991 0.03164808 -0.08527763
v 0.05978676 0.03166050 -0.08135922
v 0.05587001 0.03016992 -0.09701308
v -0.01273512 0.03029414 -0.09692161
v 0.05978676 0.03079721 -0.09507736
v 0.05782362 0.03016992 -0.09697600
v -0.02009214 0.02566095 -0.09820220
v -0.02139772 0.02516409 -0.09791543
v -0.02359911 0.02556157 -0.09615276
v -0.02211246 0.03000223 -0.09257057
v 0.06309361 0.03149902 -0.08527763
v 0.06406565 0.03102079 -0.08527763
v 0.06401800 0.03098974 -0.08723560
v 0.06397035 0.03092763 -0.08919604
v 0.06361775 0.03089658 -0.09129740
v 0.06483757 0.02959854 -0.09244696
v 0.06277913 0.02943706 -0.09611321
v -0.02343710 0.02911410 -0.09115648
v -0.02350381 0.02935011 -0.08989567
v -0.02354193 0.02943706 -0.08859036
v -0.02355146 0.02946190 -0.08723560
v -0.02354193 0.02944948 -0.08589568
v -0.02132148 0.03126922 -0.08286726
v -0.01973953 0.03143070 -0.08004155
v -0.02349428 0.02928800 -0.08458790
v -0.02219823 0.03052394 -0.08344080
v -0.01865313 0.03151765 -0.07939137
v -0.01666140 0.03159839 -0.07743834
v -0.01469826 0.03161702 -0.07547790
v -0.01273512 0.03159218 -0.07368557
v 0.04802697 0.03097111 -0.07368557
v 0.05194373 0.03149281 -0.07620720
v 0.05390687 0.03159839 -0.07743834
v 0.05782362 0.03151765 -0.07794267
v 0.05943416 0.03146175 -0.07819730
v 0.05996783 0.03154249 -0.07922079
v 0.06174991 0.03157976 -0.08135922
v 0.06174991 0.03164187 -0.08331720
v 0.05587001 0.02921348 -0.09799454
v -0.01273512 0.02842471 -0.09786104
v 0.05978676 0.02990907 -0.09663731
v 0.05782362 0.02904579 -0.09795745
v -0.01861502 0.02449954 -0.09870900
v -0.02068298 0.02450575 -0.09836784
v -0.02166455 0.02385984 -0.09808601
v -0.02240788 0.02450575 -0.09736413
v -0.02374205 0.02449954 -0.09630109
v -0.02454256 0.02254317 -0.09507736
v -0.02412325 0.02449954 -0.09507736
v 0.06305549 0.03149281 -0.08331720
v 0.06403706 0.03095869 -0.08331720
v 0.06518064 0.03004571 -0.08527763
v 0.06516158 0.03000845 -0.08723560
v 0.06510440 0.02994634 -0.08919604
v 0.06499957 0.02980970 -0.09115648
v 0.06561901 0.02842471 -0.09115648
v 0.06508535 0.02841229 -0.09310703
v 0.06483757 0.02775396 -0.09445437
v 0.06456120 0.02713289 -0.09575968
v 0.06316032 0.02842471 -0.09650876
v 0.06297926 0.02579758 -0.09811814
v 0.06174991 0.02842471 -0.09709714
v -0.02437102 0.02449954 -0.09311692
v -0.02368488 0.02813281 -0.09115648
v -0.02498093 0.02254317 -0.09115648
v -0.02510482 0.02254317 -0.08919604
v -0.02509529 0.02254317 -0.08723560
v -0.02099747 0.03094626 -0.08135922
v -0.01932975 0.03126301 -0.07873377
v -0.02195045 0.02996497 -0.08135922
v -0.01770968 0.03139344 -0.07634317
v -0.01797652 0.03145554 -0.07743834
v -0.02361817 0.02798375 -0.08397727
v -0.02329415 0.02854893 -0.08332214
v -0.02167409 0.02959233 -0.08015527
v -0.02549554 0.01966761 -0.08621212
v -0.01657564 0.03147417 -0.07560399
v -0.01466014 0.03149902 -0.07368557
v 0.04823663 0.03096490 -0.07368557
v 0.04999011 0.03089658 -0.07368557
v 0.05390687 0.03143691 -0.07634317
v 0.05506951 0.03138722 -0.07642228
v 0.05212480 0.03064815 -0.07368557
v 0.06073975 0.03135617 -0.07844699
v 0.06174991 0.03144312 -0.07988827
v 0.06275054 0.03137480 -0.08034810
v 0.06289349 0.03143070 -0.08135922
v 0.06174991 0.02449954 -0.09847167
v 0.05587001 0.02823839 -0.09809837
v -0.01861502 0.02254317 -0.09891913
v 0.06174991 0.02700867 -0.09789071
v -0.02057816 0.02254317 -0.09868922
v -0.02181703 0.02254317 -0.09818242
v -0.02279860 0.02254317 -0.09747538
v -0.02394218 0.02254317 -0.09649392
v -0.02480939 0.02058058 -0.09507736
v -0.02480939 0.02254317 -0.09311692
v 0.06492333 0.02974760 -0.08172511
v 0.06510440 0.02997739 -0.08331720
v 0.06604786 0.02842471 -0.08527763
v 0.06600973 0.02842471 -0.08723560
v 0.06586679 0.02842471 -0.08919604
v 0.06645763 0.02641244 -0.08924302
v 0.06614315 0.02646213 -0.09115648
v 0.06567619 0.02646213 -0.09311692
v 0.06569525 0.02449954 -0.09507736
v 0.06505675 0.02647455 -0.09509467
v 0.06483757 0.02582864 -0.09636043
v 0.06377023 0.02646834 -0.09713422
v 0.06434202 0.02449954 -0.09772507
v 0.06461838 0.02330709 -0.09797723
v 0.06336044 0.02449954 -0.09825412
v -0.02531447 0.02039426 -0.09097601
v -0.02538118 0.02088491 -0.08919604
v -0.02538118 0.02092838 -0.08723560
v -0.02054004 0.03042457 -0.07944575
v -0.01996825 0.02989044 -0.07743834
v -0.01895809 0.03087174 -0.07743834
v -0.01847207 0.03030035 -0.07570040
v -0.01717601 0.03110153 -0.07503786
v -0.01587043 0.03143070 -0.07421462
v -0.02352287 0.02549947 -0.08233079
v -0.02340851 0.02680372 -0.08267195
v -0.02519059 0.02042531 -0.08544822
v -0.02534306 0.01861800 -0.08489197
v -0.02543836 0.01736343 -0.08448159
v -0.02554319 0.01605918 -0.08410829
v -0.02579096 0.01281098 -0.08319606
v -0.02557178 0.01220854 -0.08212313
v -0.02254130 0.02842471 -0.08135922
v -0.02182656 0.02842471 -0.07983636
v -0.02133101 0.02842471 -0.07885738
v -0.01965376 0.02949917 -0.07636295
v -0.02635322 0.01469903 -0.08723560
v -0.02663912 0.01273645 -0.08723560
v -0.02636275 0.01273645 -0.08527763
v -0.02605780 0.01469903 -0.08527763
v -0.01491745 0.03147417 -0.07368557
v 0.05018071 0.03088416 -0.07368557
v 0.05194373 0.03067299 -0.07368557
v 0.05404982 0.03014508 -0.07368557
v 0.05526011 0.02965444 -0.07368557
v 0.05615591 0.02910168 -0.07368557
v 0.05758538 0.02805207 -0.07368557
v 0.05846212 0.02732542 -0.07368557
v 0.06280772 0.02951159 -0.07835058
v 0.06174991 0.03095248 -0.07890929
v 0.06316985 0.03025688 -0.07957678
v 0.06466603 0.02935011 -0.08041980
v 0.06174991 0.02254317 -0.09863483
v -0.01861502 0.00881749 -0.09893892
v -0.02057816 0.00489853 -0.09892408
v -0.02057816 0.00686111 -0.09891913
v -0.02057816 0.00881749 -0.09891171
v -0.02057816 0.01078007 -0.09889688
v -0.02057816 0.01469903 -0.09885485
v -0.02057816 0.01666162 -0.09883014
v -0.02057816 0.02058058 -0.09877575
v 0.06174991 0.02058058 -0.09864967
v 0.06371305 0.01078007 -0.09871395
v -0.02195045 0.02058058 -0.09825906
v -0.02292249 0.02058058 -0.09759652
v -0.02408513 0.02058058 -0.09661753
v -0.02507623 0.02058058 -0.09311692
v -0.02535259 0.01273645 -0.09561630
v -0.02499046 0.01861800 -0.09507736
v -0.02553366 0.01428292 -0.09437279
v -0.02547648 0.01558717 -0.09403904
v -0.02671536 0.01078007 -0.08919604
v -0.02651523 0.01273645 -0.08919604
v -0.02626745 0.01469903 -0.08919604
v 0.06519970 0.02858619 -0.08118617
v 0.06585726 0.02842471 -0.08331720
v 0.06653387 0.02692793 -0.08527763
v 0.06652434 0.02694035 -0.08723560
v 0.06671494 0.02572926 -0.08862002
v 0.06620986 0.02254317 -0.09507736
v 0.06661011 0.02528830 -0.08992533
v 0.06651481 0.02458028 -0.09126526
v 0.06653387 0.02266117 -0.09326526
v 0.06507581 0.02449954 -0.09674361
v 0.06476133 0.02200284 -0.09807365
v 0.06386552 0.02261149 -0.09831592
v 0.06525688 0.02261149 -0.09721086
v 0.06675306 0.01821430 -0.09627142
v 0.06688648 0.01666162 -0.09652112
v 0.06636234 0.01469903 -0.09776215
v 0.06652434 0.01312772 -0.09792779
v 0.06371305 0.02058058 -0.09849144
v -0.02599109 0.01666162 -0.08919604
v -0.02571473 0.01861800 -0.08919604
v -0.01792887 0.02979728 -0.07409348
v -0.01706165 0.03028793 -0.07368557
v -0.01671858 0.03058604 -0.07368557
v -0.01645175 0.03075373 -0.07368557
v -0.02346569 0.02125134 -0.08050385
v -0.02336086 0.02254317 -0.08076590
v -0.02318933 0.02449954 -0.08115898
v -0.02304638 0.02627581 -0.08154958
v -0.02662006 0.01078007 -0.08527763
v -0.02605780 0.01078007 -0.08331720
v -0.02561943 0.01078007 -0.08199705
v -0.02520964 0.01078007 -0.08101807
v -0.02372300 0.01273645 -0.07799459
v -0.02433290 0.01273645 -0.07939879
v -0.02361817 0.01424565 -0.07819730
v -0.02368488 0.01861800 -0.08001188
v -0.02195998 0.02641865 -0.07929248
v -0.02148349 0.02704594 -0.07857061
v -0.02055910 0.02842471 -0.07743834
v -0.01980624 0.02842471 -0.07612808
v -0.01917727 0.02842471 -0.07514910
v -0.01817664 0.02842471 -0.07368557
v -0.02687736 0.01078007 -0.08723560
v 0.05962476 0.02624475 -0.07368557
v 0.06052056 0.02538768 -0.07368557
v 0.06146401 0.02431943 -0.07368557
v 0.06235982 0.02326361 -0.07368557
v 0.06308408 0.02210842 -0.07368557
v 0.06377023 0.02074206 -0.07368557
v 0.06384646 0.02058058 -0.07368557
v 0.06448496 0.01879811 -0.07368557
v 0.06371305 0.01861800 -0.09857797
v 0.06371305 0.01666162 -0.09863483
v 0.06371305 0.01469903 -0.09867191
v 0.06371305 0.01273645 -0.09869911
v -0.01861502 -0.00882094 -0.09893892
v -0.02057816 -0.00097681 -0.09893150
v 0.06371305 0.00686111 -0.09871889
v 0.06371305 -0.00685836 -0.09872137
v -0.02231258 0.00097957 -0.09839256
v -0.02228399 0.00489853 -0.09838514
v -0.02226493 0.00686111 -0.09838020
v -0.02224587 0.00881749 -0.09837526
v -0.02220775 0.01078007 -0.09836290
v -0.02210293 0.01469903 -0.09832581
v -0.02205528 0.01666162 -0.09830356
v -0.02200763 0.01861800 -0.09828131
v 0.06566666 0.00293594 -0.09861506
v 0.06566666 0.00097957 -0.09862742
v -0.02317980 0.01078007 -0.09780912
v -0.02313215 0.01273645 -0.09777451
v -0.02308450 0.01469903 -0.09773743
v -0.02303685 0.01666162 -0.09769788
v -0.02297967 0.01861800 -0.09765090
v -0.02424713 0.01666162 -0.09671889
v -0.02547648 0.00766851 -0.09604151
v -0.02544789 0.00881749 -0.09596982
v -0.02540024 0.01078007 -0.09582396
v -0.02566708 0.01078007 -0.09484250
v -0.02559084 0.01273645 -0.09463485
v -0.02532401 0.01484188 -0.09504770
v -0.02516200 0.01666162 -0.09507736
v -0.02602921 0.01078007 -0.09311692
v -0.02638181 0.01078007 -0.09115648
v -0.02685830 0.00881749 -0.08919604
v -0.02702984 0.00881749 -0.08723560
v 0.06502816 0.01669888 -0.07368557
v 0.06580008 0.02646213 -0.08135922
v 0.06641952 0.02640623 -0.08336169
v 0.06669588 0.02571684 -0.08404402
v 0.06675306 0.02594664 -0.08527763
v 0.06676259 0.02595906 -0.08723560
v 0.06707708 0.02449954 -0.08723560
v 0.06748685 0.02254317 -0.08723560
v 0.06767745 0.02058058 -0.08919604
v 0.06728673 0.02254317 -0.08919604
v 0.06686742 0.02458028 -0.08924302
v 0.06662917 0.02148113 -0.09401680
v 0.06676259 0.02017688 -0.09467687
v 0.06663870 0.01951855 -0.09598465
v 0.06674353 0.02397784 -0.09068430
v 0.06690554 0.02266117 -0.09126526
v 0.06692460 0.02072964 -0.09326526
v 0.06487568 0.02058058 -0.09814781
v 0.06665776 0.01182347 -0.09802421
v 0.06503769 0.01861800 -0.09823187
v 0.06764887 0.01469903 -0.09507736
v 0.06794428 0.01273645 -0.09507736
v 0.06704848 0.01469903 -0.09678317
v 0.06519970 0.01666162 -0.09829120
v 0.06538076 0.01469903 -0.09833323
v -0.02313215 0.02059300 -0.07951992
v -0.02273190 0.02254317 -0.07939879
v -0.02236976 0.02449954 -0.07939879
v -0.02671536 0.00881749 -0.08527763
v -0.02672489 -0.00882094 -0.08527763
v -0.02605780 -0.01077732 -0.08331720
v -0.02560990 -0.01077732 -0.08200199
v -0.02521918 -0.01077732 -0.08102054
v -0.02450444 -0.01077732 -0.07939879
v -0.02448538 0.01078007 -0.07939879
v -0.02325603 0.01273645 -0.07701560
v -0.02317980 0.01482325 -0.07750015
v -0.02173126 0.02449954 -0.07810089
v -0.02119759 0.02449954 -0.07712190
v -0.02106418 0.02641865 -0.07757679
v -0.01940599 0.02646213 -0.07479805
v -0.02001590 0.02646213 -0.07577951
v -0.01860548 0.02658013 -0.07368557
v 0.06566666 0.01078007 -0.09842964
v 0.06566666 0.00881749 -0.09850380
v 0.06566666 0.00686111 -0.09856066
v 0.06566666 0.00489853 -0.09859281
v -0.01861502 -0.02058403 -0.09893150
v 0.06371305 -0.00882094 -0.09872137
v -0.02057816 -0.00489577 -0.09892902
v -0.02231258 -0.00097681 -0.09839256
v -0.02328462 0.00097957 -0.09788576
v -0.02327509 0.00293594 -0.09787835
v -0.02326556 0.00489853 -0.09786845
v -0.02324651 0.00686111 -0.09785610
v -0.02321792 0.00881749 -0.09783632
v 0.06699131 0.00293594 -0.09824176
v 0.06701037 0.00097957 -0.09825412
v 0.06566666 -0.00097681 -0.09862742
v -0.02446632 0.00881749 -0.09685733
v -0.02441867 0.01078007 -0.09683014
v -0.02437102 0.01273645 -0.09679306
v -0.02431384 0.01469903 -0.09675844
v -0.02549554 0.00636426 -0.09607612
v -0.02581955 0.00489853 -0.09507736
v -0.02571473 0.00695427 -0.09526525
v -0.02572426 0.00881749 -0.09499084
v -0.02623887 0.00686111 -0.09311692
v -0.02614357 0.00881749 -0.09311692
v -0.02662959 0.00686111 -0.09115648
v -0.02651523 0.00881749 -0.09115648
v -0.02696313 0.00686111 -0.08919604
v -0.02710608 0.00686111 -0.08723560
v 0.06541889 0.01489157 -0.07368557
v 0.06667682 0.02368594 -0.08227393
v 0.06657199 0.02499640 -0.08273623
v 0.06858278 0.01553748 -0.08450631
v 0.06777275 0.02058058 -0.08527763
v 0.06741062 0.02254317 -0.08527763
v 0.06703895 0.02449954 -0.08527763
v 0.06786805 0.02058058 -0.08723560
v 0.06733438 0.02058058 -0.09115648
v 0.06864949 0.01589770 -0.08842472
v 0.06803959 0.01861800 -0.08919604
v 0.06734391 0.01861800 -0.09311692
v 0.06769651 0.01666162 -0.09311692
v 0.06732485 0.01666162 -0.09507736
v 0.06670541 0.01078007 -0.09806623
v 0.06709613 0.01258118 -0.09717872
v 0.06739156 0.01078007 -0.09703780
v 0.06760121 0.00881749 -0.09703780
v 0.06777275 0.00686111 -0.09703780
v 0.06802053 0.01469903 -0.09311692
v 0.06820159 0.01078007 -0.09507736
v 0.06852561 0.01308425 -0.09163609
v 0.06836360 0.01255013 -0.09292903
v 0.06861138 0.01177379 -0.09215030
v 0.06867808 0.01078007 -0.09249888
v 0.06851607 0.00686111 -0.09557921
v 0.06857325 0.00530843 -0.09588082
v 0.06579055 0.01258118 -0.09829862
v -0.02191233 0.02254317 -0.07775478
v -0.02717279 0.00489853 -0.08723560
v -0.02721091 0.00293594 -0.08723560
v -0.02723950 0.00097957 -0.08723560
v -0.02723950 -0.00097681 -0.08723560
v -0.02722044 -0.00293939 -0.08723560
v -0.02717279 -0.00489577 -0.08723560
v -0.02711561 -0.00685836 -0.08723560
v -0.02702031 -0.00882094 -0.08723560
v -0.02662006 -0.01077732 -0.08527763
v -0.02556225 -0.01218715 -0.08212560
v -0.02435196 -0.01273990 -0.07939879
v -0.02373252 -0.01273990 -0.07797481
v -0.02326556 -0.01273990 -0.07699582
v -0.02378017 -0.01077732 -0.07792042
v -0.02378017 0.01078007 -0.07793031
v -0.02327509 0.01078007 -0.07694885
v -0.02243647 0.01273645 -0.07547790
v -0.02165503 0.01407175 -0.07434317
v -0.02202669 0.02060542 -0.07729990
v -0.02138819 0.02254317 -0.07677333
v -0.01953941 0.02519514 -0.07459039
v -0.01907245 0.02448712 -0.07368557
v -0.02114994 0.01465556 -0.07368557
v 0.06680071 0.00881749 -0.09813545
v 0.06688648 0.00686111 -0.09818736
v 0.06694366 0.00489853 -0.09821951
v -0.01861502 -0.02254041 -0.09891667
v -0.02057816 -0.01077732 -0.09890430
v -0.02057816 -0.00882094 -0.09891667
v -0.02057816 -0.00685836 -0.09892408
v 0.06371305 -0.01077732 -0.09871641
v 0.06174991 -0.02058403 -0.09865214
v -0.02230305 -0.00293939 -0.09839256
v -0.02328462 -0.00097681 -0.09788576
v -0.02450444 -0.00097681 -0.09697847
v -0.02450444 0.00097957 -0.09697105
v -0.02450444 0.00293594 -0.09694880
v -0.02450444 0.00489853 -0.09692161
v 0.06799193 0.00097957 -0.09714658
v 0.06701037 -0.00097681 -0.09825412
v 0.06566666 -0.00293939 -0.09861753
v -0.02469504 0.00695427 -0.09672136
v -0.02550507 0.00489853 -0.09609343
v -0.02552413 0.00293594 -0.09610826
v -0.02585767 0.00293594 -0.09507736
v -0.02635322 0.00293594 -0.09311692
v -0.02630558 0.00489853 -0.09311692
v -0.02670583 0.00489853 -0.09115648
v -0.02703937 0.00489853 -0.08919604
v 0.06545701 0.01468661 -0.07368557
v 0.06578102 0.01289793 -0.07368557
v 0.06580961 0.01273645 -0.07368557
v 0.06854467 0.01328920 -0.08262745
v 0.06844936 0.01481083 -0.08329494
v 0.06868761 0.01423323 -0.08393277
v 0.06908786 0.01273645 -0.08527763
v 0.06877338 0.01481083 -0.08520841
v 0.06865903 0.01595360 -0.08581410
v 0.06812535 0.01861800 -0.08527763
v 0.06850654 0.01702805 -0.08723560
v 0.06769651 0.01861800 -0.09115648
v 0.06866855 0.01604676 -0.08723560
v 0.06888774 0.01469903 -0.08723560
v 0.06917363 0.01273645 -0.08723560
v 0.06924034 0.01078007 -0.08919604
v 0.06898304 0.01273645 -0.08919604
v 0.06872573 0.01460587 -0.08912682
v 0.06863996 0.01388543 -0.09032830
v 0.06853513 0.01519589 -0.08973251
v 0.06841125 0.01659330 -0.08912682
v 0.06861138 0.00399797 -0.09606871
v 0.06803959 0.00474947 -0.09684992
v 0.06796335 0.00293594 -0.09709466
v 0.06857325 0.00948203 -0.09391296
v 0.06864949 0.00817778 -0.09429121
v 0.06843984 0.00882370 -0.09499825
v 0.06869714 0.01255013 -0.09105265
v 0.06890679 0.01078007 -0.09115648
v 0.06913551 0.00881749 -0.09115648
v 0.06877338 0.00882370 -0.09320345
v 0.06869714 0.00686111 -0.09460023
v 0.06896398 0.00686111 -0.09311692
v 0.06931658 0.00686111 -0.09115648
v 0.06945000 0.00489853 -0.09115648
v 0.06909740 0.00489853 -0.09311692
v 0.06873526 0.00474947 -0.09516883
v -0.02712514 0.00097957 -0.08919604
v -0.02708702 0.00293594 -0.08919604
v -0.02712514 -0.00097681 -0.08919604
v -0.02709655 -0.00293939 -0.08919604
v -0.02704890 -0.00489577 -0.08919604
v -0.02697266 -0.00685836 -0.08919604
v -0.02686783 -0.01077732 -0.08723560
v -0.02685830 -0.00882094 -0.08919604
v -0.02663912 -0.01273990 -0.08723560
v -0.02637228 -0.01273990 -0.08527763
v -0.02578143 -0.01280201 -0.08320347
v -0.02555272 -0.01611853 -0.08408110
v -0.02460927 -0.02058403 -0.08331720
v -0.02352287 -0.02547808 -0.08234315
v -0.02376112 -0.02254041 -0.08172511
v -0.02387547 -0.02061509 -0.08122820
v -0.02347522 -0.02129206 -0.08048902
v -0.02358005 -0.01998159 -0.08023932
v -0.02384688 -0.01665886 -0.07963364
v -0.02361817 -0.01428016 -0.07817753
v -0.02326556 -0.01077732 -0.07694144
v -0.02319885 -0.01483912 -0.07749026
v -0.02166455 -0.01409384 -0.07432092
v -0.02245553 -0.01273990 -0.07547790
v -0.02173126 -0.01273990 -0.07422203
v -0.02172173 0.01273645 -0.07423934
v -0.02137866 0.01273645 -0.07368557
v -0.01981577 0.02254317 -0.07417012
v -0.01861502 -0.02450299 -0.09870900
v -0.02057816 -0.02254041 -0.09869416
v -0.02057816 -0.02058403 -0.09877822
v -0.02057816 -0.01862145 -0.09881036
v -0.02057816 -0.01470249 -0.09886474
v -0.02057816 -0.01273990 -0.09888700
v 0.06174991 -0.02254041 -0.09863236
v 0.06174991 -0.02450299 -0.09847414
v 0.05691829 -0.02941567 -0.09802421
v -0.02222682 -0.01077732 -0.09837030
v -0.02227446 -0.00685836 -0.09838762
v 0.06371305 -0.01273990 -0.09869911
v -0.02327509 -0.00293939 -0.09788082
v -0.02450444 -0.00293939 -0.09696364
v -0.02553366 -0.00293939 -0.09612310
v -0.02553366 -0.00097681 -0.09613051
v -0.02553366 0.00097957 -0.09612310
v 0.06799193 -0.00097681 -0.09714658
v 0.06863043 0.00293594 -0.09611568
v 0.06865903 0.00097957 -0.09616513
v 0.06865903 -0.00097681 -0.09616760
v 0.06699131 -0.00293939 -0.09824670
v 0.06566666 -0.00489577 -0.09859775
v -0.02587673 0.00097957 -0.09507736
v -0.02638181 0.00097957 -0.09311692
v -0.02675348 0.00293594 -0.09115648
v 0.06612409 0.01078007 -0.07368557
v 0.06863996 0.01197874 -0.08225663
v 0.06878291 0.01267434 -0.08329494
v 0.06903069 0.01078007 -0.08331720
v 0.06934516 0.01078007 -0.08527763
v 0.06942141 0.01078007 -0.08723560
v 0.06946906 0.00881749 -0.08919604
v 0.06919269 0.00293594 -0.09311692
v 0.06884009 0.00293594 -0.09507736
v 0.06965012 0.00686111 -0.08919604
v 0.06953577 0.00293594 -0.09115648
v 0.06977401 0.00489853 -0.08919604
v 0.06986931 0.00293594 -0.08919604
v -0.02678207 0.00097957 -0.09115648
v -0.02678207 -0.00097681 -0.09115648
v -0.02676301 -0.00293939 -0.09115648
v -0.02671536 -0.00489577 -0.09115648
v -0.02663912 -0.00685836 -0.09115648
v -0.02653429 -0.00882094 -0.09115648
v -0.02670583 -0.01077732 -0.08919604
v -0.02651523 -0.01273990 -0.08919604
v -0.02640087 -0.01077732 -0.09115648
v -0.02635322 -0.01470249 -0.08723560
v -0.02549554 -0.01968348 -0.08619976
v -0.02627699 -0.01470249 -0.08919604
v -0.02601015 -0.01665886 -0.08919604
v -0.02554319 -0.02001265 -0.08919604
v -0.02607686 -0.01470249 -0.08527763
v -0.02544789 -0.01742278 -0.08443956
v -0.02362770 -0.02797478 -0.08396490
v -0.02343710 -0.02645937 -0.08258048
v -0.02293202 -0.02645937 -0.08135922
v -0.02326556 -0.02469553 -0.08138889
v -0.02337039 -0.02254041 -0.08074612
v -0.02362770 -0.02416762 -0.08206380
v -0.02276048 -0.02254041 -0.07939879
v -0.02315121 -0.02061509 -0.07951003
v -0.02193139 -0.02254041 -0.07771276
v -0.02204575 -0.02065856 -0.07728260
v -0.02164550 -0.02006233 -0.07630856
v -0.02152161 -0.02136658 -0.07652364
v -0.02066393 -0.02254041 -0.07547790
v -0.02116901 -0.01465901 -0.07368557
v -0.02135007 -0.01329887 -0.07368557
v -0.02139772 -0.01273990 -0.07368557
v -0.01273512 -0.02842196 -0.09785363
v -0.02009214 -0.02565819 -0.09819726
v -0.02068298 -0.02452163 -0.09837030
v 0.05662287 -0.02941567 -0.09802421
v -0.02167409 -0.02388813 -0.09809095
v -0.02182656 -0.02254041 -0.09818490
v -0.02195998 -0.02058403 -0.09825906
v -0.02201716 -0.01862145 -0.09828873
v -0.02213152 -0.01470249 -0.09833569
v -0.02218870 -0.01273990 -0.09835548
v 0.06371305 -0.01470249 -0.09867191
v 0.06371305 -0.01665886 -0.09863730
v 0.06371305 -0.01862145 -0.09858045
v 0.06371305 -0.02058403 -0.09849640
v 0.06336044 -0.02450299 -0.09825412
v 0.06298878 -0.02579483 -0.09812309
v 0.05822388 -0.02900576 -0.09794262
v 0.06279819 -0.02944672 -0.09613299
v 0.05978676 -0.02994358 -0.09665214
v 0.05767115 -0.03003674 -0.09718861
v 0.05592719 -0.03002432 -0.09722569
v -0.01273512 -0.03029759 -0.09691172
v -0.02319885 -0.01077732 -0.09782396
v -0.02322744 -0.00882094 -0.09784126
v -0.02325603 -0.00685836 -0.09785857
v -0.02326556 -0.00489577 -0.09787093
v -0.02450444 -0.00489577 -0.09693891
v -0.02550507 -0.00685836 -0.09608601
v -0.02586720 -0.00293939 -0.09507736
v -0.02588626 -0.00097681 -0.09507736
v 0.06796335 -0.00293939 -0.09709466
v 0.06694366 -0.00489577 -0.09822445
v 0.06863996 -0.00293939 -0.09611568
v 0.06888774 0.00097957 -0.09507736
v 0.06888774 -0.00097681 -0.09507736
v 0.06566666 -0.00685836 -0.09856066
v -0.02638181 -0.00097681 -0.09311692
v 0.06634327 0.00917150 -0.07368557
v 0.06871620 0.01078007 -0.08208852
v 0.06924034 0.00881749 -0.08331720
v 0.06637187 0.00895412 -0.07368557
v 0.06646717 0.00810947 -0.07368557
v 0.06660058 0.00686111 -0.07368557
v 0.06956435 0.00881749 -0.08527763
v 0.06965012 0.00881749 -0.08723560
v 0.06924034 0.00097957 -0.09311692
v 0.06982166 0.00686111 -0.08723560
v 0.06995508 0.00489853 -0.08723560
v 0.06958341 0.00097957 -0.09115648
v 0.07004085 0.00293594 -0.08723560
v 0.07009802 0.00097957 -0.08723560
v 0.06991695 0.00097957 -0.08919604
v -0.02636275 -0.00293939 -0.09311692
v -0.02632463 -0.00489577 -0.09311692
v -0.02625793 -0.00685836 -0.09311692
v -0.02617216 -0.00882094 -0.09311692
v -0.02604827 -0.01077732 -0.09311692
v -0.02622933 -0.01273990 -0.09115648
v -0.02483798 -0.02058403 -0.09507736
v -0.02509529 -0.02058403 -0.09311692
v -0.02589579 -0.01273990 -0.09311692
v -0.02552413 -0.01470249 -0.09432829
v -0.02605780 -0.01665886 -0.08723560
v -0.02540024 -0.02099394 -0.08919604
v -0.02520012 -0.02043498 -0.08543832
v -0.02558131 -0.01862145 -0.08583140
v -0.02554319 -0.02000644 -0.08723560
v -0.02539071 -0.02098152 -0.08723560
v -0.02348475 -0.02928524 -0.08469667
v -0.02532401 -0.02044119 -0.09103782
v -0.02549554 -0.01969590 -0.09030358
v -0.02535259 -0.01862145 -0.08484995
v -0.02328462 -0.02854617 -0.08331472
v -0.02254130 -0.02842196 -0.08135922
v -0.02196951 -0.02644695 -0.07928506
v -0.02239835 -0.02450299 -0.07939879
v -0.02174079 -0.02450299 -0.07806875
v -0.02140725 -0.02254041 -0.07673130
v -0.02002543 -0.02645937 -0.07576715
v -0.02015884 -0.02455268 -0.07532957
v -0.01983483 -0.02254041 -0.07413798
v -0.01952988 -0.02254041 -0.07368557
v 0.00883085 -0.02878218 -0.09788329
v -0.02134054 -0.03129752 -0.09171519
v -0.02139772 -0.02519239 -0.09791790
v -0.01469826 -0.03016717 -0.09667687
v -0.02240788 -0.02452163 -0.09737155
v -0.02280813 -0.02254041 -0.09748774
v -0.02293202 -0.02058403 -0.09760640
v -0.02299873 -0.01862145 -0.09766080
v -0.02305591 -0.01665886 -0.09770776
v -0.02311309 -0.01470249 -0.09775226
v -0.02316074 -0.01273990 -0.09779429
v 0.06566666 -0.00882094 -0.09851122
v 0.06566666 -0.01077732 -0.09843706
v 0.06520923 -0.01665886 -0.09829367
v 0.06503769 -0.01862145 -0.09823682
v 0.06488522 -0.02058403 -0.09815523
v 0.06386552 -0.02261494 -0.09831592
v 0.06461838 -0.02332296 -0.09797971
v 0.06434202 -0.02450299 -0.09774732
v 0.06377976 -0.02647800 -0.09714658
v 0.06317938 -0.02842196 -0.09651865
v 0.06174991 -0.02842196 -0.09712927
v 0.06174991 -0.02703076 -0.09789318
v 0.06456120 -0.02716118 -0.09576463
v 0.06412283 -0.02843438 -0.09509714
v 0.06444685 -0.02909271 -0.09377947
v 0.06483757 -0.02958957 -0.09247168
v 0.06273148 -0.03136584 -0.09214041
v 0.05978676 -0.03085656 -0.09507736
v 0.05782362 -0.03108014 -0.09507736
v -0.01469826 -0.03114225 -0.09542841
v -0.02468551 -0.00875883 -0.09670900
v -0.02450444 -0.00685836 -0.09690678
v -0.02548601 -0.00806323 -0.09606871
v -0.02583861 -0.00489577 -0.09507736
v 0.06803959 -0.00474671 -0.09684744
v 0.06777275 -0.00685836 -0.09703780
v 0.06681024 -0.00882094 -0.09814039
v 0.06687695 -0.00685836 -0.09818736
v 0.06884009 -0.00293939 -0.09507736
v 0.06861138 -0.00398901 -0.09606871
v 0.06924987 -0.00097681 -0.09311692
v 0.06882103 0.00881749 -0.08183388
v 0.06943094 0.00686111 -0.08331720
v 0.06677212 0.00489853 -0.07368557
v 0.06973589 0.00686111 -0.08527763
v 0.06987884 0.00489853 -0.08527763
v 0.06997414 0.00293594 -0.08527763
v 0.06992649 -0.00097681 -0.08919604
v 0.07009802 -0.00097681 -0.08723560
v 0.07002179 0.00097957 -0.08527763
v -0.02579096 -0.00685836 -0.09507736
v -0.02568614 -0.00875883 -0.09523806
v -0.02567661 -0.01077732 -0.09489937
v -0.02560037 -0.01273990 -0.09468181
v -0.02547648 -0.01568378 -0.09410085
v -0.02501905 -0.01862145 -0.09507736
v -0.02531447 -0.01470249 -0.09530728
v -0.02537165 -0.01273990 -0.09566327
v -0.02410419 -0.02058403 -0.09662742
v -0.02395171 -0.02254041 -0.09650628
v -0.02456162 -0.02254041 -0.09507736
v -0.02482845 -0.02254041 -0.09311692
v -0.02499046 -0.02254041 -0.09115648
v -0.02511435 -0.02254041 -0.08919604
v -0.02508576 -0.02254041 -0.08723560
v -0.02368488 -0.02854617 -0.08532213
v -0.02353240 -0.02943430 -0.08600198
v -0.02277001 -0.03020443 -0.08532213
v -0.02157879 -0.03137205 -0.08421212
v -0.02218870 -0.03052118 -0.08346305
v -0.02195045 -0.02994979 -0.08135922
v -0.02166455 -0.02958336 -0.08016269
v -0.02182656 -0.02842196 -0.07983142
v -0.02148349 -0.02708665 -0.07855824
v -0.02161691 -0.02578240 -0.07830608
v -0.02120712 -0.02450299 -0.07708729
v -0.01981577 -0.02842196 -0.07611326
v -0.01941552 -0.02645937 -0.07478816
v -0.01954894 -0.02524207 -0.07458050
v -0.01939646 -0.02314906 -0.07368557
v -0.02064486 -0.03150247 -0.09109962
v -0.02160738 -0.03139068 -0.09040741
v -0.02228399 -0.03053981 -0.09109962
v -0.02209340 -0.02999327 -0.09256316
v -0.02359911 -0.02556503 -0.09615276
v -0.02002543 -0.03145279 -0.09227638
v -0.02374205 -0.02450299 -0.09630851
v -0.02418996 -0.01862145 -0.09668181
v -0.02426620 -0.01665886 -0.09672878
v -0.02433290 -0.01470249 -0.09677328
v -0.02439008 -0.01273990 -0.09681283
v -0.02443773 -0.01077732 -0.09684250
v 0.06539030 -0.01470249 -0.09833323
v 0.06671494 -0.01077732 -0.09807365
v 0.06665776 -0.01185177 -0.09802915
v 0.06477086 -0.02201250 -0.09807859
v 0.06652434 -0.01315602 -0.09793026
v 0.06637187 -0.01470249 -0.09777698
v 0.06690554 -0.01665886 -0.09654337
v 0.06527594 -0.02261494 -0.09721086
v 0.06510440 -0.02450299 -0.09676834
v 0.06486616 -0.02585693 -0.09639009
v 0.06483757 -0.02778846 -0.09445684
v 0.06499004 -0.02980073 -0.09115648
v 0.06385600 -0.03078203 -0.09115648
v 0.06507581 -0.02843438 -0.09312186
v 0.06561901 -0.02842196 -0.09115648
v 0.06287443 -0.03142794 -0.09115648
v 0.06174991 -0.03151489 -0.09115648
v 0.06174991 -0.03139068 -0.09237774
v 0.05978676 -0.03129131 -0.09341111
v -0.01469826 -0.03141552 -0.09444943
v -0.01261123 -0.03129131 -0.09504523
v -0.01590855 -0.03140931 -0.09429615
v -0.02545742 -0.00936748 -0.09599701
v 0.06761074 -0.00882094 -0.09703780
v 0.06920222 -0.00293939 -0.09311692
v 0.06857325 -0.00529947 -0.09587588
v 0.06874479 -0.00474671 -0.09516389
v 0.06954529 -0.00293939 -0.09115648
v 0.06957389 0.00489853 -0.08331720
v 0.06688648 0.00292973 -0.07368557
v 0.06966918 0.00293594 -0.08331720
v 0.06987884 -0.00293939 -0.08919604
v 0.07002179 -0.00097681 -0.08527763
v 0.06998366 -0.00293939 -0.08527763
v 0.07005037 -0.00293939 -0.08723560
v 0.06971683 0.00097957 -0.08331720
v 0.06972636 -0.00097681 -0.08331720
v -0.02541930 -0.01077732 -0.09587835
v -0.02412325 -0.02450299 -0.09507736
v -0.02438055 -0.02450299 -0.09311692
v -0.02349428 -0.02932251 -0.08993770
v -0.02355146 -0.02945915 -0.08862991
v -0.02356099 -0.02946536 -0.08723560
v -0.02263660 -0.03044665 -0.08723560
v -0.02162644 -0.03140310 -0.08527763
v -0.02062581 -0.03149626 -0.08346305
v -0.01999684 -0.03149005 -0.08135922
v -0.01973000 -0.03142794 -0.08003414
v -0.02130242 -0.03126025 -0.08290434
v -0.02097841 -0.03093109 -0.08135922
v -0.01936787 -0.03127888 -0.07872635
v -0.02054004 -0.03042802 -0.07944328
v -0.01997778 -0.02991253 -0.07743834
v -0.01967283 -0.02951504 -0.07634564
v -0.02134054 -0.02842196 -0.07884996
v -0.02056863 -0.02842196 -0.07743834
v -0.02107371 -0.02644695 -0.07756690
v -0.01918680 -0.02842196 -0.07513180
v -0.01818617 -0.02842196 -0.07368557
v -0.01861502 -0.02658358 -0.07368557
v -0.01906292 -0.02463963 -0.07368557
v -0.02057816 -0.03158942 -0.08919604
v -0.01861502 -0.03168258 -0.09115648
v -0.02163597 -0.03140931 -0.08919604
v -0.02341804 -0.02907408 -0.09115648
v -0.01861502 -0.03150868 -0.09250382
v 0.06740109 -0.01077732 -0.09703780
v 0.06710566 -0.01259706 -0.09718119
v 0.06706754 -0.01470249 -0.09679553
v 0.06821112 -0.01077732 -0.09507736
v 0.06795382 -0.01273990 -0.09507736
v 0.06676259 -0.01823638 -0.09628626
v 0.06663870 -0.01954064 -0.09600196
v 0.06574290 -0.02450299 -0.09507736
v 0.06508535 -0.02649042 -0.09509714
v 0.06400848 -0.03092488 -0.08919604
v 0.06586679 -0.02842196 -0.08919604
v 0.06509487 -0.02994358 -0.08919604
v 0.06569525 -0.02645937 -0.09311692
v 0.06615268 -0.02645937 -0.09115648
v 0.06645763 -0.02641590 -0.08925043
v 0.06302690 -0.03149005 -0.08919604
v 0.06174991 -0.03162669 -0.08919604
v 0.05978676 -0.03139689 -0.09242966
v 0.06910692 -0.00489577 -0.09311692
v 0.06851607 -0.00685836 -0.09556933
v 0.06869714 -0.00685836 -0.09458787
v 0.06945000 -0.00489577 -0.09115648
v 0.06695319 0.00097957 -0.07368557
v 0.06978354 -0.00489577 -0.08919604
v 0.06967871 -0.00293939 -0.08331720
v 0.06987884 -0.00489577 -0.08527763
v 0.06995508 -0.00489577 -0.08723560
v 0.06695319 -0.00097681 -0.07368557
v -0.02368488 -0.02809900 -0.09115648
v -0.02165503 -0.03142173 -0.08723560
v -0.02057816 -0.03159563 -0.08723560
v -0.02057816 -0.03156458 -0.08527763
v -0.01861502 -0.03164532 -0.08135922
v -0.01868172 -0.03152731 -0.07938642
v -0.01801464 -0.03146521 -0.07743834
v -0.01770968 -0.03139689 -0.07633328
v -0.01899621 -0.03089382 -0.07743834
v -0.01848160 -0.03031622 -0.07568557
v -0.01793840 -0.02980694 -0.07409348
v -0.01779545 -0.02939083 -0.07368557
v -0.01861502 -0.03172606 -0.08919604
v 0.06843984 -0.00882715 -0.09499084
v 0.06858278 -0.00948549 -0.09392533
v 0.06850654 -0.01077732 -0.09351742
v 0.06862090 -0.01182693 -0.09218985
v 0.06837313 -0.01258463 -0.09295376
v 0.06766792 -0.01470249 -0.09507736
v 0.06734391 -0.01665886 -0.09507736
v 0.06693412 -0.01878293 -0.09524053
v 0.06677212 -0.02021139 -0.09469665
v 0.06655294 -0.02075172 -0.09524053
v 0.06622892 -0.02254041 -0.09507736
v 0.06516158 -0.03001811 -0.08723560
v 0.06406565 -0.03099940 -0.08723560
v 0.06601926 -0.02842196 -0.08723560
v 0.06652434 -0.02695002 -0.08723560
v 0.06652434 -0.02459616 -0.09128998
v 0.06661011 -0.02531039 -0.08994017
v 0.06670541 -0.02573272 -0.08863238
v 0.06174991 -0.03165774 -0.08723560
v 0.06412283 -0.03104288 -0.08527763
v 0.06314126 -0.03151489 -0.08527763
v 0.05978676 -0.03166395 -0.08723560
v 0.06931658 -0.00685836 -0.09115648
v 0.06896398 -0.00685836 -0.09311692
v 0.06863996 -0.00818124 -0.09428132
v 0.06983119 -0.00685836 -0.08723560
v 0.06965012 -0.00685836 -0.08919604
v 0.06957389 -0.00489577 -0.08331720
v 0.06689601 -0.00292076 -0.07368557
v 0.06974542 -0.00685836 -0.08527763
v -0.01861502 -0.03171984 -0.08723560
v -0.01861502 -0.03167637 -0.08331720
v -0.01666140 -0.03167637 -0.07939879
v -0.01666140 -0.03162047 -0.07743834
v -0.01658516 -0.03148384 -0.07559904
v -0.01587996 -0.03142794 -0.07420967
v -0.01565124 -0.03135341 -0.07368557
v -0.01718554 -0.03111119 -0.07502550
v -0.01672811 -0.03059571 -0.07368557
v -0.01707118 -0.03029138 -0.07368557
v 0.04410069 -0.03170121 -0.07939879
v -0.00489208 -0.03169500 -0.07743834
v 0.05782362 -0.03168258 -0.08527763
v 0.06877338 -0.00882715 -0.09321086
v 0.06913551 -0.00882094 -0.09115648
v 0.06947858 -0.00882094 -0.08919604
v 0.06924987 -0.01077732 -0.08919604
v 0.06870667 -0.01258463 -0.09106996
v 0.06852561 -0.01313118 -0.09166575
v 0.06803005 -0.01470249 -0.09311692
v 0.06771557 -0.01665886 -0.09311692
v 0.06736297 -0.01862145 -0.09311692
v 0.06693412 -0.02075172 -0.09328750
v 0.06663870 -0.02151564 -0.09405388
v 0.06654340 -0.02268326 -0.09328750
v 0.06662917 -0.02342854 -0.09203163
v 0.06519017 -0.03006159 -0.08527763
v 0.06605738 -0.02842196 -0.08527763
v 0.06676259 -0.02596872 -0.08723560
v 0.06653387 -0.02692517 -0.08527763
v 0.06691506 -0.02268326 -0.09128998
v 0.06674353 -0.02400614 -0.09072632
v 0.06730579 -0.02254041 -0.08919604
v 0.06686742 -0.02459616 -0.08925043
v 0.06749639 -0.02254041 -0.08723560
v 0.06708660 -0.02450299 -0.08723560
v 0.06174991 -0.03167637 -0.08527763
v 0.06408471 -0.03098077 -0.08331720
v 0.06310314 -0.03150868 -0.08331720
v 0.06966918 -0.00882094 -0.08723560
v 0.06944047 -0.00685836 -0.08331720
v 0.06680071 -0.00444860 -0.07368557
v 0.06677212 -0.00489577 -0.07368557
v 0.06957389 -0.00882094 -0.08527763
v -0.01273512 -0.03167637 -0.07743834
v -0.01469826 -0.03167016 -0.07743834
v -0.01469826 -0.03163290 -0.07547790
v -0.01466967 -0.03150868 -0.07368557
v -0.01493651 -0.03148384 -0.07368557
v 0.05587001 -0.03168879 -0.07939879
v 0.04410069 -0.03169500 -0.07743834
v -0.00881837 -0.03167016 -0.07547790
v 0.06944047 -0.01077732 -0.08723560
v 0.06864949 -0.01593842 -0.08845933
v 0.06899257 -0.01273990 -0.08919604
v 0.06863996 -0.01391373 -0.09035797
v 0.06841125 -0.01462175 -0.09106996
v 0.06771557 -0.01862145 -0.09115648
v 0.06805864 -0.01665886 -0.09115648
v 0.06735344 -0.02058403 -0.09115648
v 0.06676259 -0.02212429 -0.09274610
v 0.06511393 -0.02999948 -0.08331720
v 0.06587632 -0.02842196 -0.08331720
v 0.06675306 -0.02595009 -0.08527763
v 0.06669588 -0.02570166 -0.08404649
v 0.06642905 -0.02639726 -0.08336416
v 0.06769651 -0.02058403 -0.08919604
v 0.06788711 -0.02058403 -0.08723560
v 0.06704848 -0.02450299 -0.08527763
v 0.06174991 -0.03166395 -0.08331720
v 0.05978676 -0.03167637 -0.08135922
v 0.05782362 -0.03168258 -0.07939879
v 0.06493287 -0.02975726 -0.08173252
v 0.06276007 -0.03138447 -0.08033327
v 0.06292207 -0.03144658 -0.08135922
v 0.06174991 -0.03160805 -0.08135922
v 0.06936423 -0.01077732 -0.08527763
v 0.06883056 -0.00882094 -0.08181163
v 0.06925940 -0.00882094 -0.08331720
v 0.06669588 -0.00585843 -0.07368557
v -0.01078151 -0.03166395 -0.07547790
v -0.01273512 -0.03165774 -0.07547790
v -0.01273512 -0.03161426 -0.07368557
v -0.01290666 -0.03160805 -0.07368557
v 0.04999011 -0.03167016 -0.07743834
v -0.00881837 -0.03162669 -0.07368557
v -0.01078151 -0.03163290 -0.07368557
v -0.01094351 -0.03163290 -0.07368557
v 0.06918317 -0.01273990 -0.08723560
v 0.06873526 -0.01462175 -0.08914660
v 0.06889727 -0.01470249 -0.08723560
v 0.06867808 -0.01610611 -0.08723560
v 0.06851607 -0.01708740 -0.08723560
v 0.06824924 -0.01862145 -0.08723560
v 0.06805864 -0.01862145 -0.08919604
v 0.06521876 -0.02858343 -0.08119112
v 0.06657199 -0.02498122 -0.08274118
v 0.06779181 -0.02058403 -0.08527763
v 0.06815395 -0.01862145 -0.08527763
v 0.06859232 -0.01556578 -0.08445687
v 0.06580961 -0.02645937 -0.08135922
v 0.05978676 -0.03160805 -0.07939879
v 0.05782362 -0.03152731 -0.07790559
v 0.05390687 -0.03160184 -0.07743834
v 0.05194373 -0.03164532 -0.07743834
v 0.06466603 -0.02934114 -0.08042474
v 0.06316985 -0.03024791 -0.07956689
v 0.06280772 -0.02950883 -0.07835305
v 0.06210251 -0.03081308 -0.07902548
v 0.06079692 -0.03137826 -0.07839755
v 0.06156884 -0.03144658 -0.07956689
v 0.06904021 -0.01077732 -0.08331720
v 0.06869714 -0.01426153 -0.08391299
v 0.06910692 -0.01273990 -0.08527763
v 0.06871620 -0.01077732 -0.08206627
v 0.06661011 -0.00685836 -0.07368557
v 0.06863996 -0.01200083 -0.08225168
v 0.04802697 -0.03152731 -0.07607370
v 0.04780779 -0.03096214 -0.07368557
v 0.06865903 -0.01599432 -0.08576465
v 0.06472321 -0.01800659 -0.07368557
v 0.06451356 -0.01878293 -0.07368557
v 0.06667682 -0.02367697 -0.08228135
v 0.06781086 -0.01862145 -0.08331720
v 0.06815395 -0.01665886 -0.08331720
v 0.06848749 -0.01665265 -0.08517874
v 0.06878291 -0.01482670 -0.08517874
v 0.06546653 -0.01468386 -0.07368557
v 0.06503769 -0.01671476 -0.07368557
v 0.06501864 -0.01679550 -0.07368557
v 0.05978676 -0.03145279 -0.07822697
v 0.05509809 -0.03139068 -0.07641980
v 0.05390687 -0.03143415 -0.07634317
v 0.05194373 -0.03148384 -0.07622203
v 0.04999011 -0.03150868 -0.07612808
v 0.06405612 -0.02008718 -0.07368557
v 0.06393223 -0.02042256 -0.07368557
v 0.06310314 -0.02214292 -0.07368557
v 0.06306502 -0.02221745 -0.07368557
v 0.06246464 -0.02311180 -0.07368557
v 0.06148307 -0.02432289 -0.07368557
v 0.06056821 -0.02527312 -0.07368557
v 0.05962476 -0.02624200 -0.07368557
v 0.05758538 -0.02805552 -0.07368557
v 0.05621308 -0.02899955 -0.07368557
v 0.05525057 -0.02965168 -0.07368557
v 0.05390687 -0.03017338 -0.07368557
v 0.05194373 -0.03067023 -0.07368557
v 0.06878291 -0.01269022 -0.08328258
v 0.06854467 -0.01330508 -0.08260768
v 0.06845890 -0.01482670 -0.08328258
v 0.06656246 -0.00729932 -0.07368557
v 0.06638140 -0.00897000 -0.07368557
v 0.06616221 -0.01060963 -0.07368557
v 0.06585726 -0.01256600 -0.07368557
v 0.04802697 -0.03095593 -0.07368557
v 0.06582867 -0.01273990 -0.07368557
v 0.04999011 -0.03089382 -0.07368557
f 1 2 3
f 1 3 4
f 1 4 5
f 1 5 6
f 1 6 7
f 1 7 8
f 1 8 9
f 1 9 10
f 1 10 11
f 1 11 12
f 1 12 2
f 2 13 14
f 2 14 15
f 2 15 16
f 2 16 17
f 2 17 18
f 2 18 3
f 2 12 19
f 2 19 20
f 2 20 21
f 2 21 13
f 3 18 22
f 3 22 23
f 3 23 24
f 3 24 4
f 4 25 26
f 4 26 27
f 4 27 5
f 4 24 25
f 5 27 28
f 5 28 6
f 6 28 7
f 7 28 8
f 8 28 9
f 9 29 10
f 9 28 30
f 9 30 29
f 10 29 31
f 10 31 11
f 11 31 57
f 11 57 32
f 11 32 12
f 12 32 59
f 12 59 33
f 12 33 19
f 13 21 14
f 14 34 35
f 14 35 15
f 14 21 36
f 14 36 34
f 15 35 17
f 15 17 16
f 17 37 18
f 17 35 38
f 17 38 37
f 18 37 22
f 19 33 39
f 19 39 40
f 19 40 20
f 20 40 41
f 20 41 21
f 21 41 36
f 22 37 42
f 22 42 43
f 22 43 23
f 23 43 44
f 23 44 24
f 24 44 25
f 25 45 26
f 25 44 46
f 25 46 45
f 26 47 48
f 26 48 27
f 26 45 49
f 26 49 47
f 27 48 50
f 27 50 51
f 27 51 52
f 27 52 28
f 28 52 53
f 28 53 30
f 29 54 55
f 29 55 56
f 29 56 57
f 29 57 31
f 29 30 58
f 29 58 54
f 30 53 88
f 30 88 136
f 30 136 196
f 30 196 253
f 30 253 252
f 30 252 251
f 30 251 271
f 30 271 358
f 30 358 439
f 30 439 440
f 30 440 530
f 30 530 602
f 30 602 601
f 30 601 600
f 30 600 684
f 30 684 765
f 30 765 838
f 30 838 837
f 30 837 836
f 30 836 883
f 30 883 924
f 30 924 923
f 30 923 921
f 30 921 963
f 30 963 962
f 30 962 998
f 30 998 997
f 30 997 1002
f 30 1002 1001
f 30 1001 1000
f 30 1000 1033
f 30 1033 1070
f 30 1070 1072
f 30 1072 1062
f 30 1062 1061
f 30 1061 1060
f 30 1060 1059
f 30 1059 1058
f 30 1058 1057
f 30 1057 1056
f 30 1056 1055
f 30 1055 1054
f 30 1054 1053
f 30 1053 1052
f 30 1052 1051
f 30 1051 1050
f 30 1050 1036
f 30 1036 1035
f 30 1035 1044
f 30 1044 1043
f 30 1043 1042
f 30 1042 1071
f 30 1071 1069
f 30 1069 1068
f 30 1068 1067
f 30 1067 1066
f 30 1066 1030
f 30 1030 994
f 30 994 957
f 30 957 956
f 30 956 913
f 30 913 871
f 30 871 866
f 30 866 807
f 30 807 729
f 30 729 645
f 30 645 644
f 30 644 643
f 30 643 640
f 30 640 558
f 30 558 469
f 30 469 468
f 30 468 467
f 30 467 389
f 30 389 316
f 30 316 280
f 30 280 279
f 30 279 278
f 30 278 277
f 30 277 276
f 30 276 275
f 30 275 274
f 30 274 273
f 30 273 203
f 30 203 202
f 30 202 201
f 30 201 200
f 30 200 199
f 30 199 141
f 30 141 198
f 30 198 197
f 30 197 138
f 30 138 137
f 30 137 89
f 30 89 58
f 32 57 56
f 32 56 60
f 32 60 59
f 33 59 39
f 34 36 61
f 34 61 35
f 35 61 62
f 35 62 38
f 36 41 63
f 36 63 64
f 36 64 61
f 37 38 65
f 37 65 66
f 37 66 67
f 37 67 68
f 37 68 42
f 38 62 65
f 39 59 69
f 39 69 70
f 39 70 71
f 39 71 72
f 39 72 40
f 40 72 73
f 40 73 41
f 41 73 74
f 41 74 75
f 41 75 63
f 42 68 76
f 42 76 77
f 42 77 43
f 43 77 78
f 43 78 44
f 44 78 79
f 44 79 80
f 44 80 46
f 45 81 82
f 45 82 47
f 45 47 49
f 45 46 83
f 45 83 84
f 45 84 81
f 46 80 83
f 47 82 85
f 47 85 48
f 48 85 86
f 48 86 87
f 48 87 50
f 50 87 51
f 51 87 53
f 51 53 52
f 53 87 88
f 54 89 90
f 54 90 55
f 54 58 89
f 55 90 91
f 55 91 56
f 56 91 92
f 56 92 93
f 56 93 94
f 56 94 95
f 56 95 60
f 59 60 96
f 59 96 69
f 60 95 96
f 61 64 97
f 61 97 62
f 62 98 65
f 62 97 98
f 63 99 64
f 63 75 99
f 64 99 100
f 64 100 97
f 65 101 102
f 65 102 66
f 65 98 101
f 66 102 103
f 66 103 104
f 66 104 67
f 67 104 105
f 67 105 106
f 67 106 107
f 67 107 76
f 67 76 68
f 69 96 108
f 69 108 70
f 70 108 109
f 70 109 110
f 70 110 111
f 70 111 71
f 71 111 72
f 72 111 112
f 72 112 113
f 72 113 73
f 73 113 74
f 74 113 114
f 74 114 115
f 74 115 116
f 74 116 117
f 74 117 75
f 75 117 118
f 75 118 119
f 75 119 120
f 75 120 100
f 75 100 99
f 76 107 121
f 76 121 122
f 76 122 77
f 77 122 121
f 77 121 123
f 77 123 124
f 77 124 78
f 78 124 79
f 79 124 125
f 79 125 80
f 80 125 83
f 81 126 127
f 81 127 82
f 81 84 128
f 81 128 126
f 82 127 129
f 82 129 130
f 82 130 85
f 83 131 132
f 83 132 133
f 83 133 128
f 83 128 84
f 83 125 134
f 83 134 131
f 85 130 86
f 86 130 135
f 86 135 136
f 86 136 87
f 87 136 88
f 89 137 90
f 90 137 138
f 90 138 139
f 90 139 91
f 91 139 92
f 92 139 140
f 92 140 93
f 93 140 141
f 93 141 142
f 93 142 143
f 93 143 94
f 94 143 95
f 95 143 144
f 95 144 145
f 95 145 108
f 95 108 96
f 97 100 146
f 97 146 147
f 97 147 148
f 97 148 101
f 97 101 98
f 100 120 149
f 100 149 119
f 100 119 146
f 101 148 150
f 101 150 102
f 102 150 103
f 103 150 151
f 103 151 152
f 103 152 104
f 104 152 105
f 105 152 153
f 105 153 106
f 106 154 222
f 106 222 155
f 106 155 107
f 106 153 154
f 107 155 121
f 108 145 109
f 109 156 157
f 109 157 110
f 109 145 144
f 109 144 156
f 110 157 158
f 110 158 159
f 110 159 111
f 111 159 112
f 112 159 160
f 112 160 113
f 113 160 114
f 114 160 161
f 114 161 162
f 114 162 163
f 114 163 115
f 115 163 164
f 115 164 165
f 115 165 166
f 115 166 116
f 116 166 117
f 117 166 118
f 118 166 167
f 118 167 119
f 119 149 120
f 119 167 168
f 119 168 169
f 119 169 170
f 119 170 146
f 121 155 123
f 123 155 171
f 123 171 172
f 123 172 124
f 124 172 173
f 124 173 125
f 125 173 134
f 126 174 127
f 126 128 174
f 127 174 175
f 127 175 176
f 127 176 129
f 128 133 174
f 129 176 177
f 129 177 178
f 129 178 179
f 129 179 135
f 129 135 130
f 131 180 181
f 131 181 132
f 131 134 182
f 131 182 183
f 131 183 184
f 131 184 185
f 131 185 186
f 131 186 187
f 131 187 180
f 132 181 188
f 132 188 133
f 133 188 189
f 133 189 190
f 133 190 191
f 133 191 175
f 133 175 174
f 134 173 192
f 134 192 193
f 134 193 194
f 134 194 195
f 134 195 183
f 134 183 182
f 135 179 136
f 136 179 196
f 138 197 140
f 138 140 139
f 140 197 198
f 140 198 141
f 141 199 142
f 142 199 200
f 142 200 201
f 142 201 202
f 142 202 203
f 142 203 204
f 142 204 205
f 142 205 144
f 142 144 143
f 144 204 206
f 144 206 207
f 144 207 156
f 144 205 204
f 146 170 208
f 146 208 148
f 146 148 147
f 148 209 210
f 148 210 211
f 148 211 212
f 148 212 213
f 148 213 214
f 148 214 215
f 148 215 216
f 148 216 150
f 148 208 217
f 148 217 218
f 148 218 209
f 150 216 219
f 150 219 151
f 151 219 220
f 151 220 152
f 152 220 221
f 152 221 153
f 153 221 154
f 154 221 223
f 154 223 224
f 154 224 225
f 154 225 226
f 154 226 227
f 154 227 228
f 154 228 222
f 155 222 229
f 155 229 171
f 156 207 230
f 156 230 231
f 156 231 157
f 157 231 158
f 158 231 232
f 158 232 233
f 158 233 159
f 159 233 160
f 160 233 161
f 161 233 234
f 161 234 162
f 162 235 163
f 162 234 236
f 162 236 237
f 162 237 238
f 162 238 235
f 163 235 164
f 164 239 166
f 164 166 165
f 164 235 239
f 166 168 167
f 166 239 168
f 168 239 169
f 169 240 241
f 169 241 170
f 169 239 242
f 169 242 243
f 169 243 244
f 169 244 245
f 169 245 246
f 169 246 240
f 170 241 247
f 170 247 208
f 171 229 248
f 171 248 249
f 171 249 172
f 172 249 192
f 172 192 173
f 175 191 250
f 175 250 177
f 175 177 176
f 177 250 178
f 178 250 251
f 178 251 252
f 178 252 253
f 178 253 179
f 179 253 196
f 180 254 255
f 180 255 256
f 180 256 257
f 180 257 181
f 180 187 254
f 181 257 188
f 183 195 184
f 184 195 194
f 184 194 185
f 185 194 186
f 186 194 258
f 186 258 187
f 187 258 259
f 187 259 260
f 187 260 261
f 187 261 262
f 187 262 263
f 187 263 264
f 187 264 265
f 187 265 254
f 188 257 266
f 188 266 189
f 189 266 267
f 189 267 190
f 190 267 268
f 190 268 191
f 191 268 269
f 191 269 270
f 191 270 271
f 191 271 250
f 192 249 193
f 193 258 194
f 193 249 248
f 193 248 229
f 193 229 228
f 193 228 272
f 193 272 258
f 203 273 204
f 204 274 275
f 204 275 276
f 204 276 277
f 204 277 207
f 204 207 206
f 204 273 274
f 207 277 278
f 207 278 279
f 207 279 280
f 207 280 230
f 208 247 281
f 208 281 282
f 208 282 283
f 208 283 284
f 208 284 218
f 208 218 217
f 209 285 286
f 209 286 210
f 209 218 287
f 209 287 288
f 209 288 364
f 209 364 285
f 210 286 289
f 210 289 211
f 211 289 212
f 212 289 290
f 212 290 291
f 212 291 292
f 212 292 213
f 213 292 214
f 214 292 215
f 215 292 293
f 215 293 216
f 216 293 294
f 216 294 295
f 216 295 296
f 216 296 219
f 218 284 297
f 218 297 298
f 218 298 287
f 219 296 299
f 219 299 300
f 219 300 301
f 219 301 302
f 219 302 303
f 219 303 220
f 220 303 304
f 220 304 221
f 221 304 305
f 221 305 306
f 221 306 307
f 221 307 223
f 222 228 229
f 223 307 308
f 223 308 309
f 223 309 225
f 223 225 310
f 223 310 311
f 223 311 224
f 224 311 225
f 225 311 310
f 225 309 312
f 225 312 313
f 225 313 227
f 225 227 226
f 227 313 314
f 227 314 315
f 227 315 272
f 227 272 228
f 230 316 317
f 230 317 318
f 230 318 231
f 230 280 316
f 231 318 232
f 232 318 319
f 232 319 320
f 232 320 321
f 232 321 233
f 233 321 234
f 234 321 322
f 234 322 323
f 234 323 324
f 234 324 325
f 234 325 326
f 234 326 236
f 235 238 327
f 235 327 328
f 235 328 329
f 235 329 239
f 236 326 325
f 236 325 330
f 236 330 237
f 237 330 331
f 237 331 238
f 238 331 332
f 238 332 327
f 239 329 242
f 240 333 241
f 240 246 334
f 240 334 333
f 241 333 335
f 241 335 247
f 242 329 243
f 243 329 336
f 243 336 337
f 243 337 244
f 244 337 338
f 244 338 246
f 244 246 245
f 246 338 334
f 247 335 339
f 247 339 340
f 247 340 281
f 250 271 251
f 254 265 264
f 254 264 341
f 254 341 255
f 255 341 342
f 255 342 256
f 256 342 257
f 257 342 343
f 257 343 266
f 258 272 315
f 258 315 344
f 258 344 259
f 259 344 260
f 260 344 345
f 260 345 346
f 260 346 347
f 260 347 348
f 260 348 261
f 261 348 349
f 261 349 350
f 261 350 262
f 262 351 264
f 262 264 263
f 262 350 351
f 264 351 352
f 264 352 342
f 264 342 341
f 266 353 267
f 266 343 353
f 267 354 355
f 267 355 268
f 267 353 354
f 268 355 269
f 269 356 270
f 269 355 357
f 269 357 356
f 270 356 271
f 271 356 358
f 281 340 359
f 281 359 360
f 281 360 361
f 281 361 282
f 282 361 283
f 283 361 362
f 283 362 284
f 284 362 297
f 285 363 286
f 285 364 363
f 286 363 365
f 286 365 366
f 286 366 289
f 287 298 288
f 288 298 374
f 288 374 364
f 289 366 451
f 289 451 367
f 289 367 290
f 290 367 368
f 290 368 369
f 290 369 291
f 291 369 292
f 292 369 370
f 292 370 293
f 293 370 371
f 293 371 294
f 294 371 299
f 294 299 295
f 295 299 296
f 297 362 372
f 297 372 373
f 297 373 298
f 298 373 457
f 298 457 374
f 299 371 375
f 299 375 376
f 299 376 300
f 300 376 301
f 301 376 377
f 301 377 302
f 302 377 378
f 302 378 304
f 302 304 303
f 304 378 305
f 305 378 377
f 305 377 376
f 305 376 379
f 305 379 380
f 305 380 381
f 305 381 382
f 305 382 306
f 306 382 307
f 307 382 308
f 308 382 383
f 308 383 384
f 308 384 312
f 308 312 309
f 312 384 385
f 312 385 386
f 312 386 313
f 313 386 314
f 314 387 315
f 314 386 385
f 314 385 387
f 315 388 344
f 315 387 388
f 316 389 317
f 317 389 390
f 317 390 391
f 317 391 318
f 318 391 319
f 319 391 392
f 319 392 393
f 319 393 394
f 319 394 395
f 319 395 320
f 320 395 323
f 320 323 322
f 320 322 321
f 323 395 396
f 323 396 324
f 324 397 331
f 324 331 325
f 324 396 398
f 324 398 399
f 324 399 478
f 324 478 397
f 325 331 330
f 327 332 328
f 328 332 400
f 328 400 329
f 329 400 401
f 329 401 402
f 329 402 336
f 331 397 332
f 332 397 400
f 333 334 335
f 334 403 339
f 334 339 335
f 334 338 404
f 334 404 405
f 334 405 406
f 334 406 407
f 334 407 403
f 336 402 401
f 336 401 408
f 336 408 337
f 337 409 338
f 337 408 410
f 337 410 411
f 337 411 412
f 337 412 413
f 337 413 409
f 338 409 414
f 338 414 415
f 338 415 405
f 338 405 404
f 339 403 340
f 340 403 416
f 340 416 359
f 342 352 417
f 342 417 353
f 342 353 343
f 344 388 418
f 344 418 419
f 344 419 420
f 344 420 345
f 345 420 421
f 345 421 422
f 345 422 423
f 345 423 424
f 345 424 425
f 345 425 426
f 345 426 346
f 346 427 347
f 346 426 427
f 347 427 348
f 348 427 428
f 348 428 429
f 348 429 349
f 349 429 430
f 349 430 431
f 349 431 432
f 349 432 350
f 350 432 351
f 351 432 433
f 351 433 434
f 351 434 435
f 351 435 352
f 352 436 417
f 352 435 436
f 353 417 437
f 353 437 354
f 354 437 357
f 354 357 355
f 356 357 438
f 356 438 439
f 356 439 358
f 357 437 435
f 357 435 440
f 357 440 438
f 359 416 441
f 359 441 442
f 359 442 360
f 360 442 361
f 361 442 443
f 361 443 372
f 361 372 362
f 363 444 445
f 363 445 446
f 363 446 447
f 363 447 365
f 363 364 448
f 363 448 449
f 363 449 444
f 364 374 448
f 365 447 450
f 365 450 366
f 366 450 451
f 367 451 452
f 367 452 453
f 367 453 368
f 368 453 369
f 369 453 454
f 369 454 370
f 370 454 455
f 370 455 371
f 371 455 375
f 372 443 456
f 372 456 373
f 373 456 549
f 373 549 457
f 374 457 458
f 374 458 448
f 375 455 459
f 375 459 379
f 375 379 376
f 379 459 455
f 379 455 460
f 379 460 461
f 379 461 462
f 379 462 380
f 380 462 463
f 380 463 464
f 380 464 381
f 381 464 382
f 382 464 383
f 383 464 465
f 383 465 385
f 383 385 384
f 385 465 466
f 385 466 387
f 387 466 388
f 388 466 418
f 389 467 390
f 390 467 468
f 390 468 469
f 390 469 470
f 390 470 391
f 391 470 471
f 391 471 472
f 391 472 392
f 392 472 473
f 392 473 474
f 392 474 475
f 392 475 476
f 392 476 393
f 393 476 475
f 393 475 394
f 394 475 396
f 394 396 395
f 396 475 477
f 396 477 398
f 397 478 400
f 398 479 480
f 398 480 481
f 398 481 482
f 398 482 483
f 398 483 484
f 398 484 485
f 398 485 486
f 398 486 487
f 398 487 399
f 398 477 479
f 399 487 478
f 400 478 401
f 401 478 487
f 401 487 408
f 403 407 441
f 403 441 416
f 405 415 406
f 406 415 488
f 406 488 407
f 407 488 489
f 407 489 490
f 407 490 442
f 407 442 441
f 408 487 486
f 408 486 485
f 408 485 410
f 409 491 492
f 409 492 493
f 409 493 414
f 409 413 491
f 410 485 494
f 410 494 412
f 410 412 411
f 412 494 482
f 412 482 495
f 412 495 413
f 413 495 496
f 413 496 497
f 413 497 491
f 414 493 492
f 414 492 498
f 414 498 415
f 415 498 499
f 415 499 500
f 415 500 501
f 415 501 502
f 415 502 503
f 415 503 488
f 417 436 435
f 417 435 437
f 418 504 419
f 418 466 505
f 418 505 504
f 419 504 420
f 420 504 506
f 420 506 421
f 421 506 422
f 422 506 507
f 422 507 508
f 422 508 423
f 423 508 424
f 424 508 509
f 424 509 425
f 425 510 426
f 425 509 511
f 425 511 577
f 425 577 510
f 426 512 513
f 426 513 427
f 426 510 512
f 427 513 514
f 427 514 515
f 427 515 516
f 427 516 517
f 427 517 518
f 427 518 519
f 427 519 520
f 427 520 521
f 427 521 522
f 427 522 523
f 427 523 428
f 428 523 429
f 429 523 430
f 430 524 431
f 430 523 525
f 430 525 526
f 430 526 527
f 430 527 524
f 431 524 433
f 431 433 432
f 433 524 527
f 433 527 434
f 434 527 528
f 434 528 529
f 434 529 435
f 435 530 440
f 435 529 530
f 438 531 439
f 438 440 531
f 439 531 440
f 442 490 443
f 443 490 456
f 444 532 533
f 444 533 534
f 444 534 535
f 444 535 536
f 444 536 537
f 444 537 445
f 444 449 538
f 444 538 539
f 444 539 540
f 444 540 532
f 445 537 541
f 445 541 542
f 445 542 446
f 446 542 447
f 447 542 450
f 448 458 543
f 448 543 449
f 449 543 538
f 450 542 544
f 450 544 451
f 451 544 452
f 452 545 546
f 452 546 547
f 452 547 548
f 452 548 453
f 452 544 545
f 453 548 454
f 454 548 461
f 454 461 455
f 455 461 460
f 456 490 550
f 456 550 551
f 456 551 552
f 456 552 549
f 457 549 553
f 457 553 458
f 458 553 554
f 458 554 543
f 461 548 555
f 461 555 462
f 462 555 556
f 462 556 463
f 463 556 571
f 463 571 557
f 463 557 465
f 463 465 464
f 465 557 505
f 465 505 466
f 469 558 559
f 469 559 470
f 470 559 560
f 470 560 472
f 470 472 471
f 472 560 561
f 472 561 562
f 472 562 473
f 473 475 474
f 473 562 481
f 473 481 475
f 475 481 480
f 475 480 479
f 475 479 477
f 481 562 563
f 481 563 482
f 482 563 647
f 482 647 564
f 482 564 496
f 482 496 495
f 482 494 483
f 483 494 485
f 483 485 484
f 488 490 489
f 488 503 502
f 488 502 501
f 488 501 565
f 488 565 566
f 488 566 550
f 488 550 490
f 491 497 492
f 492 497 496
f 492 496 500
f 492 500 499
f 492 499 498
f 496 564 567
f 496 567 500
f 500 567 501
f 501 568 565
f 501 567 569
f 501 569 570
f 501 570 568
f 504 505 557
f 504 557 571
f 504 571 572
f 504 572 506
f 506 572 573
f 506 573 507
f 507 573 574
f 507 574 508
f 508 574 575
f 508 575 509
f 509 575 576
f 509 576 511
f 510 577 578
f 510 578 512
f 511 576 579
f 511 579 577
f 512 580 581
f 512 581 513
f 512 578 582
f 512 582 583
f 512 583 584
f 512 584 666
f 512 666 580
f 513 585 515
f 513 515 514
f 513 581 585
f 515 585 586
f 515 586 587
f 515 587 516
f 516 587 517
f 517 587 588
f 517 588 589
f 517 589 590
f 517 590 591
f 517 591 520
f 517 520 592
f 517 592 518
f 518 592 520
f 518 520 519
f 520 523 521
f 520 591 593
f 520 593 594
f 520 594 523
f 521 523 522
f 523 594 525
f 525 594 593
f 525 593 595
f 525 595 596
f 525 596 597
f 525 597 526
f 526 528 527
f 526 597 598
f 526 598 599
f 526 599 600
f 526 600 601
f 526 601 528
f 528 601 602
f 528 602 530
f 528 530 529
f 532 603 604
f 532 604 605
f 532 605 533
f 532 540 606
f 532 606 603
f 533 605 607
f 533 607 608
f 533 608 609
f 533 609 534
f 534 609 610
f 534 610 611
f 534 611 612
f 534 612 535
f 535 612 541
f 535 541 536
f 536 541 537
f 538 543 613
f 538 613 614
f 538 614 615
f 538 615 616
f 538 616 617
f 538 617 539
f 539 617 618
f 539 618 540
f 540 619 620
f 540 620 621
f 540 621 622
f 540 622 623
f 540 623 624
f 540 624 606
f 540 618 619
f 541 612 625
f 541 625 626
f 541 626 627
f 541 627 542
f 542 627 628
f 542 628 544
f 543 554 613
f 544 628 545
f 545 629 546
f 545 628 627
f 545 627 629
f 546 629 630
f 546 630 631
f 546 631 632
f 546 632 547
f 547 632 548
f 548 632 555
f 549 633 634
f 549 634 553
f 549 552 635
f 549 635 633
f 550 566 636
f 550 636 551
f 551 636 552
f 552 636 637
f 552 637 635
f 553 634 554
f 554 634 638
f 554 638 614
f 554 614 613
f 555 632 556
f 556 632 639
f 556 639 572
f 556 572 571
f 558 640 559
f 559 641 642
f 559 642 561
f 559 561 560
f 559 640 643
f 559 643 644
f 559 644 645
f 559 645 641
f 561 642 646
f 561 646 562
f 562 646 647
f 562 647 563
f 564 647 567
f 565 568 651
f 565 651 648
f 565 648 636
f 565 636 566
f 567 647 649
f 567 649 650
f 567 650 569
f 568 570 654
f 568 654 651
f 569 650 570
f 570 650 652
f 570 652 653
f 570 653 654
f 572 639 655
f 572 655 573
f 573 655 656
f 573 656 574
f 574 656 657
f 574 657 575
f 575 657 658
f 575 658 576
f 576 658 659
f 576 659 579
f 577 579 660
f 577 660 578
f 578 660 661
f 578 661 662
f 578 662 582
f 579 659 663
f 579 663 664
f 579 664 660
f 580 665 581
f 580 666 665
f 581 667 668
f 581 668 585
f 581 665 669
f 581 669 670
f 581 670 671
f 581 671 587
f 581 587 667
f 582 662 672
f 582 672 673
f 582 673 583
f 583 673 584
f 584 673 666
f 585 668 674
f 585 674 586
f 586 674 587
f 587 671 675
f 587 675 588
f 587 674 667
f 588 675 676
f 588 676 589
f 589 676 677
f 589 677 678
f 589 678 593
f 589 593 591
f 589 591 590
f 593 678 595
f 595 678 679
f 595 679 680
f 595 680 598
f 595 598 597
f 595 597 596
f 598 680 599
f 599 680 681
f 599 681 682
f 599 682 683
f 599 683 600
f 600 683 684
f 603 624 604
f 603 606 685
f 603 685 624
f 604 686 687
f 604 687 605
f 604 624 688
f 604 688 686
f 605 687 607
f 606 624 685
f 607 689 690
f 607 690 608
f 607 687 689
f 608 690 691
f 608 691 609
f 609 691 692
f 609 692 693
f 609 693 694
f 609 694 695
f 609 695 610
f 610 695 611
f 611 695 612
f 612 695 625
f 614 638 696
f 614 696 615
f 615 696 697
f 615 697 616
f 616 697 698
f 616 698 699
f 616 699 700
f 616 700 701
f 616 701 617
f 617 701 702
f 617 702 618
f 618 702 703
f 618 703 704
f 618 704 705
f 618 705 620
f 618 620 706
f 618 706 707
f 618 707 619
f 619 707 706
f 619 706 620
f 620 705 708
f 620 708 709
f 620 709 710
f 620 710 711
f 620 711 712
f 620 712 713
f 620 713 621
f 621 713 622
f 622 713 714
f 622 714 623
f 623 714 715
f 623 715 624
f 624 715 688
f 625 695 716
f 625 716 717
f 625 717 626
f 626 717 627
f 627 717 629
f 629 717 630
f 630 717 716
f 630 716 718
f 630 718 719
f 630 719 631
f 631 719 655
f 631 655 639
f 631 639 632
f 633 635 720
f 633 720 721
f 633 721 722
f 633 722 723
f 633 723 634
f 634 723 696
f 634 696 638
f 635 637 724
f 635 724 725
f 635 725 720
f 636 648 726
f 636 726 637
f 637 726 802
f 637 802 724
f 641 727 728
f 641 728 642
f 641 645 727
f 642 728 646
f 645 729 728
f 645 728 727
f 646 728 730
f 646 730 649
f 646 649 647
f 648 651 726
f 649 730 731
f 649 731 650
f 650 731 732
f 650 732 652
f 651 654 733
f 651 733 726
f 652 732 653
f 653 734 733
f 653 733 654
f 653 732 735
f 653 735 810
f 653 810 734
f 655 719 656
f 656 719 736
f 656 736 657
f 657 736 737
f 657 737 738
f 657 738 658
f 658 738 739
f 658 739 659
f 659 739 664
f 659 664 663
f 660 664 740
f 660 740 661
f 661 740 664
f 661 664 741
f 661 741 742
f 661 742 743
f 661 743 744
f 661 744 745
f 661 745 746
f 661 746 747
f 661 747 662
f 662 747 672
f 664 742 741
f 664 739 742
f 665 666 669
f 666 672 747
f 666 747 748
f 666 748 749
f 666 749 670
f 666 670 669
f 666 673 672
f 667 674 668
f 670 749 750
f 670 750 671
f 671 751 752
f 671 752 753
f 671 753 754
f 671 754 755
f 671 755 756
f 671 756 757
f 671 757 675
f 671 750 751
f 675 757 676
f 676 757 758
f 676 758 677
f 677 758 759
f 677 759 760
f 677 760 678
f 678 760 679
f 679 760 680
f 680 760 761
f 680 761 681
f 681 762 763
f 681 763 764
f 681 764 682
f 681 761 762
f 682 764 683
f 683 764 684
f 684 764 765
f 686 766 767
f 686 767 768
f 686 768 769
f 686 769 770
f 686 770 687
f 686 688 771
f 686 771 766
f 687 770 689
f 688 715 771
f 689 770 772
f 689 772 690
f 690 772 745
f 690 745 744
f 690 744 691
f 691 744 773
f 691 773 774
f 691 774 692
f 692 774 775
f 692 775 693
f 693 775 694
f 694 775 776
f 694 776 695
f 695 776 777
f 695 777 716
f 696 723 722
f 696 722 697
f 697 778 698
f 697 722 778
f 698 778 779
f 698 779 780
f 698 780 699
f 699 780 700
f 700 781 701
f 700 780 781
f 701 781 702
f 702 781 782
f 702 782 783
f 702 783 784
f 702 784 785
f 702 785 786
f 702 786 703
f 703 786 787
f 703 787 704
f 704 787 705
f 705 787 708
f 708 787 788
f 708 788 711
f 708 711 710
f 708 710 709
f 711 789 790
f 711 790 712
f 711 788 791
f 711 791 792
f 711 792 789
f 712 790 793
f 712 793 794
f 712 794 795
f 712 795 714
f 712 714 713
f 714 795 796
f 714 796 797
f 714 797 798
f 714 798 715
f 715 798 797
f 715 797 799
f 715 799 771
f 716 777 776
f 716 776 718
f 718 800 737
f 718 737 736
f 718 736 719
f 718 776 775
f 718 775 774
f 718 774 773
f 718 773 744
f 718 744 800
f 720 725 721
f 721 725 801
f 721 801 779
f 721 779 722
f 722 779 778
f 724 802 725
f 725 803 801
f 725 802 804
f 725 804 803
f 726 805 802
f 726 733 805
f 728 806 731
f 728 731 730
f 728 729 806
f 729 807 806
f 731 806 808
f 731 808 732
f 732 808 813
f 732 813 735
f 733 734 812
f 733 812 809
f 733 809 805
f 734 810 811
f 734 811 812
f 735 813 814
f 735 814 810
f 737 800 738
f 738 800 815
f 738 815 743
f 738 743 739
f 739 743 742
f 743 815 744
f 744 815 800
f 745 772 746
f 746 772 770
f 746 770 816
f 746 816 747
f 747 816 817
f 747 817 748
f 748 817 818
f 748 818 819
f 748 819 749
f 749 820 750
f 749 819 820
f 750 820 752
f 750 752 751
f 752 820 821
f 752 821 753
f 753 821 822
f 753 822 754
f 754 822 823
f 754 823 824
f 754 824 825
f 754 825 826
f 754 826 755
f 755 826 756
f 756 826 827
f 756 827 828
f 756 828 829
f 756 829 830
f 756 830 757
f 757 830 831
f 757 831 832
f 757 832 758
f 758 832 759
f 759 832 833
f 759 833 834
f 759 834 760
f 760 834 761
f 761 834 762
f 762 831 835
f 762 835 763
f 762 834 833
f 762 833 831
f 763 835 836
f 763 836 837
f 763 837 838
f 763 838 764
f 764 838 765
f 766 839 767
f 766 771 840
f 766 840 839
f 767 839 841
f 767 841 819
f 767 819 768
f 768 819 818
f 768 818 842
f 768 842 769
f 769 842 770
f 770 842 816
f 771 843 840
f 771 799 843
f 779 801 780
f 780 782 781
f 780 801 844
f 780 844 845
f 780 845 846
f 780 846 782
f 782 846 783
f 783 846 784
f 784 846 847
f 784 847 848
f 784 848 849
f 784 849 785
f 785 849 850
f 785 850 786
f 786 850 851
f 786 851 787
f 787 851 852
f 787 852 791
f 787 791 788
f 789 853 790
f 789 792 854
f 789 854 855
f 789 855 853
f 790 853 793
f 791 852 851
f 791 851 856
f 791 856 792
f 792 856 857
f 792 857 858
f 792 858 854
f 793 859 860
f 793 860 794
f 793 853 859
f 794 861 795
f 794 860 840
f 794 840 797
f 794 797 861
f 795 861 796
f 796 861 797
f 797 840 799
f 799 840 843
f 801 803 844
f 802 862 804
f 802 805 865
f 802 865 862
f 803 863 846
f 803 846 844
f 803 804 864
f 803 864 863
f 804 862 864
f 805 809 867
f 805 867 865
f 806 807 808
f 807 866 808
f 808 866 813
f 809 812 870
f 809 870 867
f 810 814 811
f 811 814 868
f 811 868 912
f 811 912 869
f 811 869 870
f 811 870 812
f 813 866 814
f 814 866 871
f 814 871 868
f 816 842 872
f 816 872 817
f 817 872 818
f 818 872 842
f 819 821 820
f 819 841 821
f 821 873 822
f 821 841 873
f 822 873 874
f 822 874 875
f 822 875 823
f 823 875 876
f 823 876 824
f 824 876 877
f 824 877 825
f 825 877 878
f 825 878 879
f 825 879 828
f 825 828 826
f 826 828 827
f 828 880 830
f 828 830 829
f 828 879 880
f 830 880 881
f 830 881 831
f 831 833 832
f 831 881 882
f 831 882 836
f 831 836 835
f 836 882 883
f 839 874 873
f 839 873 841
f 839 840 884
f 839 884 874
f 840 860 884
f 844 846 845
f 846 863 847
f 847 863 885
f 847 885 886
f 847 886 887
f 847 887 888
f 847 888 848
f 848 888 889
f 848 889 890
f 848 890 849
f 849 890 850
f 850 890 891
f 850 891 892
f 850 892 893
f 850 893 894
f 850 894 895
f 850 895 851
f 851 895 857
f 851 857 856
f 853 855 896
f 853 896 897
f 853 897 859
f 854 898 855
f 854 858 899
f 854 899 898
f 855 898 896
f 857 895 900
f 857 900 901
f 857 901 858
f 858 901 902
f 858 902 899
f 859 903 860
f 859 897 904
f 859 904 905
f 859 905 903
f 860 903 906
f 860 906 884
f 862 865 907
f 862 907 908
f 862 908 864
f 863 864 909
f 863 909 885
f 864 908 909
f 865 867 911
f 865 911 907
f 867 870 910
f 867 910 911
f 868 871 913
f 868 913 912
f 869 914 910
f 869 910 870
f 869 912 955
f 869 955 914
f 874 884 915
f 874 915 916
f 874 916 876
f 874 876 875
f 876 916 917
f 876 917 918
f 876 918 877
f 877 918 878
f 878 918 919
f 878 919 879
f 879 919 920
f 879 920 921
f 879 921 922
f 879 922 880
f 880 922 881
f 881 922 882
f 882 922 923
f 882 923 924
f 882 924 883
f 884 925 926
f 884 926 915
f 884 906 927
f 884 927 925
f 885 909 886
f 886 909 928
f 886 928 929
f 886 929 930
f 886 930 888
f 886 888 887
f 888 930 931
f 888 931 932
f 888 932 933
f 888 933 889
f 889 933 934
f 889 934 890
f 890 934 935
f 890 935 891
f 891 935 892
f 892 935 936
f 892 936 893
f 893 936 937
f 893 937 938
f 893 938 895
f 893 895 894
f 895 938 939
f 895 939 940
f 895 940 900
f 896 941 904
f 896 904 897
f 896 898 941
f 898 942 941
f 898 899 942
f 899 902 943
f 899 943 944
f 899 944 942
f 900 940 945
f 900 945 946
f 900 946 901
f 901 946 947
f 901 947 948
f 901 948 902
f 902 948 947
f 902 947 949
f 902 949 950
f 902 950 943
f 903 905 951
f 903 951 906
f 904 941 952
f 904 952 953
f 904 953 905
f 905 953 951
f 906 951 927
f 907 929 928
f 907 928 909
f 907 909 908
f 907 911 930
f 907 930 929
f 910 914 954
f 910 954 911
f 911 954 930
f 912 913 956
f 912 956 957
f 912 957 955
f 914 955 958
f 914 958 954
f 915 959 960
f 915 960 917
f 915 917 916
f 915 926 959
f 917 960 961
f 917 961 918
f 918 961 962
f 918 962 919
f 919 963 920
f 919 962 963
f 920 963 921
f 921 923 922
f 925 927 964
f 925 964 965
f 925 965 926
f 926 966 959
f 926 965 966
f 927 951 964
f 930 954 967
f 930 967 931
f 931 967 968
f 931 968 969
f 931 969 932
f 932 970 933
f 932 969 970
f 933 971 934
f 933 970 971
f 934 971 935
f 935 972 936
f 935 971 973
f 935 973 1009
f 935 1009 972
f 936 972 974
f 936 974 937
f 937 975 938
f 937 974 975
f 938 975 940
f 938 940 939
f 940 975 945
f 941 942 976
f 941 976 952
f 942 944 977
f 942 977 976
f 943 950 978
f 943 978 944
f 944 978 979
f 944 979 980
f 944 980 977
f 945 975 974
f 945 974 981
f 945 981 947
f 945 947 946
f 947 981 982
f 947 982 949
f 949 982 983
f 949 983 978
f 949 978 950
f 951 953 984
f 951 984 985
f 951 985 986
f 951 986 964
f 952 976 987
f 952 987 988
f 952 988 989
f 952 989 953
f 953 989 990
f 953 990 984
f 954 958 991
f 954 991 967
f 955 992 993
f 955 993 958
f 955 957 994
f 955 994 992
f 958 993 991
f 959 966 995
f 959 995 960
f 960 995 996
f 960 996 961
f 961 996 997
f 961 997 998
f 961 998 962
f 964 986 965
f 965 986 999
f 965 999 1000
f 965 1000 1001
f 965 1001 966
f 966 1001 1002
f 966 1002 995
f 967 991 1028
f 967 1028 1003
f 967 1003 968
f 968 970 1004
f 968 1004 969
f 968 1003 1005
f 968 1005 1006
f 968 1006 1007
f 968 1007 1008
f 968 1008 982
f 968 982 981
f 968 981 1009
f 968 1009 973
f 968 973 971
f 968 971 970
f 969 1004 970
f 972 1009 981
f 972 981 974
f 976 977 987
f 977 1010 987
f 977 980 1010
f 978 983 979
f 979 1011 980
f 979 983 1012
f 979 1012 1013
f 979 1013 1014
f 979 1014 1011
f 980 1011 1015
f 980 1015 1010
f 982 1008 1013
f 982 1013 1012
f 982 1012 983
f 984 990 985
f 985 990 986
f 986 990 1016
f 986 1016 1017
f 986 1017 1018
f 986 1018 1019
f 986 1019 999
f 987 1020 988
f 987 1010 1020
f 988 1020 1021
f 988 1021 1022
f 988 1022 1023
f 988 1023 1024
f 988 1024 1025
f 988 1025 990
f 988 990 989
f 990 1025 1016
f 991 993 1026
f 991 1026 1027
f 991 1027 1028
f 992 1029 993
f 992 994 1030
f 992 1030 1029
f 993 1029 1031
f 993 1031 1026
f 995 1002 996
f 996 1002 997
f 999 1019 1032
f 999 1032 1000
f 1000 1032 1033
f 1003 1028 1034
f 1003 1034 1005
f 1005 1034 1006
f 1006 1034 1007
f 1007 1034 1008
f 1008 1034 1013
f 1010 1015 1035
f 1010 1035 1036
f 1010 1036 1020
f 1011 1037 1015
f 1011 1014 1038
f 1011 1038 1039
f 1011 1039 1037
f 1013 1040 1014
f 1013 1034 1040
f 1014 1040 1034
f 1014 1034 1041
f 1014 1041 1028
f 1014 1028 1027
f 1014 1027 1039
f 1014 1039 1038
f 1015 1042 1043
f 1015 1043 1044
f 1015 1044 1035
f 1015 1037 1042
f 1016 1045 1017
f 1016 1025 1024
f 1016 1024 1045
f 1017 1045 1046
f 1017 1046 1047
f 1017 1047 1018
f 1018 1047 1048
f 1018 1048 1019
f 1019 1048 1049
f 1019 1049 1032
f 1020 1036 1050
f 1020 1050 1051
f 1020 1051 1052
f 1020 1052 1053
f 1020 1053 1022
f 1020 1022 1021
f 1022 1053 1054
f 1022 1054 1055
f 1022 1055 1056
f 1022 1056 1057
f 1022 1057 1024
f 1022 1024 1023
f 1024 1046 1045
f 1024 1057 1058
f 1024 1058 1059
f 1024 1059 1060
f 1024 1060 1061
f 1024 1061 1062
f 1024 1062 1046
f 1026 1031 1063
f 1026 1063 1027
f 1027 1063 1064
f 1027 1064 1065
f 1027 1065 1039
f 1028 1041 1034
f 1029 1030 1031
f 1030 1066 1031
f 1031 1064 1063
f 1031 1066 1067
f 1031 1067 1068
f 1031 1068 1069
f 1031 1069 1064
f 1032 1049 1033
f 1033 1049 1048
f 1033 1048 1070
f 1037 1071 1042
f 1037 1039 1064
f 1037 1064 1071
f 1039 1065 1064
f 1046 1062 1072
f 1046 1072 1047
f 1047 1072 1048
f 1048 1072 1070
f 1064 1069 1071

