# https://github.com/mikedh/trimesh
v 0.02600226 0.00070265 -0.04221812
v 0.02600226 0.00097740 -0.04221812
v 0.02600671 -0.00097906 -0.04221812
v 0.01917472 0.00114044 0.00222031
v 0.02620255 0.00277686 -0.04221812
v 0.02602007 -0.00111795 -0.04221812
v 0.01922813 -0.00097906 0.00222031
v 0.02000257 0.00445857 0.00222031
v 0.02669659 0.00489937 -0.04221812
v 0.02619365 -0.00267587 -0.04221812
v 0.01944622 -0.00221996 0.00222031
v 0.02621145 -0.00278456 -0.04221812
v 0.02013165 0.00489937 0.00222031
v 0.02748883 0.00685885 -0.04221812
v 0.01969992 -0.00325858 0.00222031
v 0.02670104 -0.00489198 -0.04221812
v 0.02062569 0.00602856 0.00222031
v 0.02854813 0.00867039 -0.04221812
v 0.02090164 0.00662939 0.00222031
v 0.02012275 -0.00489802 0.00222031
v 0.02675890 -0.00509125 -0.04221812
v 0.02863714 0.00877304 -0.04221812
v 0.02116423 0.00702189 0.00222031
v 0.02089273 -0.00663709 0.00222031
v 0.02727519 -0.00638952 -0.04221812
v 0.02747993 -0.00686052 -0.04221812
v 0.02269086 0.00871568 0.00222031
v 0.03043527 0.01075969 -0.04221812
v 0.02172059 -0.00761834 0.00222031
v 0.02767577 -0.00725906 -0.04221812
v 0.02851697 -0.00866300 -0.04221812
v 0.02854813 -0.00871432 -0.04221812
v 0.02938488 -0.00979823 -0.04221812
v 0.02308698 0.00908402 0.00222031
v 0.03045307 0.01077479 -0.04221812
v 0.02267751 -0.00872942 0.00222031
v 0.03042192 -0.01077344 -0.04221812
v 0.02375015 0.00962748 0.00222031
v 0.03238472 0.01223006 -0.04221812
v 0.02374125 -0.00963519 0.00222031
v 0.03148566 -0.01166713 -0.04221812
v 0.02462251 0.01022831 0.00222031
v 0.03300784 0.01255010 -0.04221812
v 0.02521447 0.01055741 0.00222031
v 0.02655416 0.01124579 0.00222031
v 0.02461806 -0.01024205 0.00222031
v 0.03238027 -0.01224984 -0.04221812
v 0.03434308 0.01323244 -0.04221812
v 0.02701705 0.01147525 0.00222031
v 0.02653636 -0.01126255 0.00222031
v 0.03429857 -0.01324920 -0.04221812
v 0.03638155 0.01398725 -0.04221812
v 0.02756449 0.01171679 0.00222031
v 0.02752444 -0.01171845 0.00222031
v 0.03433418 -0.01326430 -0.04221812
v 0.03822863 0.01447636 -0.04221812
v 0.02845021 0.01204287 0.00222031
v 0.02906442 0.01224515 0.00222031
v 0.03038631 0.01264067 0.00222031
v 0.02755560 -0.01173053 0.00222031
v 0.03538457 -0.01369605 -0.04221812
v 0.04019144 0.01485980 -0.04221812
v 0.03110734 0.01282485 0.00222031
v 0.03234912 0.01310563 0.00222031
v 0.02843686 -0.01205661 0.00222031
v 0.03632814 -0.01400401 -0.04221812
v 0.04214534 0.01512550 -0.04221812
v 0.03307015 0.01323546 0.00222031
v 0.03430747 0.01345586 0.00222031
v 0.03583410 0.01366419 0.00222031
v 0.03038631 -0.01265441 0.00222031
v 0.03635929 -0.01401307 -0.04221812
v 0.03645276 0.01373665 0.00222031
v 0.03681328 0.01377288 0.00222031
v 0.03822863 0.01389969 0.00222031
v 0.04410815 0.01530061 -0.04221812
v 0.03817077 -0.01449614 -0.04221812
v 0.03234912 -0.01311334 0.00222031
v 0.03894967 0.01394196 0.00222031
v 0.04420607 0.01530665 -0.04221812
v 0.03822863 -0.01450822 -0.04221812
v 0.03430747 -0.01345149 0.00222031
v 0.04011132 -0.01487053 -0.04221812
v 0.04019144 0.01400838 0.00222031
v 0.04614217 0.01541232 -0.04221812
v 0.03523769 -0.01358132 0.00222031
v 0.04019144 -0.01488260 -0.04221812
v 0.04091247 0.01402348 0.00222031
v 0.04214534 0.01403254 0.00222031
v 0.04800706 0.01542138 -0.04221812
v 0.03586526 -0.01365982 0.00222031
v 0.04205188 -0.01513320 -0.04221812
v 0.04286638 0.01400838 0.00222031
v 0.04998767 0.01533986 -0.04221812
v 0.03684443 -0.01376851 0.00222031
v 0.04214534 -0.01514226 -0.04221812
v 0.04410815 0.01393894 0.00222031
v 0.05010339 0.01533080 -0.04221812
v 0.03777910 -0.01385305 0.00222031
v 0.04399688 -0.01530530 -0.04221812
v 0.04479358 0.01388157 0.00222031
v 0.05195048 0.01517079 -0.04221812
v 0.03822863 -0.01389230 0.00222031
v 0.04410815 -0.01531133 -0.04221812
v 0.04577276 0.01378194 0.00222031
v 0.05204394 0.01515871 -0.04221812
v 0.04683650 0.01369740 0.00135903
v 0.04019144 -0.01399797 0.00222031
v 0.04614662 -0.01541701 -0.04221812
v 0.04668962 0.01367325 0.00222031
v 0.05398005 0.01482961 -0.04221812
v 0.04700118 0.01358267 0.00222031
v 0.04783793 0.01344681 0.00081530
v 0.05600961 0.01430125 -0.04221812
v 0.04214534 -0.01402514 0.00222031
v 0.04800261 -0.01542305 -0.04221812
v 0.04796255 0.01328981 0.00222031
v 0.04998767 0.01336529 -0.00686225
v 0.04998767 0.01319621 -0.00490480
v 0.05195048 0.01317508 -0.01274330
v 0.05195048 0.01299996 -0.01078585
v 0.05715347 0.01386950 -0.04221812
v 0.04998767 -0.01533549 -0.04221812
v 0.04410815 -0.01393155 0.00222031
v 0.04874590 0.01296373 0.00222031
v 0.04998767 0.01280371 -0.00098121
v 0.04998767 0.01300902 -0.00294300
v 0.05195048 0.01280069 -0.00882405
v 0.05390883 0.01274333 -0.01666689
v 0.05390883 0.01293656 -0.01862434
v 0.05790121 0.01353738 -0.04221812
v 0.05195048 -0.01515735 -0.04221812
v 0.04560362 -0.01378059 0.00222031
v 0.05008559 0.01231762 0.00222031
v 0.04998767 0.01254104 0.00097624
v 0.05144753 0.01204287 -0.00098121
v 0.05169678 0.01217269 -0.00294300
v 0.05195048 0.01255312 -0.00686225
v 0.05390883 0.01249877 -0.01470509
v 0.05561794 0.01225119 -0.02058179
v 0.05987291 0.01232667 -0.04221812
v 0.05600517 0.01226931 -0.02262623
v 0.05390883 -0.01483430 -0.04221812
v 0.04658280 -0.01365680 0.00222031
v 0.04596414 -0.01374134 0.00222031
v 0.05049061 0.01209419 0.00222031
v 0.05117603 0.01188587 0.00097624
v 0.05267596 0.01160206 -0.00294300
v 0.05284509 0.01171075 -0.00425667
v 0.05300087 0.01180737 -0.00556164
v 0.05314774 0.01190096 -0.00686225
v 0.05209290 0.01221798 -0.00490480
v 0.05337029 0.01203683 -0.00882405
v 0.05359728 0.01216665 -0.01078585
v 0.05402455 0.01219383 -0.01288684
v 0.05501708 0.01184963 -0.01470509
v 0.05688642 0.01178925 -0.02333527
v 0.05988627 0.01231762 -0.04221812
v 0.05601406 -0.01430895 -0.04221812
v 0.04802931 -0.01334884 0.00097624
v 0.04802931 -0.01324618 0.00222031
v 0.05099800 0.01178019 0.00222031
v 0.05242671 0.01142996 -0.00098121
v 0.05375751 0.01114314 -0.00490480
v 0.05412692 0.01121258 -0.00686225
v 0.05435391 0.01138769 -0.00882405
v 0.05457646 0.01155073 -0.01078585
v 0.05490581 0.01177415 -0.01363937
v 0.05675290 0.01168660 -0.02203030
v 0.06070967 0.01171679 -0.04221812
v 0.05195048 -0.01299559 -0.01078585
v 0.05195048 -0.01317070 -0.01274330
v 0.04998767 -0.01335488 -0.00686225
v 0.05767422 -0.01364472 -0.04221812
v 0.04998767 -0.01317976 -0.00490480
v 0.04998767 -0.01299257 -0.00294300
v 0.04998767 -0.01278424 -0.00098121
v 0.04998767 -0.01252157 0.00097624
v 0.05009004 -0.01230720 0.00222031
v 0.05156771 0.01141185 0.00222031
v 0.05331242 0.01014075 0.00222031
v 0.05346375 0.01026756 0.00097624
v 0.05370855 0.01045173 -0.00098121
v 0.05190597 0.01119144 0.00222031
v 0.05407351 0.01051816 -0.00286471
v 0.05515506 0.01004716 -0.00490480
v 0.05536870 0.01023133 -0.00686225
v 0.05558233 0.01040644 -0.00882405
v 0.05599626 0.01107671 -0.01470509
v 0.05619209 0.01124881 -0.01666689
v 0.05659712 0.01157187 -0.02058179
v 0.05715347 0.01009848 -0.01470509
v 0.06144850 0.01088348 -0.04221812
v 0.05696654 0.00991431 -0.01274330
v 0.05877357 0.00976033 -0.02175191
v 0.05867120 0.00963956 -0.02058179
v 0.05390883 -0.01274197 -0.01666689
v 0.05195048 -0.01278726 -0.00882405
v 0.05803473 -0.01348168 -0.04221812
v 0.05195048 -0.01253365 -0.00686225
v 0.05142973 -0.01203547 -0.00098121
v 0.05116268 -0.01188149 0.00097624
v 0.05092679 -0.01181205 0.00222031
v 0.05429160 0.00912629 0.00222031
v 0.05444293 0.00931650 0.00097624
v 0.05468773 0.00959427 -0.00098121
v 0.05483905 0.00975127 -0.00216438
v 0.05499483 0.00990223 -0.00346934
v 0.05686417 0.00981468 -0.01169497
v 0.06252115 0.00949464 -0.04221812
v 0.05908957 0.00822656 -0.01666689
v 0.05849316 0.00942821 -0.01862434
v 0.05561794 -0.01224682 -0.02058179
v 0.05541321 -0.01211699 -0.01862434
v 0.05390883 -0.01249138 -0.01470509
v 0.05983731 -0.01239476 -0.04221812
v 0.05357502 -0.01215926 -0.01078585
v 0.05312104 -0.01188149 -0.00686225
v 0.05298307 -0.01179393 -0.00565298
v 0.05282284 -0.01169732 -0.00434802
v 0.05264925 -0.01158259 -0.00294300
v 0.05240891 -0.01141653 -0.00098121
v 0.05099800 -0.01177884 0.00215941
v 0.05189707 -0.01119311 0.00222031
v 0.05106031 -0.01172751 0.00222031
v 0.05459870 0.00876700 0.00222031
v 0.05527523 0.00833827 0.00097624
v 0.05552003 0.00861604 -0.00098121
v 0.05613424 0.00896627 -0.00490480
v 0.05634788 0.00923800 -0.00686225
v 0.05656151 0.00948558 -0.00882405
v 0.05672619 0.00966975 -0.01038566
v 0.05742497 0.00893910 -0.01093809
v 0.05813265 0.00896627 -0.01470509
v 0.05831513 0.00920781 -0.01666689
v 0.06068741 0.00769518 -0.02407475
v 0.06253895 0.00946143 -0.04221812
v 0.05891154 0.00798502 -0.01470509
v 0.05520847 -0.01198113 -0.01666689
v 0.05688197 -0.01178488 -0.02335267
v 0.05500373 -0.01184224 -0.01470509
v 0.05401565 -0.01218643 -0.01291729
v 0.05987737 -0.01236759 -0.04221812
v 0.05489692 -0.01176676 -0.01368722
v 0.05474113 -0.01166411 -0.01238226
v 0.05432721 -0.01137426 -0.00882405
v 0.05410021 -0.01119915 -0.00686225
v 0.05370410 -0.01043830 -0.00098121
v 0.05346375 -0.01026017 0.00097624
v 0.05331242 -0.01013940 0.00222031
v 0.05512391 0.00814504 0.00222031
v 0.05685082 0.00784010 -0.00392173
v 0.05695764 0.00798502 -0.00490480
v 0.05716238 0.00825675 -0.00686225
v 0.05736266 0.00850433 -0.00882405
v 0.05881808 0.00785218 -0.01367417
v 0.06056279 0.00747477 -0.02254359
v 0.06108354 0.00649353 -0.02254359
v 0.06303744 0.00848320 -0.04221812
v 0.05993523 -0.01232230 -0.04221812
v 0.05674845 -0.01168524 -0.02204770
v 0.05659712 -0.01157051 -0.02058179
v 0.05639239 -0.01141351 -0.01862434
v 0.05618764 -0.01124745 -0.01666689
v 0.05556898 -0.01039301 -0.00882405
v 0.05535534 -0.01021790 -0.00686225
v 0.05407351 -0.01049567 -0.00288211
v 0.05513726 -0.01003071 -0.00490480
v 0.05498148 -0.00988880 -0.00349544
v 0.05483460 -0.00974690 -0.00219047
v 0.05367294 -0.00979521 0.00222031
v 0.05592505 0.00681054 0.00222031
v 0.05649920 0.00722116 -0.00098121
v 0.05669504 0.00757441 -0.00261676
v 0.05717573 0.00689810 -0.00313875
v 0.05758965 0.00685885 -0.00490480
v 0.05800802 0.00685885 -0.00686225
v 0.05842195 0.00679545 -0.00868920
v 0.05853767 0.00736608 -0.01078585
v 0.05869345 0.00764385 -0.01236920
v 0.05954356 0.00685885 -0.01470509
v 0.05989517 0.00685885 -0.01666689
v 0.06040256 0.00717587 -0.02058179
v 0.06093221 0.00619462 -0.02058179
v 0.06248554 0.00518016 -0.02842463
v 0.06364720 0.00693735 -0.04221812
v 0.05733595 -0.01026621 -0.01666689
v 0.06143960 -0.01094553 -0.04221812
v 0.06058950 -0.01161580 -0.04154389
v 0.05714902 -0.01009109 -0.01470509
v 0.05686417 -0.00981332 -0.01169932
v 0.05672174 -0.00966840 -0.01039436
v 0.05551112 -0.00861167 -0.00098121
v 0.05468327 -0.00958990 -0.00098121
v 0.05655261 -0.00948121 -0.00882405
v 0.05633452 -0.00923363 -0.00686225
v 0.05699324 -0.00802896 -0.00524844
v 0.05444293 -0.00932119 0.00097624
v 0.05429160 -0.00913098 0.00222031
v 0.05665498 0.00522243 0.00222031
v 0.05673509 0.00553945 0.00149388
v 0.05689533 0.00597120 0.00018891
v 0.05630782 0.00671997 0.00089359
v 0.05703330 0.00623991 -0.00098121
v 0.05878692 0.00581722 -0.00794972
v 0.05892044 0.00609801 -0.00925469
v 0.05906732 0.00638483 -0.01078585
v 0.05916969 0.00693735 -0.01290859
v 0.06082539 0.00598931 -0.01927247
v 0.06030909 0.00672903 -0.01862434
v 0.06204046 0.00489937 -0.02450104
v 0.06238763 0.00474237 -0.02656288
v 0.06275259 0.00398455 -0.02728496
v 0.06367391 0.00685885 -0.04221812
v 0.06148856 -0.01088817 -0.04221812
v 0.05868010 -0.00965028 -0.02058179
v 0.05878247 -0.00976803 -0.02172146
v 0.05742497 -0.00893775 -0.01094244
v 0.05736266 -0.00849996 -0.00882405
v 0.05850207 -0.00943894 -0.01862434
v 0.05831513 -0.00921551 -0.01666689
v 0.05812820 -0.00897700 -0.01470509
v 0.05882697 -0.00786290 -0.01363937
v 0.05527968 -0.00833994 0.00097624
v 0.05716238 -0.00825238 -0.00686225
v 0.05869790 -0.00764552 -0.01233441
v 0.05684637 -0.00783271 -0.00393913
v 0.05482125 -0.00851203 0.00222031
v 0.05696208 0.00429251 0.00222031
v 0.05709116 0.00489032 0.00089359
v 0.05753624 0.00489937 -0.00098121
v 0.05798578 0.00489937 -0.00294300
v 0.05867565 0.00546699 -0.00686225
v 0.05899166 0.00448574 -0.00686225
v 0.05918304 0.00505637 -0.00868920
v 0.05965038 0.00489937 -0.01078585
v 0.06003314 0.00489937 -0.01274330
v 0.06059840 0.00538547 -0.01666689
v 0.06071412 0.00572664 -0.01796751
v 0.06174671 0.00489937 -0.02254359
v 0.06266357 0.00357393 -0.02598000
v 0.06286831 0.00292782 -0.02656288
v 0.06309975 0.00293989 -0.02842463
v 0.06419020 0.00496882 -0.04221812
v 0.06255675 -0.00947819 -0.04221812
v 0.05926761 -0.00846071 -0.01862434
v 0.05909847 -0.00823427 -0.01666689
v 0.05892489 -0.00799575 -0.01470509
v 0.06057170 -0.00748550 -0.02254359
v 0.06041146 -0.00719263 -0.02058179
v 0.05990852 -0.00686052 -0.01666689
v 0.05955691 -0.00686052 -0.01470509
v 0.05917859 -0.00693902 -0.01289119
v 0.05907622 -0.00638952 -0.01078585
v 0.05512835 -0.00814973 0.00222031
v 0.05854212 -0.00737077 -0.01078585
v 0.05800357 -0.00686052 -0.00686225
v 0.05743833 -0.00705073 -0.00471776
v 0.05726029 -0.00664917 -0.00294300
v 0.05672619 -0.00763042 -0.00294300
v 0.05548887 -0.00757305 0.00222031
v 0.05723804 0.00291574 0.00222031
v 0.05753624 0.00293989 0.00097624
v 0.05800357 0.00293989 -0.00098121
v 0.05871570 0.00332334 -0.00434367
v 0.05886258 0.00408418 -0.00565298
v 0.05847536 0.00480276 -0.00496135
v 0.06081649 0.00406607 -0.01543153
v 0.06044707 0.00479068 -0.01474859
v 0.06093221 0.00440422 -0.01666689
v 0.06107019 0.00500505 -0.01862434
v 0.06143070 0.00489937 -0.02058179
v 0.06257011 0.00292782 -0.02446624
v 0.06278820 0.00226661 -0.02509262
v 0.06196034 0.00293989 -0.02058179
v 0.06227635 0.00293989 -0.02254359
v 0.06331784 0.00097740 -0.02842463
v 0.06353593 0.00097740 -0.03038208
v 0.06330004 0.00293989 -0.03038208
v 0.06420356 0.00489635 -0.04221812
v 0.06301074 -0.00856336 -0.04221812
v 0.06109243 -0.00650727 -0.02254359
v 0.06068741 -0.00769684 -0.02403995
v 0.06093666 -0.00621138 -0.02058179
v 0.06082984 -0.00599702 -0.01925942
v 0.06031800 -0.00673371 -0.01861564
v 0.05892489 -0.00610269 -0.00925034
v 0.06071857 -0.00573435 -0.01795446
v 0.05842195 -0.00679711 -0.00868920
v 0.05703330 -0.00623252 -0.00098121
v 0.05878692 -0.00581888 -0.00794537
v 0.05649030 -0.00721377 -0.00098121
v 0.05592950 -0.00680919 0.00222031
v 0.05741162 0.00097740 0.00222031
v 0.05881808 0.00201601 -0.00388258
v 0.05852432 0.00277686 -0.00311700
v 0.05893825 0.00277686 -0.00496135
v 0.05932992 0.00293989 -0.00686225
v 0.05973939 0.00293989 -0.00882405
v 0.06014441 0.00293989 -0.01078585
v 0.06069632 0.00351657 -0.01412656
v 0.06161764 0.00293989 -0.01862434
v 0.06283270 0.00097740 -0.02480553
v 0.06306860 0.00097740 -0.02646283
v 0.06216953 0.00097740 -0.02058179
v 0.06248999 0.00097740 -0.02254359
v 0.06268582 0.00097740 -0.02382680
v 0.06081649 0.00220924 -0.01349583
v 0.06331339 -0.00097906 -0.02842463
v 0.06352703 -0.00097906 -0.03038208
v 0.06464418 -0.00097906 -0.04221812
v 0.06461748 0.00097740 -0.04196582
v 0.06463528 0.00121290 -0.04221812
v 0.06453291 0.00269836 -0.04221812
v 0.06452401 0.00278591 -0.04221812
v 0.06434153 0.00399662 -0.04221812
v 0.06304189 -0.00849996 -0.04221812
v 0.06249444 -0.00517881 -0.02842463
v 0.06204491 -0.00489802 -0.02450104
v 0.06175561 -0.00489802 -0.02254359
v 0.06144850 -0.00489802 -0.02058179
v 0.06060285 -0.00540223 -0.01666689
v 0.06108354 -0.00500671 -0.01861564
v 0.06094111 -0.00442098 -0.01666689
v 0.05689533 -0.00596984 0.00018891
v 0.06004205 -0.00489802 -0.01274330
v 0.05966373 -0.00489802 -0.01078585
v 0.05918749 -0.00505804 -0.00868920
v 0.05899166 -0.00449042 -0.00686225
v 0.05867120 -0.00546865 -0.00686225
v 0.05630782 -0.00671861 0.00089795
v 0.05622770 -0.00620233 0.00222031
v 0.05741607 -0.00097906 0.00222031
v 0.05771427 0.00097740 0.00097624
v 0.05817716 0.00097740 -0.00098121
v 0.05860889 0.00097740 -0.00285166
v 0.05883143 0.00097740 -0.00383038
v 0.05906732 0.00097740 -0.00490480
v 0.05949460 0.00097740 -0.00686225
v 0.05991742 0.00097740 -0.00882405
v 0.06055834 0.00289159 -0.01280419
v 0.06092331 0.00289159 -0.01474859
v 0.06126602 0.00293989 -0.01666689
v 0.06268582 -0.00097906 -0.02384855
v 0.06282825 -0.00097906 -0.02482728
v 0.06305970 -0.00097906 -0.02646283
v 0.06181792 0.00097740 -0.01862434
v 0.06146185 -0.00097906 -0.01666689
v 0.06216063 -0.00097906 -0.02058179
v 0.06248999 -0.00097906 -0.02254359
v 0.06084764 0.00097740 -0.01333923
v 0.06110579 0.00097740 -0.01470509
v 0.06032690 0.00097740 -0.01078585
v 0.06065181 0.00097740 -0.01236051
v 0.06278374 -0.00223506 -0.02512307
v 0.06309530 -0.00293854 -0.02842463
v 0.06330449 -0.00293854 -0.03038208
v 0.06452846 -0.00279060 -0.04221812
v 0.06455962 -0.00232262 -0.04221812
v 0.06463973 0.00097740 -0.04221812
v 0.06367836 -0.00686052 -0.04221812
v 0.06282380 -0.00420058 -0.02842463
v 0.06239207 -0.00473498 -0.02658463
v 0.06274814 -0.00397414 -0.02731541
v 0.06265912 -0.00354239 -0.02601045
v 0.06227635 -0.00293854 -0.02254359
v 0.06196034 -0.00293854 -0.02058179
v 0.06045152 -0.00480140 -0.01472684
v 0.06082094 -0.00408283 -0.01539673
v 0.05673509 -0.00554413 0.00149388
v 0.05799022 -0.00489802 -0.00294300
v 0.05754069 -0.00489802 -0.00098121
v 0.05886258 -0.00408585 -0.00564863
v 0.05847091 -0.00480442 -0.00495700
v 0.05665498 -0.00522711 0.00222031
v 0.05724694 -0.00291741 0.00222031
v 0.05754959 -0.00293854 0.00097624
v 0.05881808 -0.00200560 -0.00389128
v 0.05771872 -0.00097906 0.00097624
v 0.05818161 -0.00097906 -0.00098121
v 0.05883143 -0.00097906 -0.00383473
v 0.05906732 -0.00097906 -0.00490480
v 0.05949460 -0.00097906 -0.00686225
v 0.05991742 -0.00097906 -0.00882405
v 0.06110579 -0.00097906 -0.01470509
v 0.06081204 -0.00221695 -0.01350888
v 0.06084764 -0.00097906 -0.01334793
v 0.06032690 -0.00097906 -0.01078585
v 0.06285496 -0.00290835 -0.02658463
v 0.06256566 -0.00290835 -0.02448364
v 0.06420800 -0.00489802 -0.04221812
v 0.06162208 -0.00293854 -0.01862434
v 0.06127492 -0.00293854 -0.01666689
v 0.06070077 -0.00352427 -0.01409176
v 0.05709561 -0.00489198 0.00089795
v 0.05691758 -0.00444212 0.00222031
v 0.05696208 -0.00429719 0.00222031
v 0.05974384 -0.00293854 -0.00882405
v 0.05932992 -0.00293854 -0.00686225
v 0.05871570 -0.00331292 -0.00434367
v 0.05801248 -0.00293854 -0.00098121
v 0.05700659 -0.00410698 0.00222031
v 0.06014887 -0.00293854 -0.01078585
v 0.05893825 -0.00277248 -0.00495700
v 0.05852432 -0.00277248 -0.00312135
v 0.06092776 -0.00289929 -0.01472684
v 0.06055834 -0.00289929 -0.01281289
f 1 2 5
f 1 5 9
f 1 9 14
f 1 14 18
f 1 18 22
f 1 22 28
f 1 28 35
f 1 35 39
f 1 39 43
f 1 43 48
f 1 48 52
f 1 52 56
f 1 56 62
f 1 62 67
f 1 67 76
f 1 76 80
f 1 80 85
f 1 85 90
f 1 90 94
f 1 94 98
f 1 98 102
f 1 102 106
f 1 106 111
f 1 111 114
f 1 114 122
f 1 122 131
f 1 131 141
f 1 141 158
f 1 158 170
f 1 170 193
f 1 193 210
f 1 210 237
f 1 237 259
f 1 259 286
f 1 286 314
f 1 314 344
f 1 344 380
f 1 380 416
f 1 416 415
f 1 415 414
f 1 414 413
f 1 413 460
f 1 460 411
f 1 411 459
f 1 459 458
f 1 458 491
f 1 491 461
f 1 461 417
f 1 417 381
f 1 381 345
f 1 345 315
f 1 315 288
f 1 288 260
f 1 260 243
f 1 243 216
f 1 216 199
f 1 199 174
f 1 174 159
f 1 159 143
f 1 143 132
f 1 132 123
f 1 123 116
f 1 116 109
f 1 109 104
f 1 104 100
f 1 100 96
f 1 96 92
f 1 92 87
f 1 87 83
f 1 83 81
f 1 81 77
f 1 77 72
f 1 72 66
f 1 66 61
f 1 61 55
f 1 55 51
f 1 51 47
f 1 47 41
f 1 41 37
f 1 37 33
f 1 33 32
f 1 32 31
f 1 31 30
f 1 30 26
f 1 26 25
f 1 25 21
f 1 21 16
f 1 16 12
f 1 12 10
f 1 10 6
f 1 6 3
f 1 3 4
f 1 4 2
f 2 4 5
f 3 6 7
f 3 7 4
f 4 7 11
f 4 11 15
f 4 15 20
f 4 20 24
f 4 24 29
f 4 29 36
f 4 36 40
f 4 40 46
f 4 46 50
f 4 50 54
f 4 54 60
f 4 60 65
f 4 65 71
f 4 71 78
f 4 78 82
f 4 82 86
f 4 86 91
f 4 91 95
f 4 95 99
f 4 99 103
f 4 103 108
f 4 108 115
f 4 115 124
f 4 124 133
f 4 133 145
f 4 145 144
f 4 144 161
f 4 161 179
f 4 179 203
f 4 203 225
f 4 225 224
f 4 224 250
f 4 250 271
f 4 271 299
f 4 299 328
f 4 328 355
f 4 355 361
f 4 361 393
f 4 393 432
f 4 432 475
f 4 475 496
f 4 496 497
f 4 497 502
f 4 502 476
f 4 476 433
f 4 433 394
f 4 394 362
f 4 362 329
f 4 329 300
f 4 300 272
f 4 272 251
f 4 251 226
f 4 226 204
f 4 204 181
f 4 181 184
f 4 184 180
f 4 180 162
f 4 162 146
f 4 146 134
f 4 134 125
f 4 125 117
f 4 117 112
f 4 112 110
f 4 110 105
f 4 105 101
f 4 101 97
f 4 97 93
f 4 93 89
f 4 89 88
f 4 88 84
f 4 84 79
f 4 79 75
f 4 75 74
f 4 74 73
f 4 73 70
f 4 70 69
f 4 69 68
f 4 68 64
f 4 64 63
f 4 63 59
f 4 59 58
f 4 58 57
f 4 57 53
f 4 53 49
f 4 49 45
f 4 45 44
f 4 44 42
f 4 42 38
f 4 38 34
f 4 34 27
f 4 27 23
f 4 23 19
f 4 19 17
f 4 17 13
f 4 13 8
f 4 8 9
f 4 9 5
f 6 10 7
f 7 10 12
f 7 12 11
f 8 13 9
f 9 13 14
f 11 12 16
f 11 16 15
f 13 17 14
f 14 17 19
f 14 19 18
f 15 16 20
f 16 21 20
f 18 19 23
f 18 23 22
f 20 21 25
f 20 25 26
f 20 26 24
f 22 23 27
f 22 27 28
f 24 26 30
f 24 30 31
f 24 31 32
f 24 32 33
f 24 33 29
f 27 34 28
f 28 34 35
f 29 33 36
f 33 37 36
f 34 38 35
f 35 38 39
f 36 37 40
f 37 41 40
f 38 42 39
f 39 42 44
f 39 44 45
f 39 45 43
f 40 41 46
f 41 47 46
f 43 45 48
f 45 49 48
f 46 47 50
f 47 51 50
f 48 49 53
f 48 53 52
f 50 51 54
f 51 55 54
f 52 53 57
f 52 57 58
f 52 58 59
f 52 59 56
f 54 55 61
f 54 61 60
f 56 59 63
f 56 63 64
f 56 64 62
f 60 61 65
f 61 66 65
f 62 64 68
f 62 68 69
f 62 69 70
f 62 70 67
f 65 66 71
f 66 72 71
f 67 70 73
f 67 73 74
f 67 74 75
f 67 75 76
f 71 72 77
f 71 77 78
f 75 79 80
f 75 80 76
f 77 81 78
f 78 81 83
f 78 83 82
f 79 84 85
f 79 85 80
f 82 83 87
f 82 87 86
f 84 88 85
f 85 88 89
f 85 89 90
f 86 87 92
f 86 92 91
f 89 93 90
f 90 93 94
f 91 92 95
f 92 96 95
f 93 97 94
f 94 97 98
f 95 96 99
f 96 100 99
f 97 101 98
f 98 101 102
f 99 100 103
f 100 104 103
f 101 105 102
f 102 105 107
f 102 107 106
f 103 104 108
f 104 109 108
f 105 110 107
f 106 107 111
f 107 110 112
f 107 112 113
f 107 113 114
f 107 114 111
f 108 109 115
f 109 116 115
f 112 117 113
f 113 117 114
f 114 117 118
f 114 118 119
f 114 119 120
f 114 120 121
f 114 121 122
f 115 116 123
f 115 123 124
f 117 125 126
f 117 126 127
f 117 127 119
f 117 119 118
f 119 127 121
f 119 121 120
f 121 128 129
f 121 129 130
f 121 130 122
f 121 127 128
f 122 130 129
f 122 129 131
f 123 132 124
f 124 132 133
f 125 134 135
f 125 135 126
f 126 135 136
f 126 136 137
f 126 137 138
f 126 138 128
f 126 128 127
f 128 138 139
f 128 139 129
f 129 139 140
f 129 140 131
f 131 140 142
f 131 142 141
f 132 143 144
f 132 144 145
f 132 145 133
f 134 146 136
f 134 136 135
f 136 146 147
f 136 147 148
f 136 148 149
f 136 149 150
f 136 150 137
f 137 150 151
f 137 151 152
f 137 152 138
f 138 152 151
f 138 151 153
f 138 153 154
f 138 154 139
f 139 155 156
f 139 156 140
f 139 154 155
f 140 156 157
f 140 157 142
f 141 142 157
f 141 157 158
f 143 159 144
f 144 160 161
f 144 159 160
f 146 162 147
f 147 162 163
f 147 163 148
f 148 163 164
f 148 164 149
f 149 164 165
f 149 165 166
f 149 166 167
f 149 167 168
f 149 168 150
f 150 168 151
f 151 168 153
f 153 168 154
f 154 168 155
f 155 168 156
f 156 168 157
f 157 169 170
f 157 170 158
f 157 168 169
f 159 171 172
f 159 172 173
f 159 173 161
f 159 161 160
f 159 174 171
f 161 173 175
f 161 175 171
f 161 171 176
f 161 176 177
f 161 177 178
f 161 178 179
f 162 180 163
f 163 181 182
f 163 182 183
f 163 183 164
f 163 180 184
f 163 184 181
f 164 185 186
f 164 186 165
f 164 183 185
f 165 186 166
f 166 186 187
f 166 187 188
f 166 188 167
f 167 188 168
f 168 188 189
f 168 189 190
f 168 190 191
f 168 191 169
f 169 191 190
f 169 190 192
f 169 192 170
f 170 192 194
f 170 194 195
f 170 195 196
f 170 196 193
f 171 174 197
f 171 197 198
f 171 198 177
f 171 177 176
f 171 175 173
f 171 173 172
f 174 199 197
f 177 198 200
f 177 200 201
f 177 201 179
f 177 179 178
f 179 201 202
f 179 202 203
f 181 204 205
f 181 205 206
f 181 206 207
f 181 207 208
f 181 208 182
f 182 208 183
f 183 208 186
f 183 186 185
f 186 208 209
f 186 209 187
f 187 209 188
f 188 209 194
f 188 194 192
f 188 192 189
f 189 192 190
f 193 196 211
f 193 211 210
f 194 209 196
f 194 196 195
f 196 209 212
f 196 212 211
f 197 213 214
f 197 214 215
f 197 215 198
f 197 199 213
f 198 215 200
f 199 216 213
f 200 215 217
f 200 217 201
f 201 217 218
f 201 218 219
f 201 219 220
f 201 220 221
f 201 221 222
f 201 222 202
f 202 223 203
f 202 222 224
f 202 224 223
f 203 223 225
f 204 226 205
f 205 226 227
f 205 227 228
f 205 228 206
f 206 228 207
f 207 228 229
f 207 229 230
f 207 230 208
f 208 230 231
f 208 231 232
f 208 232 209
f 209 232 233
f 209 233 234
f 209 234 235
f 209 235 212
f 210 236 237
f 210 211 236
f 211 212 235
f 211 235 238
f 211 238 236
f 213 216 214
f 214 239 215
f 214 216 240
f 214 240 239
f 215 239 241
f 215 241 242
f 215 242 217
f 216 243 240
f 217 242 241
f 217 241 244
f 217 244 218
f 218 244 219
f 219 244 220
f 220 244 245
f 220 245 246
f 220 246 221
f 221 246 247
f 221 247 222
f 222 248 249
f 222 249 250
f 222 250 224
f 222 247 248
f 223 224 225
f 226 251 227
f 227 251 252
f 227 252 228
f 228 252 253
f 228 253 229
f 229 253 230
f 230 253 254
f 230 254 231
f 231 254 255
f 231 255 232
f 232 255 233
f 233 255 234
f 234 256 238
f 234 238 235
f 234 255 256
f 236 257 258
f 236 258 237
f 236 238 256
f 236 256 257
f 237 258 259
f 239 240 241
f 240 243 260
f 240 260 261
f 240 261 244
f 240 244 241
f 244 261 262
f 244 262 263
f 244 263 264
f 244 264 265
f 244 265 245
f 245 265 246
f 246 265 266
f 246 266 247
f 247 266 267
f 247 267 248
f 248 267 266
f 248 266 268
f 248 268 269
f 248 269 249
f 249 269 250
f 250 269 270
f 250 270 271
f 251 272 273
f 251 273 274
f 251 274 252
f 252 274 275
f 252 275 276
f 252 276 277
f 252 277 278
f 252 278 279
f 252 279 280
f 252 280 253
f 253 280 256
f 253 256 254
f 254 256 255
f 256 280 281
f 256 281 282
f 256 282 283
f 256 283 257
f 257 283 284
f 257 284 258
f 258 284 259
f 259 284 285
f 259 285 286
f 260 287 262
f 260 262 261
f 260 288 289
f 260 289 287
f 262 287 263
f 263 287 290
f 263 290 291
f 263 291 264
f 264 291 265
f 265 291 266
f 266 291 268
f 268 291 269
f 269 291 292
f 269 292 270
f 270 293 294
f 270 294 271
f 270 292 295
f 270 295 296
f 270 296 297
f 270 297 293
f 271 294 298
f 271 298 299
f 272 300 301
f 272 301 302
f 272 302 303
f 272 303 273
f 273 303 302
f 273 302 304
f 273 304 274
f 274 304 275
f 275 304 276
f 276 304 305
f 276 305 306
f 276 306 277
f 277 306 278
f 278 306 279
f 279 306 307
f 279 307 280
f 280 307 308
f 280 308 281
f 281 308 307
f 281 307 309
f 281 309 282
f 282 309 310
f 282 310 283
f 283 310 309
f 283 309 284
f 284 309 311
f 284 311 285
f 285 312 313
f 285 313 286
f 285 311 312
f 286 313 314
f 287 289 288
f 287 288 290
f 288 315 316
f 288 316 317
f 288 317 291
f 288 291 290
f 291 318 319
f 291 319 292
f 291 317 316
f 291 316 320
f 291 320 321
f 291 321 322
f 291 322 323
f 291 323 318
f 292 319 295
f 293 324 294
f 293 297 324
f 294 324 298
f 295 319 325
f 295 325 296
f 296 325 297
f 297 325 323
f 297 323 326
f 297 326 327
f 297 327 324
f 298 324 328
f 298 328 299
f 300 329 301
f 301 329 330
f 301 330 331
f 301 331 302
f 302 331 332
f 302 332 333
f 302 333 305
f 302 305 304
f 305 333 334
f 305 334 335
f 305 335 336
f 305 336 337
f 305 337 338
f 305 338 339
f 305 339 306
f 306 339 307
f 307 339 309
f 309 339 340
f 309 340 311
f 311 340 313
f 311 313 312
f 313 340 341
f 313 341 342
f 313 342 343
f 313 343 344
f 313 344 314
f 315 345 346
f 315 346 316
f 316 346 320
f 318 323 319
f 319 323 325
f 320 346 347
f 320 347 348
f 320 348 321
f 321 348 323
f 321 323 322
f 323 348 349
f 323 349 350
f 323 350 351
f 323 351 352
f 323 352 353
f 323 353 354
f 323 354 326
f 324 355 328
f 324 327 355
f 326 354 356
f 326 356 327
f 327 356 357
f 327 357 358
f 327 358 359
f 327 359 360
f 327 360 361
f 327 361 355
f 329 331 330
f 329 362 363
f 329 363 364
f 329 364 365
f 329 365 366
f 329 366 331
f 331 366 332
f 332 366 367
f 332 367 333
f 333 367 366
f 333 366 334
f 334 336 335
f 334 366 368
f 334 368 336
f 336 368 337
f 337 368 369
f 337 369 338
f 338 369 370
f 338 370 339
f 339 370 371
f 339 371 372
f 339 372 340
f 340 372 341
f 341 373 374
f 341 374 342
f 341 372 370
f 341 370 375
f 341 375 376
f 341 376 373
f 342 374 343
f 343 377 378
f 343 378 379
f 343 379 380
f 343 380 344
f 343 374 377
f 345 381 382
f 345 382 349
f 345 349 383
f 345 383 347
f 345 347 346
f 347 383 348
f 348 383 349
f 349 382 384
f 349 384 350
f 350 384 385
f 350 385 386
f 350 386 351
f 351 386 385
f 351 385 352
f 352 385 354
f 352 354 353
f 354 387 356
f 354 385 388
f 354 388 387
f 356 387 389
f 356 389 357
f 357 389 387
f 357 387 358
f 358 387 359
f 359 390 360
f 359 387 391
f 359 391 390
f 360 390 392
f 360 392 361
f 361 392 393
f 362 394 395
f 362 395 363
f 363 395 364
f 364 395 396
f 364 396 365
f 365 396 395
f 365 395 397
f 365 397 398
f 365 398 366
f 366 398 399
f 366 399 400
f 366 400 401
f 366 401 368
f 368 401 402
f 368 402 375
f 368 375 370
f 368 370 369
f 370 372 371
f 373 376 374
f 374 403 404
f 374 404 377
f 374 376 375
f 374 375 405
f 374 405 406
f 374 406 407
f 374 407 403
f 375 402 408
f 375 408 405
f 377 404 409
f 377 409 378
f 378 409 410
f 378 410 411
f 378 411 412
f 378 412 413
f 378 413 414
f 378 414 415
f 378 415 379
f 379 415 416
f 379 416 380
f 381 417 382
f 382 417 418
f 382 418 384
f 384 418 419
f 384 419 385
f 385 419 420
f 385 420 421
f 385 421 388
f 387 388 422
f 387 422 391
f 388 421 423
f 388 423 424
f 388 424 422
f 390 425 392
f 390 391 425
f 391 422 426
f 391 426 427
f 391 427 428
f 391 428 429
f 391 429 430
f 391 430 425
f 392 425 431
f 392 431 393
f 393 431 425
f 393 425 432
f 394 433 479
f 394 479 434
f 394 434 395
f 395 398 397
f 395 434 435
f 395 435 436
f 395 436 437
f 395 437 438
f 395 438 439
f 395 439 440
f 395 440 408
f 395 408 398
f 398 408 399
f 399 408 400
f 400 408 441
f 400 441 401
f 401 408 442
f 401 442 443
f 401 443 402
f 401 441 408
f 402 443 408
f 403 407 450
f 403 450 444
f 403 444 445
f 403 445 404
f 404 445 446
f 404 446 409
f 405 408 447
f 405 447 448
f 405 448 449
f 405 449 450
f 405 450 406
f 406 450 407
f 408 451 452
f 408 452 447
f 408 443 442
f 408 440 453
f 408 453 454
f 408 454 451
f 409 446 455
f 409 455 456
f 409 456 410
f 410 456 457
f 410 457 458
f 410 458 459
f 410 459 411
f 411 460 412
f 412 460 413
f 417 461 418
f 418 461 462
f 418 462 463
f 418 463 419
f 419 463 464
f 419 464 420
f 420 464 465
f 420 465 421
f 421 465 466
f 421 466 467
f 421 467 424
f 421 424 423
f 422 424 468
f 422 468 426
f 424 469 468
f 424 467 469
f 425 470 432
f 425 430 471
f 425 471 472
f 425 472 470
f 426 468 469
f 426 469 427
f 427 429 428
f 427 469 429
f 429 473 430
f 429 469 473
f 430 473 474
f 430 474 471
f 432 470 475
f 433 476 477
f 433 477 478
f 433 478 479
f 434 479 480
f 434 480 435
f 435 480 436
f 436 480 481
f 436 481 437
f 437 481 482
f 437 482 438
f 438 482 483
f 438 483 439
f 439 483 484
f 439 484 440
f 440 484 488
f 440 488 453
f 444 450 455
f 444 455 445
f 445 455 446
f 447 452 485
f 447 485 448
f 448 485 486
f 448 486 449
f 449 486 467
f 449 467 450
f 450 467 455
f 451 454 487
f 451 487 485
f 451 485 452
f 453 488 454
f 454 488 487
f 455 489 456
f 455 467 466
f 455 466 490
f 455 490 465
f 455 465 489
f 456 491 457
f 456 489 465
f 456 465 464
f 456 464 462
f 456 462 491
f 457 491 458
f 461 491 462
f 462 464 463
f 465 490 466
f 467 486 492
f 467 492 469
f 469 492 493
f 469 493 494
f 469 494 473
f 470 472 495
f 470 495 496
f 470 496 475
f 471 474 473
f 471 473 472
f 472 473 497
f 472 497 495
f 473 498 499
f 473 499 500
f 473 500 501
f 473 501 502
f 473 502 497
f 473 494 503
f 473 503 498
f 476 502 477
f 477 502 501
f 477 501 478
f 478 500 504
f 478 504 499
f 478 499 498
f 478 498 486
f 478 486 484
f 478 484 483
f 478 483 482
f 478 482 481
f 478 481 480
f 478 480 479
f 478 501 505
f 478 505 500
f 484 486 488
f 485 487 486
f 486 494 506
f 486 506 493
f 486 493 492
f 486 487 488
f 486 498 503
f 486 503 507
f 486 507 494
f 493 506 494
f 494 507 503
f 495 497 496
f 499 504 500
f 500 505 501

