# https://github.com/mikedh/trimesh
v 0.00686855 0.03259724 -0.06567085
v 0.00490859 0.03236748 -0.06763295
v 0.00490859 0.03259086 -0.06567085
v 0.03429890 0.03153781 -0.06049302
v 0.03625885 0.03152505 -0.06047454
v 0.04410770 0.03147399 -0.06043450
v 0.04802762 0.03144846 -0.06041601
v 0.04998757 0.03142294 -0.06048378
v 0.04802762 0.03149314 -0.06174975
v 0.04998757 0.03144208 -0.06174975
v 0.04981596 0.03138464 -0.06355167
v 0.04905727 0.03136549 -0.06473755
v 0.04998757 0.03121233 -0.06763295
v 0.04998757 0.03111659 -0.06959197
v 0.04802762 0.03096981 -0.07368557
v -0.00882013 0.03161439 -0.07368557
v -0.01060847 0.03162078 -0.07368557
v -0.01078008 0.03162078 -0.07368557
v -0.01274004 0.03159525 -0.07368557
v -0.01466387 0.03149314 -0.07368557
v -0.01491676 0.03147399 -0.07368557
v -0.01465483 0.03148675 -0.07354080
v -0.01397743 0.03142294 -0.07228407
v -0.01190006 0.03139102 -0.07046058
v -0.01078008 0.03122509 -0.06917922
v -0.00097127 0.02894031 -0.05783480
v 0.00098868 0.02911262 -0.05783480
v 0.00490859 0.02864673 -0.05587270
v 0.00686855 0.03205476 -0.06393977
v 0.01666833 0.03176757 -0.06225490
v 0.03037899 0.03152505 -0.06056386
v 0.03233894 0.03153781 -0.06052382
v 0.02645908 0.02793832 -0.05226577
v 0.02841903 0.02793194 -0.05222265
v 0.04802762 0.03107192 -0.05943651
v 0.04998757 0.03109107 -0.05950427
v 0.05127013 0.03139102 -0.06062855
v 0.05120690 0.03138464 -0.06174975
v 0.05099013 0.03136549 -0.06279394
v 0.04981596 0.03130806 -0.06550452
v 0.05194752 0.03103363 -0.06763295
v 0.05017725 0.03088046 -0.07368557
v 0.04998757 0.03089322 -0.07368557
v 0.04823535 0.03096343 -0.07368557
v -0.01528707 0.03123147 -0.07290627
v -0.01645221 0.03075282 -0.07368557
v -0.01320067 0.03123785 -0.07097498
v -0.00298542 0.02823828 -0.05776703
v -0.00294026 0.02917644 -0.05959052
v -0.00097127 0.02804043 -0.05613452
v 0.00088933 0.02809149 -0.05570021
v 0.00294864 0.02846165 -0.05587270
v 0.00686855 0.02797023 -0.05433876
v 0.00882851 0.02804043 -0.05418474
v 0.01470837 0.02833401 -0.05391369
v 0.00686855 0.02877437 -0.05587270
v 0.01666833 0.02845527 -0.05391369
v 0.01862828 0.02854462 -0.05391369
v 0.02841903 0.03149314 -0.06061931
v 0.02058824 0.02859567 -0.05391369
v 0.03233894 0.02704483 -0.05118770
v 0.03429890 0.02708950 -0.05118462
v 0.02450815 0.02793194 -0.05232429
v 0.03037899 0.02791279 -0.05218877
v 0.05192946 0.03109745 -0.05990162
v 0.03233894 0.02788726 -0.05217029
v 0.03429890 0.02786174 -0.05216721
v 0.03625885 0.02783620 -0.05217644
v 0.03822784 0.02781068 -0.05219184
v 0.04018779 0.02778515 -0.05221957
v 0.04606766 0.02770856 -0.05238590
v 0.04802762 0.02767027 -0.05246598
v 0.04998757 0.02758730 -0.05263232
v 0.05390748 0.03076558 -0.05979073
v 0.05390748 0.03096981 -0.06174975
v 0.05219139 0.03129529 -0.06174975
v 0.05176689 0.03125062 -0.06355167
v 0.05194752 0.03112936 -0.06567085
v 0.05194752 0.03092513 -0.06959197
v 0.05194752 0.03066985 -0.07368557
v -0.01613609 0.02992315 -0.07199453
v -0.01426645 0.02992953 -0.06999856
v -0.01232456 0.02989762 -0.06808266
v -0.01672317 0.03058688 -0.07368557
v -0.01665995 0.03051668 -0.07349768
v -0.00236221 0.02776600 -0.05650723
v 0.00017580 0.02735755 -0.05493324
v 0.00148545 0.02755540 -0.05480387
v 0.00294864 0.02770856 -0.05467142
v 0.00490859 0.02786812 -0.05449893
v 0.01470837 0.02765113 -0.05276477
v 0.01666833 0.02776600 -0.05265080
v 0.01862828 0.02785536 -0.05254299
v 0.02058824 0.02790641 -0.05245674
v 0.02254819 0.02792555 -0.05238898
v 0.03037899 0.02694910 -0.05120926
v 0.04410770 0.01530181 -0.04221812
v 0.04613992 0.01541030 -0.04221812
v 0.03625885 0.02710865 -0.05119694
v 0.04790117 0.01541668 -0.04221812
v 0.03822784 0.02712141 -0.05121234
v 0.04018779 0.02710865 -0.05124006
v 0.04214775 0.02707036 -0.05129242
v 0.04606766 0.02700015 -0.05140639
v 0.04802762 0.02695548 -0.05148648
v 0.04998757 0.02689804 -0.05164973
v 0.05189334 0.02688528 -0.05207480
v 0.05121593 0.02749795 -0.05280789
v 0.05586744 0.02968701 -0.05856788
v 0.05699645 0.02948916 -0.05873114
v 0.05586744 0.03017205 -0.05979073
v 0.05390748 0.03059965 -0.06763295
v 0.05212817 0.03064432 -0.07368557
v 0.05586744 0.03028054 -0.06174975
v -0.01557610 0.02906157 -0.07068852
v -0.01705736 0.03028692 -0.07368557
v -0.01817733 0.02842336 -0.07368557
v -0.01748186 0.02842336 -0.07273686
v -0.01363421 0.02915092 -0.06869254
v -0.00431313 0.02786174 -0.05837691
v -0.00395185 0.02158177 -0.05290645
v 0.00294864 0.02093080 -0.05128011
v -0.00294026 0.02057978 -0.05221341
v 0.01187231 0.02740223 -0.05294958
v 0.01318196 0.02753625 -0.05286333
v 0.04018779 0.01485506 -0.04221812
v 0.04214775 0.01512311 -0.04221812
v 0.04800955 0.01541668 -0.04221812
v 0.04998757 0.01534010 -0.04221812
v 0.05194752 0.02583223 -0.05075647
v 0.05390748 0.02565992 -0.05084579
v 0.05498230 0.02552590 -0.05093512
v 0.05629194 0.02511106 -0.05161893
v 0.05929962 0.02777877 -0.05854940
v 0.06277696 0.02551951 -0.05876810
v 0.05816158 0.02898498 -0.05979073
v 0.05718612 0.02959766 -0.05979073
v 0.05405200 0.03014652 -0.07368557
v 0.05390748 0.03046562 -0.06959197
v 0.05719515 0.02962319 -0.06174975
v 0.05525326 0.02965510 -0.07368557
v -0.00622793 0.02012666 -0.05441576
v -0.01860184 0.02657894 -0.07368557
v -0.01768960 0.01586343 -0.06855085
v -0.01579287 0.01779082 -0.06651792
v -0.00978655 0.01957142 -0.05882354
v -0.00649889 0.01862049 -0.05406462
v -0.00574020 0.01862049 -0.05308511
v -0.00432216 0.02057978 -0.05265388
v 0.00173834 0.01971182 -0.05093204
v 0.03433502 0.01322763 -0.04221812
v 0.03637627 0.01398710 -0.04221812
v -0.00294026 0.01862049 -0.05159120
v 0.03822784 0.01447214 -0.04221812
v 0.05194752 0.01516778 -0.04221812
v 0.05203785 0.01515502 -0.04221812
v 0.05390748 0.01484230 -0.04221812
v 0.05397974 0.01482953 -0.04221812
v 0.05600292 0.01429982 -0.04221812
v 0.05714999 0.01386584 -0.04221812
v 0.05789965 0.01353397 -0.04221812
v 0.05986864 0.01232776 -0.04221812
v 0.05988670 0.01231499 -0.04221812
v 0.05724031 0.02380273 -0.05082115
v 0.05854996 0.02328579 -0.05126162
v 0.06377049 0.02472813 -0.05979073
v 0.06278599 0.02553228 -0.05979073
v 0.06174730 0.02634918 -0.05979073
v 0.06055507 0.02728097 -0.05979073
v 0.05957961 0.02800214 -0.05979073
v 0.06489046 0.02368786 -0.05863565
v 0.06594721 0.02291563 -0.05979073
v 0.06496271 0.02375168 -0.05979073
v 0.05817964 0.02897222 -0.06174975
v 0.05684290 0.02939982 -0.06661032
v 0.05676161 0.02935514 -0.06763295
v 0.05615647 0.02910624 -0.07368557
v -0.01868313 0.02622154 -0.07368557
v -0.01943279 0.01470189 -0.07083329
v -0.01729219 0.01077691 -0.06715244
v -0.00585761 0.01729940 -0.05295882
v -0.00994010 0.01826309 -0.05862025
v -0.00820595 0.01862049 -0.05636246
v -0.00476473 0.01862049 -0.05235202
v 0.03238410 0.01222564 -0.04221812
v -0.00294026 0.01666119 -0.05142796
v 0.02669391 0.00489902 -0.04221812
v 0.02689261 0.00539682 -0.04221812
v 0.02747970 0.00685832 -0.04221812
v 0.02854548 0.00867083 -0.04221812
v 0.02862677 0.00877294 -0.04221812
v 0.03041511 0.01074500 -0.04221812
v 0.06070862 0.01171508 -0.04221812
v 0.06050992 0.02128181 -0.05130474
v 0.06693170 0.02185620 -0.05851245
v 0.06275890 0.02550675 -0.06100741
v 0.06050992 0.02724267 -0.06174975
v 0.05953445 0.02799576 -0.06174975
v 0.06468272 0.02350916 -0.06461434
v 0.06486337 0.02367509 -0.06174975
v 0.06699493 0.02193278 -0.05979073
v 0.05911898 0.02768942 -0.06763295
v 0.05782739 0.02861482 -0.06763295
v 0.05782739 0.02839783 -0.06959197
v 0.05896543 0.02756816 -0.06959197
v 0.05758353 0.02805320 -0.07368557
v -0.01907151 0.02449200 -0.07368557
v -0.02005600 0.01470189 -0.07181280
v -0.02111275 0.01274259 -0.07325434
v -0.01960440 0.00987066 -0.07056223
v -0.01796056 0.01077691 -0.06813194
v -0.01799669 0.00881761 -0.06810114
v -0.01731929 0.00881761 -0.06712164
v -0.00704984 0.00685832 -0.05391369
v -0.00602019 0.01077691 -0.05276785
v -0.00597503 0.01274259 -0.05281713
v -0.00592987 0.01470189 -0.05287257
v -0.00589374 0.01599107 -0.05291262
v -0.00508086 0.01664842 -0.05240130
v -0.00490021 0.01470189 -0.05219801
v -0.00490021 0.01274259 -0.05212408
v -0.00490021 0.01077691 -0.05205940
v -0.00294026 0.01470189 -0.05137251
v 0.02599844 0.00097404 -0.04221812
v 0.02619714 0.00277379 -0.04221812
v 0.06144924 0.01087903 -0.04221812
v 0.06731105 0.02057978 -0.05816438
v 0.06870199 0.01805248 -0.05866337
v 0.06778975 0.02057978 -0.05979073
v 0.06254212 0.00946220 -0.04221812
v 0.06303889 0.00847936 -0.04221812
v 0.06257825 0.02535996 -0.06371184
v 0.06190988 0.02612581 -0.06169738
v 0.06353565 0.02479196 -0.06169738
v 0.06023896 0.02702569 -0.06567085
v 0.06146731 0.02604284 -0.06567085
v 0.06476401 0.02358574 -0.06330833
v 0.06459241 0.02341343 -0.06567085
v 0.06341824 0.02414737 -0.06763295
v 0.06229826 0.02512382 -0.06763295
v 0.06244277 0.02525147 -0.06567085
v 0.06389693 0.02424948 -0.06386277
v 0.06680526 0.02174132 -0.06174975
v 0.06010347 0.02691081 -0.06763295
v 0.05884802 0.02747881 -0.07076861
v 0.06131377 0.02592796 -0.06763295
v 0.05846867 0.02732564 -0.07368557
v -0.01948698 0.02253908 -0.07368557
v -0.02114888 0.01465722 -0.07368557
v -0.02137468 0.01274259 -0.07368557
v -0.01961343 0.00881761 -0.07054375
v -0.01898119 0.00881761 -0.06956425
v -0.01964052 0.00489902 -0.07050679
v -0.01964956 -0.00097888 -0.07049139
v -0.01897215 -0.00097888 -0.06951188
v -0.01799669 -0.00881607 -0.06810731
v -0.01732832 -0.00097888 -0.06714320
v -0.01634383 0.00097404 -0.06584643
v -0.00713113 -0.00097888 -0.05386748
v -0.00713113 0.00097404 -0.05387056
v -0.00712210 0.00293972 -0.05388288
v -0.00611954 0.00489902 -0.05266620
v -0.00609245 0.00685832 -0.05269700
v -0.00605632 0.00881761 -0.05273088
v -0.00490021 0.00881761 -0.05200704
v -0.00294026 0.01274259 -0.05132631
v 0.02599844 -0.00097888 -0.04221812
v -0.00294026 0.01077691 -0.05128934
v -0.00294026 0.00881761 -0.05125854
v -0.00294026 0.00685832 -0.05123390
v -0.00294026 0.00489902 -0.05121542
v -0.00294026 0.00097404 -0.05119694
v 0.07064388 0.00652645 -0.05867877
v 0.06962325 0.01274259 -0.05979073
v 0.06870199 0.01805248 -0.05925169
v 0.06364403 0.00693490 -0.04221812
v 0.06367113 0.00685832 -0.04221812
v 0.06418596 0.00496922 -0.04221812
v 0.06420402 0.00489264 -0.04221812
v 0.06843102 0.01867154 -0.05986157
v 0.06736524 0.02057978 -0.06174975
v 0.06666977 0.02159453 -0.06283706
v 0.06440273 0.02316453 -0.06763295
v 0.06317437 0.02394952 -0.06959197
v 0.06209956 0.02493236 -0.06959197
v 0.06112409 0.02578118 -0.06959197
v 0.05962477 0.02624707 -0.07368557
v -0.02140178 -0.01274105 -0.07368557
v -0.01963149 0.00685832 -0.07052219
v -0.01964052 -0.00489747 -0.07050679
v -0.01897215 -0.00881607 -0.06955808
v -0.01729219 -0.01078175 -0.06715860
v -0.01731026 -0.00881607 -0.06712779
v -0.01634383 -0.00097888 -0.06584951
v -0.00712210 -0.00293817 -0.05387672
v -0.00614664 -0.00293817 -0.05264464
v -0.00614664 -0.00097888 -0.05263232
v -0.00614664 0.00097404 -0.05263540
v -0.00613761 0.00293972 -0.05264464
v -0.00490021 0.00489902 -0.05192387
v -0.00490021 0.00685832 -0.05196391
v 0.02600747 -0.00111290 -0.04221812
v -0.00294026 -0.00293817 -0.05120002
v -0.00294026 -0.00489747 -0.05121234
v -0.00294026 -0.00685677 -0.05123082
v -0.00294026 -0.00881607 -0.05125546
v -0.00294026 -0.01078175 -0.05128626
v -0.00294026 -0.01274105 -0.05132323
v -0.00490021 0.00293972 -0.05189307
v -0.00490021 0.00097404 -0.05188075
v -0.00490021 -0.00097888 -0.05188075
v 0.07072517 0.00489902 -0.05854633
v 0.07064388 0.00652645 -0.05915313
v 0.06433951 0.00399915 -0.04221812
v 0.06452015 0.00278655 -0.04221812
v 0.06452918 0.00269720 -0.04221812
v 0.06993938 0.01077691 -0.05979073
v 0.06917166 0.01274259 -0.06174975
v 0.06927101 0.01470189 -0.05979073
v 0.06885553 0.01672501 -0.05986157
v 0.06856651 0.01742704 -0.06056078
v 0.06799748 0.01862049 -0.06174975
v 0.06675107 0.01991605 -0.06507021
v 0.06652526 0.02122437 -0.06414615
v 0.06488143 0.02187535 -0.06922234
v 0.06510723 0.02218807 -0.06763295
v 0.06424918 0.02253270 -0.06976138
v 0.06293051 0.02372615 -0.07111667
v 0.06051895 0.02538549 -0.07368557
v -0.02134758 -0.01329629 -0.07368557
v -0.02007406 -0.01470034 -0.07179740
v -0.02112178 -0.01274105 -0.07323894
v -0.01960440 -0.00986911 -0.07055915
v -0.01962246 -0.00881607 -0.07053759
v -0.01963149 -0.00685677 -0.07051603
v -0.01795153 -0.01078175 -0.06814119
v -0.01944182 -0.01470034 -0.07081789
v -0.01768960 -0.01586188 -0.06854470
v -0.00585761 -0.01729785 -0.05295574
v -0.00589374 -0.01598952 -0.05291262
v -0.00592987 -0.01470034 -0.05287257
v -0.00598406 -0.01274105 -0.05281713
v -0.00602922 -0.01078175 -0.05276477
v -0.00606535 -0.00881607 -0.05272472
v -0.00699565 -0.00881607 -0.05391369
v -0.00710404 -0.00489747 -0.05389829
v -0.00611954 -0.00489747 -0.05266620
v -0.00490021 -0.00685677 -0.05195467
v -0.00490021 -0.00489747 -0.05191770
v -0.00490021 -0.00293817 -0.05188999
v 0.02618811 -0.00267651 -0.04221812
v -0.00294026 -0.01470034 -0.05136943
v -0.00294026 -0.01665964 -0.05143103
v -0.00490021 -0.00881607 -0.05199779
v 0.07078839 0.00293972 -0.05844160
v 0.07086065 0.00097404 -0.05979073
v 0.07072517 0.00489902 -0.05950119
v 0.06463756 0.00121018 -0.04221812
v 0.07050840 0.00489902 -0.06048378
v 0.07044517 0.00704978 -0.05979997
v 0.07022840 0.00881761 -0.05979073
v 0.06947875 0.01077691 -0.06174975
v 0.06865683 0.01395519 -0.06290174
v 0.06881940 0.01464445 -0.06176515
v 0.06870199 0.01611871 -0.06112138
v 0.06859360 0.01162573 -0.06462050
v 0.06850328 0.01274259 -0.06427552
v 0.06840393 0.01672501 -0.06176515
v 0.06790717 0.01666119 -0.06371184
v 0.06673300 0.01798228 -0.06694914
v 0.06692267 0.01863325 -0.06570474
v 0.06657042 0.01929060 -0.06637930
v 0.06583882 0.02057978 -0.06763295
v 0.06635365 0.02057340 -0.06570474
v 0.06467369 0.02152433 -0.07052835
v 0.06347243 0.02270502 -0.07168343
v 0.06268664 0.02347086 -0.07242268
v 0.06146731 0.02431968 -0.07368557
v -0.02116694 -0.01465567 -0.07368557
v -0.01967665 -0.02184827 -0.07368557
v -0.01953214 -0.02254392 -0.07368557
v -0.01939666 -0.02315021 -0.07368557
v -0.01906247 -0.02464362 -0.07368557
v -0.01861990 -0.02658377 -0.07368557
v -0.01818637 -0.02842181 -0.07368557
v -0.01579287 -0.01779565 -0.06651483
v -0.00981365 -0.01962092 -0.05878966
v -0.00991301 -0.01861894 -0.05865721
v -0.00919044 -0.01861894 -0.05768078
v -0.00820595 -0.01861894 -0.05635629
v -0.00649889 -0.01861894 -0.05406769
v -0.00574020 -0.01861894 -0.05308819
v -0.00476473 -0.01861894 -0.05234278
v -0.00508086 -0.01665326 -0.05240130
v -0.00490021 -0.01470034 -0.05219801
v -0.00490021 -0.01274105 -0.05212100
v -0.00490021 -0.01078175 -0.05205324
v -0.00609245 -0.00685677 -0.05269392
v 0.02620618 -0.00278500 -0.04221812
v -0.00294026 -0.01861894 -0.05157273
v 0.02669391 -0.00489109 -0.04221812
v 0.07082452 0.00097404 -0.05838615
v 0.07086968 -0.00097888 -0.05979073
v 0.07060775 0.00097404 -0.06089652
v 0.07058066 0.00226322 -0.06082568
v 0.07075226 0.00292696 -0.05994166
v 0.07055356 0.00356516 -0.06069632
v 0.06463756 -0.00097888 -0.04221812
v 0.07016518 0.00489902 -0.06174975
v 0.06998454 0.00685832 -0.06174975
v 0.06975874 0.00881761 -0.06174975
v 0.06890069 0.01089817 -0.06386585
v 0.06777169 0.01470189 -0.06567085
v 0.06853038 0.01526351 -0.06242739
v 0.06842199 0.01089817 -0.06564313
v 0.06789813 0.01077691 -0.06763295
v 0.06759105 0.01274259 -0.06763295
v 0.06723879 0.01470189 -0.06763295
v 0.06737428 0.01666119 -0.06567085
v 0.06669687 0.01588257 -0.06876955
v 0.06655236 0.01719090 -0.06825823
v 0.06638978 0.01863325 -0.06761447
v 0.06582979 0.01862049 -0.06959197
v 0.06489046 0.02021601 -0.07121216
v 0.06516142 0.02075210 -0.06976138
v 0.06468272 0.01958418 -0.07251817
v 0.06452015 0.02075210 -0.07173887
v 0.06391500 0.02057978 -0.07351308
v 0.06377049 0.02073934 -0.07368557
v 0.06308405 0.02211148 -0.07368557
v 0.06312018 0.02216254 -0.07351308
v 0.06236149 0.02326664 -0.07368557
v -0.01779799 -0.02939189 -0.07368557
v -0.01748186 -0.02842181 -0.07273378
v -0.00622793 -0.02010596 -0.05442192
v -0.00432216 -0.02057824 -0.05264156
v -0.00294026 -0.02057824 -0.05219801
v 0.00169318 -0.01972942 -0.05092588
v 0.03148089 -0.01166886 -0.04221812
v 0.03041511 -0.01077537 -0.04221812
v 0.02937643 -0.00979891 -0.04221812
v 0.02853645 -0.00871395 -0.04221812
v 0.02766937 -0.00725884 -0.04221812
v 0.02747066 -0.00685677 -0.04221812
v 0.02727196 -0.00639088 -0.04221812
v 0.02675713 -0.00508893 -0.04221812
v 0.07082452 -0.00097888 -0.05838923
v 0.07078839 -0.00293817 -0.05844468
v 0.07072517 -0.00489747 -0.05854940
v 0.07072517 -0.00489747 -0.05949503
v 0.07076130 -0.00293817 -0.05993858
v 0.07058968 -0.00228082 -0.06083800
v 0.07060775 -0.00097888 -0.06090577
v 0.07033679 -0.00097888 -0.06188835
v 0.06983099 0.00097404 -0.06371184
v 0.07034582 0.00292696 -0.06158650
v 0.06975874 0.00293972 -0.06371184
v 0.06921682 0.00293972 -0.06567085
v 0.06844006 0.00489902 -0.06800258
v 0.06871102 0.00489902 -0.06702307
v 0.06455628 -0.00231911 -0.04221812
v 0.06945165 0.00685832 -0.06371184
v 0.06865683 0.00633499 -0.06680745
v 0.06859360 0.00764331 -0.06658568
v 0.06868393 0.01031740 -0.06496857
v 0.06852134 0.00881761 -0.06631770
v 0.06816006 0.00881761 -0.06763295
v 0.06735621 0.01077691 -0.06959197
v 0.06697687 0.01288300 -0.06975522
v 0.06663364 0.01362970 -0.07051911
v 0.06681429 0.01470189 -0.06917922
v 0.06653429 0.01470189 -0.07015873
v 0.06571238 0.01666119 -0.07155406
v 0.06633559 0.01658460 -0.06949032
v 0.06513433 0.01880557 -0.07173887
v 0.06452015 0.01867792 -0.07368557
v 0.06448402 0.01879918 -0.07368557
v 0.06485434 0.01827585 -0.07303256
v 0.06384274 0.02057978 -0.07368557
v -0.01706639 -0.03029176 -0.07368557
v -0.01613609 -0.02992798 -0.07199145
v -0.01557610 -0.02907916 -0.07068236
v -0.00395185 -0.02158022 -0.05290645
v 0.00017580 -0.02734962 -0.05493632
v 0.00148545 -0.02756661 -0.05479463
v 0.00294864 -0.02096116 -0.05127086
v 0.03537371 -0.01369197 -0.04221812
v 0.03430793 -0.01325799 -0.04221812
v 0.03237507 -0.01224962 -0.04221812
v 0.07064388 -0.00651214 -0.05867877
v 0.06452015 -0.00279139 -0.04221812
v 0.07064388 -0.00651214 -0.05915004
v 0.07044517 -0.00704185 -0.05979689
v 0.07049937 -0.00489747 -0.06047454
v 0.07055356 -0.00358915 -0.06069015
v 0.06928907 -0.00097888 -0.06567085
v 0.07034582 -0.00293817 -0.06159573
v 0.06921682 -0.00293817 -0.06567085
v 0.06850328 -0.00293817 -0.06823668
v 0.06928907 0.00097404 -0.06567085
v 0.06850328 0.00293972 -0.06823051
v 0.06798845 0.00489902 -0.06959197
v 0.06782588 0.00685832 -0.06959197
v 0.06761814 0.00881761 -0.06959197
v 0.06686848 0.01077691 -0.07127685
v 0.06674203 0.01232138 -0.07088874
v 0.06645301 0.01288300 -0.07154790
v 0.06611882 0.01470189 -0.07155406
v 0.06551367 0.01470189 -0.07351308
v 0.06504400 0.01673139 -0.07361780
v 0.06502594 0.01669310 -0.07368557
v -0.01673220 -0.03059172 -0.07368557
v -0.01665995 -0.03052152 -0.07349460
v -0.01530514 -0.03123630 -0.07290011
v -0.01426645 -0.02994713 -0.07000164
v -0.01363421 -0.02915575 -0.06869254
v -0.00432216 -0.02786657 -0.05837383
v -0.00236221 -0.02777722 -0.05651338
v -0.00097127 -0.02804526 -0.05614068
v 0.00088933 -0.02809632 -0.05570329
v 0.00294864 -0.02771340 -0.05466526
v 0.01193553 -0.02737515 -0.05296190
v 0.03632208 -0.01400470 -0.04221812
v 0.06885553 -0.01665964 -0.05844160
v 0.06870199 -0.01805093 -0.05865413
v 0.06964132 -0.01274105 -0.05979073
v 0.06451111 -0.00287435 -0.04221812
v 0.06434854 -0.00396569 -0.04221812
v 0.06420402 -0.00489747 -0.04221812
v 0.06994841 -0.01078175 -0.05979073
v 0.07021937 -0.00881607 -0.05979073
v 0.06974971 -0.00881607 -0.06174975
v 0.06998454 -0.00685677 -0.06174975
v 0.07016518 -0.00489747 -0.06174975
v 0.06872005 -0.00489747 -0.06703539
v 0.06853941 -0.00097888 -0.06835372
v 0.06812394 -0.00293817 -0.06959197
v 0.06853941 0.00097404 -0.06835064
v 0.06811491 0.00293972 -0.06959197
v 0.06741943 0.00489902 -0.07155406
v 0.06725686 0.00685832 -0.07155406
v 0.06672397 0.00841554 -0.07276459
v 0.06696783 0.00897078 -0.07172964
v 0.06664268 0.00972387 -0.07250277
v 0.06617301 0.01077691 -0.07351308
v 0.06586592 0.01274259 -0.07351308
v 0.06578463 0.01289576 -0.07368557
v 0.06545948 0.01468274 -0.07368557
v 0.06541432 0.01489335 -0.07368557
v -0.01564836 -0.03135119 -0.07368557
v -0.01399549 -0.03142777 -0.07224095
v -0.01328196 -0.03125545 -0.07093494
v -0.01232456 -0.02990245 -0.06806726
v -0.00298542 -0.02824949 -0.05776703
v -0.00097127 -0.02895790 -0.05783480
v 0.00294864 -0.02847287 -0.05587270
v 0.00490859 -0.02786019 -0.05450508
v 0.01323615 -0.02752832 -0.05286642
v 0.03816461 -0.01449612 -0.04221812
v 0.06730202 -0.02057824 -0.05816438
v 0.06693170 -0.02185465 -0.05851245
v 0.06778975 -0.02057824 -0.05979073
v 0.06870199 -0.01805093 -0.05930098
v 0.06929810 -0.01470034 -0.05979073
v 0.06367113 -0.00685677 -0.04221812
v 0.06303889 -0.00849696 -0.04221812
v 0.06301179 -0.00856078 -0.04221812
v 0.06918069 -0.01274105 -0.06174975
v 0.06948778 -0.01078175 -0.06174975
v 0.06868393 -0.01034777 -0.06498089
v 0.06922585 -0.00881607 -0.06371184
v 0.06865683 -0.00635258 -0.06681669
v 0.06859360 -0.00765453 -0.06658568
v 0.06799748 -0.00489747 -0.06959197
v 0.06760911 -0.00097888 -0.07155406
v 0.06760911 0.00097404 -0.07155406
v 0.06742846 -0.00489747 -0.07155406
v 0.06754589 -0.00293817 -0.07155406
v 0.06753685 0.00293972 -0.07155406
v 0.06689557 0.00287590 -0.07368557
v 0.06688654 0.00489902 -0.07330362
v 0.06680526 0.00685832 -0.07303564
v 0.06660655 0.00685832 -0.07368557
v 0.06637172 0.00895164 -0.07368557
v 0.06611882 0.01077691 -0.07368557
v 0.06581173 0.01274259 -0.07368557
v -0.01493483 -0.03147883 -0.07368557
v -0.01197231 -0.03140224 -0.07040822
v -0.01467290 -0.03149797 -0.07353772
v 0.00490859 -0.03259569 -0.06567085
v -0.01078008 -0.03124269 -0.06901597
v -0.00294026 -0.02918128 -0.05952583
v 0.00686855 -0.03205960 -0.06393362
v 0.00490859 -0.02864518 -0.05587270
v 0.00686855 -0.02797507 -0.05434799
v 0.01470837 -0.02764320 -0.05277093
v 0.04010651 -0.01487266 -0.04221812
v 0.06490852 -0.02369907 -0.05862333
v 0.06596528 -0.02292046 -0.05979073
v 0.06699493 -0.02193762 -0.05979073
v 0.06256019 -0.00947980 -0.04221812
v 0.06148537 -0.01088386 -0.04221812
v 0.06144021 -0.01094130 -0.04221812
v 0.06051895 -0.02129303 -0.05128011
v 0.05854996 -0.02329700 -0.05123698
v 0.06681429 -0.02175892 -0.06174975
v 0.06668784 -0.02161852 -0.06290482
v 0.06738331 -0.02057824 -0.06174975
v 0.06844006 -0.01866999 -0.05988930
v 0.06887360 -0.01676175 -0.05988930
v 0.06857554 -0.01747655 -0.06060698
v 0.06871102 -0.01617460 -0.06115526
v 0.06882843 -0.01466205 -0.06178671
v 0.06865683 -0.01398555 -0.06291407
v 0.06876521 -0.01274105 -0.06331449
v 0.06859360 -0.01165609 -0.06463590
v 0.06790717 -0.01078175 -0.06763295
v 0.06816910 -0.00881607 -0.06763295
v 0.06852134 -0.00881607 -0.06633002
v 0.06782588 -0.00685677 -0.06959197
v 0.06761814 -0.00881607 -0.06959197
v 0.06695880 -0.00097888 -0.07368557
v 0.06700396 0.00097404 -0.07351308
v 0.06694977 0.00118465 -0.07368557
v 0.06725686 -0.00685677 -0.07155406
v 0.06661558 -0.00685677 -0.07368557
v 0.06689557 -0.00489747 -0.07330978
v 0.06689557 -0.00291903 -0.07368557
v 0.06676913 0.00489902 -0.07368557
v -0.01480838 -0.03149159 -0.07368557
v -0.01467290 -0.03150435 -0.07368557
v 0.01666833 -0.03177878 -0.06225182
v -0.01291164 -0.03161285 -0.07368557
v -0.01095169 -0.03163200 -0.07368557
v 0.00686855 -0.03260207 -0.06567085
v 0.03233894 -0.03152988 -0.06052690
v 0.03037899 -0.03151712 -0.06056695
v 0.00686855 -0.02877921 -0.05587270
v 0.01862828 -0.02854945 -0.05391369
v 0.01666833 -0.02846010 -0.05391369
v 0.01470837 -0.02833246 -0.05391369
v 0.00882851 -0.02804526 -0.05418782
v 0.01666833 -0.02776446 -0.05265080
v 0.04204840 -0.01513432 -0.04221812
v 0.06498078 -0.02376289 -0.05979073
v 0.06278599 -0.02552435 -0.05876194
v 0.06488143 -0.02368631 -0.06174975
v 0.06469175 -0.02352676 -0.06470675
v 0.06458337 -0.02341188 -0.06601276
v 0.05993186 -0.01231983 -0.04221812
v 0.05987767 -0.01236450 -0.04221812
v 0.05724935 -0.02380757 -0.05082115
v 0.05500036 -0.02553711 -0.05092588
v 0.05631001 -0.02511590 -0.05158505
v 0.06442982 -0.02321403 -0.06763295
v 0.06513433 -0.02223119 -0.06763295
v 0.06485434 -0.02183551 -0.06959197
v 0.06653429 -0.02126112 -0.06421084
v 0.06801555 -0.01861894 -0.06174975
v 0.06692267 -0.02059738 -0.06361943
v 0.06676913 -0.01995279 -0.06512874
v 0.06842199 -0.01676175 -0.06178671
v 0.06740137 -0.01665964 -0.06567085
v 0.06853941 -0.01529388 -0.06246128
v 0.06778975 -0.01470034 -0.06567085
v 0.06813297 -0.01274105 -0.06567085
v 0.06850328 -0.01274105 -0.06429400
v 0.06760008 -0.01274105 -0.06763295
v 0.06736524 -0.01078175 -0.06959197
v 0.06686848 -0.01078175 -0.07130148
v 0.06696783 -0.00898838 -0.07173887
v 0.06672397 -0.00845229 -0.07277382
v 0.06647107 -0.00815871 -0.07368557
v 0.06677816 -0.00489747 -0.07368557
v 0.06680526 -0.00444434 -0.07368557
v 0.02841903 -0.03149159 -0.06061623
v -0.01078008 -0.03163200 -0.07368557
v 0.00490859 -0.03236593 -0.06763295
v 0.04998757 -0.03145330 -0.06174975
v 0.05134238 -0.03140224 -0.06059467
v 0.04998757 -0.03142777 -0.06047146
v 0.04802762 -0.03144691 -0.06042833
v 0.04606766 -0.03145968 -0.06041909
v 0.04410770 -0.03147245 -0.06043141
v 0.03429890 -0.03152988 -0.06049918
v 0.04802762 -0.03096188 -0.07368557
v 0.04802762 -0.03107675 -0.07155406
v 0.04998757 -0.03112143 -0.06959197
v 0.04998757 -0.03121078 -0.06763295
v 0.04904824 -0.03136395 -0.06473139
v 0.02841903 -0.02791762 -0.05222881
v 0.02645908 -0.02792401 -0.05227501
v 0.02058824 -0.02858774 -0.05391369
v 0.02450815 -0.02793039 -0.05233354
v 0.02254819 -0.02791762 -0.05239822
v 0.02058824 -0.02789848 -0.05246598
v 0.01862828 -0.02784742 -0.05254607
v 0.04399932 -0.01530664 -0.04221812
v 0.06377952 -0.02474574 -0.05979073
v 0.06276793 -0.02551796 -0.06108442
v 0.05931768 -0.02778998 -0.05853708
v 0.05700548 -0.02948762 -0.05872806
v 0.05960671 -0.02801974 -0.05979073
v 0.06058217 -0.02729856 -0.05979073
v 0.06174730 -0.02637954 -0.05979073
v 0.06280405 -0.02554349 -0.05979073
v 0.06353565 -0.02480955 -0.06174359
v 0.06370726 -0.02445216 -0.06371184
v 0.06259632 -0.02537118 -0.06371184
v 0.06246084 -0.02526268 -0.06567085
v 0.06230729 -0.02513504 -0.06763295
v 0.06344533 -0.02415220 -0.06763295
v 0.05803513 -0.01348137 -0.04221812
v 0.05390748 -0.01483437 -0.04221812
v 0.05390748 -0.02567751 -0.05083347
v 0.05191140 -0.02690288 -0.05206556
v 0.05123400 -0.02750279 -0.05279557
v 0.05586744 -0.02969185 -0.05856173
v 0.05767385 -0.01364092 -0.04221812
v 0.05601195 -0.01431104 -0.04221812
v 0.06319244 -0.02395436 -0.06959197
v 0.06293954 -0.02373098 -0.07113823
v 0.06417693 -0.02281196 -0.06959197
v 0.06470078 -0.02157384 -0.07059612
v 0.06638075 -0.02059738 -0.06573862
v 0.06589302 -0.02057824 -0.06763295
v 0.06658848 -0.01935288 -0.06643783
v 0.06694074 -0.01866361 -0.06573862
v 0.06674203 -0.01804455 -0.06698302
v 0.06656139 -0.01721488 -0.06829211
v 0.06669687 -0.01590656 -0.06877571
v 0.06724783 -0.01470034 -0.06763295
v 0.06698590 -0.01289422 -0.06976445
v 0.06675107 -0.01234536 -0.07090722
v 0.06657042 -0.01078175 -0.07228099
v 0.06664268 -0.00975423 -0.07251508
v 0.06638075 -0.00896924 -0.07368557
v -0.00882013 -0.03162561 -0.07368557
v 0.04981596 -0.03130651 -0.06550145
v 0.05100820 -0.03137033 -0.06284322
v 0.05127916 -0.03139586 -0.06174975
v 0.05226365 -0.03129375 -0.06174975
v 0.05390748 -0.03097464 -0.06174975
v 0.05390748 -0.03076404 -0.05979073
v 0.05197462 -0.03109590 -0.05988005
v 0.04998757 -0.03107675 -0.05949195
v 0.04802762 -0.03106399 -0.05944883
v 0.03037899 -0.02790486 -0.05219801
v 0.04998757 -0.03089168 -0.07368557
v 0.04998757 -0.03101294 -0.07155406
v 0.05194752 -0.03103846 -0.06763295
v 0.03625885 -0.02713263 -0.05117846
v 0.03429890 -0.02710710 -0.05117229
v 0.03233894 -0.02703690 -0.05119077
v 0.03037899 -0.02694755 -0.05121850
v 0.04410770 -0.01531302 -0.04221812
v 0.06191891 -0.02614341 -0.06174359
v 0.06053701 -0.02726027 -0.06174975
v 0.05586744 -0.03017688 -0.05979073
v 0.05719515 -0.02960250 -0.05979073
v 0.05817061 -0.02900258 -0.05979073
v 0.05818867 -0.02899620 -0.06174975
v 0.05955251 -0.02801336 -0.06174975
v 0.06148537 -0.02605406 -0.06567085
v 0.06011250 -0.02691564 -0.06763295
v 0.05896543 -0.02756661 -0.06959197
v 0.05994993 -0.02676247 -0.06959197
v 0.05758353 -0.02805165 -0.07368557
v 0.06112409 -0.02578602 -0.06959197
v 0.06210859 -0.02493719 -0.06959197
v 0.05194752 -0.01515347 -0.04221812
v 0.05194752 -0.02584983 -0.05074723
v 0.04998757 -0.02692840 -0.05161893
v 0.04998757 -0.02759852 -0.05259843
v 0.05962477 -0.02624552 -0.07368557
v 0.06148537 -0.02431813 -0.07368557
v 0.06269568 -0.02348208 -0.07244424
v 0.06057314 -0.02527545 -0.07368557
v 0.06469175 -0.01960816 -0.07253665
v 0.06482724 -0.02038677 -0.07137233
v 0.06532400 -0.02057824 -0.06959197
v 0.06306598 -0.02221843 -0.07368557
v 0.06311114 -0.02214185 -0.07368557
v 0.06393306 -0.02042507 -0.07368557
v 0.06409564 -0.02038677 -0.07331902
v 0.06444789 -0.02091010 -0.07190213
v 0.06641688 -0.01866361 -0.06763603
v 0.06586592 -0.01861894 -0.06959197
v 0.06634462 -0.01660220 -0.06949648
v 0.06653429 -0.01470034 -0.07017413
v 0.06681429 -0.01470034 -0.06919462
v 0.06663364 -0.01365368 -0.07053143
v 0.06588399 -0.01274105 -0.07351308
v 0.06619108 -0.01078175 -0.07351308
v 0.06616398 -0.01060943 -0.07368557
v 0.05586744 -0.03028537 -0.06174975
v 0.05194752 -0.03092997 -0.06959197
v 0.05390748 -0.03085338 -0.06371184
v 0.04802762 -0.02768787 -0.05243210
v 0.04606766 -0.02771340 -0.05236742
v 0.04018779 -0.02778998 -0.05221341
v 0.03822784 -0.02781551 -0.05218261
v 0.03625885 -0.02784104 -0.05215796
v 0.03429890 -0.02786657 -0.05215489
v 0.03233894 -0.02788571 -0.05217029
v 0.05194752 -0.03066830 -0.07368557
v 0.03822784 -0.02712625 -0.05120310
v 0.04800052 -0.01542152 -0.04221812
v 0.04613992 -0.01541514 -0.04221812
v 0.05913704 -0.02770064 -0.06763295
v 0.06025702 -0.02703690 -0.06567085
v 0.05721322 -0.02962164 -0.06174975
v 0.05686096 -0.02941103 -0.06673045
v 0.05763772 -0.02879197 -0.06748202
v 0.05884802 -0.02747726 -0.07077169
v 0.05782739 -0.02840905 -0.06959197
v 0.05660807 -0.02926425 -0.06959197
v 0.05621066 -0.02900258 -0.07368557
v 0.05182108 -0.01516623 -0.04221812
v 0.04998757 -0.01533217 -0.04221812
v 0.04988822 -0.01533855 -0.04221812
v 0.04802762 -0.02697946 -0.05145260
v 0.06246084 -0.02311192 -0.07368557
v 0.06472788 -0.01800626 -0.07368557
v 0.06481821 -0.01861894 -0.07292784
v 0.06526077 -0.01861894 -0.07155406
v 0.06405952 -0.02008682 -0.07368557
v 0.06451111 -0.01878487 -0.07368557
v 0.06572141 -0.01665964 -0.07155406
v 0.06611882 -0.01470034 -0.07155406
v 0.06552270 -0.01470034 -0.07351308
v 0.06585689 -0.01256873 -0.07368557
v 0.05390748 -0.03061086 -0.06763295
v 0.05390748 -0.03047046 -0.06959197
v 0.05390748 -0.03017688 -0.07368557
v 0.05525326 -0.02965355 -0.07368557
v 0.04606766 -0.02701775 -0.05138483
v 0.04410770 -0.02705604 -0.05132939
v 0.04214775 -0.02709434 -0.05127702
v 0.04018779 -0.02711987 -0.05123390
v 0.05674355 -0.02934721 -0.06803646
v 0.06501691 -0.01680005 -0.07368557
v 0.06504400 -0.01667879 -0.07368557
v 0.06549561 -0.01452803 -0.07368557
f 1 2 3
f 1 3 4
f 1 4 5
f 1 5 6
f 1 6 7
f 1 7 8
f 1 8 9
f 1 9 10
f 1 10 11
f 1 11 12
f 1 12 13
f 1 13 14
f 1 14 15
f 1 15 2
f 2 16 17
f 2 17 18
f 2 18 3
f 2 15 16
f 3 18 19
f 3 19 20
f 3 20 21
f 3 21 22
f 3 22 23
f 3 23 24
f 3 24 25
f 3 25 26
f 3 26 27
f 3 27 28
f 3 28 29
f 3 29 30
f 3 30 31
f 3 31 32
f 3 32 4
f 4 32 33
f 4 33 34
f 4 34 35
f 4 35 5
f 5 35 36
f 5 36 6
f 6 36 7
f 7 36 8
f 8 10 9
f 8 36 37
f 8 37 10
f 10 37 38
f 10 38 39
f 10 39 11
f 11 40 12
f 11 39 40
f 12 40 13
f 13 40 39
f 13 39 14
f 14 39 41
f 14 41 42
f 14 42 43
f 14 43 44
f 14 44 15
f 15 44 43
f 15 43 42
f 15 42 80
f 15 80 113
f 15 113 138
f 15 138 141
f 15 141 177
f 15 177 206
f 15 206 247
f 15 247 287
f 15 287 329
f 15 329 378
f 15 378 432
f 15 432 430
f 15 430 429
f 15 429 479
f 15 479 477
f 15 477 476
f 15 476 511
f 15 511 549
f 15 549 548
f 15 548 547
f 15 547 586
f 15 586 585
f 15 585 584
f 15 584 583
f 15 583 629
f 15 629 580
f 15 580 624
f 15 624 622
f 15 622 628
f 15 628 675
f 15 675 674
f 15 674 626
f 15 626 673
f 15 673 737
f 15 737 795
f 15 795 832
f 15 832 844
f 15 844 843
f 15 843 842
f 15 842 824
f 15 824 828
f 15 828 827
f 15 827 784
f 15 784 783
f 15 783 782
f 15 782 823
f 15 823 776
f 15 776 778
f 15 778 775
f 15 775 768
f 15 768 818
f 15 818 836
f 15 836 835
f 15 835 806
f 15 806 749
f 15 749 686
f 15 686 738
f 15 738 677
f 15 677 634
f 15 634 633
f 15 633 631
f 15 631 630
f 15 630 587
f 15 587 550
f 15 550 512
f 15 512 480
f 15 480 433
f 15 433 385
f 15 385 384
f 15 384 383
f 15 383 382
f 15 382 381
f 15 381 380
f 15 380 379
f 15 379 330
f 15 330 288
f 15 288 250
f 15 250 249
f 15 249 248
f 15 248 207
f 15 207 178
f 15 178 143
f 15 143 117
f 15 117 116
f 15 116 84
f 15 84 46
f 15 46 21
f 15 21 20
f 15 20 19
f 15 19 18
f 15 18 17
f 15 17 16
f 21 45 23
f 21 23 22
f 21 46 45
f 23 45 47
f 23 47 24
f 24 47 25
f 25 47 48
f 25 48 49
f 25 49 26
f 26 49 48
f 26 48 50
f 26 50 51
f 26 51 52
f 26 52 28
f 26 28 27
f 28 52 53
f 28 53 54
f 28 54 55
f 28 55 56
f 28 56 29
f 29 56 57
f 29 57 58
f 29 58 30
f 30 58 59
f 30 59 31
f 31 59 58
f 31 58 60
f 31 60 32
f 32 60 33
f 33 61 62
f 33 62 34
f 33 60 63
f 33 63 61
f 34 62 64
f 34 64 35
f 35 64 36
f 36 65 37
f 36 64 66
f 36 66 67
f 36 67 68
f 36 68 69
f 36 69 70
f 36 70 71
f 36 71 72
f 36 72 73
f 36 73 65
f 37 65 74
f 37 74 75
f 37 75 76
f 37 76 38
f 38 76 39
f 39 76 77
f 39 77 78
f 39 78 41
f 41 78 76
f 41 76 75
f 41 75 79
f 41 79 42
f 42 79 80
f 45 81 82
f 45 82 83
f 45 83 47
f 45 46 84
f 45 84 85
f 45 85 81
f 47 83 48
f 48 86 50
f 48 83 86
f 50 86 87
f 50 87 88
f 50 88 51
f 51 88 89
f 51 89 90
f 51 90 52
f 52 90 53
f 53 90 91
f 53 91 92
f 53 92 54
f 54 92 93
f 54 93 55
f 55 93 57
f 55 57 56
f 57 93 94
f 57 94 58
f 58 94 95
f 58 95 60
f 60 95 63
f 61 63 95
f 61 95 94
f 61 94 96
f 61 96 97
f 61 97 98
f 61 98 62
f 62 99 64
f 62 98 100
f 62 100 99
f 64 99 101
f 64 101 66
f 65 73 74
f 66 101 67
f 67 101 68
f 68 101 102
f 68 102 69
f 69 102 70
f 70 102 71
f 71 102 103
f 71 103 104
f 71 104 72
f 72 105 106
f 72 106 73
f 72 104 105
f 73 106 107
f 73 107 108
f 73 108 74
f 74 108 109
f 74 109 110
f 74 110 111
f 74 111 75
f 75 112 113
f 75 113 79
f 75 111 114
f 75 114 112
f 76 78 77
f 79 113 80
f 81 115 82
f 81 85 116
f 81 116 117
f 81 117 118
f 81 118 115
f 82 115 119
f 82 119 120
f 82 120 83
f 83 120 86
f 84 116 85
f 86 120 121
f 86 121 87
f 87 122 88
f 87 121 123
f 87 123 122
f 88 122 124
f 88 124 89
f 89 124 90
f 90 124 125
f 90 125 91
f 91 125 126
f 91 126 92
f 92 126 127
f 92 127 93
f 93 127 97
f 93 97 94
f 94 97 96
f 97 127 126
f 97 126 154
f 97 154 152
f 97 152 151
f 97 151 185
f 97 185 192
f 97 192 191
f 97 191 190
f 97 190 189
f 97 189 188
f 97 188 187
f 97 187 225
f 97 225 224
f 97 224 267
f 97 267 302
f 97 302 351
f 97 351 399
f 97 399 401
f 97 401 446
f 97 446 445
f 97 445 444
f 97 444 443
f 97 443 442
f 97 442 441
f 97 441 440
f 97 440 439
f 97 439 489
f 97 489 488
f 97 488 487
f 97 487 523
f 97 523 559
f 97 559 597
f 97 597 644
f 97 644 698
f 97 698 756
f 97 756 809
f 97 809 808
f 97 808 821
f 97 821 820
f 97 820 819
f 97 819 771
f 97 771 714
f 97 714 720
f 97 720 719
f 97 719 713
f 97 713 651
f 97 651 650
f 97 650 603
f 97 603 602
f 97 602 601
f 97 601 567
f 97 567 566
f 97 566 565
f 97 565 529
f 97 529 528
f 97 528 527
f 97 527 491
f 97 491 461
f 97 461 408
f 97 408 358
f 97 358 316
f 97 316 315
f 97 315 314
f 97 314 279
f 97 279 278
f 97 278 277
f 97 277 276
f 97 276 231
f 97 231 230
f 97 230 226
f 97 226 193
f 97 193 163
f 97 163 162
f 97 162 161
f 97 161 160
f 97 160 159
f 97 159 158
f 97 158 157
f 97 157 156
f 97 156 155
f 97 155 129
f 97 129 128
f 97 128 100
f 97 100 98
f 99 100 128
f 99 128 101
f 101 128 102
f 102 128 129
f 102 129 103
f 103 129 104
f 104 129 130
f 104 130 105
f 105 130 106
f 106 130 131
f 106 131 107
f 107 131 132
f 107 132 108
f 108 132 109
f 109 132 110
f 110 133 134
f 110 134 135
f 110 135 136
f 110 136 137
f 110 137 111
f 110 132 133
f 111 137 114
f 112 138 139
f 112 139 113
f 112 114 138
f 113 139 138
f 114 137 140
f 114 140 141
f 114 141 138
f 115 118 142
f 115 142 121
f 115 121 119
f 117 143 144
f 117 144 145
f 117 145 146
f 117 146 118
f 118 146 147
f 118 147 148
f 118 148 142
f 119 121 120
f 121 142 149
f 121 149 123
f 122 123 150
f 122 150 151
f 122 151 152
f 122 152 124
f 123 149 153
f 123 153 150
f 124 152 154
f 124 154 125
f 125 154 126
f 129 155 130
f 130 155 156
f 130 156 131
f 131 156 157
f 131 157 158
f 131 158 132
f 132 158 159
f 132 159 160
f 132 160 161
f 132 161 162
f 132 162 163
f 132 163 164
f 132 164 165
f 132 165 133
f 133 165 135
f 133 135 134
f 135 166 167
f 135 167 168
f 135 168 169
f 135 169 170
f 135 170 136
f 135 165 171
f 135 171 172
f 135 172 173
f 135 173 166
f 136 170 174
f 136 174 140
f 136 140 137
f 140 174 175
f 140 175 141
f 141 175 176
f 141 176 177
f 142 148 149
f 143 178 144
f 144 178 179
f 144 179 180
f 144 180 181
f 144 181 147
f 144 147 182
f 144 182 145
f 145 182 146
f 146 182 183
f 146 183 147
f 147 183 182
f 147 181 148
f 148 181 184
f 148 184 149
f 149 184 153
f 150 153 185
f 150 185 151
f 153 184 186
f 153 186 187
f 153 187 188
f 153 188 189
f 153 189 190
f 153 190 191
f 153 191 192
f 153 192 185
f 163 193 164
f 164 193 165
f 165 193 194
f 165 194 195
f 165 195 171
f 166 196 167
f 166 173 196
f 167 196 168
f 168 196 197
f 168 197 169
f 169 197 198
f 169 198 170
f 170 198 174
f 171 195 172
f 172 199 200
f 172 200 173
f 172 195 201
f 172 201 199
f 173 200 196
f 174 198 202
f 174 202 203
f 174 203 176
f 174 176 175
f 176 203 177
f 177 203 204
f 177 204 205
f 177 205 206
f 178 207 179
f 179 208 209
f 179 209 210
f 179 210 211
f 179 211 180
f 179 207 208
f 180 211 212
f 180 212 213
f 180 213 214
f 180 214 215
f 180 215 216
f 180 216 217
f 180 217 218
f 180 218 181
f 181 218 219
f 181 219 184
f 184 219 220
f 184 220 186
f 186 220 221
f 186 221 222
f 186 222 223
f 186 223 224
f 186 224 225
f 186 225 187
f 193 226 195
f 193 195 194
f 195 227 228
f 195 228 229
f 195 229 201
f 195 226 230
f 195 230 231
f 195 231 227
f 196 232 233
f 196 233 197
f 196 200 234
f 196 234 232
f 197 235 202
f 197 202 198
f 197 233 236
f 197 236 235
f 199 237 200
f 199 201 238
f 199 238 239
f 199 239 240
f 199 240 241
f 199 241 242
f 199 242 234
f 199 234 237
f 200 237 234
f 201 229 243
f 201 243 238
f 202 235 244
f 202 244 205
f 202 205 204
f 202 204 203
f 205 245 206
f 205 244 246
f 205 246 240
f 205 240 245
f 206 245 247
f 207 248 208
f 208 248 249
f 208 249 250
f 208 250 209
f 209 250 210
f 210 250 251
f 210 251 252
f 210 252 211
f 211 252 212
f 212 252 253
f 212 253 254
f 212 254 255
f 212 255 213
f 213 255 256
f 213 256 257
f 213 257 258
f 213 258 259
f 213 259 260
f 213 260 261
f 213 261 214
f 214 261 262
f 214 262 263
f 214 263 264
f 214 264 215
f 215 264 222
f 215 222 221
f 215 221 220
f 215 220 216
f 216 220 217
f 217 220 219
f 217 219 218
f 222 264 263
f 222 263 265
f 222 265 223
f 223 265 266
f 223 266 224
f 224 266 268
f 224 268 269
f 224 269 270
f 224 270 271
f 224 271 272
f 224 272 267
f 227 231 228
f 228 273 274
f 228 274 275
f 228 275 229
f 228 231 276
f 228 276 277
f 228 277 278
f 228 278 279
f 228 279 273
f 229 280 281
f 229 281 282
f 229 282 243
f 229 275 280
f 232 241 236
f 232 236 233
f 232 234 242
f 232 242 241
f 235 236 244
f 236 241 244
f 238 283 239
f 238 243 283
f 239 283 284
f 239 284 285
f 239 285 240
f 240 285 286
f 240 286 247
f 240 247 245
f 240 246 241
f 241 246 244
f 243 282 283
f 247 286 285
f 247 285 284
f 247 284 287
f 250 288 254
f 250 254 253
f 250 253 289
f 250 289 251
f 251 289 252
f 252 289 253
f 254 288 290
f 254 290 256
f 254 256 255
f 256 291 292
f 256 292 293
f 256 293 257
f 256 290 335
f 256 335 291
f 257 293 258
f 258 293 294
f 258 294 259
f 259 295 296
f 259 296 297
f 259 297 298
f 259 298 260
f 259 294 293
f 259 293 295
f 260 298 299
f 260 299 261
f 261 299 262
f 262 299 300
f 262 300 301
f 262 301 265
f 262 265 263
f 265 301 266
f 266 301 300
f 266 300 268
f 267 272 303
f 267 303 304
f 267 304 305
f 267 305 306
f 267 306 307
f 267 307 308
f 267 308 302
f 268 300 309
f 268 309 269
f 269 309 270
f 270 309 271
f 271 309 310
f 271 310 272
f 272 310 311
f 272 311 303
f 273 312 357
f 273 357 313
f 273 313 274
f 273 279 314
f 273 314 315
f 273 315 316
f 273 316 312
f 274 313 317
f 274 317 318
f 274 318 319
f 274 319 275
f 275 319 320
f 275 320 321
f 275 321 280
f 280 321 322
f 280 322 281
f 281 322 323
f 281 323 324
f 281 324 282
f 282 324 325
f 282 325 326
f 282 326 283
f 283 327 328
f 283 328 284
f 283 326 325
f 283 325 327
f 284 328 329
f 284 329 287
f 288 330 331
f 288 331 332
f 288 332 333
f 288 333 334
f 288 334 335
f 288 335 290
f 291 336 292
f 291 335 334
f 291 334 333
f 291 333 336
f 292 336 337
f 292 337 338
f 292 338 339
f 292 339 340
f 292 340 341
f 292 341 342
f 292 342 343
f 292 343 344
f 292 344 345
f 292 345 346
f 292 346 293
f 293 346 295
f 295 346 296
f 296 347 348
f 296 348 349
f 296 349 350
f 296 350 297
f 296 346 347
f 297 350 311
f 297 311 310
f 297 310 298
f 298 310 309
f 298 309 299
f 299 309 300
f 302 308 352
f 302 352 353
f 302 353 351
f 303 311 350
f 303 350 304
f 304 350 305
f 305 350 306
f 306 350 349
f 306 349 307
f 307 349 348
f 307 348 308
f 308 348 354
f 308 354 352
f 312 355 356
f 312 356 357
f 312 316 358
f 312 358 355
f 313 357 359
f 313 359 360
f 313 360 361
f 313 361 317
f 317 361 362
f 317 362 318
f 318 363 364
f 318 364 365
f 318 365 319
f 318 362 366
f 318 366 367
f 318 367 363
f 319 365 321
f 319 321 320
f 321 368 322
f 321 365 368
f 322 368 369
f 322 369 370
f 322 370 371
f 322 371 372
f 322 372 323
f 323 372 373
f 323 373 374
f 323 374 324
f 324 374 373
f 324 373 375
f 324 375 325
f 325 375 327
f 327 375 376
f 327 376 377
f 327 377 328
f 328 377 329
f 329 377 378
f 330 379 331
f 331 380 381
f 331 381 382
f 331 382 383
f 331 383 337
f 331 337 333
f 331 333 332
f 331 379 380
f 333 337 336
f 337 383 338
f 338 383 384
f 338 384 385
f 338 385 386
f 338 386 387
f 338 387 388
f 338 388 389
f 338 389 390
f 338 390 339
f 339 390 391
f 339 391 392
f 339 392 393
f 339 393 394
f 339 394 340
f 340 394 341
f 341 394 342
f 342 394 395
f 342 395 343
f 343 395 396
f 343 396 397
f 343 397 344
f 344 397 354
f 344 354 398
f 344 398 346
f 344 346 345
f 346 398 347
f 347 398 354
f 347 354 348
f 351 353 399
f 352 354 397
f 352 397 353
f 353 397 396
f 353 396 395
f 353 395 393
f 353 393 400
f 353 400 401
f 353 401 399
f 355 402 356
f 355 358 402
f 356 402 403
f 356 403 404
f 356 404 405
f 356 405 406
f 356 406 357
f 357 406 407
f 357 407 359
f 358 408 402
f 359 407 409
f 359 409 410
f 359 410 360
f 360 410 411
f 360 411 361
f 361 411 362
f 362 411 412
f 362 412 366
f 363 367 413
f 363 413 414
f 363 414 364
f 364 414 365
f 365 414 369
f 365 369 368
f 366 415 416
f 366 416 417
f 366 417 367
f 366 412 415
f 367 417 418
f 367 418 413
f 369 419 370
f 369 414 413
f 369 413 420
f 369 420 419
f 370 421 422
f 370 422 371
f 370 419 421
f 371 422 372
f 372 422 423
f 372 423 373
f 373 423 424
f 373 424 425
f 373 425 375
f 375 426 427
f 375 427 428
f 375 428 429
f 375 429 430
f 375 430 431
f 375 431 432
f 375 432 376
f 375 425 424
f 375 424 426
f 376 432 377
f 377 432 378
f 385 433 434
f 385 434 387
f 385 387 386
f 387 392 391
f 387 391 390
f 387 390 389
f 387 389 388
f 387 434 392
f 392 435 436
f 392 436 393
f 392 434 435
f 393 436 400
f 393 395 394
f 400 436 437
f 400 437 438
f 400 438 439
f 400 439 440
f 400 440 441
f 400 441 442
f 400 442 443
f 400 443 444
f 400 444 445
f 400 445 446
f 400 446 401
f 402 447 403
f 402 408 447
f 403 447 448
f 403 448 449
f 403 449 450
f 403 450 451
f 403 451 452
f 403 452 453
f 403 453 404
f 404 453 454
f 404 454 455
f 404 455 405
f 405 456 407
f 405 407 406
f 405 455 457
f 405 457 456
f 407 456 457
f 407 457 458
f 407 458 459
f 407 459 460
f 407 460 409
f 408 461 449
f 408 449 448
f 408 448 447
f 409 462 410
f 409 460 463
f 409 463 462
f 410 462 464
f 410 464 411
f 411 465 415
f 411 415 412
f 411 464 466
f 411 466 465
f 413 418 420
f 415 465 466
f 415 466 416
f 416 466 467
f 416 467 504
f 416 504 468
f 416 468 417
f 417 468 469
f 417 469 470
f 417 470 471
f 417 471 418
f 418 471 420
f 419 420 421
f 420 471 472
f 420 472 473
f 420 473 474
f 420 474 421
f 421 474 423
f 421 423 422
f 423 473 475
f 423 475 426
f 423 426 424
f 423 474 473
f 426 476 477
f 426 477 428
f 426 428 427
f 426 475 478
f 426 478 476
f 428 479 429
f 428 477 479
f 430 432 431
f 433 480 481
f 433 481 482
f 433 482 434
f 434 482 435
f 435 482 436
f 436 483 437
f 436 482 483
f 437 483 484
f 437 484 485
f 437 485 486
f 437 486 438
f 438 486 487
f 438 487 488
f 438 488 489
f 438 489 439
f 449 490 492
f 449 492 450
f 449 461 491
f 449 491 490
f 450 492 493
f 450 493 494
f 450 494 495
f 450 495 451
f 451 495 452
f 452 496 454
f 452 454 453
f 452 495 497
f 452 497 498
f 452 498 499
f 452 499 496
f 454 496 500
f 454 500 455
f 455 500 458
f 455 458 457
f 458 500 501
f 458 501 459
f 459 501 502
f 459 502 503
f 459 503 463
f 459 463 460
f 462 463 464
f 463 503 464
f 464 503 504
f 464 504 467
f 464 467 466
f 468 504 505
f 468 505 506
f 468 506 469
f 469 506 470
f 470 506 507
f 470 507 508
f 470 508 472
f 470 472 471
f 472 508 473
f 473 509 510
f 473 510 475
f 473 508 509
f 475 510 478
f 476 478 510
f 476 510 511
f 480 512 513
f 480 513 481
f 481 514 515
f 481 515 482
f 481 513 514
f 482 515 516
f 482 516 483
f 483 516 517
f 483 517 518
f 483 518 484
f 484 518 519
f 484 519 485
f 485 519 520
f 485 520 521
f 485 521 522
f 485 522 487
f 485 487 486
f 487 522 523
f 490 524 525
f 490 525 526
f 490 526 492
f 490 491 527
f 490 527 528
f 490 528 529
f 490 529 524
f 492 526 530
f 492 530 531
f 492 531 493
f 493 531 532
f 493 532 533
f 493 533 494
f 494 533 534
f 494 534 495
f 495 534 535
f 495 535 497
f 496 499 536
f 496 536 500
f 497 535 498
f 498 535 499
f 499 537 536
f 499 535 537
f 500 536 538
f 500 538 501
f 501 538 539
f 501 539 502
f 502 539 540
f 502 540 541
f 502 541 503
f 503 541 504
f 504 541 542
f 504 542 543
f 504 543 544
f 504 544 505
f 505 544 545
f 505 545 546
f 505 546 507
f 505 507 506
f 507 546 509
f 507 509 508
f 509 546 547
f 509 547 548
f 509 548 510
f 510 548 549
f 510 549 511
f 512 550 514
f 512 514 513
f 514 550 551
f 514 551 552
f 514 552 515
f 515 552 553
f 515 553 517
f 515 517 516
f 517 553 518
f 518 553 552
f 518 552 554
f 518 554 519
f 519 554 555
f 519 555 520
f 520 556 521
f 520 555 556
f 521 556 557
f 521 557 558
f 521 558 522
f 522 558 559
f 522 559 523
f 524 529 525
f 525 560 561
f 525 561 562
f 525 562 563
f 525 563 564
f 525 564 526
f 525 529 565
f 525 565 566
f 525 566 567
f 525 567 560
f 526 564 568
f 526 568 569
f 526 569 530
f 530 569 531
f 531 569 532
f 532 569 570
f 532 570 571
f 532 571 533
f 533 572 534
f 533 571 573
f 533 573 572
f 534 572 535
f 535 572 574
f 535 574 537
f 536 537 575
f 536 575 576
f 536 576 538
f 537 574 577
f 537 577 578
f 537 578 575
f 538 576 539
f 539 576 579
f 539 579 540
f 540 579 580
f 540 580 581
f 540 581 541
f 541 581 582
f 541 582 542
f 542 582 583
f 542 583 584
f 542 584 544
f 542 544 543
f 544 584 585
f 544 585 545
f 545 585 586
f 545 586 546
f 546 586 547
f 550 587 551
f 551 588 552
f 551 587 589
f 551 589 590
f 551 590 588
f 552 588 591
f 552 591 554
f 554 591 592
f 554 592 555
f 555 592 591
f 555 591 590
f 555 590 593
f 555 593 594
f 555 594 556
f 556 594 595
f 556 595 557
f 557 595 596
f 557 596 558
f 558 596 597
f 558 597 559
f 560 567 561
f 561 598 599
f 561 599 600
f 561 600 562
f 561 567 601
f 561 601 602
f 561 602 603
f 561 603 604
f 561 604 605
f 561 605 598
f 562 600 606
f 562 606 607
f 562 607 608
f 562 608 609
f 562 609 563
f 563 610 564
f 563 609 611
f 563 611 610
f 564 610 612
f 564 612 568
f 568 612 613
f 568 613 614
f 568 614 615
f 568 615 616
f 568 616 569
f 569 616 570
f 570 616 617
f 570 617 618
f 570 618 619
f 570 619 571
f 571 619 573
f 572 573 620
f 572 620 574
f 573 619 618
f 573 618 621
f 573 621 620
f 574 620 625
f 574 625 577
f 575 578 622
f 575 622 576
f 576 622 623
f 576 623 624
f 576 624 580
f 576 580 579
f 577 625 626
f 577 626 627
f 577 627 578
f 578 627 628
f 578 628 622
f 580 629 581
f 581 629 583
f 581 583 582
f 587 630 589
f 588 590 591
f 589 630 631
f 589 631 590
f 590 632 593
f 590 631 633
f 590 633 634
f 590 634 635
f 590 635 636
f 590 636 637
f 590 637 632
f 593 638 594
f 593 632 639
f 593 639 640
f 593 640 638
f 594 638 641
f 594 641 642
f 594 642 595
f 595 642 643
f 595 643 596
f 596 643 597
f 597 643 644
f 598 645 599
f 598 605 646
f 598 646 645
f 599 645 647
f 599 647 648
f 599 648 600
f 600 648 649
f 600 649 606
f 603 650 605
f 603 605 604
f 605 650 651
f 605 651 652
f 605 652 653
f 605 653 654
f 605 654 646
f 606 649 655
f 606 655 607
f 607 656 657
f 607 657 658
f 607 658 608
f 607 655 656
f 608 659 609
f 608 658 660
f 608 660 661
f 608 661 659
f 609 659 611
f 610 611 612
f 611 659 662
f 611 662 612
f 612 662 663
f 612 663 664
f 612 664 613
f 613 664 614
f 614 664 665
f 614 665 666
f 614 666 667
f 614 667 615
f 615 667 616
f 616 667 666
f 616 666 668
f 616 668 617
f 617 668 669
f 617 669 618
f 618 669 621
f 620 621 625
f 621 669 670
f 621 670 671
f 621 671 672
f 621 672 625
f 622 624 623
f 625 672 626
f 626 672 673
f 626 674 627
f 627 674 675
f 627 675 628
f 632 637 676
f 632 676 639
f 634 677 678
f 634 678 635
f 635 679 680
f 635 680 681
f 635 681 682
f 635 682 683
f 635 683 684
f 635 684 685
f 635 685 636
f 635 678 686
f 635 686 687
f 635 687 688
f 635 688 689
f 635 689 690
f 635 690 679
f 636 685 691
f 636 691 692
f 636 692 693
f 636 693 637
f 637 693 639
f 637 639 676
f 638 640 641
f 639 693 694
f 639 694 695
f 639 695 696
f 639 696 640
f 640 696 697
f 640 697 641
f 641 697 643
f 641 643 642
f 643 697 644
f 644 697 698
f 645 646 699
f 645 699 700
f 645 700 647
f 646 654 701
f 646 701 702
f 646 702 703
f 646 703 704
f 646 704 705
f 646 705 706
f 646 706 699
f 647 700 707
f 647 707 648
f 648 707 708
f 648 708 709
f 648 709 710
f 648 710 711
f 648 711 712
f 648 712 649
f 649 712 655
f 651 713 653
f 651 653 652
f 653 714 715
f 653 715 716
f 653 716 717
f 653 717 718
f 653 718 702
f 653 702 654
f 653 713 719
f 653 719 720
f 653 720 714
f 654 702 701
f 655 712 721
f 655 721 722
f 655 722 723
f 655 723 656
f 656 723 657
f 657 724 658
f 657 723 724
f 658 725 661
f 658 661 660
f 658 724 726
f 658 726 725
f 659 661 727
f 659 727 728
f 659 728 662
f 661 725 726
f 661 726 727
f 662 728 663
f 663 665 664
f 663 728 729
f 663 729 730
f 663 730 731
f 663 731 665
f 665 731 732
f 665 732 733
f 665 733 668
f 665 668 666
f 668 733 669
f 669 733 734
f 669 734 670
f 670 734 735
f 670 735 736
f 670 736 671
f 671 736 672
f 672 736 737
f 672 737 673
f 677 738 678
f 678 738 686
f 679 690 739
f 679 739 740
f 679 740 741
f 679 741 680
f 680 741 742
f 680 742 743
f 680 743 744
f 680 744 745
f 680 745 746
f 680 746 681
f 681 746 682
f 682 746 683
f 683 746 684
f 684 746 685
f 685 746 747
f 685 747 748
f 685 748 691
f 686 749 750
f 686 750 688
f 686 688 687
f 688 750 751
f 688 751 740
f 688 740 689
f 689 740 739
f 689 739 690
f 691 748 752
f 691 752 753
f 691 753 692
f 692 753 694
f 692 694 693
f 694 753 695
f 695 753 754
f 695 754 696
f 696 754 755
f 696 755 698
f 696 698 697
f 698 755 754
f 698 754 756
f 699 706 700
f 700 757 709
f 700 709 708
f 700 708 707
f 700 706 758
f 700 758 757
f 702 718 744
f 702 744 759
f 702 759 760
f 702 760 761
f 702 761 703
f 703 761 762
f 703 762 763
f 703 763 704
f 704 763 758
f 704 758 705
f 705 758 706
f 709 757 710
f 710 757 764
f 710 764 765
f 710 765 711
f 711 765 766
f 711 766 767
f 711 767 768
f 711 768 769
f 711 769 770
f 711 770 712
f 712 770 721
f 714 771 715
f 715 771 772
f 715 772 773
f 715 773 716
f 716 773 774
f 716 774 717
f 717 774 744
f 717 744 718
f 721 770 775
f 721 775 722
f 722 776 777
f 722 777 723
f 722 775 778
f 722 778 776
f 723 777 724
f 724 779 780
f 724 780 781
f 724 781 726
f 724 777 782
f 724 782 783
f 724 783 784
f 724 784 785
f 724 785 786
f 724 786 779
f 726 781 727
f 727 787 729
f 727 729 728
f 727 781 788
f 727 788 787
f 729 787 730
f 730 787 788
f 730 788 789
f 730 789 731
f 731 789 790
f 731 790 791
f 731 791 732
f 732 791 733
f 733 791 792
f 733 792 734
f 734 792 793
f 734 793 794
f 734 794 735
f 735 794 795
f 735 795 736
f 736 795 737
f 740 751 741
f 741 751 742
f 742 751 743
f 743 796 759
f 743 759 744
f 743 751 797
f 743 797 798
f 743 798 796
f 744 774 745
f 745 774 746
f 746 774 799
f 746 799 800
f 746 800 801
f 746 801 802
f 746 802 803
f 746 803 804
f 746 804 805
f 746 805 748
f 746 748 747
f 748 805 752
f 749 806 797
f 749 797 750
f 750 797 751
f 752 805 804
f 752 804 807
f 752 807 808
f 752 808 809
f 752 809 753
f 753 809 754
f 754 809 756
f 757 758 764
f 758 763 810
f 758 810 811
f 758 811 764
f 759 796 760
f 760 796 812
f 760 812 761
f 761 812 762
f 762 810 763
f 762 812 813
f 762 813 814
f 762 814 810
f 764 811 810
f 764 810 765
f 765 810 766
f 766 815 767
f 766 810 768
f 766 768 815
f 767 815 768
f 768 816 817
f 768 817 818
f 768 775 770
f 768 770 769
f 768 810 816
f 771 819 772
f 772 819 820
f 772 820 821
f 772 821 822
f 772 822 773
f 773 822 799
f 773 799 774
f 776 823 777
f 777 823 782
f 779 824 825
f 779 825 826
f 779 826 788
f 779 788 781
f 779 781 780
f 779 786 785
f 779 785 827
f 779 827 828
f 779 828 824
f 784 827 785
f 788 826 829
f 788 829 789
f 789 829 790
f 790 829 830
f 790 830 792
f 790 792 791
f 792 830 831
f 792 831 793
f 793 831 844
f 793 844 832
f 793 832 795
f 793 795 794
f 796 813 812
f 796 798 833
f 796 833 834
f 796 834 835
f 796 835 836
f 796 836 813
f 797 806 833
f 797 833 798
f 799 822 837
f 799 837 838
f 799 838 839
f 799 839 800
f 800 839 801
f 801 840 802
f 801 839 840
f 802 840 803
f 803 840 807
f 803 807 804
f 806 835 834
f 806 834 833
f 807 840 808
f 808 840 839
f 808 839 821
f 810 814 816
f 813 841 814
f 813 836 841
f 814 841 817
f 814 817 816
f 817 841 836
f 817 836 818
f 821 839 838
f 821 838 837
f 821 837 822
f 824 842 826
f 824 826 825
f 826 842 829
f 829 842 843
f 829 843 831
f 829 831 830
f 831 843 844

