# https://github.com/mikedh/trimesh
v 0.02842834 0.01443053 0.02449997
v 0.02842834 0.01436554 0.02254374
v 0.02646787 0.01434011 0.02449997
v 0.03038338 0.01437119 0.02449997
v 0.04018573 0.01409147 0.00882395
v 0.04214620 0.01403496 0.00294217
v 0.04214620 0.01403214 0.00222031
v 0.04090801 0.01402366 0.00222031
v 0.04018573 0.01400671 0.00222031
v 0.03234385 0.01420449 0.01470137
v 0.03038338 0.01420167 0.01666196
v 0.02646787 0.01421014 0.02254374
v 0.02450740 0.01406322 0.02449997
v 0.02842834 0.01415646 0.01862255
v 0.03234385 0.01428643 0.02449997
v 0.04214620 0.01396433 0.00882395
v 0.04214620 0.01400106 0.00686336
v 0.04214620 0.01402366 0.00490277
v 0.04286848 0.01400671 0.00222031
v 0.03894754 0.01394173 0.00222031
v 0.03038338 0.01407735 0.01470137
v 0.03822527 0.01389934 0.00222031
v 0.02646787 0.01403779 0.02058315
v 0.02842834 0.01400671 0.01666196
v 0.02706525 0.01378915 0.01666196
v 0.02443680 0.01387392 0.02258954
v 0.02342127 0.01374677 0.02327433
v 0.02316060 0.01380611 0.02449997
v 0.02640270 0.01385979 0.01868362
v 0.02570215 0.01368461 0.01807298
v 0.03430432 0.01414798 0.02449997
v 0.04214620 0.01390782 0.01078236
v 0.04511678 0.01372982 0.00794725
v 0.04410668 0.01384566 0.00686336
v 0.04410668 0.01392760 0.00294217
v 0.04410668 0.01393890 0.00222031
v 0.03727490 0.01381458 0.00222031
v 0.03680786 0.01377220 0.00222031
v 0.03644944 0.01373547 0.00222031
v 0.03582491 0.01366483 0.00222031
v 0.02738023 0.01373547 0.01557153
v 0.03430432 0.01345575 0.00222031
v 0.02846093 0.01382871 0.01483222
v 0.02608773 0.01361115 0.01666196
v 0.02373625 0.01368178 0.02196799
v 0.01587808 0.01172376 0.01811005
v 0.02218308 0.01357442 0.02449997
v 0.01561740 0.01177462 0.01941857
v 0.01549250 0.01180570 0.02058315
v 0.02254693 0.01311105 0.01862255
v 0.02464317 0.01353486 0.01868362
v 0.02450740 0.01329753 0.01666196
v 0.01624193 0.01165312 0.01666196
v 0.03626479 0.01391347 0.02449997
v 0.04323777 0.01374395 0.01195567
v 0.04347129 0.01377785 0.01078236
v 0.04410668 0.01253466 0.02449997
v 0.04606715 0.01209389 0.02449997
v 0.04715328 0.01179722 0.02449997
v 0.04796245 0.01329188 0.00222031
v 0.04700122 0.01358290 0.00222031
v 0.04669167 0.01367331 0.00222031
v 0.04577389 0.01378350 0.00222031
v 0.04479637 0.01387957 0.00222031
v 0.01753986 0.01178309 0.01554536
v 0.03306613 0.01323819 0.00222031
v 0.03234385 0.01310540 0.00222031
v 0.01470505 0.01133950 0.01666196
v 0.01486254 0.01155141 0.01870761
v 0.02058646 0.01319581 0.02449997
v 0.01451498 0.01152880 0.02058315
v 0.01536216 0.01184243 0.02254374
v 0.01666552 0.01224364 0.02449997
v 0.01862599 0.01272679 0.02449997
v 0.03738351 0.01374960 0.02449997
v 0.04813080 0.01142426 0.02449997
v 0.04802761 0.01320994 0.00294217
v 0.04874989 0.01296412 0.00222031
v 0.03110566 0.01282568 0.00222031
v 0.01470505 0.01106261 0.01470137
v 0.00686317 0.00903960 0.01470137
v 0.01525898 0.01187916 0.02449997
v 0.04827743 0.01134798 0.02449997
v 0.05008584 0.01231993 0.00222031
v 0.03038338 0.01263920 0.00222031
v 0.00490270 0.00815524 0.01327509
v 0.00388174 0.00787834 0.01364801
v 0.00472349 0.00833041 0.01474280
v 0.01428146 0.01154576 0.02449997
v 0.05016186 0.01035625 0.02449997
v 0.05049314 0.01209389 0.00222031
v 0.02906373 0.01224364 0.00222031
v 0.00490270 0.00746018 0.01229370
v 0.02845007 0.01204021 0.00222031
v 0.02756487 0.01171528 0.00222031
v 0.02701637 0.01147512 0.00222031
v 0.02655476 0.01124626 0.00222031
v 0.00362650 0.00617461 0.01155003
v 0.00335496 0.00684141 0.01289562
v 0.00319747 0.00704202 0.01474280
v 0.00388174 0.00787834 0.01411908
v 0.00506019 0.00839822 0.01666196
v 0.00686317 0.00876270 0.02449997
v 0.05025962 0.01028844 0.02449997
v 0.05190511 0.01119258 0.00222031
v 0.05099819 0.01178027 0.00222031
v 0.02521339 0.01055686 0.00222031
v 0.00338211 0.00490034 0.01136029
v 0.00234486 0.00480710 0.01290870
v 0.02462688 0.01022628 0.00222031
v 0.02375254 0.00962729 0.00222031
v 0.02309000 0.00908480 0.00222031
v 0.02268813 0.00871467 0.00222031
v 0.02116211 0.00702224 0.00222031
v 0.02090144 0.00662950 0.00222031
v 0.00206789 0.00480710 0.01462286
v 0.00327893 0.00669166 0.01666196
v 0.00559783 0.00813828 0.02449997
v 0.00395234 0.00781618 0.01542541
v 0.05174219 0.00912436 0.02449997
v 0.05331165 0.01014152 0.00222031
v 0.00328436 0.00293948 0.01127524
v 0.00230684 0.00293948 0.01266881
v 0.02062991 0.00602768 0.00222031
v 0.02013572 0.00490034 0.00222031
v 0.02000538 0.00445957 0.00222031
v 0.01917992 0.00113968 0.00222031
v 0.00194842 0.00409226 0.01367200
v 0.00194842 0.00409226 0.01391626
v 0.00201902 0.00293948 0.01499142
v 0.00421844 0.00489469 0.02449997
v 0.00477237 0.00685554 0.02449997
v 0.05199200 0.00892658 0.02449997
v 0.05229069 0.00864121 0.02449997
v 0.05429460 0.00912719 0.00222031
v 0.00327893 -0.00294024 0.01127306
v 0.00230141 0.00097863 0.01266663
v 0.00194299 0.00293948 0.01364583
v 0.01922880 -0.00097939 0.00222031
v 0.00194299 0.00293948 0.01401222
v 0.00201902 0.00097863 0.01499142
v 0.00421301 0.00293383 0.02449997
v 0.05349630 0.00727088 0.02449997
v 0.05512550 0.00814676 0.00222031
v 0.00335496 -0.00489827 0.01134284
v 0.00230141 -0.00294024 0.01266445
v 0.00230141 -0.00097939 0.01266445
v 0.00194299 -0.00097939 0.01364147
v 0.01944602 -0.00221976 0.00222031
v 0.00194299 0.00097863 0.01401222
v 0.00194299 -0.00294024 0.01400786
v 0.00202445 -0.00294024 0.01498706
v 0.00421301 -0.00294307 0.02449997
v 0.05368094 0.00702789 0.02449997
v 0.05592380 0.00681033 0.00222031
v 0.05376240 0.00689227 0.02449997
v 0.00359391 -0.00621492 0.01152822
v 0.00232313 -0.00480220 0.01290870
v 0.01970126 -0.00325952 0.00222031
v 0.02011943 -0.00489827 0.00222031
v 0.00194842 -0.00408737 0.01366764
v 0.00194299 -0.00294024 0.01364147
v 0.00194842 -0.00408737 0.01390972
v 0.00206789 -0.00480220 0.01461850
v 0.00422387 -0.00490392 0.02449997
v 0.05665694 0.00522244 0.00222031
v 0.05471819 0.00514615 0.02449997
v 0.00490270 -0.00750049 0.01225226
v 0.00386544 -0.00789606 0.01360658
v 0.00333324 -0.00686477 0.01287163
v 0.02089058 -0.00663874 0.00222031
v 0.02173233 -0.00763329 0.00222031
v 0.02267727 -0.00872673 0.00222031
v 0.02374168 -0.00963370 0.00222031
v 0.02383400 -0.00969868 0.00222031
v 0.02462145 -0.01024399 0.00222031
v 0.00299111 -0.00685912 0.01470137
v 0.00475064 -0.00686477 0.02449997
v 0.05543504 0.00312314 0.02449997
v 0.05696106 0.00429287 0.00222031
v 0.05484853 0.00484100 0.02449997
v 0.00490270 -0.00817860 0.01323365
v 0.02653847 -0.01126397 0.00222031
v 0.00490270 -0.00849787 0.01470137
v 0.00387631 -0.00788475 0.01470137
v 0.00391975 -0.00784520 0.01570238
v 0.00557067 -0.00817012 0.02449997
v 0.05571201 0.00097863 0.02449997
v 0.05723802 0.00291688 0.00222031
v 0.00686317 -0.00909969 0.01470137
v 0.02752685 -0.01171604 0.00222031
v 0.02755944 -0.01173017 0.00222031
v 0.02843377 -0.01205509 0.00222031
v 0.03038338 -0.01265409 0.00222031
v 0.01520467 -0.01190535 0.02449997
v 0.01422715 -0.01155217 0.02449997
v 0.00686317 -0.00882845 0.02449997
v 0.00479952 -0.00831422 0.01647877
v 0.05571744 -0.00097939 0.02449997
v 0.05741180 0.00097863 0.00222031
v 0.01470505 -0.01109727 0.01470137
v 0.01470505 -0.01137699 0.01666196
v 0.01482996 -0.01157477 0.01861819
v 0.01443895 -0.01154652 0.02058315
v 0.03234385 -0.01311463 0.00222031
v 0.01529700 -0.01186297 0.02254374
v 0.01666552 -0.01229808 0.02449997
v 0.05544047 -0.00312672 0.02449997
v 0.05724346 -0.00291764 0.00222031
v 0.05741724 -0.00097939 0.00222031
v 0.01748012 -0.01179515 0.01547121
v 0.01712170 -0.01186579 0.01666196
v 0.01580748 -0.01173582 0.01796175
v 0.01556310 -0.01178668 0.01927027
v 0.01541647 -0.01182341 0.02058315
v 0.03430432 -0.01345086 0.00222031
v 0.02734221 -0.01374188 0.01551701
v 0.02450740 -0.01332936 0.01666196
v 0.02058646 -0.01255520 0.01666196
v 0.01862599 -0.01277840 0.02449997
v 0.05506576 -0.00434448 0.02449997
v 0.05691761 -0.00444337 0.00222031
v 0.05696106 -0.00429645 0.00222031
v 0.05700993 -0.00410715 0.00222031
v 0.01862599 -0.01216529 0.01666196
v 0.02254693 -0.01314289 0.01862255
v 0.02368194 -0.01369385 0.02184805
v 0.02336696 -0.01375883 0.02315656
v 0.02307914 -0.01382382 0.02449997
v 0.02210162 -0.01359778 0.02449997
v 0.02058646 -0.01324460 0.02449997
v 0.03523297 -0.01358083 0.00222031
v 0.02842834 -0.01401595 0.01666196
v 0.02700551 -0.01379839 0.01666196
v 0.02565327 -0.01369102 0.01797048
v 0.02602256 -0.01362321 0.01666196
v 0.02461059 -0.01355257 0.01862255
v 0.05665694 -0.00522602 0.00222031
v 0.05479966 -0.00505084 0.02449997
v 0.02440422 -0.01388598 0.02251975
v 0.02450740 -0.01408376 0.02449997
v 0.03586293 -0.01365994 0.00222031
v 0.03038338 -0.01406115 0.01470137
v 0.02842834 -0.01416004 0.01862255
v 0.02646787 -0.01421373 0.02254374
v 0.02637012 -0.01386902 0.01862255
v 0.03684044 -0.01376731 0.00222031
v 0.05622792 -0.00620362 0.00222031
v 0.05592923 -0.00681109 0.00222031
v 0.05371895 -0.00703712 0.02449997
v 0.02646787 -0.01434370 0.02449997
v 0.03777452 -0.01385207 0.00222031
v 0.03822527 -0.01389163 0.00222031
v 0.03038338 -0.01419395 0.01666196
v 0.05548935 -0.00757396 0.00222031
v 0.05305641 -0.00797234 0.02449997
v 0.05512550 -0.00815034 0.00222031
v 0.02842834 -0.01443411 0.02449997
v 0.02842834 -0.01436347 0.02254374
v 0.04018573 -0.01399899 0.00222031
v 0.05331165 -0.01013945 0.00222031
v 0.05367007 -0.00979475 0.00222031
v 0.05429460 -0.00913077 0.00222031
v 0.05482138 -0.00851200 0.00222031
v 0.05212234 -0.00885105 0.02449997
v 0.04214620 -0.01402442 0.00294217
v 0.03038338 -0.01436913 0.02449997
v 0.04214620 -0.01402442 0.00222031
v 0.05189968 -0.01119334 0.00222031
v 0.05100362 -0.00982583 0.02449997
v 0.04410668 -0.01393118 0.00222031
v 0.04214620 -0.01401595 0.00490277
v 0.04018573 -0.01407528 0.00882395
v 0.03234385 -0.01428154 0.02449997
v 0.05020531 -0.01034853 0.02449997
v 0.05090044 -0.01172169 0.00346994
v 0.05092759 -0.01181211 0.00222031
v 0.04560011 -0.01378144 0.00222031
v 0.04410668 -0.01391705 0.00294217
v 0.04214620 -0.01396226 0.00882395
v 0.04214620 -0.01399899 0.00686336
v 0.03430432 -0.01414309 0.02449997
v 0.05015644 -0.01037679 0.02449997
v 0.05009127 -0.01230656 0.00222031
v 0.04596396 -0.01374188 0.00222031
v 0.04508962 -0.01372210 0.00786001
v 0.04410668 -0.01383794 0.00686336
v 0.04409038 -0.01378991 0.00863858
v 0.03626479 -0.01391423 0.02449997
v 0.04829372 -0.01136569 0.02449997
v 0.04816338 -0.01143350 0.02449997
v 0.04802761 -0.01324743 0.00222031
v 0.04658306 -0.01365711 0.00222031
v 0.04612688 -0.01347911 0.00686336
v 0.04718586 -0.01180928 0.02449997
v 0.04606715 -0.01211725 0.02449997
v 0.04410668 -0.01255802 0.02449997
v 0.03739437 -0.01375035 0.02449997
f 1 2 3
f 1 3 13
f 1 13 28
f 1 28 47
f 1 47 70
f 1 70 74
f 1 74 73
f 1 73 82
f 1 82 89
f 1 89 103
f 1 103 118
f 1 118 132
f 1 132 131
f 1 131 142
f 1 142 153
f 1 153 165
f 1 165 178
f 1 178 187
f 1 187 197
f 1 197 196
f 1 196 195
f 1 195 207
f 1 207 220
f 1 220 231
f 1 231 230
f 1 230 229
f 1 229 241
f 1 241 251
f 1 251 258
f 1 258 267
f 1 267 274
f 1 274 282
f 1 282 289
f 1 289 298
f 1 298 297
f 1 297 296
f 1 296 295
f 1 295 291
f 1 291 290
f 1 290 283
f 1 283 275
f 1 275 270
f 1 270 265
f 1 265 256
f 1 256 250
f 1 250 239
f 1 239 221
f 1 221 208
f 1 208 199
f 1 199 188
f 1 188 179
f 1 179 181
f 1 181 167
f 1 167 156
f 1 156 154
f 1 154 143
f 1 143 134
f 1 134 133
f 1 133 120
f 1 120 104
f 1 104 90
f 1 90 83
f 1 83 76
f 1 76 59
f 1 59 58
f 1 58 57
f 1 57 75
f 1 75 54
f 1 54 31
f 1 31 15
f 1 15 4
f 1 4 5
f 1 5 6
f 1 6 7
f 1 7 8
f 1 8 9
f 1 9 2
f 2 9 10
f 2 10 11
f 2 11 3
f 3 12 13
f 3 11 14
f 3 14 12
f 4 15 5
f 5 15 16
f 5 16 17
f 5 17 18
f 5 18 19
f 5 19 6
f 6 19 7
f 7 19 36
f 7 36 64
f 7 64 63
f 7 63 62
f 7 62 61
f 7 61 60
f 7 60 78
f 7 78 84
f 7 84 91
f 7 91 106
f 7 106 105
f 7 105 121
f 7 121 135
f 7 135 144
f 7 144 155
f 7 155 166
f 7 166 180
f 7 180 189
f 7 189 200
f 7 200 210
f 7 210 209
f 7 209 224
f 7 224 223
f 7 223 222
f 7 222 238
f 7 238 248
f 7 248 249
f 7 249 255
f 7 255 257
f 7 257 264
f 7 264 263
f 7 263 262
f 7 262 261
f 7 261 269
f 7 269 277
f 7 277 284
f 7 284 292
f 7 292 293
f 7 293 285
f 7 285 278
f 7 278 271
f 7 271 268
f 7 268 260
f 7 260 253
f 7 253 252
f 7 252 247
f 7 247 242
f 7 242 232
f 7 232 216
f 7 216 205
f 7 205 194
f 7 194 193
f 7 193 192
f 7 192 191
f 7 191 183
f 7 183 176
f 7 176 175
f 7 175 174
f 7 174 173
f 7 173 172
f 7 172 171
f 7 171 160
f 7 160 159
f 7 159 149
f 7 149 139
f 7 139 127
f 7 127 126
f 7 126 125
f 7 125 124
f 7 124 115
f 7 115 114
f 7 114 113
f 7 113 112
f 7 112 111
f 7 111 110
f 7 110 107
f 7 107 97
f 7 97 96
f 7 96 95
f 7 95 94
f 7 94 92
f 7 92 85
f 7 85 79
f 7 79 67
f 7 67 66
f 7 66 42
f 7 42 40
f 7 40 39
f 7 39 38
f 7 38 37
f 7 37 22
f 7 22 20
f 7 20 9
f 7 9 8
f 9 20 11
f 9 11 10
f 11 21 14
f 11 20 22
f 11 22 21
f 12 23 13
f 12 14 24
f 12 24 25
f 12 25 23
f 13 26 27
f 13 27 28
f 13 23 29
f 13 29 30
f 13 30 26
f 14 21 24
f 15 31 16
f 16 32 33
f 16 33 34
f 16 34 35
f 16 35 17
f 16 31 32
f 17 35 36
f 17 36 18
f 18 36 19
f 21 22 37
f 21 37 38
f 21 38 39
f 21 39 40
f 21 40 24
f 23 25 29
f 24 41 25
f 24 40 42
f 24 42 43
f 24 43 41
f 25 41 44
f 25 44 30
f 25 30 29
f 26 30 27
f 27 30 45
f 27 45 46
f 27 46 28
f 28 46 48
f 28 48 49
f 28 49 47
f 30 50 51
f 30 51 45
f 30 44 52
f 30 52 53
f 30 53 50
f 31 54 55
f 31 55 56
f 31 56 33
f 31 33 32
f 33 56 55
f 33 55 57
f 33 57 58
f 33 58 59
f 33 59 60
f 33 60 61
f 33 61 62
f 33 62 63
f 33 63 64
f 33 64 34
f 34 64 35
f 35 64 36
f 41 65 44
f 41 43 42
f 41 42 66
f 41 66 67
f 41 67 65
f 44 65 52
f 45 51 50
f 45 50 53
f 45 53 46
f 46 53 68
f 46 68 69
f 46 69 48
f 47 49 70
f 48 69 49
f 49 69 71
f 49 71 72
f 49 72 73
f 49 73 74
f 49 74 70
f 52 65 53
f 53 65 68
f 54 75 55
f 55 75 57
f 59 76 77
f 59 77 60
f 60 77 78
f 65 67 68
f 67 79 80
f 67 80 68
f 68 80 81
f 68 81 69
f 69 81 71
f 71 82 72
f 71 81 82
f 72 82 73
f 76 83 84
f 76 84 78
f 76 78 77
f 79 85 81
f 79 81 80
f 81 86 87
f 81 87 88
f 81 88 82
f 81 85 86
f 82 88 89
f 83 90 84
f 84 90 91
f 85 92 86
f 86 93 87
f 86 92 94
f 86 94 95
f 86 95 96
f 86 96 97
f 86 97 93
f 87 98 99
f 87 99 100
f 87 100 101
f 87 101 88
f 87 93 98
f 88 101 102
f 88 102 89
f 89 102 103
f 90 104 105
f 90 105 106
f 90 106 91
f 93 97 107
f 93 107 98
f 98 108 109
f 98 109 99
f 98 107 110
f 98 110 111
f 98 111 112
f 98 112 113
f 98 113 114
f 98 114 115
f 98 115 108
f 99 109 116
f 99 116 100
f 100 117 118
f 100 118 119
f 100 119 101
f 100 116 117
f 101 119 118
f 101 118 102
f 102 118 103
f 104 120 121
f 104 121 105
f 108 122 123
f 108 123 109
f 108 115 124
f 108 124 125
f 108 125 126
f 108 126 127
f 108 127 122
f 109 123 128
f 109 128 116
f 116 128 129
f 116 129 130
f 116 130 131
f 116 131 132
f 116 132 117
f 117 132 118
f 120 133 121
f 121 133 134
f 121 134 135
f 122 136 137
f 122 137 123
f 122 127 136
f 123 137 138
f 123 138 128
f 127 139 136
f 128 138 140
f 128 140 129
f 129 140 130
f 130 140 150
f 130 150 141
f 130 141 153
f 130 153 142
f 130 142 131
f 134 143 135
f 135 143 144
f 136 145 146
f 136 146 147
f 136 147 137
f 136 139 145
f 137 147 138
f 138 147 148
f 138 148 162
f 138 162 151
f 138 151 150
f 138 150 140
f 139 149 145
f 141 150 151
f 141 151 152
f 141 152 153
f 143 154 144
f 144 154 156
f 144 156 155
f 145 157 158
f 145 158 146
f 145 149 159
f 145 159 160
f 145 160 157
f 146 161 162
f 146 162 148
f 146 148 147
f 146 158 161
f 151 162 161
f 151 161 163
f 151 163 152
f 152 163 164
f 152 164 165
f 152 165 153
f 155 156 167
f 155 167 166
f 157 168 169
f 157 169 170
f 157 170 158
f 157 160 171
f 157 171 172
f 157 172 173
f 157 173 174
f 157 174 175
f 157 175 176
f 157 176 168
f 158 170 177
f 158 177 164
f 158 164 161
f 161 164 163
f 164 177 178
f 164 178 165
f 166 179 180
f 166 167 181
f 166 181 179
f 168 182 169
f 168 176 183
f 168 183 182
f 169 184 185
f 169 185 177
f 169 177 170
f 169 182 184
f 177 185 186
f 177 186 187
f 177 187 178
f 179 188 189
f 179 189 180
f 182 190 184
f 182 183 191
f 182 191 192
f 182 192 193
f 182 193 194
f 182 194 190
f 184 195 196
f 184 196 197
f 184 197 187
f 184 187 198
f 184 198 186
f 184 186 185
f 184 190 195
f 186 198 187
f 188 199 210
f 188 210 200
f 188 200 189
f 190 201 202
f 190 202 203
f 190 203 204
f 190 204 195
f 190 194 201
f 194 205 201
f 195 206 207
f 195 204 206
f 199 208 209
f 199 209 210
f 201 205 202
f 202 211 212
f 202 212 213
f 202 213 203
f 202 205 211
f 203 213 214
f 203 214 215
f 203 215 204
f 204 215 206
f 205 216 217
f 205 217 218
f 205 218 219
f 205 219 211
f 206 215 207
f 207 215 220
f 208 221 222
f 208 222 223
f 208 223 224
f 208 224 209
f 211 219 225
f 211 225 212
f 212 225 213
f 213 225 226
f 213 226 227
f 213 227 228
f 213 228 229
f 213 229 214
f 214 229 230
f 214 230 231
f 214 231 215
f 215 231 220
f 216 232 233
f 216 233 217
f 217 233 234
f 217 234 235
f 217 235 236
f 217 236 218
f 218 236 235
f 218 235 219
f 219 226 225
f 219 235 237
f 219 237 226
f 221 238 222
f 221 239 238
f 226 237 227
f 227 237 235
f 227 235 228
f 228 235 240
f 228 240 241
f 228 241 229
f 232 242 233
f 233 243 244
f 233 244 245
f 233 245 241
f 233 241 246
f 233 246 234
f 233 242 247
f 233 247 243
f 234 246 235
f 235 246 241
f 235 241 240
f 238 239 248
f 239 249 248
f 239 250 249
f 241 245 251
f 243 247 252
f 243 252 244
f 244 252 253
f 244 253 254
f 244 254 251
f 244 251 245
f 249 250 255
f 250 256 257
f 250 257 255
f 251 254 259
f 251 259 258
f 253 260 254
f 254 260 259
f 256 261 262
f 256 262 263
f 256 263 264
f 256 264 257
f 256 265 261
f 258 266 267
f 258 259 260
f 258 260 268
f 258 268 266
f 261 265 270
f 261 270 269
f 266 268 271
f 266 271 272
f 266 272 273
f 266 273 267
f 267 273 274
f 269 270 275
f 269 275 276
f 269 276 277
f 271 278 279
f 271 279 280
f 271 280 281
f 271 281 272
f 272 281 273
f 273 281 274
f 274 281 280
f 274 280 282
f 275 283 284
f 275 284 277
f 275 277 276
f 278 285 286
f 278 286 279
f 279 286 287
f 279 287 280
f 280 287 286
f 280 286 288
f 280 288 282
f 282 288 286
f 282 286 289
f 283 290 284
f 284 290 291
f 284 291 292
f 285 293 286
f 286 293 292
f 286 292 294
f 286 294 295
f 286 295 296
f 286 296 297
f 286 297 298
f 286 298 289
f 291 295 292
f 292 295 294

