# https://github.com/mikedh/trimesh
v 0.02450174 0.01600766 0.03875842
v 0.02245748 0.01592622 0.03875842
v 0.02634422 0.01598573 0.03875842
v 0.02843235 0.01442896 0.02449997
v 0.02646705 0.01433812 0.02449997
v 0.01895678 0.01575081 0.03875842
v 0.03822376 0.01578839 0.03875842
v 0.03038888 0.01436944 0.02449997
v 0.04018029 0.01575394 0.03875842
v 0.04214559 0.01571009 0.03875842
v 0.04410212 0.01566623 0.03875842
v 0.04606742 0.01561925 0.03875842
v 0.02451052 0.01406247 0.02449997
v 0.01272748 0.01526216 0.03875842
v 0.01326267 0.01533734 0.03875842
v 0.01413127 0.01545010 0.03875842
v 0.01542100 0.01554407 0.03875842
v 0.01719328 0.01565370 0.03875842
v 0.03235418 0.01428800 0.02449997
v 0.04802395 0.01555973 0.03875842
v 0.04998925 0.01549395 0.03875842
v 0.05194578 0.01541878 0.03875842
v 0.02315937 0.01380562 0.02449997
v 0.02316815 0.01380875 0.02450556
v 0.00277814 0.01354877 0.03875842
v 0.00817395 0.01453859 0.03875842
v 0.01078850 0.01496145 0.03875842
v 0.03431071 0.01415018 0.02449997
v 0.05403391 0.01532794 0.03875842
v 0.05586761 0.01523397 0.03875842
v 0.05782414 0.01511494 0.03875842
v 0.05979821 0.01498965 0.03875842
v 0.06174597 0.01485495 0.03875842
v 0.02058869 0.01319794 0.02449997
v 0.00098831 0.01316662 0.03875842
v 0.00202360 0.01339215 0.03875842
v 0.03627601 0.01391212 0.02449997
v 0.06958963 0.01427547 0.03875842
v 0.01863216 0.01272809 0.02449997
v 0.00026009 0.01299121 0.03875842
v 0.03738149 0.01374924 0.02449997
v 0.06990548 0.01422849 0.03875842
v 0.01666686 0.01224258 0.02449997
v -0.00088048 0.01269990 0.03875842
v 0.04410212 0.01253389 0.02449997
v 0.07153738 0.01390272 0.03875842
v 0.01526307 0.01187923 0.02449997
v -0.00251238 0.01208909 0.03875842
v 0.01428042 0.01154720 0.02450556
v 0.04606742 0.01209223 0.02449997
v 0.07346759 0.01324493 0.03875842
v 0.04714658 0.01179779 0.02449997
v 0.01428919 0.01154720 0.02449997
v -0.00259135 0.01205777 0.03875842
v 0.00686667 0.00876254 0.02449997
v 0.07384486 0.01311337 0.03875842
v 0.04812924 0.01142504 0.02449997
v -0.00309145 0.01179779 0.03875842
v 0.00559449 0.00813608 0.02449997
v 0.07503808 0.01257461 0.03875842
v 0.04827839 0.01134673 0.02449997
v 0.07545922 0.01237101 0.03875842
v -0.00353013 0.01156599 0.03875842
v 0.00476976 0.00685495 0.02449997
v -0.00556562 0.00540154 0.03362454
v -0.00495146 0.00691133 0.03424290
v -0.00433731 0.00819246 0.03485985
v -0.00413551 0.00997789 0.03700107
v 0.05015595 0.01035691 0.02449997
v 0.07744207 0.01090820 0.03875842
v 0.05026124 0.01028800 0.02449997
v -0.00449523 0.01040703 0.03822661
v -0.00465316 0.01053545 0.03875842
v 0.00422580 0.00489410 0.02449997
v -0.00619732 0.00293952 0.03310808
v -0.00596044 0.00409535 0.03325744
v -0.00639034 0.00480953 0.03428896
v -0.00610959 0.00626293 0.03493104
v -0.00564458 0.00756912 0.03567781
v 0.07751226 0.01085182 0.03875842
v 0.05174399 0.00912276 0.02449997
v -0.00597798 0.00800765 0.03698571
v -0.00547788 0.00931697 0.03822661
v -0.00534628 0.00976489 0.03875842
v 0.00421702 0.00293325 0.02449997
v -0.00648686 -0.00097905 0.03294477
v -0.00646931 0.00097867 0.03295454
v -0.00745196 0.00097867 0.03385485
v -0.00724139 0.00292699 0.03438108
v -0.00792574 0.00226606 0.03508598
v -0.00772394 0.00357225 0.03593604
v -0.00632893 0.00689253 0.03630594
v 0.07903010 0.00881266 0.03875842
v 0.05368297 0.00702723 0.02449997
v 0.05348995 0.00727155 0.02449997
v 0.05228795 0.00864038 0.02449997
v 0.05198965 0.00892543 0.02449997
v -0.00613591 0.00833655 0.03822661
v -0.00560072 0.00944853 0.03875842
v 0.00421702 -0.00294303 0.02449997
v -0.00621487 -0.00293990 0.03309273
v -0.00746073 -0.00097905 0.03385206
v 0.00422580 -0.00490388 0.02449997
v -0.00803980 0.00097867 0.03483612
v -0.00834687 0.00097867 0.03626686
v -0.00798715 0.00292699 0.03646088
v -0.00783800 0.00391994 0.03724394
v -0.00737300 0.00470303 0.03646088
v 0.07919680 0.00849943 0.03875842
v 0.05471826 0.00514469 0.02449997
v 0.05376193 0.00689253 0.02449997
v -0.00617100 0.00849629 0.03875842
v -0.00681148 0.00686121 0.03822661
v -0.00597798 -0.00410826 0.03324906
v 0.00475222 -0.00686472 0.02449997
v -0.00725894 -0.00293363 0.03437969
v -0.00792574 -0.00227584 0.03508179
v -0.00803980 -0.00097905 0.03483333
v -0.00834687 -0.00097905 0.03626686
v -0.00837320 -0.00097905 0.03822661
v -0.00835565 0.00097867 0.03822661
v -0.00800470 0.00312119 0.03808004
v -0.00783800 0.00391994 0.03732908
v -0.00739932 0.00539841 0.03875842
v -0.00686412 0.00686121 0.03875842
v -0.00665356 0.00741877 0.03875842
v 0.07982850 0.00729347 0.03875842
v 0.07781056 0.00686121 0.03753288
v 0.05484987 0.00484085 0.02449997
v 0.07820537 0.00535455 0.03734863
v -0.00556562 -0.00541445 0.03360919
v -0.00642544 -0.00481617 0.03428058
v 0.00557694 -0.00816778 0.02449997
v -0.00799593 -0.00293363 0.03642319
v -0.00613591 -0.00628837 0.03491569
v -0.00773272 -0.00358516 0.03587463
v -0.00784678 -0.00395164 0.03718113
v -0.00807489 -0.00293990 0.03822661
v -0.00803980 -0.00294616 0.03875842
v -0.00831178 -0.00097905 0.03875842
v -0.00831178 -0.00044655 0.03875842
v -0.00830301 0.00097867 0.03875842
v -0.00825036 0.00143912 0.03875842
v -0.00799593 0.00298024 0.03875842
v -0.00784678 0.00380091 0.03875842
v -0.00781168 0.00397632 0.03875842
v 0.07958284 0.00705228 0.03855742
v 0.08000397 0.00683615 0.03875842
v 0.05542893 0.00312432 0.02449997
v 0.07845103 0.00404837 0.03722161
v 0.07922312 0.00478133 0.03783019
v -0.00496024 -0.00693050 0.03422335
v 0.00686667 -0.00882870 0.02449997
v -0.00293352 -0.01195478 0.03875842
v -0.00419693 -0.01116543 0.03875842
v -0.00416183 -0.01000333 0.03696338
v -0.00435486 -0.00821790 0.03483892
v -0.00599553 -0.00802682 0.03696059
v -0.00636402 -0.00690858 0.03629198
v -0.00566213 -0.00759456 0.03565408
v -0.00740809 -0.00472220 0.03642319
v -0.00785555 -0.00397670 0.03822661
v -0.00684658 -0.00685846 0.03822661
v -0.00689922 -0.00685846 0.03875842
v -0.00754847 -0.00495713 0.03822661
v -0.00785555 -0.00397044 0.03875842
v 0.08065323 0.00488470 0.03875842
v 0.05570968 0.00097867 0.02449997
v 0.07857387 0.00293952 0.03715042
v 0.07870547 0.00097867 0.03707365
v 0.07955652 0.00293952 0.03775342
v -0.00092435 -0.01276293 0.03875842
v 0.01422778 -0.01155384 0.02449997
v -0.00563581 -0.00948650 0.03875842
v -0.00551298 -0.00935181 0.03822661
v -0.00600430 -0.00892267 0.03875842
v -0.00615346 -0.00837138 0.03822661
v -0.00618855 -0.00852800 0.03875842
v -0.00756602 -0.00489135 0.03875842
v 0.08099540 0.00327781 0.03875842
v 0.05570968 -0.00097905 0.02449997
v 0.07967935 0.00097867 0.03768084
v 0.07967935 -0.00097905 0.03768223
v 0.07869670 -0.00097905 0.03707644
v 0.08103049 0.00293952 0.03873469
v -0.00015227 -0.01295713 0.03875842
v 0.01521043 -0.01190467 0.02449997
v 0.01666686 -0.01229934 0.02450556
v 0.08106559 0.00293952 0.03875842
v 0.05543770 -0.00312784 0.02449997
v 0.08107436 0.00286434 0.03875842
v 0.08112700 0.00097867 0.03866211
v 0.07953897 -0.00293990 0.03776179
v 0.07856509 -0.00293990 0.03715879
v 0.08111823 -0.00097905 0.03866350
v 0.08101295 -0.00293990 0.03874306
v 0.00094444 -0.01323278 0.03875842
v 0.01666686 -0.01229621 0.02449997
v 0.01863216 -0.01277859 0.02449997
v 0.05506043 -0.00434319 0.02449997
v 0.07844226 -0.00401742 0.03722859
v 0.08125861 0.00097867 0.03875842
v 0.08124984 -0.00097905 0.03875842
v 0.07921434 -0.00476292 0.03783996
v 0.08103049 -0.00297435 0.03875842
v 0.08066200 -0.00467208 0.03875842
v 0.00147963 -0.01334241 0.03875842
v 0.02058869 -0.01324531 0.02449997
v 0.02209776 -0.01359927 0.02450556
v 0.02308041 -0.01382479 0.02449997
v 0.05479723 -0.00505110 0.02449997
v 0.07820537 -0.00532674 0.03735142
v 0.07958284 -0.00703074 0.03856021
v 0.08060936 -0.00488195 0.03875842
v 0.08024964 -0.00607224 0.03875842
v 0.07998643 -0.00681461 0.03875842
v 0.00294484 -0.01363999 0.03875842
v 0.02210653 -0.01359927 0.02449997
v 0.02451052 -0.01408165 0.02449997
v 0.02451052 -0.01408478 0.02450556
v 0.00486627 -0.01399394 0.03875842
v 0.05371806 -0.00703700 0.02449997
v 0.07781056 -0.00685846 0.03753288
v 0.07906519 -0.00875353 0.03875842
v 0.07981095 -0.00726566 0.03875842
v 0.02646705 -0.01434476 0.02449997
v 0.01269238 -0.01528760 0.03875842
v 0.01078850 -0.01499942 0.03875842
v 0.00973566 -0.01483654 0.03875842
v 0.00880565 -0.01468932 0.03875842
v 0.00686667 -0.01435416 0.03875842
v 0.05305126 -0.00797357 0.02449997
v 0.07836330 -0.00984045 0.03875842
v 0.02843235 -0.01443247 0.02449997
v 0.02254522 -0.01592346 0.03875842
v 0.01863216 -0.01573866 0.03875842
v 0.01666686 -0.01563842 0.03875842
v 0.01471033 -0.01551626 0.03875842
v 0.01323635 -0.01535964 0.03875842
v 0.05212126 -0.00885063 0.02449997
v 0.07749471 -0.01083967 0.03875842
v 0.02645827 -0.01597045 0.03875842
v 0.02451052 -0.01599238 0.03875842
v 0.02261540 -0.01592660 0.03875842
v 0.03038888 -0.01436982 0.02449997
v 0.04930490 -0.01553505 0.03875842
v 0.04741857 -0.01559457 0.03875842
v 0.04554100 -0.01564782 0.03875842
v 0.04365466 -0.01569480 0.03875842
v 0.04175955 -0.01573239 0.03875842
v 0.03985566 -0.01576685 0.03875842
v 0.03608299 -0.01582949 0.03875842
v 0.03418787 -0.01585769 0.03875842
v 0.05100700 -0.00982792 0.02449997
v 0.07745084 -0.01088039 0.03875842
v 0.03235418 -0.01427898 0.02449997
v 0.05263890 -0.01540663 0.03875842
v 0.05117370 -0.01546927 0.03875842
v 0.05019982 -0.01034789 0.02449997
v 0.07648574 -0.01172299 0.03875842
v 0.03431071 -0.01414116 0.02449997
v 0.06958963 -0.01432910 0.03875842
v 0.06080719 -0.01493364 0.03875842
v 0.05871905 -0.01507147 0.03875842
v 0.05681517 -0.01519050 0.03875842
v 0.05466562 -0.01530953 0.03875842
v 0.05015595 -0.01037608 0.02449997
v 0.07545922 -0.01235259 0.03875842
v 0.03627601 -0.01391563 0.02449997
v 0.06969492 -0.01431970 0.03875842
v 0.04829594 -0.01136590 0.02449997
v 0.07538025 -0.01239958 0.03875842
v 0.03739904 -0.01375275 0.02449997
v 0.07013359 -0.01423826 0.03875842
v 0.04410212 -0.01255619 0.02449997
v 0.04816433 -0.01143482 0.02449997
v 0.07405543 -0.01303231 0.03875842
v 0.07131805 -0.01400334 0.03875842
v 0.04606742 -0.01211453 0.02449997
v 0.04718168 -0.01180756 0.02449997
v 0.07386240 -0.01312315 0.03875842
v 0.07267796 -0.01356794 0.03875842
f 1 2 6
f 1 6 18
f 1 18 17
f 1 17 16
f 1 16 15
f 1 15 14
f 1 14 27
f 1 27 26
f 1 26 25
f 1 25 36
f 1 36 35
f 1 35 40
f 1 40 44
f 1 44 48
f 1 48 54
f 1 54 58
f 1 58 63
f 1 63 73
f 1 73 84
f 1 84 99
f 1 99 112
f 1 112 126
f 1 126 125
f 1 125 124
f 1 124 146
f 1 146 145
f 1 145 144
f 1 144 143
f 1 143 142
f 1 142 141
f 1 141 140
f 1 140 139
f 1 139 166
f 1 166 179
f 1 179 164
f 1 164 178
f 1 178 176
f 1 176 174
f 1 174 155
f 1 155 154
f 1 154 172
f 1 172 186
f 1 186 197
f 1 197 207
f 1 207 217
f 1 217 221
f 1 221 231
f 1 231 230
f 1 230 229
f 1 229 228
f 1 228 227
f 1 227 239
f 1 239 238
f 1 238 237
f 1 237 236
f 1 236 235
f 1 235 244
f 1 244 243
f 1 243 242
f 1 242 253
f 1 253 252
f 1 252 251
f 1 251 250
f 1 250 249
f 1 249 248
f 1 248 247
f 1 247 246
f 1 246 258
f 1 258 257
f 1 257 266
f 1 266 265
f 1 265 264
f 1 264 263
f 1 263 262
f 1 262 270
f 1 270 274
f 1 274 278
f 1 278 282
f 1 282 281
f 1 281 277
f 1 277 272
f 1 272 268
f 1 268 260
f 1 260 255
f 1 255 241
f 1 241 233
f 1 233 224
f 1 224 225
f 1 225 216
f 1 216 215
f 1 215 214
f 1 214 206
f 1 206 205
f 1 205 203
f 1 203 202
f 1 202 191
f 1 191 189
f 1 189 180
f 1 180 167
f 1 167 148
f 1 148 127
f 1 127 109
f 1 109 93
f 1 93 80
f 1 80 70
f 1 70 62
f 1 62 60
f 1 60 56
f 1 56 51
f 1 51 46
f 1 46 42
f 1 42 38
f 1 38 33
f 1 33 32
f 1 32 31
f 1 31 30
f 1 30 29
f 1 29 22
f 1 22 21
f 1 21 20
f 1 20 12
f 1 12 11
f 1 11 10
f 1 10 9
f 1 9 7
f 1 7 3
f 1 3 4
f 1 4 2
f 2 4 5
f 2 5 6
f 3 7 4
f 4 8 19
f 4 19 28
f 4 28 37
f 4 37 41
f 4 41 45
f 4 45 50
f 4 50 52
f 4 52 57
f 4 57 61
f 4 61 69
f 4 69 71
f 4 71 81
f 4 81 97
f 4 97 96
f 4 96 95
f 4 95 94
f 4 94 111
f 4 111 110
f 4 110 129
f 4 129 149
f 4 149 168
f 4 168 181
f 4 181 190
f 4 190 200
f 4 200 211
f 4 211 222
f 4 222 232
f 4 232 240
f 4 240 254
f 4 254 259
f 4 259 267
f 4 267 271
f 4 271 276
f 4 276 280
f 4 280 279
f 4 279 275
f 4 275 273
f 4 273 269
f 4 269 261
f 4 261 256
f 4 256 245
f 4 245 234
f 4 234 226
f 4 226 219
f 4 219 210
f 4 210 218
f 4 218 208
f 4 208 199
f 4 199 198
f 4 198 187
f 4 187 173
f 4 173 153
f 4 153 133
f 4 133 115
f 4 115 103
f 4 103 100
f 4 100 85
f 4 85 74
f 4 74 64
f 4 64 59
f 4 59 55
f 4 55 53
f 4 53 47
f 4 47 43
f 4 43 39
f 4 39 34
f 4 34 23
f 4 23 13
f 4 13 5
f 4 7 9
f 4 9 10
f 4 10 11
f 4 11 12
f 4 12 20
f 4 20 8
f 5 13 14
f 5 14 15
f 5 15 16
f 5 16 17
f 5 17 18
f 5 18 6
f 8 20 21
f 8 21 22
f 8 22 19
f 13 23 24
f 13 24 25
f 13 25 26
f 13 26 27
f 13 27 14
f 19 22 29
f 19 29 30
f 19 30 31
f 19 31 32
f 19 32 33
f 19 33 28
f 23 34 35
f 23 35 36
f 23 36 25
f 23 25 24
f 28 33 38
f 28 38 37
f 34 39 35
f 35 39 40
f 37 38 41
f 38 42 41
f 39 43 40
f 40 43 44
f 41 42 45
f 42 46 45
f 43 47 44
f 44 47 49
f 44 49 48
f 45 46 50
f 46 51 52
f 46 52 50
f 47 53 49
f 48 49 55
f 48 55 54
f 49 53 55
f 51 56 52
f 52 56 57
f 54 55 59
f 54 59 58
f 56 60 57
f 57 60 62
f 57 62 61
f 58 59 63
f 59 64 65
f 59 65 66
f 59 66 67
f 59 67 68
f 59 68 63
f 61 62 69
f 62 70 71
f 62 71 69
f 63 68 72
f 63 72 73
f 64 74 75
f 64 75 76
f 64 76 65
f 65 76 77
f 65 77 78
f 65 78 66
f 66 78 79
f 66 79 67
f 67 79 68
f 68 79 72
f 70 80 97
f 70 97 81
f 70 81 71
f 72 79 82
f 72 82 83
f 72 83 73
f 73 83 84
f 74 85 86
f 74 86 87
f 74 87 75
f 75 87 88
f 75 88 76
f 76 88 89
f 76 89 77
f 77 89 90
f 77 90 78
f 78 90 91
f 78 91 92
f 78 92 82
f 78 82 79
f 80 93 94
f 80 94 95
f 80 95 96
f 80 96 97
f 82 92 98
f 82 98 99
f 82 99 83
f 83 99 84
f 85 100 86
f 86 101 102
f 86 102 88
f 86 88 87
f 86 100 103
f 86 103 101
f 88 102 104
f 88 104 90
f 88 90 89
f 90 104 105
f 90 105 106
f 90 106 91
f 91 106 107
f 91 107 108
f 91 108 92
f 92 108 98
f 93 109 110
f 93 110 111
f 93 111 94
f 98 112 99
f 98 108 113
f 98 113 112
f 101 114 102
f 101 103 115
f 101 115 114
f 102 114 116
f 102 116 117
f 102 117 118
f 102 118 104
f 104 118 105
f 105 118 119
f 105 119 120
f 105 120 121
f 105 121 122
f 105 122 107
f 105 107 106
f 107 123 124
f 107 124 125
f 107 125 126
f 107 126 113
f 107 113 108
f 107 122 123
f 109 127 128
f 109 128 110
f 110 128 130
f 110 130 129
f 112 113 126
f 114 131 132
f 114 132 116
f 114 115 131
f 115 133 131
f 116 132 117
f 117 134 119
f 117 119 118
f 117 132 135
f 117 135 136
f 117 136 134
f 119 134 137
f 119 137 138
f 119 138 120
f 120 138 139
f 120 139 140
f 120 140 141
f 120 141 142
f 120 142 121
f 121 142 143
f 121 143 144
f 121 144 122
f 122 144 145
f 122 145 146
f 122 146 123
f 123 146 124
f 127 147 128
f 127 148 130
f 127 130 147
f 128 147 130
f 129 130 150
f 129 150 149
f 130 148 151
f 130 151 150
f 131 152 135
f 131 135 132
f 131 133 152
f 133 153 154
f 133 154 155
f 133 155 156
f 133 156 157
f 133 157 152
f 134 136 137
f 135 158 159
f 135 159 136
f 135 152 160
f 135 160 158
f 136 161 137
f 136 159 161
f 137 162 138
f 137 161 163
f 137 163 164
f 137 164 165
f 137 165 162
f 138 162 166
f 138 166 139
f 148 167 151
f 149 150 169
f 149 169 170
f 149 170 168
f 150 151 167
f 150 167 171
f 150 171 169
f 152 157 160
f 153 172 154
f 153 173 172
f 155 174 175
f 155 175 158
f 155 158 160
f 155 160 156
f 156 160 157
f 158 176 177
f 158 177 159
f 158 175 174
f 158 174 176
f 159 177 161
f 161 177 163
f 162 165 166
f 163 177 178
f 163 178 164
f 164 179 165
f 165 179 166
f 167 180 171
f 168 170 181
f 169 171 170
f 170 171 182
f 170 182 183
f 170 183 184
f 170 184 181
f 171 180 185
f 171 185 182
f 172 173 187
f 172 187 188
f 172 188 186
f 176 178 177
f 180 189 185
f 181 184 190
f 182 185 191
f 182 191 192
f 182 192 183
f 183 193 194
f 183 194 184
f 183 192 195
f 183 195 196
f 183 196 193
f 184 194 190
f 185 189 191
f 186 188 197
f 187 198 188
f 188 198 199
f 188 199 197
f 190 194 201
f 190 201 200
f 191 202 192
f 192 202 203
f 192 203 195
f 193 204 201
f 193 201 194
f 193 196 205
f 193 205 206
f 193 206 204
f 195 203 205
f 195 205 196
f 197 199 208
f 197 208 209
f 197 209 210
f 197 210 207
f 200 201 212
f 200 212 211
f 201 204 212
f 204 213 212
f 204 206 214
f 204 214 215
f 204 215 216
f 204 216 213
f 207 210 217
f 208 218 209
f 209 218 210
f 210 219 220
f 210 220 221
f 210 221 217
f 211 212 223
f 211 223 224
f 211 224 222
f 212 213 223
f 213 216 225
f 213 225 224
f 213 224 223
f 219 226 220
f 220 226 227
f 220 227 228
f 220 228 229
f 220 229 230
f 220 230 231
f 220 231 221
f 222 224 233
f 222 233 232
f 226 234 244
f 226 244 235
f 226 235 236
f 226 236 237
f 226 237 238
f 226 238 239
f 226 239 227
f 232 233 241
f 232 241 240
f 234 242 243
f 234 243 244
f 234 245 246
f 234 246 247
f 234 247 248
f 234 248 249
f 234 249 250
f 234 250 251
f 234 251 252
f 234 252 253
f 234 253 242
f 240 241 255
f 240 255 254
f 245 256 257
f 245 257 258
f 245 258 246
f 254 255 260
f 254 260 259
f 256 261 262
f 256 262 263
f 256 263 264
f 256 264 265
f 256 265 266
f 256 266 257
f 259 260 267
f 260 268 267
f 261 269 270
f 261 270 262
f 267 268 272
f 267 272 271
f 269 273 270
f 270 273 275
f 270 275 274
f 271 272 276
f 272 277 276
f 274 275 278
f 275 279 278
f 276 277 281
f 276 281 280
f 278 279 280
f 278 280 282
f 280 281 282

