# https://github.com/mikedh/trimesh
v 0.02792695 -0.02578835 -0.06538823
v 0.04740458 -0.02555956 -0.06538823
v 0.03996820 -0.02683124 -0.06227426
v 0.03811119 -0.02677803 -0.06227426
v 0.04182938 -0.02717177 -0.06041369
v 0.03996820 -0.02696958 -0.06041369
v 0.02792695 -0.02525095 -0.05298008
v 0.02792695 0.02572800 -0.06538823
v 0.04926576 -0.02553295 -0.06538823
v 0.04368639 -0.02711324 -0.06041369
v 0.05297977 -0.02547974 -0.06538823
v 0.05483677 -0.02544250 -0.06538823
v 0.05669377 -0.02539993 -0.06538823
v 0.04554757 -0.02701214 -0.05855529
v 0.02792695 -0.02477739 -0.05112167
v 0.04740458 -0.02659712 -0.05669688
v 0.02792695 0.02528637 -0.05298008
v 0.03996820 0.02699436 -0.06041369
v 0.04182938 0.02718591 -0.06041369
v 0.03811119 0.02678152 -0.06227426
v 0.03996820 0.02685069 -0.06227426
v 0.04740876 0.02556305 -0.06538823
v 0.04554757 -0.02700682 -0.06041369
v 0.04740458 -0.02691637 -0.05855529
v 0.05855496 -0.02532012 -0.06538823
v 0.04926576 -0.02610760 -0.05567118
v 0.03439301 -0.02459116 -0.05123010
v 0.03253182 -0.02462841 -0.05116504
v 0.03147785 -0.02416017 -0.05020006
v 0.02881363 -0.02420806 -0.05011765
v 0.02792695 -0.02422402 -0.05009163
v 0.04926576 -0.02649602 -0.05669688
v 0.05196344 -0.02601715 -0.05578178
v 0.05072125 -0.02605971 -0.05572757
v 0.02792695 0.02506289 -0.05209099
v 0.04740458 0.02662722 -0.05669688
v 0.04554757 0.02703160 -0.05855529
v 0.04368639 0.02713270 -0.06041369
v 0.05837929 0.02534490 -0.06538823
v 0.05652647 0.02541939 -0.06538823
v 0.05467366 0.02546196 -0.06538823
v 0.05282083 0.02549388 -0.06538823
v 0.04914029 0.02554709 -0.06538823
v 0.04740458 -0.02690041 -0.06041369
v 0.04926576 -0.02677803 -0.06041369
v 0.04926576 -0.02678867 -0.05855529
v 0.05812416 -0.02607036 -0.05743417
v 0.05669377 -0.02613421 -0.05721082
v 0.05483677 -0.02620870 -0.05698530
v 0.06040359 -0.02495830 -0.06538823
v 0.06041196 -0.02584688 -0.06041369
v 0.05804470 -0.02605971 -0.06145023
v 0.05669377 -0.02611824 -0.06159986
v 0.04740458 -0.02426659 -0.05183294
v 0.04554757 -0.02431448 -0.05173536
v 0.04368639 -0.02436237 -0.05164211
v 0.04182938 -0.02441025 -0.05155103
v 0.03996820 -0.02445814 -0.05146430
v 0.03625001 -0.02454860 -0.05130599
v 0.03625001 -0.02405376 -0.05037571
v 0.03439301 -0.02409633 -0.05030198
v 0.03253182 -0.02413889 -0.05023476
v 0.03078356 -0.02370791 -0.04943024
v 0.02881363 -0.02363341 -0.04918954
v 0.02792695 -0.02392606 -0.04960806
v 0.05297977 -0.02597990 -0.05587502
v 0.05669377 -0.02327692 -0.05112167
v 0.05483677 -0.02342058 -0.05112167
v 0.05297977 -0.02354828 -0.05112167
v 0.04926576 -0.02421338 -0.05194570
v 0.02792695 0.02481814 -0.05112167
v 0.04926576 0.02612174 -0.05565817
v 0.05210146 0.02602597 -0.05576226
v 0.04926576 0.02651548 -0.05669688
v 0.04740458 0.02693051 -0.05855529
v 0.04554757 0.02703160 -0.06041369
v 0.05855496 0.02532894 -0.06538823
v 0.05669377 0.02613238 -0.06163672
v 0.05817854 0.02606853 -0.06147626
v 0.05111858 -0.02665033 -0.06041369
v 0.05297977 -0.02652263 -0.05855529
v 0.05835002 -0.02609164 -0.05855529
v 0.05927852 -0.02600119 -0.05855529
v 0.06041196 -0.02585220 -0.05855529
v 0.06041196 -0.02554359 -0.05669688
v 0.05866788 -0.02579899 -0.05676627
v 0.05669377 -0.02583624 -0.05628053
v 0.05483677 -0.02638428 -0.05855529
v 0.05669377 -0.02623530 -0.05855529
v 0.05483677 -0.02591073 -0.05605718
v 0.06227315 -0.02503279 -0.06227426
v 0.06227315 -0.02546378 -0.06041369
v 0.06419707 -0.02321839 -0.06538823
v 0.06367426 -0.02445282 -0.06227426
v 0.05921578 -0.02599586 -0.06041369
v 0.05828728 -0.02608632 -0.06041369
v 0.05669377 -0.02622466 -0.06041369
v 0.05483677 -0.02637364 -0.06041369
v 0.05297977 -0.02651199 -0.06041369
v 0.04926576 -0.02372387 -0.05101542
v 0.04740458 -0.02377708 -0.05090482
v 0.04554757 -0.02382496 -0.05080507
v 0.04368639 -0.02387285 -0.05071183
v 0.04182938 -0.02392074 -0.05062075
v 0.03996820 -0.02396331 -0.05053401
v 0.04368639 -0.02302152 -0.04926327
v 0.04182938 -0.02311197 -0.04926327
v 0.03439301 -0.02345251 -0.04926327
v 0.03253182 -0.02353232 -0.04926327
v 0.02792695 -0.02364937 -0.04916352
v 0.04182938 -0.02242558 -0.04818986
v 0.03996820 -0.02246815 -0.04814432
v 0.05855496 -0.02308004 -0.05112167
v 0.05855496 -0.02245751 -0.04994201
v 0.05669377 -0.02255328 -0.04978371
v 0.05483677 -0.02262245 -0.04966227
v 0.05297977 -0.02268630 -0.04955168
v 0.05106839 -0.02375579 -0.05128864
v 0.02881363 0.02478621 -0.05112167
v 0.02792695 0.02424880 -0.05005911
v 0.02881363 0.02423284 -0.05008513
v 0.03439301 0.02460530 -0.05119974
v 0.03625001 0.02456274 -0.05127130
v 0.03811119 0.02451485 -0.05135153
v 0.03996820 0.02446696 -0.05143828
v 0.04182938 0.02441907 -0.05152718
v 0.04368639 0.02437119 -0.05161826
v 0.04554757 0.02432330 -0.05171367
v 0.05333946 0.02598340 -0.05587068
v 0.04740458 0.02427541 -0.05181342
v 0.04926576 0.02422752 -0.05191751
v 0.05065433 0.02419028 -0.05199774
v 0.05297977 0.02358902 -0.05112167
v 0.05483677 0.02346664 -0.05112167
v 0.05669377 0.02332830 -0.05112167
v 0.05483677 0.02620687 -0.05695276
v 0.05669377 0.02613770 -0.05718697
v 0.04926576 0.02679749 -0.05855529
v 0.05111858 0.02665914 -0.06041369
v 0.04926576 0.02678685 -0.06041369
v 0.04740458 0.02691454 -0.06041369
v 0.05816181 0.02607385 -0.05742116
v 0.06027812 0.02499904 -0.06538823
v 0.06041196 0.02587166 -0.06041369
v 0.05483677 0.02638778 -0.06041369
v 0.05669377 0.02624412 -0.06041369
v 0.05843785 0.02609514 -0.06041369
v 0.05936635 0.02601000 -0.06041369
v 0.06227315 -0.02546378 -0.05855529
v 0.06227315 -0.02513921 -0.05669688
v 0.06227315 -0.02260649 -0.05147514
v 0.06111043 -0.02226596 -0.05025427
v 0.06046215 -0.02274483 -0.05097421
v 0.06405068 -0.02468694 -0.06041369
v 0.06405487 -0.02468694 -0.05855529
v 0.06599970 -0.02146783 -0.06538823
v 0.06497918 -0.02409633 -0.06041369
v 0.06460276 -0.02382496 -0.06227426
v 0.05111858 -0.02274483 -0.04945410
v 0.04926576 -0.02279804 -0.04936736
v 0.04658482 -0.02230852 -0.04832648
v 0.04368639 -0.02238302 -0.04823974
v 0.03253182 -0.02262777 -0.04798385
v 0.02792695 -0.02316518 -0.04849996
v 0.03625001 -0.02254796 -0.04805975
v 0.04926576 -0.01595544 -0.04323484
v 0.05987243 -0.02236705 -0.05008947
v 0.05855496 -0.02186689 -0.04901172
v 0.05669377 -0.02195735 -0.04885559
v 0.05483677 -0.02202120 -0.04873415
v 0.05297977 -0.02209037 -0.04862139
v 0.05111858 -0.02215422 -0.04852381
v 0.03180826 0.02417431 -0.05017837
v 0.02792695 0.02366883 -0.04912882
v 0.02881363 0.02365287 -0.04915485
v 0.03067482 0.02419560 -0.05014151
v 0.03304626 0.02414771 -0.05022175
v 0.03439301 0.02411579 -0.05026945
v 0.03625001 0.02407322 -0.05034101
v 0.03811119 0.02403065 -0.05042342
v 0.03996820 0.02398276 -0.05050799
v 0.04182938 0.02393488 -0.05059689
v 0.04368639 0.02388699 -0.05069014
v 0.04554757 0.02383910 -0.05078555
v 0.05483677 0.02592487 -0.05602465
v 0.04740458 0.02379121 -0.05088530
v 0.04926576 0.02374333 -0.05098939
v 0.05121059 0.02378057 -0.05127564
v 0.05297977 0.02270576 -0.04952783
v 0.05483677 0.02264723 -0.04963191
v 0.05669377 0.02257274 -0.04975335
v 0.05855496 0.02248761 -0.04990298
v 0.05855496 0.02315803 -0.05112167
v 0.05669377 0.02585038 -0.05625668
v 0.05111858 0.02666447 -0.05855529
v 0.05868880 0.02581313 -0.05675977
v 0.06041196 0.02557902 -0.05669688
v 0.06041196 0.02587698 -0.05855529
v 0.05935380 0.02601000 -0.05855529
v 0.05842530 0.02609514 -0.05855529
v 0.05669377 0.02624412 -0.05855529
v 0.05483677 0.02638778 -0.05855529
v 0.05297977 0.02652612 -0.05855529
v 0.06042451 0.02496712 -0.06538823
v 0.06227315 0.02547792 -0.06041369
v 0.06378300 -0.02451667 -0.05669688
v 0.06340659 -0.02428788 -0.05564299
v 0.06339404 -0.02240962 -0.05184161
v 0.06227315 -0.02209037 -0.05054702
v 0.06236934 -0.02112198 -0.04912665
v 0.06181726 -0.02061650 -0.04815950
v 0.06046215 -0.02181901 -0.04938687
v 0.06498337 -0.02410165 -0.05855529
v 0.06771032 -0.01942463 -0.06538823
v 0.06554799 -0.02289382 -0.06227426
v 0.06575293 -0.02316518 -0.06041369
v 0.04926576 -0.02221807 -0.04843707
v 0.04782282 -0.02226596 -0.04837635
v 0.05855496 -0.02094107 -0.04791446
v 0.03067482 -0.02266502 -0.04794699
v 0.02881363 -0.02270227 -0.04791446
v 0.02792695 -0.02271823 -0.04790579
v 0.05106003 -0.01576922 -0.04323484
v 0.04740458 -0.01603526 -0.04323484
v 0.06041196 -0.02079741 -0.04800337
v 0.03067482 0.02361562 -0.04921123
v 0.02792695 0.02273769 -0.04789494
v 0.02881363 0.02272173 -0.04790796
v 0.03067482 0.02268448 -0.04793615
v 0.03253182 0.02264191 -0.04797084
v 0.03439301 0.02259935 -0.04800771
v 0.03625001 0.02255678 -0.04804891
v 0.03811119 0.02251421 -0.04809228
v 0.04182938 0.02242908 -0.04818335
v 0.03439301 0.02348260 -0.04926327
v 0.03625001 0.02339747 -0.04926327
v 0.04674793 0.02231734 -0.04831780
v 0.04737948 0.02275897 -0.04909413
v 0.04926576 0.02281218 -0.04934784
v 0.05111858 0.02275897 -0.04943675
v 0.04798593 0.02228010 -0.04836117
v 0.04926576 0.02223221 -0.04841756
v 0.05297977 0.02209919 -0.04859754
v 0.05483677 0.02203534 -0.04870163
v 0.05669377 0.02197149 -0.04882306
v 0.05855496 0.02188635 -0.04897269
v 0.05995189 0.02239183 -0.05005477
v 0.06050816 0.02279090 -0.05096337
v 0.06227315 0.02516931 -0.05669688
v 0.06227315 0.02548324 -0.05855529
v 0.06227315 0.02263127 -0.05143610
v 0.06227315 0.02505225 -0.06227426
v 0.06368681 0.02446696 -0.06227426
v 0.06418870 0.02321656 -0.06538823
v 0.06404650 0.02469043 -0.06041369
v 0.06471151 -0.02388349 -0.05669688
v 0.06419707 -0.02141462 -0.05105228
v 0.06376210 -0.02081869 -0.04965577
v 0.06305526 -0.02037174 -0.04841538
v 0.06413015 -0.01907878 -0.04800987
v 0.05832492 -0.01341208 -0.04323484
v 0.05678160 -0.01419957 -0.04323484
v 0.05483677 -0.01483807 -0.04323484
v 0.06575712 -0.02317050 -0.05855529
v 0.06558146 -0.02295234 -0.05669688
v 0.06778142 -0.01951508 -0.06041369
v 0.06717078 -0.02095171 -0.06041369
v 0.06668562 -0.02188286 -0.06041369
v 0.06952549 -0.01380583 -0.06538823
v 0.06840460 -0.01765811 -0.06041369
v 0.04554757 -0.01599801 -0.04323484
v 0.04427611 -0.01589692 -0.04323484
v 0.04367802 -0.01583306 -0.04323484
v 0.02792695 -0.02137738 -0.04721620
v 0.05172922 -0.01563619 -0.04323484
v 0.05339383 -0.01526373 -0.04323484
v 0.05297977 -0.01538079 -0.04323484
v 0.04554757 0.02234395 -0.04828310
v 0.02792695 0.02207790 -0.04755449
v 0.04371566 0.01583124 -0.04323484
v 0.04554757 0.01600151 -0.04323484
v 0.04740458 0.01604407 -0.04323484
v 0.04887679 0.01598555 -0.04323484
v 0.04926576 0.01596426 -0.04323484
v 0.05855496 0.02095521 -0.04790579
v 0.06050816 0.02183314 -0.04936736
v 0.06041196 0.02081154 -0.04799686
v 0.06119408 0.02227477 -0.05023693
v 0.06342331 0.02429669 -0.05563215
v 0.06379137 0.02452549 -0.05669688
v 0.06405068 0.02469043 -0.05855529
v 0.06227315 0.02210451 -0.05050582
v 0.06342331 0.02242908 -0.05180692
v 0.06497500 0.02408918 -0.06041369
v 0.06461531 0.02382314 -0.06227426
v 0.06513812 0.02239715 -0.06538823
v 0.06497918 0.02409450 -0.05855529
v 0.06536397 -0.02077080 -0.05150116
v 0.06500010 -0.02039834 -0.05026078
v 0.06428072 -0.02006313 -0.04912665
v 0.06515903 -0.01869035 -0.04823974
v 0.06036177 -0.01199674 -0.04323484
v 0.05902339 -0.01294385 -0.04323484
v 0.06668562 -0.02188286 -0.05855529
v 0.06658942 -0.02139334 -0.05651906
v 0.06698676 -0.01871164 -0.05183728
v 0.06778142 -0.01951508 -0.05855529
v 0.06717078 -0.02095171 -0.05855529
v 0.06990610 -0.01217765 -0.06538823
v 0.06872665 -0.01650349 -0.05855529
v 0.06840460 -0.01765811 -0.05855529
v 0.04237310 -0.01558831 -0.04323484
v 0.04182938 -0.01547125 -0.04323484
v 0.04014386 -0.01501898 -0.04323484
v 0.03799827 -0.01418360 -0.04323484
v 0.03678536 -0.01353446 -0.04323484
v 0.03632529 -0.01325778 -0.04323484
v 0.02792695 -0.01774325 -0.04618183
v 0.02792695 0.02137555 -0.04719886
v 0.04182938 0.01546942 -0.04323484
v 0.05044939 0.01585785 -0.04323484
v 0.05106421 0.01578867 -0.04323484
v 0.06180889 0.02062531 -0.04815517
v 0.05242350 0.01552795 -0.04323484
v 0.05297977 0.01541622 -0.04323484
v 0.05465274 0.01500119 -0.04323484
v 0.06236516 0.02113612 -0.04913099
v 0.06471987 0.02388699 -0.05669688
v 0.06304689 0.02036459 -0.04842189
v 0.06377883 0.02082751 -0.04966227
v 0.06422217 0.02142876 -0.05102192
v 0.06537652 0.02078494 -0.05147948
v 0.06574457 0.02316336 -0.06041369
v 0.06763922 0.01952922 -0.06538823
v 0.06553963 0.02289731 -0.06227426
v 0.06599133 0.02145537 -0.06538823
v 0.06574875 0.02316336 -0.05855529
v 0.06558564 0.02296116 -0.05669688
v 0.06606662 -0.01955233 -0.05104794
v 0.06548526 -0.01909474 -0.04926327
v 0.06685291 -0.01662587 -0.04846743
v 0.06717496 -0.01538611 -0.04804457
v 0.06554799 -0.01765811 -0.04798602
v 0.06217695 -0.01015573 -0.04323484
v 0.06163742 -0.01071974 -0.04323484
v 0.06090967 -0.01145934 -0.04323484
v 0.06708714 -0.02078676 -0.05701782
v 0.06799890 -0.01579582 -0.05112167
v 0.06726280 -0.01768472 -0.05117805
v 0.06709968 -0.01708346 -0.04970781
v 0.06676509 -0.01832322 -0.05059689
v 0.06741755 -0.01969599 -0.05651906
v 0.06818712 -0.01765811 -0.05669688
v 0.06893995 -0.01557234 -0.05855529
v 0.06992701 -0.01208187 -0.06538823
v 0.06888558 -0.01533291 -0.05709806
v 0.06883539 -0.01324182 -0.05155103
v 0.06858863 -0.01389096 -0.05100891
v 0.03453939 -0.01192757 -0.04323484
v 0.03429262 -0.01167749 -0.04323484
v 0.03287896 -0.01023022 -0.04323484
v 0.02792695 -0.01668972 -0.04594980
v 0.02792695 0.01774674 -0.04617532
v 0.03660552 0.01338366 -0.04323484
v 0.03800245 0.01417114 -0.04323484
v 0.03976326 0.01482560 -0.04323484
v 0.04048264 0.01509164 -0.04323484
v 0.04137350 0.01534172 -0.04323484
v 0.05679415 0.01421903 -0.04323484
v 0.05812416 0.01353264 -0.04323484
v 0.05853404 0.01331448 -0.04323484
v 0.06413015 0.01907695 -0.04800337
v 0.06429327 0.02007727 -0.04913099
v 0.06517158 0.01870449 -0.04822889
v 0.06502101 0.02041248 -0.05023909
v 0.06607080 0.01956647 -0.05103276
v 0.06699512 0.01872045 -0.05182643
v 0.06668144 0.02186507 -0.05855529
v 0.06667307 0.02184911 -0.06041369
v 0.06770195 0.01941748 -0.06538823
v 0.06658524 0.02138620 -0.05653642
v 0.06647232 -0.01768472 -0.04915701
v 0.06743009 -0.01592352 -0.04915701
v 0.06747610 -0.01393885 -0.04781037
v 0.06429744 -0.00651096 -0.04323484
v 0.06353624 -0.00809125 -0.04323484
v 0.06308036 -0.00882552 -0.04323484
v 0.06884376 -0.01137420 -0.04823106
v 0.06876429 -0.01295449 -0.05031282
v 0.06866810 -0.01266717 -0.04926327
v 0.06824149 -0.01393885 -0.04926327
v 0.06929546 -0.01393885 -0.05855529
v 0.07007758 -0.01021958 -0.06538823
v 0.07033689 -0.00650564 -0.05855529
v 0.07014868 -0.00836261 -0.05855529
v 0.06991446 -0.01021958 -0.05855529
v 0.06963424 -0.01208187 -0.05855529
v 0.06927873 -0.01021958 -0.04926327
v 0.06900687 -0.01223086 -0.05100891
v 0.06893159 -0.01174134 -0.04926327
v 0.03273676 -0.01003867 -0.04323484
v 0.02792695 -0.01579582 -0.04576331
v 0.02792695 0.01579932 -0.04575897
v 0.03274512 0.01003685 -0.04323484
v 0.03334739 0.01067003 -0.04323484
v 0.03454357 0.01192575 -0.04323484
v 0.06035340 0.01198960 -0.04323484
v 0.06556472 0.01765629 -0.04797951
v 0.06719169 0.01540557 -0.04803807
v 0.06686547 0.01664533 -0.04844357
v 0.06549362 0.01911420 -0.04926327
v 0.06056671 0.01178740 -0.04323484
v 0.06128609 0.01109569 -0.04323484
v 0.06195946 0.01036142 -0.04323484
v 0.06676927 0.01833203 -0.05058605
v 0.06710804 0.01709228 -0.04968396
v 0.06727953 0.01769353 -0.05117155
v 0.06803236 0.01579932 -0.05112167
v 0.06708295 0.02077430 -0.05704818
v 0.06716241 0.02093392 -0.05855529
v 0.06715824 0.02092328 -0.06041369
v 0.06776887 0.01924190 -0.06538823
v 0.06775214 0.01951858 -0.06041369
v 0.06898177 -0.01021958 -0.04804674
v 0.06484116 -0.00464334 -0.04323484
v 0.06963842 -0.00836261 -0.04926327
v 0.06943348 -0.01021958 -0.05112167
v 0.07014031 -0.00836261 -0.06538823
v 0.07064221 -0.00035475 -0.06137651
v 0.07063384 -0.00158386 -0.06041369
v 0.07058365 -0.00278637 -0.06041369
v 0.07047072 -0.00464334 -0.06041369
v 0.07048327 -0.00464334 -0.05855529
v 0.07015286 -0.00464334 -0.04926327
v 0.06993538 -0.00650564 -0.04926327
v 0.03253182 -0.00975667 -0.04323484
v 0.02792695 -0.01393885 -0.04558983
v 0.03146112 -0.00826151 -0.04323484
v 0.03062045 -0.00661737 -0.04323484
v 0.03044478 -0.00622895 -0.04323484
v 0.02998471 -0.00479233 -0.04323484
v 0.02993871 -0.00464334 -0.04323484
v 0.02966267 -0.00356853 -0.04323484
v 0.02942009 -0.00260546 -0.04323484
v 0.02792695 0.01490542 -0.04567657
v 0.02926952 0.00137985 -0.04323484
v 0.02940336 0.00228971 -0.04323484
v 0.02951210 0.00285372 -0.04323484
v 0.02995544 0.00464684 -0.04323484
v 0.03064136 0.00661555 -0.04323484
v 0.03131473 0.00786595 -0.04323484
v 0.03181662 0.00865343 -0.04323484
v 0.06215604 0.01013262 -0.04323484
v 0.06298416 0.00893543 -0.04323484
v 0.06340240 0.00831822 -0.04323484
v 0.06745101 0.01593234 -0.04914400
v 0.06352369 0.00807346 -0.04323484
v 0.06362826 0.00786063 -0.04323484
v 0.06428490 0.00649849 -0.04323484
v 0.06749283 0.01393702 -0.04780387
v 0.06884376 0.01138302 -0.04822889
v 0.06648904 0.01769353 -0.04914400
v 0.06860536 0.01391042 -0.05098072
v 0.06816202 0.01765629 -0.05669688
v 0.06775632 0.01951858 -0.05855529
v 0.06827076 0.01393702 -0.04926327
v 0.06867646 0.01269195 -0.04926327
v 0.06837951 0.01765629 -0.06041369
v 0.06951713 0.01379336 -0.06538823
v 0.06917835 -0.00836261 -0.04784724
v 0.06519667 -0.00290875 -0.04323484
v 0.07017795 -0.00650564 -0.06538823
v 0.07025324 -0.00092940 -0.06538823
v 0.07064221 0.00026779 -0.06137651
v 0.07064639 -0.00065271 -0.06041369
v 0.07063802 -0.00175413 -0.05922102
v 0.07063802 -0.00189247 -0.05798064
v 0.07060038 -0.00262142 -0.05858348
v 0.07063802 -0.00189247 -0.05761633
v 0.07029507 -0.00278637 -0.04926327
v 0.06933729 -0.00650564 -0.04773881
v 0.02924024 -0.00092940 -0.04323484
v 0.02792695 -0.00748999 -0.04507156
v 0.02792695 0.01393702 -0.04559200
v 0.02923606 0.00092757 -0.04323484
v 0.06445638 0.00596641 -0.04323484
v 0.06898596 0.01022308 -0.04804240
v 0.06965097 0.00836078 -0.04926327
v 0.06929128 0.01022308 -0.04926327
v 0.06893577 0.01176612 -0.04926327
v 0.06876847 0.01297395 -0.05026511
v 0.06884376 0.01327192 -0.05150550
v 0.06888977 0.01531512 -0.05711107
v 0.06837951 0.01765629 -0.05855529
v 0.06955059 0.01366034 -0.06538823
v 0.06871410 0.01646974 -0.05855529
v 0.06528450 -0.00233942 -0.04323484
v 0.07025324 0.00092757 -0.06538823
v 0.07064639 0.00043274 -0.06041369
v 0.07023232 0.00268877 -0.06538823
v 0.07018214 0.00639207 -0.06538823
v 0.07014868 0.00824373 -0.06538823
v 0.07008594 0.01010070 -0.06538823
v 0.07057111 0.00278455 -0.06041369
v 0.07062548 0.00136388 -0.06041369
v 0.07065057 0.00049127 -0.05855529
v 0.07064639 -0.00105178 -0.05858348
v 0.07064639 -0.00092940 -0.05758814
v 0.07037453 -0.00092940 -0.04926327
v 0.06952549 -0.00278637 -0.04766075
v 0.06945021 -0.00464334 -0.04768677
v 0.06537652 -0.00139231 -0.04323484
v 0.02792695 -0.00092940 -0.04465521
v 0.02792695 0.00092757 -0.04464653
v 0.02792695 0.00659427 -0.04504120
v 0.06482861 0.00466812 -0.04323484
v 0.06918254 0.00836078 -0.04784290
v 0.06993955 0.00650381 -0.04926327
v 0.06962169 0.01208005 -0.05855529
v 0.06928710 0.01393702 -0.05855529
v 0.06943766 0.01022308 -0.05112167
v 0.06901524 0.01224500 -0.05098072
v 0.06893995 0.01553859 -0.05855529
v 0.06991865 0.01208005 -0.06538823
v 0.06993538 0.01195235 -0.06538823
v 0.07033270 0.00650381 -0.05855529
v 0.07048327 0.00464684 -0.05855529
v 0.07047072 0.00464684 -0.06041369
v 0.07057947 0.00278455 -0.05855529
v 0.07062966 0.00142241 -0.05855529
v 0.07064639 0.00034760 -0.05758597
v 0.07037872 0.00092757 -0.04926327
v 0.06956732 -0.00092940 -0.04764557
v 0.06540997 -0.00092940 -0.04323484
v 0.06507538 0.00354543 -0.04323484
v 0.06527195 0.00263024 -0.04323484
v 0.06934147 0.00650381 -0.04773881
v 0.07016122 0.00464684 -0.04926327
v 0.07013613 0.00836078 -0.05855529
v 0.06990191 0.01022308 -0.05855529
v 0.07030343 0.00278455 -0.04926327
v 0.06952968 0.00278455 -0.04765858
v 0.06956732 0.00092757 -0.04764557
v 0.06540997 0.00011349 -0.04323484
v 0.06540579 0.00092757 -0.04323484
v 0.06945439 0.00464684 -0.04768243
f 1 2 3
f 1 3 4
f 1 4 5
f 1 5 6
f 1 6 7
f 1 7 15
f 1 15 31
f 1 31 65
f 1 65 110
f 1 110 164
f 1 164 222
f 1 222 274
f 1 274 318
f 1 318 362
f 1 362 402
f 1 402 437
f 1 437 483
f 1 483 513
f 1 513 514
f 1 514 515
f 1 515 484
f 1 484 445
f 1 445 403
f 1 403 363
f 1 363 319
f 1 319 279
f 1 279 227
f 1 227 174
f 1 174 120
f 1 120 71
f 1 71 35
f 1 35 17
f 1 17 8
f 1 8 22
f 1 22 43
f 1 43 42
f 1 42 41
f 1 41 40
f 1 40 39
f 1 39 77
f 1 77 143
f 1 143 204
f 1 204 254
f 1 254 296
f 1 296 336
f 1 336 334
f 1 334 380
f 1 380 422
f 1 422 469
f 1 469 495
f 1 495 524
f 1 524 525
f 1 525 503
f 1 503 502
f 1 502 501
f 1 501 500
f 1 500 498
f 1 498 473
f 1 473 472
f 1 472 428
f 1 428 393
f 1 393 355
f 1 355 309
f 1 309 269
f 1 269 214
f 1 214 156
f 1 156 93
f 1 93 50
f 1 50 25
f 1 25 13
f 1 13 12
f 1 12 11
f 1 11 9
f 1 9 2
f 2 9 3
f 3 10 5
f 3 5 4
f 3 9 11
f 3 11 12
f 3 12 13
f 3 13 10
f 5 10 14
f 5 14 7
f 5 7 6
f 7 14 16
f 7 16 15
f 8 17 18
f 8 18 19
f 8 19 20
f 8 20 21
f 8 21 22
f 10 23 24
f 10 24 14
f 10 13 25
f 10 25 23
f 14 24 16
f 15 16 26
f 15 26 27
f 15 27 28
f 15 28 29
f 15 29 30
f 15 30 31
f 16 24 32
f 16 32 33
f 16 33 34
f 16 34 26
f 17 35 36
f 17 36 37
f 17 37 19
f 17 19 18
f 19 37 38
f 19 38 21
f 19 21 20
f 21 38 39
f 21 39 40
f 21 40 41
f 21 41 42
f 21 42 43
f 21 43 22
f 23 44 24
f 23 25 44
f 24 44 45
f 24 45 46
f 24 46 47
f 24 47 48
f 24 48 49
f 24 49 32
f 25 50 51
f 25 51 52
f 25 52 53
f 25 53 44
f 26 34 54
f 26 54 55
f 26 55 56
f 26 56 57
f 26 57 58
f 26 58 59
f 26 59 27
f 27 59 60
f 27 60 61
f 27 61 62
f 27 62 28
f 28 62 29
f 29 62 63
f 29 63 64
f 29 64 65
f 29 65 30
f 30 65 31
f 32 49 66
f 32 66 33
f 33 66 67
f 33 67 68
f 33 68 69
f 33 69 70
f 33 70 54
f 33 54 34
f 35 71 36
f 36 72 73
f 36 73 74
f 36 74 75
f 36 75 37
f 36 71 72
f 37 75 76
f 37 76 38
f 38 76 39
f 39 76 78
f 39 78 79
f 39 79 77
f 44 53 52
f 44 52 45
f 45 80 46
f 45 52 80
f 46 80 81
f 46 81 47
f 47 82 83
f 47 83 84
f 47 84 85
f 47 85 86
f 47 86 87
f 47 87 48
f 47 81 88
f 47 88 89
f 47 89 82
f 48 87 49
f 49 87 90
f 49 90 66
f 50 91 92
f 50 92 51
f 50 93 94
f 50 94 91
f 51 84 83
f 51 83 95
f 51 95 52
f 51 92 84
f 52 95 96
f 52 96 97
f 52 97 98
f 52 98 99
f 52 99 80
f 54 70 100
f 54 100 101
f 54 101 102
f 54 102 55
f 55 102 103
f 55 103 56
f 56 103 104
f 56 104 57
f 57 104 58
f 58 104 105
f 58 105 60
f 58 60 59
f 60 105 106
f 60 106 107
f 60 107 61
f 61 107 108
f 61 108 62
f 62 108 109
f 62 109 63
f 63 109 64
f 64 110 65
f 64 109 111
f 64 111 112
f 64 112 110
f 66 90 67
f 67 113 114
f 67 114 115
f 67 115 68
f 67 90 87
f 67 87 113
f 68 115 116
f 68 116 69
f 69 116 117
f 69 117 100
f 69 100 118
f 69 118 70
f 70 118 100
f 71 119 72
f 71 120 121
f 71 121 119
f 72 119 122
f 72 122 123
f 72 123 124
f 72 124 125
f 72 125 126
f 72 126 127
f 72 127 128
f 72 128 73
f 73 129 74
f 73 128 130
f 73 130 131
f 73 131 132
f 73 132 133
f 73 133 134
f 73 134 135
f 73 135 129
f 74 136 137
f 74 137 75
f 74 129 136
f 75 138 139
f 75 139 140
f 75 140 141
f 75 141 76
f 75 137 142
f 75 142 138
f 76 141 79
f 76 79 78
f 77 79 144
f 77 144 143
f 79 141 140
f 79 140 139
f 79 139 145
f 79 145 146
f 79 146 147
f 79 147 148
f 79 148 144
f 80 99 81
f 81 99 98
f 81 98 88
f 82 89 97
f 82 97 96
f 82 96 95
f 82 95 83
f 84 92 149
f 84 149 85
f 85 87 86
f 85 149 150
f 85 150 151
f 85 151 152
f 85 152 153
f 85 153 113
f 85 113 87
f 88 98 97
f 88 97 89
f 91 94 92
f 92 94 154
f 92 154 155
f 92 155 149
f 93 156 157
f 93 157 158
f 93 158 94
f 94 158 157
f 94 157 154
f 100 117 101
f 101 117 159
f 101 159 102
f 102 159 160
f 102 160 103
f 103 160 104
f 104 160 106
f 104 106 105
f 106 160 161
f 106 161 107
f 107 161 108
f 108 161 162
f 108 162 109
f 109 162 111
f 110 163 164
f 110 112 165
f 110 165 163
f 111 162 166
f 111 166 112
f 112 166 165
f 113 153 167
f 113 167 114
f 114 167 168
f 114 168 115
f 115 168 169
f 115 169 116
f 116 169 170
f 116 170 171
f 116 171 117
f 117 171 172
f 117 172 159
f 119 121 173
f 119 173 122
f 120 174 175
f 120 175 121
f 121 175 226
f 121 226 176
f 121 176 173
f 122 173 177
f 122 177 178
f 122 178 179
f 122 179 123
f 123 179 180
f 123 180 124
f 124 180 181
f 124 181 125
f 125 181 182
f 125 182 126
f 126 182 127
f 127 182 183
f 127 183 184
f 127 184 128
f 128 184 186
f 128 186 130
f 129 185 136
f 129 135 185
f 130 186 187
f 130 187 131
f 131 187 132
f 132 187 188
f 132 188 133
f 133 188 187
f 133 187 189
f 133 189 190
f 133 190 134
f 134 190 135
f 135 190 191
f 135 191 192
f 135 192 193
f 135 193 185
f 136 185 137
f 137 185 194
f 137 194 142
f 138 195 139
f 138 142 195
f 139 195 145
f 142 194 196
f 142 196 197
f 142 197 198
f 142 198 199
f 142 199 200
f 142 200 201
f 142 201 202
f 142 202 203
f 142 203 195
f 143 144 205
f 143 205 204
f 144 148 198
f 144 198 250
f 144 250 205
f 145 195 203
f 145 203 202
f 145 202 201
f 145 201 146
f 146 201 147
f 147 200 199
f 147 199 148
f 147 201 200
f 148 199 198
f 149 155 206
f 149 206 150
f 150 206 207
f 150 207 151
f 151 207 208
f 151 208 209
f 151 209 152
f 152 209 210
f 152 210 211
f 152 211 212
f 152 212 167
f 152 167 153
f 154 157 213
f 154 213 155
f 155 213 206
f 156 214 215
f 156 215 157
f 157 215 216
f 157 216 264
f 157 264 213
f 159 172 217
f 159 217 161
f 159 161 160
f 161 217 218
f 161 218 219
f 161 219 166
f 161 166 162
f 163 220 164
f 163 165 166
f 163 166 220
f 164 220 221
f 164 221 222
f 166 223 275
f 166 275 277
f 166 277 276
f 166 276 263
f 166 263 262
f 166 262 261
f 166 261 303
f 166 303 302
f 166 302 346
f 166 346 345
f 166 345 344
f 166 344 387
f 166 387 386
f 166 386 385
f 166 385 425
f 166 425 471
f 166 471 497
f 166 497 512
f 166 512 534
f 166 534 544
f 166 544 545
f 166 545 536
f 166 536 535
f 166 535 516
f 166 516 486
f 166 486 459
f 166 459 458
f 166 458 457
f 166 457 455
f 166 455 454
f 166 454 453
f 166 453 414
f 166 414 413
f 166 413 412
f 166 412 407
f 166 407 371
f 166 371 370
f 166 370 369
f 166 369 326
f 166 326 325
f 166 325 324
f 166 324 322
f 166 322 321
f 166 321 284
f 166 284 283
f 166 283 282
f 166 282 281
f 166 281 280
f 166 280 320
f 166 320 368
f 166 368 367
f 166 367 366
f 166 366 365
f 166 365 364
f 166 364 406
f 166 406 405
f 166 405 404
f 166 404 452
f 166 452 451
f 166 451 450
f 166 450 449
f 166 449 448
f 166 448 447
f 166 447 446
f 166 446 485
f 166 485 482
f 166 482 444
f 166 444 443
f 166 443 442
f 166 442 441
f 166 441 440
f 166 440 439
f 166 439 438
f 166 438 436
f 166 436 401
f 166 401 361
f 166 361 360
f 166 360 359
f 166 359 317
f 166 317 316
f 166 316 315
f 166 315 314
f 166 314 313
f 166 313 312
f 166 312 273
f 166 273 272
f 166 272 271
f 166 271 224
f 166 224 220
f 166 219 223
f 167 212 168
f 168 212 225
f 168 225 169
f 169 225 219
f 169 219 170
f 170 219 171
f 171 219 172
f 172 219 217
f 173 176 226
f 173 226 177
f 174 227 228
f 174 228 229
f 174 229 230
f 174 230 231
f 174 231 232
f 174 232 175
f 175 232 233
f 175 233 234
f 175 234 226
f 177 226 235
f 177 235 236
f 177 236 178
f 178 236 237
f 178 237 179
f 179 238 180
f 179 237 238
f 180 238 239
f 180 239 181
f 181 239 182
f 182 239 183
f 183 239 184
f 184 239 240
f 184 240 186
f 185 193 194
f 186 240 189
f 186 189 187
f 189 240 241
f 189 241 242
f 189 242 243
f 189 243 190
f 190 243 244
f 190 244 245
f 190 245 191
f 191 245 246
f 191 246 192
f 192 246 247
f 192 247 193
f 193 247 248
f 193 248 197
f 193 197 194
f 194 197 196
f 197 249 250
f 197 250 198
f 197 248 251
f 197 251 249
f 204 205 252
f 204 252 253
f 204 253 254
f 205 250 255
f 205 255 253
f 205 253 252
f 206 213 256
f 206 256 207
f 207 256 208
f 208 257 258
f 208 258 259
f 208 259 209
f 208 256 257
f 209 259 210
f 210 259 211
f 211 225 212
f 211 259 260
f 211 260 261
f 211 261 262
f 211 262 263
f 211 263 225
f 213 264 265
f 213 265 256
f 214 266 267
f 214 267 268
f 214 268 216
f 214 216 215
f 214 269 270
f 214 270 266
f 216 268 264
f 217 219 218
f 219 225 223
f 220 224 221
f 221 224 222
f 222 224 271
f 222 271 272
f 222 272 273
f 222 273 274
f 223 225 275
f 225 263 276
f 225 276 277
f 225 277 275
f 226 234 278
f 226 278 237
f 226 237 235
f 227 279 280
f 227 280 281
f 227 281 282
f 227 282 228
f 228 282 229
f 229 282 283
f 229 283 230
f 230 283 231
f 231 283 232
f 232 283 233
f 233 283 234
f 234 283 284
f 234 284 278
f 235 237 236
f 237 241 238
f 237 278 284
f 237 284 241
f 238 241 239
f 239 241 240
f 241 284 285
f 241 285 242
f 242 285 243
f 243 285 244
f 244 285 245
f 245 285 246
f 246 286 247
f 246 285 287
f 246 287 286
f 247 286 288
f 247 288 248
f 248 288 251
f 249 251 289
f 249 289 290
f 249 290 250
f 250 291 255
f 250 290 291
f 251 288 292
f 251 292 293
f 251 293 289
f 253 294 295
f 253 295 254
f 253 255 294
f 254 295 296
f 255 291 297
f 255 297 294
f 256 265 298
f 256 298 257
f 257 298 299
f 257 299 258
f 258 299 300
f 258 300 259
f 259 300 301
f 259 301 260
f 260 301 302
f 260 302 303
f 260 303 261
f 264 268 304
f 264 304 265
f 265 304 305
f 265 305 306
f 265 306 298
f 266 270 311
f 266 311 307
f 266 307 308
f 266 308 267
f 267 308 304
f 267 304 268
f 269 309 310
f 269 310 311
f 269 311 270
f 273 312 274
f 274 312 313
f 274 313 314
f 274 314 315
f 274 315 316
f 274 316 317
f 274 317 318
f 279 319 280
f 280 319 320
f 284 321 285
f 285 321 322
f 285 322 287
f 286 287 323
f 286 323 288
f 287 322 324
f 287 324 325
f 287 325 326
f 287 326 323
f 288 323 327
f 288 327 292
f 289 293 328
f 289 328 290
f 290 328 297
f 290 297 291
f 292 327 329
f 292 329 293
f 293 329 330
f 293 330 331
f 293 331 332
f 293 332 328
f 294 297 333
f 294 333 334
f 294 334 335
f 294 335 336
f 294 336 296
f 294 296 295
f 297 337 333
f 297 328 338
f 297 338 337
f 298 339 340
f 298 340 299
f 298 306 339
f 299 340 301
f 299 301 300
f 301 340 341
f 301 341 342
f 301 342 343
f 301 343 344
f 301 344 345
f 301 345 346
f 301 346 302
f 304 308 347
f 304 347 305
f 305 347 306
f 306 348 349
f 306 349 350
f 306 350 351
f 306 351 339
f 306 347 348
f 307 352 347
f 307 347 308
f 307 311 353
f 307 353 352
f 309 354 310
f 309 355 354
f 310 354 356
f 310 356 357
f 310 357 311
f 311 357 358
f 311 358 353
f 317 359 318
f 318 359 360
f 318 360 361
f 318 361 362
f 319 363 364
f 319 364 365
f 319 365 366
f 319 366 367
f 319 367 368
f 319 368 320
f 323 329 327
f 323 326 369
f 323 369 370
f 323 370 371
f 323 371 372
f 323 372 329
f 328 332 338
f 329 373 330
f 329 372 374
f 329 374 373
f 330 373 375
f 330 375 331
f 331 375 332
f 332 375 376
f 332 376 377
f 332 377 338
f 333 337 378
f 333 378 379
f 333 379 334
f 334 336 335
f 334 379 380
f 337 338 378
f 338 381 378
f 338 377 381
f 339 351 340
f 340 351 382
f 340 382 341
f 341 382 351
f 341 351 350
f 341 350 383
f 341 383 342
f 342 384 385
f 342 385 386
f 342 386 387
f 342 387 343
f 342 383 388
f 342 388 384
f 343 387 344
f 347 352 348
f 348 358 389
f 348 389 390
f 348 390 391
f 348 391 383
f 348 383 349
f 348 352 353
f 348 353 358
f 349 383 350
f 354 355 392
f 354 392 356
f 355 393 394
f 355 394 395
f 355 395 396
f 355 396 397
f 355 397 392
f 356 392 398
f 356 398 399
f 356 399 357
f 357 399 398
f 357 398 400
f 357 400 389
f 357 389 358
f 361 401 402
f 361 402 362
f 363 403 404
f 363 404 405
f 363 405 406
f 363 406 364
f 371 407 372
f 372 407 374
f 373 374 375
f 374 408 409
f 374 409 410
f 374 410 411
f 374 411 375
f 374 407 412
f 374 412 413
f 374 413 414
f 374 414 408
f 375 411 376
f 376 411 415
f 376 415 377
f 377 415 416
f 377 416 417
f 377 417 418
f 377 418 419
f 377 419 381
f 378 381 419
f 378 419 420
f 378 420 421
f 378 421 379
f 379 421 380
f 380 421 423
f 380 423 422
f 383 391 388
f 384 388 385
f 385 388 424
f 385 424 425
f 388 400 398
f 388 398 426
f 388 426 424
f 388 391 390
f 388 390 400
f 389 400 390
f 392 397 426
f 392 426 427
f 392 427 398
f 393 428 429
f 393 429 430
f 393 430 431
f 393 431 432
f 393 432 433
f 393 433 394
f 394 433 434
f 394 434 395
f 395 434 435
f 395 435 396
f 396 435 397
f 397 435 426
f 398 427 426
f 401 436 402
f 402 436 438
f 402 438 439
f 402 439 440
f 402 440 441
f 402 441 442
f 402 442 443
f 402 443 444
f 402 444 437
f 403 445 446
f 403 446 447
f 403 447 448
f 403 448 449
f 403 449 450
f 403 450 451
f 403 451 452
f 403 452 404
f 408 414 453
f 408 453 454
f 408 454 455
f 408 455 409
f 409 456 410
f 409 455 457
f 409 457 458
f 409 458 459
f 409 459 460
f 409 460 461
f 409 461 456
f 410 456 416
f 410 416 415
f 410 415 462
f 410 462 411
f 411 462 415
f 416 456 417
f 417 456 418
f 418 463 464
f 418 464 465
f 418 465 419
f 418 456 466
f 418 466 467
f 418 467 463
f 419 465 420
f 420 465 423
f 420 423 421
f 422 423 468
f 422 468 469
f 423 465 468
f 424 426 435
f 424 435 470
f 424 470 425
f 425 470 471
f 428 472 429
f 429 472 473
f 429 473 498
f 429 498 474
f 429 474 499
f 429 499 475
f 429 475 430
f 430 476 431
f 430 475 476
f 431 476 477
f 431 477 478
f 431 478 433
f 431 433 432
f 433 478 479
f 433 479 480
f 433 480 434
f 434 480 481
f 434 481 470
f 434 470 435
f 437 444 482
f 437 482 483
f 445 484 446
f 446 484 485
f 456 461 466
f 459 486 461
f 459 461 460
f 461 486 487
f 461 487 488
f 461 488 489
f 461 489 490
f 461 490 467
f 461 467 466
f 463 491 492
f 463 492 493
f 463 493 494
f 463 494 464
f 463 467 491
f 464 494 465
f 465 494 468
f 467 490 491
f 468 494 469
f 469 494 496
f 469 496 495
f 470 481 497
f 470 497 471
f 474 498 500
f 474 500 501
f 474 501 502
f 474 502 503
f 474 503 504
f 474 504 505
f 474 505 499
f 475 499 506
f 475 506 507
f 475 507 476
f 476 507 477
f 477 507 479
f 477 479 478
f 479 507 508
f 479 508 509
f 479 509 480
f 480 509 510
f 480 510 511
f 480 511 481
f 481 511 512
f 481 512 497
f 482 513 483
f 482 485 514
f 482 514 513
f 484 515 485
f 485 515 514
f 486 516 487
f 487 517 518
f 487 518 488
f 487 516 517
f 488 519 520
f 488 520 521
f 488 521 489
f 488 518 519
f 489 521 520
f 489 520 493
f 489 493 522
f 489 522 492
f 489 492 490
f 490 492 491
f 492 522 493
f 493 520 523
f 493 523 496
f 493 496 494
f 495 496 523
f 495 523 524
f 499 505 530
f 499 530 506
f 503 525 526
f 503 526 527
f 503 527 528
f 503 528 504
f 504 528 527
f 504 527 529
f 504 529 505
f 505 529 530
f 506 531 508
f 506 508 507
f 506 530 531
f 508 531 532
f 508 532 509
f 509 533 510
f 509 532 533
f 510 533 534
f 510 534 511
f 511 534 512
f 516 535 517
f 517 535 536
f 517 536 537
f 517 537 538
f 517 538 518
f 518 538 539
f 518 539 540
f 518 540 519
f 519 540 524
f 519 524 520
f 520 524 523
f 524 540 525
f 525 540 539
f 525 539 526
f 526 538 527
f 526 539 538
f 527 538 541
f 527 541 529
f 529 541 532
f 529 532 531
f 529 531 530
f 532 541 542
f 532 542 543
f 532 543 533
f 533 543 544
f 533 544 534
f 536 545 546
f 536 546 537
f 537 546 541
f 537 541 538
f 541 546 542
f 542 545 543
f 542 546 545
f 543 545 544

