# https://github.com/mikedh/trimesh
v 0.03250540 -0.00092841 -0.03629173
v 0.03250985 0.00092939 -0.03629173
v 0.03268358 -0.00278621 -0.03629173
v 0.02391714 -0.00092841 -0.01360009
v 0.02391268 0.00092939 -0.01360410
v 0.03268358 0.00274597 -0.03629173
v 0.03307558 -0.00474412 -0.03629173
v 0.02413541 -0.00381374 -0.01309020
v 0.02403295 -0.00278621 -0.01332708
v 0.02597957 -0.00217087 -0.01872297
v 0.02220661 -0.00235930 -0.00775855
v 0.02213088 -0.00092841 -0.00800345
v 0.02212643 0.00092939 -0.00801148
v 0.02220216 0.00235439 -0.00776658
v 0.02403741 0.00278719 -0.01331102
v 0.03268803 0.00278719 -0.03629173
v 0.03337403 -0.00583348 -0.03629173
v 0.02433140 -0.00514158 -0.01208651
v 0.01897265 -0.00473528 0.00472346
v 0.01895929 -0.00468818 0.00472346
v 0.01892811 -0.00456452 0.00472346
v 0.01848711 -0.00278621 0.00472346
v 0.03358339 -0.00641643 -0.03629173
v 0.03367248 -0.00666080 -0.03629173
v 0.01826884 -0.00092841 0.00472346
v 0.01829557 0.00092939 0.00472346
v 0.01852274 0.00278719 0.00472346
v 0.01865638 0.00339959 0.00472346
v 0.02414877 0.00377645 -0.01306210
v 0.03305330 0.00460672 -0.03629173
v 0.02496840 -0.00650476 -0.01208651
v 0.02418441 -0.00551844 -0.01108281
v 0.01970764 -0.00660192 0.00472346
v 0.01963191 -0.00641349 0.00472346
v 0.02779700 -0.00757351 -0.01876713
v 0.03459901 -0.00850094 -0.03629173
v 0.01898601 0.00469799 0.00472346
v 0.02434477 0.00510724 -0.01208651
v 0.03369030 0.00663234 -0.03629173
v 0.03359675 0.00638208 -0.03629173
v 0.03318694 0.00511607 -0.03629173
v 0.03308448 0.00475687 -0.03629173
v 0.02573902 -0.00783260 -0.01208651
v 0.02762327 -0.00790620 -0.01765905
v 0.01994818 -0.00700822 0.00472346
v 0.03482174 -0.00886602 -0.03629173
v 0.03519146 -0.00945781 -0.03629173
v 0.01974773 0.00658229 0.00472346
v 0.02418886 0.00550765 -0.01107478
v 0.02499958 0.00650574 -0.01208651
v 0.02779700 0.00756271 -0.01875910
v 0.02693728 0.00650574 -0.01765905
v 0.03455447 0.00835176 -0.03629173
v 0.02594839 -0.00939303 -0.00951703
v 0.02067872 -0.00818885 0.00472346
v 0.02823354 -0.00883658 -0.01765905
v 0.03571709 -0.00999366 -0.03629173
v 0.02957880 -0.01129500 -0.01525418
v 0.02797518 -0.00916339 -0.01614547
v 0.02031345 0.00760688 0.00472346
v 0.02575239 0.00781297 -0.01208651
v 0.02762327 0.00788952 -0.01765905
v 0.03483065 0.00881989 -0.03629173
v 0.03463019 0.00849603 -0.03629173
v 0.02189925 -0.00970512 0.00472346
v 0.02184134 -0.00964624 0.00472346
v 0.02088363 -0.00847444 0.00472346
v 0.03645208 -0.01073560 -0.03629173
v 0.03084833 -0.01243736 -0.01378477
v 0.02941398 -0.01146576 -0.01394536
v 0.02378796 -0.01135094 0.00472346
v 0.02290597 -0.01063255 0.00472346
v 0.03702226 -0.01128028 -0.03629173
v 0.03553000 -0.01289665 -0.02540761
v 0.02085690 0.00837237 0.00472346
v 0.02597511 0.00935869 -0.00945280
v 0.02555194 0.00842831 -0.01013531
v 0.02798409 0.00915259 -0.01614145
v 0.02824690 0.00881989 -0.01765905
v 0.03576164 0.01000936 -0.03629173
v 0.03158332 -0.01302031 -0.01305407
v 0.03052761 -0.01254629 -0.01208651
v 0.02538712 -0.01240791 0.00472346
v 0.02525349 -0.01232253 0.00472346
v 0.02383250 -0.01138333 0.00472346
v 0.03765925 -0.01169247 -0.03629173
v 0.03798888 -0.01188679 -0.03629173
v 0.03953459 -0.01277888 -0.03629173
v 0.03676390 -0.01322052 -0.02695331
v 0.03618927 -0.01330001 -0.02490977
v 0.03532064 -0.01301148 -0.02416704
v 0.02193489 0.00966783 0.00472346
v 0.02958325 0.01129304 -0.01525017
v 0.03643426 0.01069536 -0.03629173
v 0.02694174 -0.01328823 0.00472346
v 0.02684374 -0.01323524 0.00472346
v 0.02628247 -0.01284660 0.00425774
v 0.03253213 -0.01359738 -0.01208651
v 0.04046112 -0.01317635 -0.03629173
v 0.03997113 -0.01427749 -0.02881216
v 0.03810915 -0.01379464 -0.02695331
v 0.02295942 0.01059526 0.00472346
v 0.02388596 0.01134603 0.00472346
v 0.02740946 0.01155802 -0.00650995
v 0.02942289 0.01145202 -0.01394536
v 0.03085724 0.01242656 -0.01376469
v 0.03553891 0.01289764 -0.02541966
v 0.03769043 0.01170817 -0.03629173
v 0.02881708 -0.01373575 0.00278833
v 0.02778809 -0.01354438 0.00472346
v 0.03253213 -0.01382114 -0.01022765
v 0.03253213 -0.01400368 -0.00836880
v 0.04166384 -0.01473090 -0.02873588
v 0.04364163 -0.01392124 -0.03629173
v 0.03997113 -0.01445709 -0.02695331
v 0.03439411 -0.01425394 -0.01208651
v 0.03439411 -0.01404490 -0.01394536
v 0.02529803 0.01232646 0.00472346
v 0.02617111 0.01291825 0.00472346
v 0.03159668 0.01301540 -0.01302998
v 0.03531619 0.01301246 -0.02417908
v 0.03677280 0.01321561 -0.02695331
v 0.03950786 0.01279164 -0.03629173
v 0.03810024 0.01197021 -0.03629173
v 0.02881708 -0.01385352 0.00472346
v 0.04217165 -0.01490167 -0.02806541
v 0.04549916 -0.01430104 -0.03629173
v 0.03439411 -0.01435993 -0.01022765
v 0.02694174 0.01329216 0.00472346
v 0.03253213 0.01359247 -0.01208651
v 0.03097305 0.01337754 -0.00836880
v 0.03619372 0.01329216 -0.02491780
v 0.04088876 0.01487320 -0.02790482
v 0.04040767 0.01317145 -0.03629173
v 0.03067460 -0.01417444 0.00472346
v 0.04182420 -0.01497822 -0.01394536
v 0.03634517 -0.01491050 0.00472346
v 0.03447874 -0.01472501 0.00472346
v 0.03625163 -0.01458664 -0.01208651
v 0.04554370 -0.01430693 -0.03629173
v 0.04368172 -0.01491639 -0.02811359
v 0.04554370 -0.01495466 -0.02695331
v 0.04360154 -0.01493405 -0.02690111
v 0.04368172 -0.01500177 -0.01951790
v 0.03253213 -0.01447181 0.00464718
v 0.02874136 0.01384862 0.00472346
v 0.02881708 0.01374557 0.00278833
v 0.03253213 0.01400761 -0.00836880
v 0.03253213 0.01381917 -0.01022765
v 0.04182420 0.01489970 -0.02806942
v 0.04554370 0.01432264 -0.03629173
v 0.04368172 0.01395461 -0.03629173
v 0.04048785 0.01319500 -0.03629173
v 0.03439411 0.01425786 -0.01208651
v 0.03439411 0.01437563 -0.01022765
v 0.03625163 0.01461411 -0.01208651
v 0.03625163 0.01465239 -0.01022765
v 0.03448319 0.01473483 0.00472346
v 0.03550327 0.01484376 0.00472346
v 0.03685299 0.01490559 0.00092546
v 0.03981522 0.01493503 -0.01404171
v 0.03997113 0.01495859 -0.01208651
v 0.04368172 0.01507636 -0.01951790
v 0.03259894 -0.01448359 0.00472346
v 0.04368172 -0.01499294 -0.01394536
v 0.03810915 -0.01492522 0.00278833
v 0.04376636 -0.01487517 0.00472346
v 0.04735668 -0.01432460 -0.03629173
v 0.04740123 -0.01432460 -0.03629173
v 0.04554370 -0.01489578 -0.02798511
v 0.04554370 -0.01497822 -0.02509446
v 0.04650588 -0.01487517 -0.02788875
v 0.04680878 -0.01489872 -0.02695331
v 0.04887566 -0.01491050 -0.02137675
v 0.04740123 -0.01497527 -0.01951790
v 0.04554370 -0.01498705 -0.01394536
v 0.02881708 0.01386628 0.00472346
v 0.03253213 0.01414009 -0.00650995
v 0.04554370 0.01502630 -0.02509446
v 0.04554370 0.01498509 -0.02695331
v 0.04368172 0.01492620 -0.02817782
v 0.04740123 0.01434914 -0.03629173
v 0.03067460 0.01419604 0.00472346
v 0.03245640 0.01447574 0.00472346
v 0.03253213 0.01448751 0.00472346
v 0.03633181 0.01490854 0.00472346
v 0.04554370 0.01503219 -0.01394536
v 0.04740123 0.01503514 -0.01951790
v 0.03810915 0.01492326 0.00278833
v 0.04471071 -0.01487517 0.00278833
v 0.04462608 -0.01486928 0.00375188
v 0.04402472 -0.01486928 0.00472346
v 0.04925875 -0.01421272 -0.03629173
v 0.04912512 -0.01492522 -0.01951790
v 0.05112073 -0.01403607 -0.03629173
v 0.04980220 -0.01484278 -0.02137675
v 0.05005610 -0.01486045 -0.01951790
v 0.04653260 -0.01487222 -0.00322986
v 0.04925875 0.01498509 -0.01951790
v 0.04554370 0.01491737 -0.02803329
v 0.04925875 0.01494387 -0.02137675
v 0.04702705 0.01491442 -0.02695331
v 0.04660387 0.01489087 -0.02791686
v 0.04925875 0.01424020 -0.03629173
v 0.03641199 0.01490854 0.00472346
v 0.04382872 0.01487909 0.00472346
v 0.04460381 0.01487026 0.00472346
v 0.04740123 0.01502630 -0.01765905
v 0.04536107 -0.01483101 0.00448257
v 0.04487108 -0.01484573 0.00472346
v 0.04740123 -0.01480156 -0.00093339
v 0.04725423 -0.01483101 -0.00267983
v 0.05297825 -0.01378581 -0.03629173
v 0.05112073 -0.01465435 -0.02137675
v 0.05112073 -0.01471029 -0.01951790
v 0.04986456 -0.01484867 -0.01765905
v 0.05112073 -0.01469851 -0.01765905
v 0.04925875 -0.01469263 -0.00465110
v 0.04643906 0.01487026 -0.00010634
v 0.04729877 0.01484082 -0.00080893
v 0.05035010 0.01489970 -0.01796819
v 0.05036792 0.01490265 -0.01951790
v 0.05018974 0.01487026 -0.02231220
v 0.05112073 0.01406354 -0.03629173
v 0.04531207 0.01484965 0.00472346
v 0.04590006 0.01485554 0.00278833
v 0.04538334 -0.01482512 0.00472346
v 0.04740123 -0.01471029 0.00278833
v 0.05297825 -0.01432460 -0.01951790
v 0.05483577 -0.01336773 -0.03629173
v 0.05297825 -0.01431871 -0.01765905
v 0.05112073 -0.01435699 -0.00465110
v 0.04925875 -0.01464552 -0.00279224
v 0.04543679 0.01484671 0.00464316
v 0.04740123 0.01479666 0.00092546
v 0.04925875 0.01469949 -0.00279224
v 0.05112073 0.01440213 -0.00465110
v 0.05103164 0.01475838 -0.01747437
v 0.05129891 0.01474366 -0.01951790
v 0.05117864 0.01472599 -0.02137675
v 0.05297825 0.01381034 -0.03629173
v 0.04537889 0.01484671 0.00472346
v 0.04740123 -0.01466024 0.00464718
v 0.04740123 -0.01465730 0.00472346
v 0.05586031 -0.01306742 -0.03629173
v 0.05588704 -0.01305859 -0.03629173
v 0.05483577 -0.01365920 -0.01951790
v 0.05297825 -0.01426866 -0.01580020
v 0.05483577 -0.01365037 -0.01765905
v 0.05297825 -0.01373281 -0.00465110
v 0.05112073 -0.01426572 -0.00279224
v 0.04925875 -0.01442765 0.00278833
v 0.04925875 -0.01451597 0.00092546
v 0.04925875 -0.01458958 -0.00093339
v 0.04544125 0.01484376 0.00472346
v 0.04732550 0.01469655 0.00472346
v 0.04740123 0.01474955 0.00278833
v 0.04925875 0.01464061 -0.00093339
v 0.04925875 0.01455523 0.00092546
v 0.04925875 0.01446101 0.00278833
v 0.05112073 0.01430791 -0.00279224
v 0.05297825 0.01387217 -0.00650995
v 0.05297825 0.01429908 -0.01580020
v 0.05297825 0.01435502 -0.01765905
v 0.05297825 0.01436680 -0.01951790
v 0.05483577 0.01338049 -0.03629173
v 0.05301834 0.01380151 -0.03629173
v 0.04925875 -0.01433343 0.00464718
v 0.04925875 -0.01432754 0.00472346
v 0.05590931 -0.01304975 -0.03629173
v 0.05681357 -0.01265523 -0.03629173
v 0.05595386 -0.01312630 -0.01951790
v 0.05483577 -0.01358854 -0.01580020
v 0.05594495 -0.01312041 -0.01765905
v 0.05297825 -0.01361504 -0.00279224
v 0.05112073 -0.01405373 0.00092546
v 0.05112073 -0.01416267 -0.00093339
v 0.05420324 -0.01317930 -0.00465110
v 0.04740123 0.01468772 0.00472346
v 0.04740123 0.01469066 0.00464718
v 0.04925875 0.01435797 0.00464718
v 0.05112073 0.01420192 -0.00093339
v 0.05297825 0.01376912 -0.00465110
v 0.05483577 0.01362780 -0.01580020
v 0.05483577 0.01370435 -0.01765905
v 0.05483577 0.01370435 -0.01951790
v 0.05589149 0.01306251 -0.03629173
v 0.05112073 -0.01393302 0.00278833
v 0.05112073 -0.01379170 0.00464718
v 0.05112073 -0.01378286 0.00472346
v 0.05843946 -0.01174841 -0.03629173
v 0.05847955 -0.01172486 -0.03629173
v 0.05586922 -0.01307920 -0.01580020
v 0.05940609 -0.01108302 -0.03629173
v 0.05687593 -0.01247268 -0.01765905
v 0.05408297 -0.01311452 -0.00279224
v 0.05398497 -0.01305859 -0.00135896
v 0.05315198 -0.01339128 -0.00081696
v 0.05285353 -0.01338539 0.00092546
v 0.04918302 0.01436680 0.00472346
v 0.04925875 0.01435208 0.00472346
v 0.05112073 0.01394872 0.00278833
v 0.05112073 0.01408121 0.00092546
v 0.05297825 0.01364547 -0.00279224
v 0.05410078 0.01312728 -0.00279224
v 0.05422106 0.01319500 -0.00465110
v 0.05590485 0.01310373 -0.01580020
v 0.05598504 0.01315084 -0.01765905
v 0.05598949 0.01315084 -0.01951790
v 0.05681802 0.01263854 -0.03629173
v 0.05266198 -0.01331473 0.00278833
v 0.05246153 -0.01322935 0.00472346
v 0.05116528 -0.01376520 0.00472346
v 0.05580240 -0.01303797 -0.01473226
v 0.05926800 -0.01096525 -0.03067101
v 0.05803410 -0.01154231 -0.01765905
v 0.06029698 -0.01015559 -0.03629173
v 0.06016781 -0.01003487 -0.03067101
v 0.05635476 -0.01166597 -0.00465110
v 0.05512978 -0.01259634 -0.00465110
v 0.05501395 -0.01250213 -0.00279224
v 0.05388252 -0.01299970 -0.00011839
v 0.05112073 0.01379857 0.00472346
v 0.05287134 0.01339815 0.00092546
v 0.05316089 0.01340698 -0.00076477
v 0.05399388 0.01306251 -0.00127465
v 0.05514759 0.01259144 -0.00465110
v 0.05623003 0.01156685 -0.00279224
v 0.05634139 0.01166106 -0.00465110
v 0.05691603 0.01247661 -0.01765905
v 0.05937491 0.01105750 -0.03629173
v 0.05844837 0.01170817 -0.03629173
v 0.05686257 0.01261499 -0.03629173
v 0.05247044 -0.01323230 0.00464718
v 0.05378006 -0.01294376 0.00092546
v 0.05359297 -0.01283483 0.00278833
v 0.05340143 -0.01270822 0.00464718
v 0.05335243 -0.01272589 0.00472346
v 0.05749956 -0.01102413 -0.00836880
v 0.05623894 -0.01157176 -0.00279224
v 0.05896064 -0.01052067 -0.01765905
v 0.06122352 -0.00912805 -0.03629173
v 0.06104534 -0.00890724 -0.02881216
v 0.05610530 -0.01145987 -0.00093339
v 0.05483577 -0.01219593 0.00092546
v 0.05469769 -0.01250507 -0.00081696
v 0.05241698 0.01325388 0.00472346
v 0.05267535 0.01332160 0.00278833
v 0.05390033 0.01300657 -0.00003809
v 0.05502732 0.01249722 -0.00279224
v 0.05609640 0.01145497 -0.00093339
v 0.05727239 0.01076897 -0.00465110
v 0.05749511 0.01101628 -0.00836880
v 0.05803856 0.01154918 -0.01765905
v 0.05926355 0.01096034 -0.03067101
v 0.06016781 0.01003291 -0.03067101
v 0.06026581 0.01012713 -0.03629173
v 0.05468878 -0.01177785 0.00464718
v 0.05344598 -0.01266406 0.00472346
v 0.05339252 -0.01270233 0.00472346
v 0.05728575 -0.01078565 -0.00465110
v 0.05970008 -0.00959030 -0.01765905
v 0.05806528 -0.00985528 -0.00465110
v 0.06166897 -0.00797687 -0.02881216
v 0.06179370 -0.00820357 -0.03629173
v 0.05596276 -0.01133327 0.00092546
v 0.05716993 -0.01064727 -0.00279224
v 0.05500059 -0.01179846 0.00286862
v 0.05246599 0.01323328 0.00472346
v 0.05380234 0.01295357 0.00092546
v 0.05483577 0.01219691 0.00092546
v 0.05470214 0.01250606 -0.00076477
v 0.05594940 0.01132542 0.00092546
v 0.05715657 0.01063353 -0.00279224
v 0.05793610 0.00970316 -0.00279224
v 0.05804747 0.00984154 -0.00465110
v 0.05896954 0.01054521 -0.01765905
v 0.06103643 0.00889350 -0.02881216
v 0.06109434 0.00893177 -0.03067101
v 0.06119679 0.00909371 -0.03629173
v 0.05467987 -0.01177196 0.00472346
v 0.05584695 -0.01122728 0.00230655
v 0.05573113 -0.01111835 0.00354311
v 0.05908982 -0.00864815 -0.00650995
v 0.06043953 -0.00836256 -0.01765905
v 0.05794947 -0.00971690 -0.00279224
v 0.06114780 -0.00692284 -0.01765905
v 0.06262669 -0.00650181 -0.03629173
v 0.06237278 -0.00650476 -0.02881216
v 0.05703630 -0.01048239 -0.00093339
v 0.05782029 -0.00955202 -0.00093339
v 0.05339252 0.01269743 0.00472346
v 0.05340143 0.01270332 0.00464718
v 0.05360634 0.01283581 0.00278833
v 0.05460860 0.01180533 0.00472346
v 0.05466650 0.01177294 0.00464718
v 0.05499168 0.01179650 0.00283249
v 0.05583804 0.01122238 0.00224231
v 0.05702739 0.01046866 -0.00093339
v 0.05780693 0.00953828 -0.00093339
v 0.05879582 0.00836354 -0.00279224
v 0.05907646 0.00825460 -0.00448248
v 0.05919227 0.00881401 -0.00836880
v 0.05972236 0.00961778 -0.01765905
v 0.06166006 0.00796607 -0.02881216
v 0.06178479 0.00816628 -0.03629173
v 0.05557077 -0.01103002 0.00472346
v 0.05702739 -0.01010554 0.00104992
v 0.05561977 -0.01100352 0.00464718
v 0.05647057 -0.01038818 0.00286862
v 0.05640376 -0.01006432 0.00472346
v 0.05899628 -0.00847444 -0.00465110
v 0.05954418 -0.00754407 -0.00465110
v 0.06160661 -0.00619561 -0.01951790
v 0.06150416 -0.00599246 -0.01765905
v 0.05997626 -0.00650476 -0.00465110
v 0.05949072 -0.00744396 -0.00367952
v 0.06264005 -0.00646648 -0.03629173
v 0.06310331 -0.00518280 -0.03629173
v 0.06297859 -0.00476767 -0.02881216
v 0.05770892 -0.00940776 0.00050792
v 0.05895173 -0.00818296 -0.00295284
v 0.05465759 0.01176706 0.00472346
v 0.05571777 0.01110461 0.00348289
v 0.05701403 0.01010063 0.00102182
v 0.05770001 0.00939696 0.00046376
v 0.05853301 0.00836354 -0.00093339
v 0.05948181 0.00742728 -0.00374777
v 0.05955309 0.00755977 -0.00498834
v 0.06046626 0.00836354 -0.01765905
v 0.06116116 0.00693560 -0.01765905
v 0.06235942 0.00650574 -0.02881216
v 0.06260887 0.00650279 -0.03629173
v 0.05561086 -0.01099469 0.00472346
v 0.05760647 -0.00926349 0.00174849
v 0.05751293 -0.00911628 0.00278833
v 0.05729466 -0.00887191 0.00472346
v 0.06321913 -0.00378430 -0.02784058
v 0.06212778 -0.00464696 -0.01951790
v 0.06059543 -0.00464696 -0.00465110
v 0.05966890 -0.00604252 -0.00093339
v 0.05974017 -0.00657542 -0.00295284
v 0.05940163 -0.00724081 -0.00243894
v 0.05855528 -0.00836256 -0.00093339
v 0.06333050 -0.00425538 -0.03629173
v 0.06323250 -0.00383730 -0.02881216
v 0.05558859 0.01097212 0.00472346
v 0.05559750 0.01098095 0.00464718
v 0.05639040 0.01005058 0.00464718
v 0.05644830 0.01038033 0.00283249
v 0.05759756 0.00925269 0.00170032
v 0.05813210 0.00852547 0.00102182
v 0.05965999 0.00601994 -0.00093339
v 0.05979363 0.00633792 -0.00279224
v 0.05986935 0.00668534 -0.00448248
v 0.05803856 0.00816039 0.00278833
v 0.05927691 0.00695032 -0.00093339
v 0.06150416 0.00600817 -0.01765905
v 0.06160661 0.00622604 -0.01951790
v 0.06015444 0.00650574 -0.00650995
v 0.06296968 0.00474804 -0.02881216
v 0.06309441 0.00516612 -0.03629173
v 0.05814546 -0.00853332 0.00104992
v 0.05805192 -0.00818591 0.00278833
v 0.05787819 -0.00788854 0.00472346
v 0.05733920 -0.00883069 0.00464718
v 0.05736147 -0.00876886 0.00472346
v 0.06359331 -0.00278621 -0.03629173
v 0.06340177 -0.00278621 -0.02881216
v 0.06358440 -0.00092841 -0.02881216
v 0.06329932 -0.00278621 -0.02765590
v 0.06272023 -0.00092841 -0.01951790
v 0.06252869 -0.00278621 -0.01951790
v 0.06120125 -0.00269788 -0.00655411
v 0.06127697 -0.00328967 -0.00836880
v 0.06132598 -0.00360765 -0.00946886
v 0.06097852 -0.00278621 -0.00465110
v 0.06035935 -0.00464696 -0.00279224
v 0.05955754 -0.00576870 0.00044368
v 0.05929027 -0.00697289 -0.00093339
v 0.06333940 -0.00421121 -0.03629173
v 0.05635030 0.01008002 0.00472346
v 0.05638149 0.01004174 0.00472346
v 0.05749511 0.00908782 0.00278833
v 0.05955754 0.00576085 0.00043967
v 0.06035044 0.00464499 -0.00279224
v 0.06058207 0.00464499 -0.00465110
v 0.05786483 0.00786597 0.00464718
v 0.05884037 0.00650574 0.00278833
v 0.05918336 0.00642919 0.00100576
v 0.06078252 0.00464499 -0.00650995
v 0.06211888 0.00464499 -0.01951790
v 0.06321468 0.00377056 -0.02784861
v 0.06333495 0.00424164 -0.03629173
v 0.05884927 -0.00650476 0.00278833
v 0.05847510 -0.00656364 0.00472346
v 0.06359777 -0.00274499 -0.03629173
v 0.06377149 -0.00092841 -0.03629173
v 0.06377595 0.00092939 -0.03629173
v 0.06357995 0.00092939 -0.02881216
v 0.06130815 -0.00092841 -0.00593182
v 0.06136606 -0.00201777 -0.00720451
v 0.06271132 0.00092939 -0.01951790
v 0.06140170 0.00092939 -0.00686727
v 0.06073798 -0.00278621 -0.00279224
v 0.06116116 -0.00092841 -0.00465110
v 0.06009208 -0.00464696 -0.00093339
v 0.05945509 -0.00546545 0.00168024
v 0.05918782 -0.00643704 0.00100977
v 0.05731693 0.00877573 0.00472346
v 0.05732138 0.00879340 0.00464718
v 0.05945509 0.00546643 0.00168024
v 0.06008317 0.00464499 -0.00093339
v 0.06072907 0.00278719 -0.00279224
v 0.06096962 0.00278719 -0.00465110
v 0.06128143 0.00331126 -0.00836880
v 0.06133043 0.00363807 -0.00940863
v 0.06140170 0.00392660 -0.01064519
v 0.05785592 0.00785125 0.00472346
v 0.05787374 0.00781886 0.00472346
v 0.05849292 0.00650574 0.00464718
v 0.06251087 0.00278719 -0.01951790
v 0.06329486 0.00278719 -0.02765991
v 0.06339286 0.00278719 -0.02881216
v 0.06359777 0.00278719 -0.03629173
v 0.06119679 0.00269592 -0.00655813
v 0.05851073 -0.00650476 0.00464718
v 0.05849292 -0.00651065 0.00472346
v 0.06130370 0.00092939 -0.00593583
v 0.06115670 0.00092939 -0.00465110
v 0.06136606 0.00201581 -0.00721254
v 0.06092061 -0.00092841 -0.00279224
v 0.06047071 -0.00278621 -0.00093339
v 0.05960654 -0.00417294 0.00278833
v 0.05975354 -0.00476472 0.00100977
v 0.06018117 -0.00278621 0.00092546
v 0.05935263 -0.00510037 0.00278833
v 0.05960209 0.00417097 0.00278833
v 0.05974908 0.00476865 0.00100576
v 0.05850628 0.00642919 0.00472346
v 0.05935709 0.00510135 0.00278833
v 0.06017672 0.00278719 0.00092546
v 0.06046180 0.00278719 -0.00093339
v 0.06091616 0.00092939 -0.00279224
v 0.05847510 0.00651163 0.00472346
v 0.05918782 -0.00452035 0.00454279
v 0.05914772 -0.00452919 0.00472346
v 0.06064889 -0.00092841 -0.00093339
v 0.05950854 -0.00381374 0.00385225
v 0.06035935 -0.00092841 0.00092546
v 0.06004753 -0.00092841 0.00278833
v 0.05986490 -0.00278621 0.00278833
v 0.05950854 0.00380884 0.00384823
v 0.05915218 0.00452723 0.00472346
v 0.06035935 0.00092939 0.00092546
v 0.05986490 0.00278719 0.00278833
v 0.06064444 0.00092939 -0.00093339
v 0.05925464 -0.00406106 0.00472346
v 0.05957536 -0.00261545 0.00454279
v 0.05951299 -0.00278032 0.00472346
v 0.06004753 0.00092939 0.00278833
v 0.05971345 -0.00092841 0.00464718
v 0.05969563 -0.00100496 0.00472346
v 0.05955754 -0.00248884 0.00472346
v 0.05942836 0.00331421 0.00472346
v 0.05951299 0.00277247 0.00472346
v 0.05957090 0.00260465 0.00453878
v 0.05955309 0.00247511 0.00472346
v 0.05970899 0.00092939 0.00464718
v 0.05969563 -0.00092841 0.00472346
v 0.05969117 0.00092939 0.00472346
f 1 2 6
f 1 6 16
f 1 16 30
f 1 30 42
f 1 42 41
f 1 41 40
f 1 40 39
f 1 39 53
f 1 53 64
f 1 64 63
f 1 63 80
f 1 80 94
f 1 94 108
f 1 108 124
f 1 124 123
f 1 123 134
f 1 134 153
f 1 153 152
f 1 152 151
f 1 151 182
f 1 182 204
f 1 204 224
f 1 224 241
f 1 241 267
f 1 267 266
f 1 266 287
f 1 287 310
f 1 310 333
f 1 333 332
f 1 332 331
f 1 331 357
f 1 357 380
f 1 380 406
f 1 406 433
f 1 433 462
f 1 462 494
f 1 494 525
f 1 525 499
f 1 499 498
f 1 498 497
f 1 497 468
f 1 468 481
f 1 481 445
f 1 445 419
f 1 419 418
f 1 418 388
f 1 388 365
f 1 365 342
f 1 342 317
f 1 317 294
f 1 294 292
f 1 292 291
f 1 291 271
f 1 271 270
f 1 270 246
f 1 246 245
f 1 245 230
f 1 230 213
f 1 213 195
f 1 195 193
f 1 193 169
f 1 169 168
f 1 168 140
f 1 140 127
f 1 127 114
f 1 114 99
f 1 99 88
f 1 88 87
f 1 87 86
f 1 86 73
f 1 73 68
f 1 68 57
f 1 57 47
f 1 47 46
f 1 46 36
f 1 36 24
f 1 24 23
f 1 23 17
f 1 17 7
f 1 7 3
f 1 3 4
f 1 4 5
f 1 5 2
f 2 5 6
f 3 7 8
f 3 8 9
f 3 9 10
f 3 10 4
f 4 10 9
f 4 9 11
f 4 11 12
f 4 12 13
f 4 13 5
f 5 13 14
f 5 14 15
f 5 15 16
f 5 16 6
f 7 17 8
f 8 18 19
f 8 19 20
f 8 20 21
f 8 21 22
f 8 22 11
f 8 11 9
f 8 17 23
f 8 23 24
f 8 24 18
f 11 22 25
f 11 25 12
f 12 25 13
f 13 25 26
f 13 26 14
f 14 26 27
f 14 27 28
f 14 28 29
f 14 29 15
f 15 29 30
f 15 30 16
f 18 31 32
f 18 32 33
f 18 33 34
f 18 34 19
f 18 24 35
f 18 35 31
f 19 34 33
f 19 33 45
f 19 45 55
f 19 55 67
f 19 67 66
f 19 66 65
f 19 65 72
f 19 72 71
f 19 71 85
f 19 85 84
f 19 84 83
f 19 83 96
f 19 96 95
f 19 95 110
f 19 110 125
f 19 125 135
f 19 135 164
f 19 164 138
f 19 138 137
f 19 137 167
f 19 167 192
f 19 192 210
f 19 210 227
f 19 227 244
f 19 244 269
f 19 269 290
f 19 290 313
f 19 313 312
f 19 312 338
f 19 338 360
f 19 360 359
f 19 359 381
f 19 381 407
f 19 407 434
f 19 434 411
f 19 411 437
f 19 437 467
f 19 467 465
f 19 465 496
f 19 496 528
f 19 528 547
f 19 547 558
f 19 558 560
f 19 560 564
f 19 564 563
f 19 563 570
f 19 570 571
f 19 571 568
f 19 568 566
f 19 566 565
f 19 565 554
f 19 554 540
f 19 540 545
f 19 545 520
f 19 520 519
f 19 519 510
f 19 510 483
f 19 483 482
f 19 482 447
f 19 447 423
f 19 423 395
f 19 395 392
f 19 392 369
f 19 369 347
f 19 347 323
f 19 323 301
f 19 301 300
f 19 300 279
f 19 279 256
f 19 256 255
f 19 255 242
f 19 242 225
f 19 225 207
f 19 207 206
f 19 206 205
f 19 205 186
f 19 186 159
f 19 159 158
f 19 158 185
f 19 185 184
f 19 184 183
f 19 183 177
f 19 177 146
f 19 146 129
f 19 129 119
f 19 119 118
f 19 118 103
f 19 103 102
f 19 102 92
f 19 92 75
f 19 75 60
f 19 60 48
f 19 48 37
f 19 37 28
f 19 28 27
f 19 27 26
f 19 26 25
f 19 25 22
f 19 22 21
f 19 21 20
f 24 36 35
f 28 37 29
f 29 37 38
f 29 38 39
f 29 39 40
f 29 40 41
f 29 41 42
f 29 42 30
f 31 43 33
f 31 33 32
f 31 35 44
f 31 44 43
f 33 43 45
f 35 36 46
f 35 46 47
f 35 47 44
f 37 48 49
f 37 49 38
f 38 49 50
f 38 50 51
f 38 51 52
f 38 52 39
f 39 52 51
f 39 51 53
f 43 54 55
f 43 55 45
f 43 44 56
f 43 56 54
f 44 47 56
f 47 57 58
f 47 58 59
f 47 59 56
f 48 60 50
f 48 50 49
f 50 60 61
f 50 61 62
f 50 62 51
f 51 62 63
f 51 63 64
f 51 64 53
f 54 65 66
f 54 66 67
f 54 67 55
f 54 56 59
f 54 59 58
f 54 58 65
f 57 68 58
f 58 69 70
f 58 70 71
f 58 71 72
f 58 72 65
f 58 68 73
f 58 73 74
f 58 74 69
f 60 75 76
f 60 76 77
f 60 77 61
f 61 77 76
f 61 76 78
f 61 78 79
f 61 79 62
f 62 79 63
f 63 79 80
f 69 81 82
f 69 82 83
f 69 83 84
f 69 84 70
f 69 74 81
f 70 84 85
f 70 85 71
f 73 86 74
f 74 86 87
f 74 87 88
f 74 88 89
f 74 89 90
f 74 90 91
f 74 91 81
f 75 92 76
f 76 92 93
f 76 93 78
f 78 93 80
f 78 80 79
f 80 93 94
f 81 95 96
f 81 96 97
f 81 97 83
f 81 83 82
f 81 91 90
f 81 90 98
f 81 98 95
f 83 97 96
f 88 99 100
f 88 100 89
f 89 100 101
f 89 101 90
f 90 101 98
f 92 102 93
f 93 102 103
f 93 103 104
f 93 104 105
f 93 105 106
f 93 106 107
f 93 107 108
f 93 108 94
f 95 109 110
f 95 98 111
f 95 111 112
f 95 112 109
f 98 101 100
f 98 100 111
f 99 113 100
f 99 114 113
f 100 113 115
f 100 115 116
f 100 116 117
f 100 117 111
f 103 118 104
f 104 119 105
f 104 118 119
f 105 119 106
f 106 119 120
f 106 120 121
f 106 121 107
f 107 121 122
f 107 122 123
f 107 123 124
f 107 124 108
f 109 125 110
f 109 112 116
f 109 116 125
f 111 117 116
f 111 116 112
f 113 126 116
f 113 116 115
f 113 114 127
f 113 127 126
f 116 126 128
f 116 128 125
f 119 129 120
f 120 130 121
f 120 129 131
f 120 131 130
f 121 132 122
f 121 130 132
f 122 133 123
f 122 132 133
f 123 133 134
f 125 128 135
f 126 136 137
f 126 137 138
f 126 138 139
f 126 139 128
f 126 127 140
f 126 140 141
f 126 141 142
f 126 142 143
f 126 143 144
f 126 144 136
f 128 139 145
f 128 145 135
f 129 146 147
f 129 147 148
f 129 148 149
f 129 149 130
f 129 130 131
f 130 149 133
f 130 133 132
f 133 150 151
f 133 151 152
f 133 152 153
f 133 153 134
f 133 149 148
f 133 148 154
f 133 154 155
f 133 155 156
f 133 156 157
f 133 157 158
f 133 158 159
f 133 159 160
f 133 160 161
f 133 161 162
f 133 162 163
f 133 163 150
f 135 145 164
f 136 144 137
f 137 144 165
f 137 165 166
f 137 166 167
f 138 164 139
f 139 164 145
f 140 168 141
f 141 168 169
f 141 169 170
f 141 170 142
f 142 171 143
f 142 170 172
f 142 172 173
f 142 173 174
f 142 174 171
f 143 171 144
f 144 171 175
f 144 175 176
f 144 176 165
f 146 177 178
f 146 178 147
f 147 178 148
f 148 178 154
f 150 163 179
f 150 179 180
f 150 180 181
f 150 181 151
f 151 181 182
f 154 178 155
f 155 178 177
f 155 177 183
f 155 183 184
f 155 184 185
f 155 185 156
f 156 185 157
f 157 185 158
f 159 186 160
f 160 162 161
f 160 186 162
f 162 186 163
f 163 187 188
f 163 188 179
f 163 186 189
f 163 189 187
f 165 176 166
f 166 176 167
f 167 176 190
f 167 190 191
f 167 191 192
f 169 172 170
f 169 193 172
f 171 174 194
f 171 194 175
f 172 193 173
f 173 193 195
f 173 195 196
f 173 196 174
f 174 196 197
f 174 197 194
f 175 194 176
f 176 194 198
f 176 198 190
f 179 188 199
f 179 199 201
f 179 201 180
f 180 200 181
f 180 201 202
f 180 202 203
f 180 203 182
f 180 182 200
f 181 200 182
f 182 203 204
f 186 205 189
f 187 206 207
f 187 207 208
f 187 208 188
f 187 189 206
f 188 208 199
f 189 205 206
f 190 198 191
f 191 198 209
f 191 209 210
f 191 210 192
f 194 211 212
f 194 212 198
f 194 197 211
f 195 213 196
f 196 213 214
f 196 214 215
f 196 215 197
f 197 216 211
f 197 215 217
f 197 217 218
f 197 218 216
f 198 212 209
f 199 208 219
f 199 219 220
f 199 220 221
f 199 221 222
f 199 222 223
f 199 223 201
f 201 223 202
f 202 204 203
f 202 223 204
f 204 223 224
f 207 225 226
f 207 226 208
f 208 226 219
f 209 227 210
f 209 212 211
f 209 211 227
f 211 216 218
f 211 218 228
f 211 228 227
f 213 229 214
f 213 230 229
f 214 229 215
f 215 229 231
f 215 231 217
f 217 231 232
f 217 232 233
f 217 233 218
f 218 233 228
f 219 226 220
f 220 226 234
f 220 234 235
f 220 235 236
f 220 236 221
f 221 237 238
f 221 238 239
f 221 239 222
f 221 236 237
f 222 239 240
f 222 240 223
f 223 240 241
f 223 241 224
f 225 242 234
f 225 234 226
f 227 228 243
f 227 243 244
f 228 233 243
f 229 230 245
f 229 245 246
f 229 246 247
f 229 247 231
f 231 248 232
f 231 247 249
f 231 249 248
f 232 248 250
f 232 250 251
f 232 251 252
f 232 252 253
f 232 253 254
f 232 254 233
f 233 254 243
f 234 242 255
f 234 255 256
f 234 256 257
f 234 257 235
f 235 257 236
f 236 257 280
f 236 280 258
f 236 258 237
f 237 258 259
f 237 259 260
f 237 260 261
f 237 261 262
f 237 262 263
f 237 263 264
f 237 264 238
f 238 264 239
f 239 264 265
f 239 265 240
f 240 265 266
f 240 266 267
f 240 267 241
f 243 254 244
f 244 254 253
f 244 253 252
f 244 252 268
f 244 268 269
f 246 270 247
f 247 270 271
f 247 271 272
f 247 272 249
f 248 249 273
f 248 273 250
f 249 272 274
f 249 274 273
f 250 275 276
f 250 276 277
f 250 277 251
f 250 273 278
f 250 278 275
f 251 277 268
f 251 268 252
f 256 279 280
f 256 280 257
f 258 280 279
f 258 279 259
f 259 279 260
f 260 279 281
f 260 281 261
f 261 281 282
f 261 282 283
f 261 283 262
f 262 283 284
f 262 284 263
f 263 284 285
f 263 285 264
f 264 285 265
f 265 285 286
f 265 286 287
f 265 287 266
f 268 277 276
f 268 276 288
f 268 288 289
f 268 289 269
f 269 289 290
f 271 291 272
f 272 291 292
f 272 292 274
f 273 274 293
f 273 293 278
f 274 292 294
f 274 294 295
f 274 295 293
f 275 278 296
f 275 296 297
f 275 297 298
f 275 298 299
f 275 299 288
f 275 288 276
f 278 293 296
f 279 300 281
f 281 300 301
f 281 301 302
f 281 302 303
f 281 303 282
f 282 303 283
f 283 303 304
f 283 304 305
f 283 305 306
f 283 306 284
f 284 306 307
f 284 307 308
f 284 308 285
f 285 308 309
f 285 309 286
f 286 309 310
f 286 310 287
f 288 299 289
f 289 299 311
f 289 311 312
f 289 312 313
f 289 313 290
f 293 314 296
f 293 295 314
f 294 315 316
f 294 316 295
f 294 317 318
f 294 318 315
f 295 316 319
f 295 319 314
f 296 314 297
f 297 314 320
f 297 320 321
f 297 321 322
f 297 322 311
f 297 311 299
f 297 299 298
f 301 323 302
f 302 323 304
f 302 304 303
f 304 323 324
f 304 324 325
f 304 325 326
f 304 326 305
f 305 326 307
f 305 307 306
f 307 327 328
f 307 328 329
f 307 329 330
f 307 330 308
f 307 326 327
f 308 330 331
f 308 331 332
f 308 332 309
f 309 332 333
f 309 333 310
f 311 334 312
f 311 322 334
f 312 334 322
f 312 322 335
f 312 335 336
f 312 336 337
f 312 337 338
f 314 319 320
f 315 318 316
f 316 339 340
f 316 340 319
f 316 318 341
f 316 341 339
f 317 342 318
f 318 342 343
f 318 343 341
f 319 340 321
f 319 321 320
f 321 340 344
f 321 344 345
f 321 345 346
f 321 346 322
f 322 346 345
f 322 345 335
f 323 347 348
f 323 348 324
f 324 348 349
f 324 349 325
f 325 349 326
f 326 349 350
f 326 350 327
f 327 350 328
f 328 350 351
f 328 351 352
f 328 352 353
f 328 353 354
f 328 354 329
f 329 354 330
f 330 354 331
f 331 354 355
f 331 355 356
f 331 356 357
f 335 345 336
f 336 345 358
f 336 358 337
f 337 359 360
f 337 360 338
f 337 358 359
f 339 341 361
f 339 361 340
f 340 361 344
f 341 362 363
f 341 363 361
f 341 343 362
f 342 364 343
f 342 365 364
f 343 364 362
f 344 366 345
f 344 361 367
f 344 367 366
f 345 366 368
f 345 368 358
f 347 369 348
f 348 369 349
f 349 369 370
f 349 370 371
f 349 371 372
f 349 372 350
f 350 372 351
f 351 372 371
f 351 371 373
f 351 373 374
f 351 374 352
f 352 374 375
f 352 375 376
f 352 376 377
f 352 377 353
f 353 377 354
f 354 377 356
f 354 356 355
f 356 378 379
f 356 379 380
f 356 380 357
f 356 377 378
f 358 381 359
f 358 368 382
f 358 382 383
f 358 383 381
f 361 363 386
f 361 386 367
f 362 384 363
f 362 364 385
f 362 385 384
f 363 384 386
f 364 387 385
f 364 365 388
f 364 388 389
f 364 389 387
f 366 382 368
f 366 367 390
f 366 390 382
f 367 386 391
f 367 391 390
f 369 392 393
f 369 393 394
f 369 394 370
f 370 394 371
f 371 394 395
f 371 395 396
f 371 396 397
f 371 397 398
f 371 398 373
f 373 398 399
f 373 399 374
f 374 399 400
f 374 400 375
f 375 400 401
f 375 401 402
f 375 402 403
f 375 403 404
f 375 404 376
f 376 404 377
f 377 404 378
f 378 405 379
f 378 404 405
f 379 405 380
f 380 405 406
f 381 383 407
f 382 390 408
f 382 408 383
f 383 409 407
f 383 408 410
f 383 410 411
f 383 411 409
f 384 412 386
f 384 385 412
f 385 387 413
f 385 413 412
f 386 412 391
f 387 389 414
f 387 414 415
f 387 415 416
f 387 416 417
f 387 417 413
f 388 418 389
f 389 418 419
f 389 419 420
f 389 420 415
f 389 415 414
f 390 391 421
f 390 421 408
f 391 412 422
f 391 422 421
f 392 395 393
f 393 395 394
f 395 423 396
f 396 423 398
f 396 398 397
f 398 423 424
f 398 424 425
f 398 425 399
f 399 425 426
f 399 426 400
f 400 426 401
f 401 427 428
f 401 428 402
f 401 426 427
f 402 428 429
f 402 429 403
f 403 429 430
f 403 430 404
f 404 430 405
f 405 430 431
f 405 431 432
f 405 432 433
f 405 433 406
f 407 409 434
f 408 421 410
f 409 411 434
f 410 421 435
f 410 435 411
f 411 435 436
f 411 436 437
f 412 413 417
f 412 417 422
f 415 420 438
f 415 438 439
f 415 439 440
f 415 440 416
f 416 441 442
f 416 442 417
f 416 440 441
f 417 442 443
f 417 443 444
f 417 444 422
f 419 445 446
f 419 446 438
f 419 438 420
f 421 422 444
f 421 444 435
f 423 447 448
f 423 448 424
f 424 448 449
f 424 449 450
f 424 450 425
f 425 450 451
f 425 451 426
f 426 451 427
f 427 451 452
f 427 452 428
f 428 453 454
f 428 454 455
f 428 455 431
f 428 431 429
f 428 452 456
f 428 456 457
f 428 457 453
f 429 431 430
f 431 458 459
f 431 459 432
f 431 455 460
f 431 460 458
f 432 461 462
f 432 462 433
f 432 459 461
f 435 444 463
f 435 463 464
f 435 464 436
f 436 464 465
f 436 465 466
f 436 466 437
f 437 466 467
f 438 446 468
f 438 468 469
f 438 469 470
f 438 470 471
f 438 471 472
f 438 472 473
f 438 473 474
f 438 474 475
f 438 475 476
f 438 476 440
f 438 440 439
f 440 476 475
f 440 475 477
f 440 477 478
f 440 478 441
f 441 479 480
f 441 480 443
f 441 443 442
f 441 478 479
f 443 480 464
f 443 464 463
f 443 463 444
f 445 481 446
f 446 481 468
f 447 482 448
f 448 482 449
f 449 482 483
f 449 483 451
f 449 451 450
f 451 456 452
f 451 483 484
f 451 484 456
f 453 457 485
f 453 485 486
f 453 486 454
f 454 486 487
f 454 487 455
f 455 487 460
f 456 484 511
f 456 511 488
f 456 488 457
f 457 489 490
f 457 490 485
f 457 488 489
f 458 460 491
f 458 491 492
f 458 492 493
f 458 493 459
f 459 493 461
f 460 487 491
f 461 493 462
f 462 493 494
f 464 480 465
f 465 467 466
f 465 480 495
f 465 495 496
f 468 497 469
f 469 497 470
f 470 472 471
f 470 497 498
f 470 498 499
f 470 499 500
f 470 500 472
f 472 501 502
f 472 502 473
f 472 500 503
f 472 503 504
f 472 504 501
f 473 502 474
f 474 502 477
f 474 477 475
f 477 505 478
f 477 502 506
f 477 506 532
f 477 532 505
f 478 505 533
f 478 533 507
f 478 507 479
f 479 507 508
f 479 508 495
f 479 495 509
f 479 509 480
f 480 509 495
f 483 510 511
f 483 511 484
f 485 512 513
f 485 513 486
f 485 490 489
f 485 489 512
f 486 514 515
f 486 515 487
f 486 513 543
f 486 543 514
f 487 515 516
f 487 516 517
f 487 517 518
f 487 518 491
f 488 511 510
f 488 510 519
f 488 519 520
f 488 520 489
f 489 520 521
f 489 521 512
f 491 518 493
f 491 493 492
f 493 522 503
f 493 503 523
f 493 523 500
f 493 500 524
f 493 524 525
f 493 525 494
f 493 518 517
f 493 517 516
f 493 516 526
f 493 526 522
f 495 508 496
f 496 508 527
f 496 527 528
f 499 525 500
f 500 525 524
f 500 523 503
f 501 504 529
f 501 529 530
f 501 530 506
f 501 506 502
f 503 522 531
f 503 531 504
f 504 531 529
f 505 532 533
f 506 530 544
f 506 544 532
f 507 534 535
f 507 535 508
f 507 533 536
f 507 536 534
f 508 535 534
f 508 534 537
f 508 537 527
f 512 538 539
f 512 539 513
f 512 521 540
f 512 540 541
f 512 541 538
f 513 539 538
f 513 538 542
f 513 542 543
f 514 544 530
f 514 530 515
f 514 543 544
f 515 530 531
f 515 531 526
f 515 526 516
f 520 545 521
f 521 545 540
f 522 526 531
f 527 537 546
f 527 546 547
f 527 547 528
f 529 531 530
f 532 544 557
f 532 557 548
f 532 548 533
f 533 548 550
f 533 550 536
f 534 549 546
f 534 546 537
f 534 536 549
f 536 550 551
f 536 551 552
f 536 552 549
f 538 541 553
f 538 553 542
f 540 554 541
f 541 554 553
f 542 555 557
f 542 557 543
f 542 553 556
f 542 556 561
f 542 561 555
f 543 557 544
f 546 549 547
f 547 549 558
f 548 557 555
f 548 555 550
f 549 552 559
f 549 559 560
f 549 560 558
f 550 555 561
f 550 561 551
f 551 561 562
f 551 562 563
f 551 563 564
f 551 564 552
f 552 564 559
f 553 554 565
f 553 565 556
f 556 565 566
f 556 566 567
f 556 567 568
f 556 568 561
f 559 564 560
f 561 568 569
f 561 569 562
f 562 569 571
f 562 571 570
f 562 570 563
f 566 568 567
f 568 571 569

