# https://github.com/mikedh/trimesh
v -0.01185902 -0.00080362 0.04173719
v -0.01185902 0.00079819 0.04174648
v -0.01185902 -0.00275425 0.04199265
v -0.06598837 -0.00278638 0.04923821
v -0.06598837 0.00278554 0.04922892
v -0.01185902 0.00093129 0.04176042
v -0.01185902 -0.00278638 0.04199729
v -0.06412828 -0.00464521 0.04926607
v -0.06598837 -0.00464521 0.04964693
v -0.06716867 -0.00464521 0.05005566
v -0.06756459 -0.00278638 0.04982807
v -0.06757953 0.00278554 0.04982343
v -0.06717614 0.00464437 0.05005101
v -0.06598837 0.00464437 0.04963764
v -0.06412828 0.00464437 0.04925678
v -0.01185902 0.00278554 0.04200194
v -0.01185902 -0.00464521 0.04229919
v -0.06412828 -0.00633882 0.04987452
v -0.06598837 -0.00590279 0.05005566
v -0.01185902 -0.00601295 0.04253142
v -0.01185902 -0.00650405 0.04261502
v -0.01185902 -0.00755509 0.04284725
v -0.01185902 -0.00882644 0.04328849
v -0.06692215 -0.00558151 0.05019035
v -0.06810245 -0.00464521 0.05062229
v -0.06849090 -0.00278638 0.05038077
v -0.06851331 0.00278554 0.05037148
v -0.06692215 0.00558526 0.05019035
v -0.06810992 0.00464437 0.05062694
v -0.06598837 0.00590195 0.05005566
v -0.06412828 0.00635175 0.04987452
v -0.01185902 0.00838040 0.04315379
v -0.01185902 0.00650321 0.04262431
v -0.01185902 0.00464437 0.04230848
v -0.06412828 -0.00726594 0.05026930
v -0.06598837 -0.00682992 0.05046438
v -0.01185902 -0.01014828 0.04430101
v -0.01766340 -0.01482520 0.04836967
v -0.01766340 -0.01389808 0.04769156
v -0.06565221 -0.00947818 0.05186240
v -0.06412828 -0.00836288 0.05088703
v -0.06689227 -0.00927623 0.05206676
v -0.06746748 -0.00803701 0.05170913
v -0.06781858 -0.00645815 0.05114249
v -0.06904370 -0.00609556 0.05181595
v -0.08803304 -0.00092754 0.06434705
v -0.08804052 0.00092670 0.06435170
v -0.06902876 0.00608554 0.05182524
v -0.06781858 0.00645272 0.05114713
v -0.06746748 0.00802699 0.05170913
v -0.06686986 0.00926621 0.05207605
v -0.06598837 0.00683367 0.05046438
v -0.06412828 0.00727887 0.05026002
v -0.01185902 0.01013826 0.04429172
v -0.06412828 0.00836204 0.05088239
v -0.06616019 -0.00854188 0.05141188
v -0.01185902 -0.01161699 0.04553647
v -0.01580331 -0.01483897 0.04836038
v -0.01766340 -0.01579822 0.04927072
v -0.01863453 -0.01674370 0.05017641
v -0.06598837 -0.01326011 0.05556414
v -0.06704167 -0.01308111 0.05570812
v -0.06893912 -0.00942770 0.05374810
v -0.06799040 -0.00854188 0.05236402
v -0.06870754 -0.00733479 0.05210392
v -0.08778653 -0.00227233 0.06466289
v -0.08801811 -0.00263492 0.06599124
v -0.08816751 -0.00088624 0.06604698
v -0.08817498 0.00088539 0.06604698
v -0.08789111 0.00284979 0.06616773
v -0.08778653 0.00227149 0.06466753
v -0.06870754 0.00732477 0.05210856
v -0.06799040 0.00853186 0.05236866
v -0.06895406 0.00943144 0.05374346
v -0.06702674 0.01307568 0.05571741
v -0.06562980 0.00947734 0.05186704
v -0.06614525 0.00853186 0.05141188
v -0.01185902 0.01145092 0.04538784
v -0.01766340 0.01257081 0.04674871
v -0.01766340 0.01389265 0.04767762
v -0.01766340 0.01481977 0.04837431
v -0.01185902 -0.01487569 0.04852294
v -0.01394322 -0.01484815 0.04835109
v -0.01580331 -0.01579822 0.04925214
v -0.01766340 -0.01675747 0.05016248
v -0.01766340 -0.02193926 0.05622831
v -0.06412828 -0.01434787 0.05641410
v -0.06533846 -0.01494912 0.05749628
v -0.06596596 -0.01426067 0.05680889
v -0.06773641 -0.01342075 0.05679031
v -0.06888682 -0.01311324 0.05747306
v -0.06657852 -0.01475635 0.05783069
v -0.06853572 -0.01470128 0.05988825
v -0.06887936 -0.01495371 0.06112836
v -0.08662117 -0.00358499 0.06798377
v -0.08801063 -0.00263951 0.06784907
v -0.06907358 -0.01512353 0.06227557
v -0.06928274 -0.01527040 0.06413805
v -0.08813763 -0.00088624 0.06781192
v -0.08814510 0.00088539 0.06781192
v -0.08788364 0.00285897 0.06767258
v -0.08737566 0.00371725 0.06693409
v -0.08737566 0.00371725 0.06690623
v -0.06852079 0.01469585 0.05989754
v -0.06887936 0.01310781 0.05748235
v -0.06772894 0.01340614 0.05679960
v -0.06656358 0.01475551 0.05783534
v -0.06595849 0.01425065 0.05680889
v -0.06598837 0.01325468 0.05557342
v -0.01841042 0.01672909 0.05019499
v -0.01185902 0.01164369 0.04555040
v -0.01773810 0.01598556 0.04947973
v -0.01580331 0.01482895 0.04836967
v -0.01185902 -0.01590378 0.04947973
v -0.01289739 -0.01674829 0.05017177
v -0.01394322 -0.01579822 0.04924285
v -0.01580331 -0.01676206 0.05015784
v -0.01580331 -0.02196221 0.05621903
v -0.01766340 -0.02257264 0.05715723
v -0.01910515 -0.02248084 0.05731979
v -0.06412828 -0.01504551 0.05734766
v -0.06596596 -0.01527958 0.05849487
v -0.06412828 -0.01569266 0.05855989
v -0.06788582 -0.01438918 0.05849487
v -0.06729566 -0.01508222 0.05907080
v -0.06788582 -0.01532089 0.06047347
v -0.06766918 -0.01608737 0.06244742
v -0.06926781 -0.01525663 0.06970691
v -0.06899141 -0.01504551 0.07156475
v -0.08791352 -0.00083575 0.06979516
v -0.06880465 -0.01489405 0.07255405
v -0.08777906 -0.00228151 0.06923781
v -0.06692962 -0.01673452 0.06318126
v -0.06692962 -0.01673452 0.06326022
v -0.06784846 -0.01613786 0.06970691
v -0.08791352 0.00083491 0.06979051
v -0.08777906 0.00228526 0.06922852
v -0.06879718 0.01488402 0.07252617
v -0.06898394 0.01504008 0.07156475
v -0.06923793 0.01523743 0.06970691
v -0.06926781 0.01526038 0.06413805
v -0.06907358 0.01511810 0.06227557
v -0.06887188 0.01494828 0.06113764
v -0.06787834 0.01531087 0.06047811
v -0.06728072 0.01508138 0.05907545
v -0.06787834 0.01437916 0.05849487
v -0.06595849 0.01527415 0.05849487
v -0.06532352 0.01494828 0.05750557
v -0.06412828 0.01435621 0.05642339
v -0.01766340 0.02192465 0.05626547
v -0.01580331 0.02195678 0.05624224
v -0.01717036 0.01672909 0.05019035
v -0.01185902 0.01466372 0.04832787
v -0.01394322 0.01482436 0.04836967
v -0.01394322 0.01579738 0.04929394
v -0.01185902 -0.01732659 0.05099850
v -0.01394322 -0.02195762 0.05621903
v -0.01394322 -0.01676206 0.05015784
v -0.01580331 -0.02258182 0.05714794
v -0.01766340 -0.02345846 0.06413805
v -0.01580331 -0.02348599 0.06413805
v -0.06412828 -0.01711088 0.06227557
v -0.06506206 -0.01672993 0.06134665
v -0.06412828 -0.01644537 0.06025053
v -0.06580162 -0.01624801 0.06060352
v -0.06630212 -0.01656011 0.06194116
v -0.06784846 -0.01576609 0.07156475
v -0.08743543 -0.00016106 0.07067299
v -0.08743543 0.00015104 0.07067299
v -0.06778870 -0.01518320 0.07327396
v -0.06837138 -0.01460030 0.07379415
v -0.06914081 -0.01336108 0.07490421
v -0.06871501 -0.01295719 0.07614431
v -0.06869260 -0.00919821 0.07982283
v -0.06911093 -0.00795899 0.08024084
v -0.06580162 -0.01684008 0.06244742
v -0.06577173 -0.01689057 0.06970691
v -0.06670551 -0.01667485 0.06970691
v -0.06911840 0.00798109 0.08024549
v -0.06870754 0.00922032 0.07985069
v -0.06872248 0.01296094 0.07615360
v -0.06913334 0.01335106 0.07491350
v -0.06836391 0.01459028 0.07376628
v -0.06778870 0.01516859 0.07326002
v -0.06784846 0.01574230 0.07156475
v -0.06784846 0.01610489 0.06970691
v -0.06784846 0.01611866 0.06413805
v -0.06784846 0.01591212 0.06227557
v -0.06616766 0.01661894 0.06209908
v -0.06598837 0.01611407 0.06041773
v -0.06503218 0.01672450 0.06135594
v -0.06412828 0.01567346 0.05855989
v -0.01906780 0.02246165 0.05734766
v -0.06412828 0.01504008 0.05735230
v -0.01766340 0.02254426 0.05719439
v -0.01580331 0.02255344 0.05717116
v -0.01394322 0.02195219 0.05624224
v -0.01298703 0.01673368 0.05019035
v -0.01394322 0.01673368 0.05019035
v -0.01185902 0.01590294 0.04949366
v -0.01185902 -0.01838682 0.05232221
v -0.01280775 -0.02247625 0.05731515
v -0.01394322 -0.02257264 0.05714794
v -0.01580331 -0.02345387 0.06599124
v -0.01766340 -0.02342174 0.06599124
v -0.01952349 -0.02318307 0.06599124
v -0.01394322 -0.02344928 0.06413805
v -0.01394322 -0.02344469 0.06599124
v -0.06609296 -0.01652339 0.07163906
v -0.06839379 -0.00650405 0.08154597
v -0.06875236 -0.00552185 0.08177355
v -0.06898394 -0.00428262 0.08195934
v -0.06918563 -0.00278638 0.08213583
v -0.06769906 -0.00268540 0.08312513
v -0.06697445 -0.00200154 0.08367784
v -0.06698939 0.00174367 0.08368712
v -0.06698939 0.00204200 0.08368712
v -0.06770653 0.00271210 0.08312977
v -0.06919311 0.00278554 0.08214048
v -0.06898394 0.00428637 0.08195934
v -0.06875236 0.00552560 0.08177355
v -0.06839379 0.00650321 0.08154597
v -0.06713132 -0.01498584 0.07456980
v -0.06792317 -0.01399446 0.07535937
v -0.06748242 -0.01338862 0.07671559
v -0.06652623 -0.01281949 0.07795570
v -0.06745254 -0.00957457 0.08026406
v -0.06787087 -0.00838583 0.08087251
v -0.06554016 -0.01686303 0.07106778
v -0.06787834 0.00839417 0.08087251
v -0.06747495 0.00957832 0.08025942
v -0.06648141 0.01281865 0.07795106
v -0.06748242 0.01337860 0.07671095
v -0.06792317 0.01398444 0.07535937
v -0.06712385 0.01498500 0.07456515
v -0.06605561 0.01649961 0.07161119
v -0.06664575 0.01666483 0.06970691
v -0.06567462 0.01689891 0.06259604
v -0.06430010 0.01649043 0.06049205
v -0.06430010 0.01700906 0.06209908
v -0.01766340 0.02337041 0.06413805
v -0.01580331 0.02338418 0.06413805
v -0.01394322 0.02254885 0.05717116
v -0.01280775 0.02246624 0.05732908
v -0.01185902 0.01826206 0.05218752
v -0.01185902 0.01730740 0.05099386
v -0.01185902 0.01664648 0.05027859
v -0.01185902 -0.01906610 0.05325113
v -0.01185902 -0.02134718 0.05655344
v -0.01185902 -0.02140226 0.05670206
v -0.01185902 -0.02189795 0.05855989
v -0.01185902 -0.02266443 0.06222448
v -0.01185902 -0.02294900 0.06413805
v -0.01580331 -0.02330699 0.06784907
v -0.01766340 -0.02328405 0.06784907
v -0.01185902 -0.02299030 0.06599124
v -0.01394322 -0.02329323 0.06784907
v -0.01185902 -0.02298112 0.06621418
v -0.01185902 -0.02288474 0.06784907
v -0.06446444 -0.01666568 0.07230324
v -0.06598837 -0.01589001 0.07342723
v -0.06704915 -0.00756886 0.08186180
v -0.06746001 -0.00650405 0.08209867
v -0.06802028 -0.00479667 0.08240986
v -0.06656358 -0.00324076 0.08355243
v -0.06533099 -0.00395675 0.08371964
v -0.06596596 -0.00268540 0.08378930
v -0.06598091 0.00271210 0.08380789
v -0.06659346 0.00328123 0.08355708
v -0.06802028 0.00480042 0.08240986
v -0.06746001 0.00650321 0.08209403
v -0.06704915 0.00756343 0.08186180
v -0.06598837 -0.01518320 0.07492278
v -0.06598837 -0.01465538 0.07585170
v -0.06593608 -0.01361810 0.07725901
v -0.06528617 -0.01306734 0.07811826
v -0.06598837 -0.00882185 0.08149023
v -0.06395647 -0.01692729 0.07163906
v -0.01766340 -0.02276541 0.07342723
v -0.01898563 -0.02242577 0.07459302
v -0.06598837 0.00882101 0.08149488
v -0.06524135 0.01305273 0.07810433
v -0.06591367 0.01359432 0.07725437
v -0.06598837 0.01463618 0.07583312
v -0.06598837 0.01517318 0.07490421
v -0.06598837 0.01586163 0.07342723
v -0.06548039 0.01683924 0.07101669
v -0.06571197 0.01686678 0.06970691
v -0.06567462 0.01689891 0.06377577
v -0.01766340 0.02337959 0.06599124
v -0.01580331 0.02340254 0.06599124
v -0.01394322 0.02338877 0.06599124
v -0.01394322 0.02336123 0.06413805
v -0.01185902 0.02293439 0.06413805
v -0.01185902 0.02290685 0.06389653
v -0.01185902 0.02265441 0.06216410
v -0.01185902 0.02222298 0.06001365
v -0.01185902 0.02191547 0.05855989
v -0.01185902 0.02134634 0.05654879
v -0.01185902 0.01898723 0.05315824
v -0.01185902 0.01837680 0.05234079
v -0.01580331 -0.02277918 0.07342723
v -0.01271063 -0.02250379 0.07342723
v -0.01286751 -0.02242118 0.07457909
v -0.01394322 -0.02274246 0.07342723
v -0.01185902 -0.02286179 0.06804415
v -0.06395647 -0.01634440 0.07324609
v -0.06598837 -0.00789014 0.08202901
v -0.06598837 -0.00650405 0.08266532
v -0.06596596 -0.00460390 0.08335736
v -0.06412828 -0.00516385 0.08352921
v -0.06412828 -0.00423673 0.08380324
v -0.01766340 -0.00464521 0.08872651
v -0.01766340 -0.00278638 0.08902841
v -0.01766340 -0.00092754 0.08918167
v -0.06535340 0.00397427 0.08372428
v -0.01766340 0.00092670 0.08918167
v -0.01766340 0.00278554 0.08902841
v -0.06598091 0.00461224 0.08335736
v -0.06598837 0.00650321 0.08266067
v -0.06598837 0.00788930 0.08202901
v -0.06404611 -0.01527499 0.07542440
v -0.06460638 -0.01482061 0.07613502
v -0.06412828 -0.00916608 0.08167602
v -0.01882129 -0.01681714 0.08188967
v -0.01879141 -0.01495830 0.08372893
v -0.01766340 -0.02249002 0.07470914
v -0.01766340 -0.02189336 0.07564270
v -0.06412828 0.00916983 0.08168531
v -0.06456156 0.01481059 0.07611645
v -0.01876152 0.01494369 0.08371499
v -0.01879887 0.01681171 0.08188503
v -0.06401623 0.01526038 0.07541046
v -0.06412828 0.01621504 0.07342723
v -0.06412828 0.01666483 0.07229395
v -0.06412828 0.01694940 0.07136503
v -0.01897816 0.02241116 0.07456980
v -0.01766340 0.02270949 0.07342723
v -0.01766340 0.02324190 0.06784907
v -0.01580331 0.02326943 0.06784907
v -0.01394322 0.02326026 0.06784907
v -0.01185902 0.02288390 0.06784907
v -0.01185902 0.02298946 0.06599124
v -0.01580331 -0.02249002 0.07471378
v -0.01394322 -0.02248543 0.07470449
v -0.01394322 -0.02188418 0.07563341
v -0.01185902 -0.02261854 0.06974407
v -0.01185902 -0.02241659 0.07100740
v -0.01185902 -0.02223759 0.07211281
v -0.01185902 -0.02191631 0.07351083
v -0.01185902 -0.02130129 0.07535473
v -0.01185902 -0.02125998 0.07544762
v -0.01185902 -0.01904315 0.07875457
v -0.01185902 -0.01840518 0.07968349
v -0.06412828 -0.00823437 0.08221014
v -0.06412828 -0.00650405 0.08301366
v -0.01766340 -0.00922575 0.08734242
v -0.01766340 -0.00829404 0.08769076
v -0.01766340 -0.00650405 0.08827598
v -0.01580331 -0.00464521 0.08872651
v -0.01580331 -0.00278638 0.08902376
v -0.01580331 -0.00092754 0.08917703
v -0.06412828 0.00424507 0.08381253
v -0.06412828 0.00517219 0.08352457
v -0.01580331 0.00092670 0.08917703
v -0.01580331 0.00278554 0.08902376
v -0.01580331 0.00464437 0.08872186
v -0.01766340 0.00464437 0.08872186
v -0.06412828 0.00650321 0.08300902
v -0.06412828 0.00824271 0.08220550
v -0.01766340 -0.01281490 0.08538240
v -0.01766340 -0.01188319 0.08595368
v -0.01766340 -0.01854287 0.07986927
v -0.01766340 -0.01774885 0.08086321
v -0.01766340 -0.01686303 0.08194076
v -0.01766340 -0.01593591 0.08286967
v -0.01766340 -0.01500420 0.08377073
v -0.01766340 -0.01393938 0.08457424
v -0.01580331 -0.02190713 0.07564270
v -0.01766340 0.01188235 0.08596762
v -0.01766340 0.01281406 0.08537775
v -0.01766340 0.02188334 0.07560554
v -0.01766340 0.01393854 0.08454638
v -0.01766340 0.01498500 0.08375215
v -0.01766340 0.01591671 0.08286503
v -0.01766340 0.01685760 0.08193612
v -0.01766340 0.01773883 0.08086321
v -0.01766340 0.01853744 0.07986463
v -0.01766340 0.02246624 0.07467662
v -0.01580331 0.02272326 0.07342723
v -0.01394322 0.02269572 0.07342723
v -0.01286751 0.02241116 0.07456051
v -0.01185902 0.02261770 0.06978587
v -0.01267328 -0.01682632 0.08189431
v -0.01394322 -0.01855205 0.07988321
v -0.01185902 -0.01829502 0.07982747
v -0.01766340 -0.01022172 0.08685938
v -0.01394322 -0.01022172 0.08685474
v -0.01394322 -0.00921657 0.08733777
v -0.01394322 -0.00828486 0.08769076
v -0.01580331 -0.00650405 0.08827598
v -0.01394322 -0.00650405 0.08826669
v -0.01394322 -0.00464521 0.08870792
v -0.01394322 -0.00278638 0.08900983
v -0.01394322 -0.00092754 0.08916774
v -0.01766340 0.00650321 0.08825740
v -0.01766340 0.00830237 0.08768147
v -0.01766340 0.00922950 0.08734706
v -0.01394322 0.00092670 0.08916774
v -0.01394322 0.00278554 0.08900518
v -0.01394322 0.00464437 0.08870328
v -0.01394322 0.00650321 0.08826205
v -0.01580331 0.00650321 0.08826205
v -0.01766340 0.01022087 0.08687331
v -0.01580331 -0.01282408 0.08539169
v -0.01580331 -0.01189696 0.08595833
v -0.01580331 -0.01775803 0.08086321
v -0.01580331 -0.01686762 0.08194540
v -0.01580331 -0.01593591 0.08287432
v -0.01580331 -0.01500879 0.08377073
v -0.01580331 -0.01393938 0.08458353
v -0.01394322 -0.01283326 0.08539633
v -0.01394322 0.01190530 0.08596297
v -0.01394322 0.01283242 0.08539169
v -0.01580331 0.01282783 0.08538704
v -0.01580331 0.02189711 0.07561018
v -0.01580331 0.01393854 0.08456030
v -0.01394322 0.01393854 0.08456960
v -0.01394322 0.01498959 0.08375679
v -0.01394322 0.01592130 0.08286503
v -0.01580331 0.01686219 0.08193612
v -0.01580331 0.01773883 0.08086321
v -0.01580331 0.01853744 0.07986463
v -0.01580331 0.02247083 0.07468127
v -0.01394322 0.02246624 0.07467198
v -0.01394322 0.02186498 0.07560089
v -0.01185902 0.01839975 0.07966956
v -0.01185902 0.01903772 0.07874064
v -0.01185902 0.02129586 0.07533616
v -0.01185902 0.02136011 0.07515501
v -0.01185902 0.02192006 0.07342723
v -0.01185902 0.02229183 0.07156475
v -0.01271810 -0.01495830 0.08372893
v -0.01394322 -0.01593132 0.08287896
v -0.01394322 -0.01687221 0.08194540
v -0.01394322 -0.01776262 0.08086321
v -0.01185902 -0.01739544 0.08096540
v -0.01185902 -0.01730824 0.08106758
v -0.01185902 -0.01670698 0.08176891
v -0.01185902 -0.01578904 0.08271176
v -0.01394322 -0.01190614 0.08595833
v -0.01185902 -0.01169960 0.08583757
v -0.01208313 -0.01022172 0.08663644
v -0.01185902 -0.01022172 0.08660857
v -0.01185902 -0.00889988 0.08721237
v -0.01185902 -0.00797276 0.08757000
v -0.01185902 -0.00650405 0.08803446
v -0.01185902 -0.00627915 0.08809020
v -0.01185902 -0.00464521 0.08848963
v -0.01185902 -0.00442032 0.08852679
v -0.01185902 -0.00278638 0.08879617
v -0.01185902 -0.00256148 0.08881475
v -0.01185902 -0.00092754 0.08894944
v -0.01394322 0.00829319 0.08768611
v -0.01580331 0.00922950 0.08734706
v -0.01185902 0.00092670 0.08894944
v -0.01185902 0.00115160 0.08893087
v -0.01185902 0.00278554 0.08878688
v -0.01185902 0.00464437 0.08847105
v -0.01185902 0.00650321 0.08801588
v -0.01185902 0.00665008 0.08796943
v -0.01185902 0.00794438 0.08755607
v -0.01580331 0.01022087 0.08687331
v -0.01394322 -0.01500420 0.08376608
v -0.01394322 -0.01393938 0.08458353
v -0.01185902 -0.01262673 0.08526164
v -0.01185902 -0.01251657 0.08533131
v -0.01394322 0.01022087 0.08686402
v -0.01185902 0.01168040 0.08582364
v -0.01185902 0.01260753 0.08525235
v -0.01185902 0.01276817 0.08514088
v -0.01277039 0.01494828 0.08371964
v -0.01394322 0.01853285 0.07985534
v -0.01271063 0.01681630 0.08188503
v -0.01394322 0.01685760 0.08193612
v -0.01394322 0.01773424 0.08086321
v -0.01185902 0.01749557 0.08080748
v -0.01185902 -0.01567430 0.08281858
v -0.01185902 -0.01482061 0.08360817
v -0.01185902 -0.01402659 0.08424912
v -0.01185902 0.00805912 0.08751427
v -0.01394322 0.00922491 0.08734242
v -0.01185902 0.01022087 0.08658999
v -0.01185902 0.01400280 0.08423983
v -0.01185902 0.01413131 0.08413765
v -0.01185902 0.01577443 0.08268854
v -0.01185902 0.01590294 0.08256778
v -0.01185902 0.01738083 0.08095146
v -0.01185902 0.00887609 0.08720308
v -0.01185902 0.00906427 0.08711947
f 1 2 6
f 1 6 16
f 1 16 34
f 1 34 33
f 1 33 32
f 1 32 54
f 1 54 78
f 1 78 111
f 1 111 153
f 1 153 200
f 1 200 247
f 1 247 246
f 1 246 245
f 1 245 301
f 1 301 300
f 1 300 299
f 1 299 298
f 1 298 297
f 1 297 296
f 1 296 295
f 1 295 294
f 1 294 343
f 1 343 342
f 1 342 393
f 1 393 442
f 1 442 441
f 1 441 440
f 1 440 439
f 1 439 438
f 1 438 437
f 1 437 487
f 1 487 498
f 1 498 497
f 1 497 496
f 1 496 495
f 1 495 494
f 1 494 481
f 1 481 480
f 1 480 479
f 1 479 493
f 1 493 500
f 1 500 499
f 1 499 491
f 1 491 472
f 1 472 471
f 1 471 470
f 1 470 469
f 1 469 468
f 1 468 467
f 1 467 466
f 1 466 463
f 1 463 462
f 1 462 461
f 1 461 460
f 1 460 459
f 1 459 458
f 1 458 457
f 1 457 456
f 1 456 455
f 1 455 454
f 1 454 452
f 1 452 477
f 1 477 476
f 1 476 490
f 1 490 489
f 1 489 488
f 1 488 450
f 1 450 449
f 1 449 448
f 1 448 447
f 1 447 396
f 1 396 354
f 1 354 353
f 1 353 352
f 1 352 351
f 1 351 350
f 1 350 349
f 1 349 348
f 1 348 347
f 1 347 306
f 1 306 259
f 1 259 258
f 1 258 256
f 1 256 253
f 1 253 252
f 1 252 251
f 1 251 250
f 1 250 249
f 1 249 248
f 1 248 201
f 1 201 156
f 1 156 114
f 1 114 82
f 1 82 57
f 1 57 37
f 1 37 23
f 1 23 22
f 1 22 21
f 1 21 20
f 1 20 17
f 1 17 7
f 1 7 3
f 1 3 4
f 1 4 5
f 1 5 2
f 2 5 6
f 3 7 4
f 4 8 9
f 4 9 10
f 4 10 11
f 4 11 12
f 4 12 5
f 4 7 8
f 5 12 13
f 5 13 14
f 5 14 15
f 5 15 16
f 5 16 6
f 7 17 8
f 8 18 19
f 8 19 9
f 8 17 20
f 8 20 21
f 8 21 22
f 8 22 23
f 8 23 18
f 9 19 24
f 9 24 10
f 10 24 25
f 10 25 26
f 10 26 11
f 11 26 27
f 11 27 12
f 12 27 13
f 13 28 14
f 13 27 29
f 13 29 28
f 14 30 15
f 14 28 30
f 15 30 31
f 15 31 32
f 15 32 33
f 15 33 34
f 15 34 16
f 18 35 19
f 18 23 35
f 19 35 36
f 19 36 24
f 23 37 38
f 23 38 39
f 23 39 40
f 23 40 41
f 23 41 35
f 24 42 43
f 24 43 44
f 24 44 45
f 24 45 25
f 24 36 42
f 25 45 46
f 25 46 26
f 26 46 27
f 27 46 47
f 27 47 29
f 28 29 48
f 28 48 49
f 28 49 50
f 28 50 51
f 28 51 52
f 28 52 30
f 29 47 48
f 30 52 53
f 30 53 31
f 31 53 32
f 32 53 55
f 32 55 54
f 35 41 56
f 35 56 36
f 36 56 42
f 37 57 38
f 38 57 58
f 38 58 59
f 38 59 60
f 38 60 40
f 38 40 39
f 40 61 62
f 40 62 42
f 40 42 56
f 40 56 41
f 40 60 61
f 42 62 63
f 42 63 64
f 42 64 65
f 42 65 43
f 43 65 44
f 44 65 45
f 45 65 66
f 45 66 46
f 46 66 67
f 46 67 68
f 46 68 69
f 46 69 47
f 47 69 70
f 47 70 71
f 47 71 48
f 48 72 49
f 48 71 72
f 49 72 50
f 50 72 73
f 50 73 51
f 51 73 74
f 51 74 75
f 51 75 76
f 51 76 77
f 51 77 52
f 52 77 53
f 53 77 55
f 54 55 79
f 54 79 80
f 54 80 81
f 54 81 78
f 55 77 76
f 55 76 79
f 57 82 83
f 57 83 58
f 58 84 85
f 58 85 59
f 58 83 84
f 59 85 60
f 60 85 86
f 60 86 87
f 60 87 61
f 61 87 88
f 61 88 89
f 61 89 62
f 62 90 91
f 62 91 63
f 62 89 92
f 62 92 90
f 63 65 64
f 63 91 66
f 63 66 65
f 66 91 93
f 66 93 94
f 66 94 67
f 67 95 96
f 67 96 68
f 67 94 97
f 67 97 98
f 67 98 95
f 68 96 99
f 68 99 100
f 68 100 69
f 69 100 101
f 69 101 70
f 70 101 102
f 70 102 103
f 70 103 71
f 71 103 104
f 71 104 105
f 71 105 74
f 71 74 72
f 72 74 73
f 74 105 75
f 75 105 106
f 75 106 107
f 75 107 108
f 75 108 109
f 75 109 76
f 76 109 110
f 76 110 81
f 76 81 80
f 76 80 79
f 78 81 111
f 81 110 112
f 81 112 113
f 81 113 111
f 82 114 115
f 82 115 83
f 83 115 116
f 83 116 84
f 84 116 85
f 85 116 117
f 85 117 118
f 85 118 86
f 86 118 119
f 86 119 120
f 86 120 121
f 86 121 87
f 87 121 88
f 88 122 92
f 88 92 89
f 88 121 120
f 88 120 123
f 88 123 122
f 90 124 91
f 90 92 124
f 91 124 93
f 92 122 125
f 92 125 124
f 93 124 125
f 93 125 126
f 93 126 94
f 94 126 127
f 94 127 97
f 95 98 128
f 95 128 129
f 95 129 96
f 96 130 99
f 96 129 131
f 96 131 132
f 96 132 130
f 97 127 133
f 97 133 98
f 98 133 134
f 98 134 135
f 98 135 128
f 99 130 100
f 100 130 136
f 100 136 137
f 100 137 101
f 101 137 102
f 102 137 138
f 102 138 139
f 102 139 140
f 102 140 141
f 102 141 103
f 103 141 142
f 103 142 143
f 103 143 104
f 104 143 144
f 104 144 145
f 104 145 146
f 104 146 105
f 105 146 106
f 106 146 107
f 107 147 148
f 107 148 108
f 107 146 145
f 107 145 147
f 108 148 149
f 108 149 109
f 109 149 110
f 110 150 151
f 110 151 152
f 110 152 112
f 110 149 150
f 111 113 154
f 111 154 153
f 112 152 113
f 113 152 155
f 113 155 154
f 114 156 115
f 115 157 158
f 115 158 116
f 115 156 157
f 116 158 117
f 117 158 118
f 118 158 157
f 118 157 159
f 118 159 119
f 119 160 120
f 119 159 161
f 119 161 160
f 120 160 162
f 120 162 163
f 120 163 164
f 120 164 123
f 122 165 125
f 122 123 164
f 122 164 165
f 125 133 126
f 125 165 166
f 125 166 133
f 126 133 127
f 128 135 167
f 128 167 129
f 129 167 131
f 130 132 168
f 130 168 169
f 130 169 136
f 131 167 170
f 131 170 171
f 131 171 132
f 132 171 172
f 132 172 173
f 132 173 174
f 132 174 175
f 132 175 168
f 133 166 176
f 133 176 162
f 133 162 160
f 133 160 134
f 134 160 177
f 134 177 178
f 134 178 135
f 135 178 167
f 136 169 137
f 137 169 179
f 137 179 180
f 137 180 181
f 137 181 182
f 137 182 183
f 137 183 138
f 138 183 184
f 138 184 185
f 138 185 139
f 139 185 186
f 139 186 140
f 140 186 141
f 141 186 187
f 141 187 188
f 141 188 142
f 142 188 143
f 143 188 144
f 144 188 189
f 144 189 190
f 144 190 145
f 145 190 147
f 147 190 191
f 147 191 192
f 147 192 148
f 148 192 193
f 148 193 194
f 148 194 149
f 149 194 150
f 150 193 195
f 150 195 151
f 150 194 193
f 151 196 243
f 151 243 197
f 151 197 198
f 151 198 199
f 151 199 152
f 151 195 196
f 152 199 155
f 153 154 198
f 153 198 200
f 154 155 198
f 155 199 198
f 156 201 157
f 157 202 203
f 157 203 159
f 157 201 202
f 159 203 161
f 160 161 204
f 160 204 205
f 160 205 206
f 160 206 177
f 161 203 207
f 161 207 208
f 161 208 204
f 162 176 163
f 163 176 166
f 163 166 165
f 163 165 164
f 167 178 209
f 167 209 170
f 168 175 210
f 168 210 211
f 168 211 212
f 168 212 213
f 168 213 214
f 168 214 215
f 168 215 216
f 168 216 217
f 168 217 169
f 169 217 218
f 169 218 219
f 169 219 220
f 169 220 221
f 169 221 222
f 169 222 179
f 170 209 223
f 170 223 171
f 171 224 173
f 171 173 172
f 171 223 224
f 173 224 225
f 173 225 174
f 174 225 226
f 174 226 227
f 174 227 228
f 174 228 175
f 175 228 210
f 177 229 178
f 177 206 229
f 178 229 209
f 179 222 230
f 179 230 180
f 180 230 231
f 180 231 232
f 180 232 233
f 180 233 181
f 181 233 234
f 181 234 183
f 181 183 182
f 183 234 235
f 183 235 184
f 184 235 236
f 184 236 185
f 185 237 186
f 185 236 237
f 186 237 187
f 187 237 238
f 187 238 188
f 188 238 189
f 189 238 191
f 189 191 190
f 191 239 192
f 191 238 240
f 191 240 193
f 191 193 239
f 192 239 193
f 193 241 195
f 193 240 238
f 193 238 241
f 195 241 242
f 195 242 196
f 196 242 243
f 197 243 244
f 197 244 245
f 197 245 246
f 197 246 198
f 198 246 247
f 198 247 200
f 201 248 202
f 202 207 203
f 202 248 249
f 202 249 250
f 202 250 251
f 202 251 252
f 202 252 253
f 202 253 207
f 204 254 255
f 204 255 205
f 204 208 254
f 205 255 206
f 206 255 229
f 207 253 256
f 207 256 208
f 208 257 254
f 208 256 258
f 208 258 259
f 208 259 257
f 209 229 260
f 209 260 261
f 209 261 223
f 210 228 262
f 210 262 263
f 210 263 211
f 211 263 264
f 211 264 212
f 212 264 214
f 212 214 213
f 214 264 215
f 215 264 265
f 215 265 266
f 215 266 267
f 215 267 268
f 215 268 216
f 216 268 217
f 217 268 269
f 217 269 270
f 217 270 218
f 218 270 220
f 218 220 219
f 220 270 221
f 221 270 271
f 221 271 272
f 221 272 222
f 222 272 230
f 223 225 224
f 223 261 273
f 223 273 274
f 223 274 225
f 225 274 275
f 225 275 226
f 226 275 276
f 226 276 277
f 226 277 227
f 227 262 228
f 227 277 262
f 229 278 260
f 229 255 279
f 229 279 280
f 229 280 278
f 230 272 231
f 231 272 281
f 231 281 232
f 232 281 282
f 232 282 283
f 232 283 233
f 233 235 234
f 233 283 284
f 233 284 235
f 235 284 285
f 235 285 286
f 235 286 236
f 236 286 287
f 236 287 237
f 237 287 288
f 237 288 289
f 237 289 238
f 238 289 290
f 238 290 241
f 241 290 291
f 241 291 242
f 242 291 292
f 242 292 293
f 242 293 243
f 243 293 244
f 244 293 294
f 244 294 295
f 244 295 296
f 244 296 297
f 244 297 298
f 244 298 299
f 244 299 300
f 244 300 301
f 244 301 245
f 254 302 279
f 254 279 255
f 254 257 302
f 257 303 304
f 257 304 305
f 257 305 302
f 257 259 303
f 259 306 304
f 259 304 303
f 260 307 261
f 260 278 280
f 260 280 307
f 261 307 273
f 262 277 308
f 262 308 309
f 262 309 263
f 263 309 310
f 263 310 265
f 263 265 264
f 265 310 266
f 266 310 311
f 266 311 312
f 266 312 313
f 266 313 314
f 266 314 267
f 267 314 315
f 267 315 268
f 268 316 269
f 268 315 317
f 268 317 318
f 268 318 316
f 269 316 319
f 269 319 271
f 269 271 270
f 271 319 320
f 271 320 272
f 272 320 321
f 272 321 281
f 273 307 322
f 273 322 323
f 273 323 274
f 274 323 275
f 275 323 276
f 276 324 277
f 276 323 325
f 276 325 326
f 276 326 324
f 277 324 308
f 279 302 327
f 279 327 280
f 280 327 328
f 280 328 323
f 280 323 322
f 280 322 307
f 281 321 329
f 281 329 282
f 282 330 283
f 282 329 331
f 282 331 332
f 282 332 330
f 283 330 284
f 284 330 285
f 285 330 333
f 285 333 334
f 285 334 286
f 286 334 335
f 286 335 287
f 287 335 336
f 287 336 337
f 287 337 338
f 287 338 339
f 287 339 290
f 287 290 288
f 288 290 289
f 290 339 340
f 290 340 291
f 291 340 341
f 291 341 292
f 292 341 342
f 292 342 343
f 292 343 293
f 293 343 294
f 302 344 327
f 302 305 345
f 302 345 344
f 304 346 345
f 304 345 305
f 304 306 347
f 304 347 348
f 304 348 349
f 304 349 350
f 304 350 351
f 304 351 352
f 304 352 353
f 304 353 354
f 304 354 346
f 308 324 355
f 308 355 356
f 308 356 309
f 309 356 311
f 309 311 310
f 311 356 357
f 311 357 358
f 311 358 359
f 311 359 312
f 312 359 313
f 313 359 401
f 313 401 360
f 313 360 314
f 314 360 361
f 314 361 362
f 314 362 315
f 315 362 365
f 315 365 317
f 316 320 319
f 316 318 363
f 316 363 364
f 316 364 320
f 317 365 366
f 317 366 318
f 318 366 367
f 318 367 368
f 318 368 363
f 320 364 369
f 320 369 321
f 321 369 370
f 321 370 329
f 323 328 325
f 324 326 371
f 324 371 372
f 324 372 355
f 325 328 373
f 325 373 374
f 325 374 375
f 325 375 376
f 325 376 326
f 326 376 377
f 326 377 378
f 326 378 371
f 327 344 379
f 327 379 328
f 328 379 373
f 329 370 380
f 329 380 381
f 329 381 331
f 330 332 382
f 330 382 337
f 330 337 333
f 331 381 383
f 331 383 384
f 331 384 385
f 331 385 332
f 332 385 386
f 332 386 387
f 332 387 388
f 332 388 382
f 333 337 334
f 334 337 335
f 335 337 336
f 337 382 389
f 337 389 338
f 338 389 390
f 338 390 340
f 338 340 339
f 340 390 341
f 341 390 391
f 341 391 392
f 341 392 342
f 342 392 393
f 344 345 379
f 345 346 379
f 346 394 395
f 346 395 379
f 346 354 396
f 346 396 394
f 355 372 397
f 355 397 357
f 355 357 356
f 357 397 398
f 357 398 399
f 357 399 400
f 357 400 358
f 358 400 401
f 358 401 359
f 360 401 402
f 360 402 403
f 360 403 404
f 360 404 361
f 361 404 405
f 361 405 362
f 362 405 409
f 362 409 365
f 363 368 406
f 363 406 364
f 364 406 407
f 364 407 408
f 364 408 369
f 365 409 366
f 366 409 410
f 366 410 411
f 366 411 367
f 367 411 412
f 367 412 413
f 367 413 368
f 368 413 406
f 369 408 370
f 370 408 414
f 370 414 380
f 371 378 415
f 371 415 372
f 372 415 416
f 372 416 397
f 373 379 395
f 373 395 374
f 374 395 417
f 374 417 375
f 375 417 418
f 375 418 376
f 376 418 419
f 376 419 377
f 377 419 420
f 377 420 421
f 377 421 378
f 378 421 422
f 378 422 415
f 380 414 423
f 380 423 424
f 380 424 425
f 380 425 381
f 381 425 383
f 382 388 426
f 382 426 389
f 383 425 427
f 383 427 384
f 384 427 428
f 384 428 429
f 384 429 385
f 385 429 430
f 385 430 431
f 385 431 386
f 386 431 387
f 387 431 432
f 387 432 433
f 387 433 388
f 388 433 426
f 389 426 434
f 389 434 390
f 390 434 435
f 390 435 391
f 391 435 392
f 392 435 436
f 392 436 437
f 392 437 438
f 392 438 439
f 392 439 440
f 392 440 441
f 392 441 442
f 392 442 393
f 394 443 444
f 394 444 445
f 394 445 446
f 394 446 395
f 394 396 447
f 394 447 448
f 394 448 449
f 394 449 450
f 394 450 443
f 395 446 417
f 397 416 451
f 397 451 398
f 398 451 452
f 398 452 453
f 398 453 399
f 399 453 454
f 399 454 455
f 399 455 456
f 399 456 400
f 400 456 402
f 400 402 401
f 402 456 457
f 402 457 458
f 402 458 459
f 402 459 403
f 403 459 460
f 403 460 461
f 403 461 404
f 404 461 405
f 405 461 462
f 405 462 463
f 405 463 466
f 405 466 409
f 406 413 407
f 407 413 464
f 407 464 408
f 408 464 465
f 408 465 473
f 408 473 414
f 409 466 467
f 409 467 410
f 410 467 468
f 410 468 411
f 411 468 469
f 411 469 412
f 412 464 413
f 412 469 470
f 412 470 471
f 412 471 472
f 412 472 464
f 414 473 423
f 415 422 416
f 416 422 451
f 417 446 445
f 417 445 418
f 418 445 419
f 419 445 444
f 419 444 420
f 420 444 474
f 420 474 475
f 420 475 421
f 421 475 422
f 422 475 443
f 422 443 476
f 422 476 477
f 422 477 452
f 422 452 451
f 423 473 478
f 423 478 479
f 423 479 480
f 423 480 424
f 424 480 481
f 424 481 482
f 424 482 428
f 424 428 425
f 425 428 427
f 426 433 483
f 426 483 436
f 426 436 435
f 426 435 434
f 428 482 429
f 429 482 430
f 430 482 484
f 430 484 485
f 430 485 431
f 431 485 486
f 431 486 432
f 432 486 433
f 433 486 483
f 436 483 484
f 436 484 437
f 437 484 487
f 443 475 474
f 443 474 444
f 443 450 488
f 443 488 489
f 443 489 490
f 443 490 476
f 452 454 453
f 464 472 491
f 464 491 492
f 464 492 465
f 465 492 473
f 473 492 478
f 478 492 493
f 478 493 479
f 481 494 482
f 482 494 495
f 482 495 496
f 482 496 497
f 482 497 484
f 483 486 484
f 484 486 485
f 484 497 498
f 484 498 487
f 491 499 492
f 492 499 500
f 492 500 493

