# https://github.com/mikedh/trimesh
v -0.01133040 -0.01580040 -0.06538739
v -0.01130636 -0.01621786 -0.06538739
v -0.01104203 -0.01580040 -0.06514512
v -0.01095792 -0.01394932 -0.06538739
v -0.01121625 -0.01767412 -0.06538739
v -0.01097955 -0.01765794 -0.06518940
v -0.01004836 -0.01765794 -0.06452693
v -0.01011084 -0.01580040 -0.06448348
v -0.00560148 -0.01480366 -0.06132566
v -0.01084858 -0.01394285 -0.06530051
v -0.00276706 0.00631866 -0.06538739
v -0.01118861 -0.01803010 -0.06538739
v -0.01105524 -0.01951549 -0.06538739
v -0.01088823 -0.01951549 -0.06525206
v -0.00872186 -0.01765794 -0.06359796
v -0.00879516 -0.01580040 -0.06355368
v -0.00995944 -0.01951549 -0.06459961
v -0.00009965 -0.01460626 -0.05756050
v 0.00094328 -0.01396550 -0.05697822
v -0.00768134 -0.01394285 -0.06303489
v -0.00991739 -0.01394285 -0.06462634
v -0.00786757 -0.01580040 -0.06290624
v -0.00560148 -0.01533763 -0.06132566
v 0.00094328 0.00631866 -0.06346597
v 0.00094328 0.00631866 -0.06538739
v 0.00094328 -0.01379722 -0.05703085
v -0.01102881 -0.01976467 -0.06538739
v -0.01083296 -0.02137627 -0.06538739
v -0.01076567 -0.02137627 -0.06533476
v -0.00779308 -0.01765794 -0.06295721
v -0.00556784 -0.01657383 -0.06134989
v -0.00983569 -0.02137627 -0.06469234
v -0.00860291 -0.01951549 -0.06366897
v -0.00009485 -0.01580040 -0.05756217
v 0.00094328 -0.01580040 -0.05685458
v 0.00094328 -0.01577774 -0.05685458
v 0.00094328 -0.02545705 -0.06538739
v -0.01081253 -0.02146689 -0.06538739
v -0.01069238 -0.02199438 -0.06538739
v -0.00961581 -0.02323382 -0.06484605
v -0.00650623 -0.01765794 -0.06207502
v -0.00457777 -0.01765794 -0.06076093
v -0.00743742 -0.02231152 -0.06320114
v -0.00845272 -0.02137627 -0.06376170
v 0.00017069 -0.01951549 -0.05774262
v 0.00005895 -0.01816278 -0.05766743
v -0.00650623 -0.01951549 -0.06224795
v -0.00321043 -0.01765794 -0.05983196
v -0.00002756 -0.01692658 -0.05760895
v 0.00094328 -0.01738287 -0.05699577
v 0.00094328 -0.02672562 -0.06538489
v 0.00092766 -0.02673209 -0.06538739
v -0.01039200 -0.02323382 -0.06538739
v -0.00940914 -0.02426292 -0.06498473
v -0.00722355 -0.02355096 -0.06334566
v 0.00094328 -0.02323382 -0.05788296
v -0.00185149 -0.02226945 -0.05949279
v 0.00094328 -0.02137627 -0.05748949
v 0.00094328 -0.01991354 -0.05727980
v 0.00094328 -0.01951549 -0.05722383
v 0.00094328 -0.01759646 -0.05701498
v -0.00076050 -0.01758998 -0.05816700
v 0.00094328 -0.02551207 -0.06040087
v -0.00092991 -0.02673533 -0.06538739
v -0.00968069 -0.02443443 -0.06538739
v -0.00836501 -0.02456712 -0.06464555
v -0.00598477 -0.02445385 -0.06293882
v -0.00380639 -0.02424026 -0.06128723
v 0.00094328 -0.02241184 -0.05770836
v -0.00037841 -0.02443120 -0.05924300
v 0.00094328 -0.02462213 -0.05865822
v -0.00633682 -0.02581950 -0.06538739
v -0.00464746 -0.02632110 -0.06538739
v -0.00279469 -0.02671592 -0.06538739
v 0.00094328 -0.02465773 -0.05871252
v -0.00930341 -0.02463831 -0.06538739
v -0.00831695 -0.02505901 -0.06538739
v -0.00768013 -0.02532761 -0.06538739
v -0.00656391 -0.02493280 -0.06403237
v -0.00451649 -0.02468361 -0.06230058
v -0.00278869 -0.02453475 -0.06096059
v -0.00097077 -0.02489073 -0.06032819
v -0.00650984 -0.02576125 -0.06538739
f 1 2 3
f 1 3 4
f 1 4 11
f 1 11 25
f 1 25 37
f 1 37 52
f 1 52 64
f 1 64 74
f 1 74 73
f 1 73 72
f 1 72 83
f 1 83 78
f 1 78 77
f 1 77 76
f 1 76 65
f 1 65 53
f 1 53 39
f 1 39 38
f 1 38 28
f 1 28 27
f 1 27 13
f 1 13 12
f 1 12 5
f 1 5 2
f 2 5 3
f 3 5 6
f 3 6 7
f 3 7 8
f 3 8 9
f 3 9 10
f 3 10 4
f 4 10 11
f 5 12 6
f 6 12 13
f 6 13 14
f 6 14 7
f 7 15 16
f 7 16 8
f 7 14 17
f 7 17 15
f 8 16 9
f 9 18 19
f 9 19 11
f 9 11 20
f 9 20 21
f 9 21 10
f 9 16 22
f 9 22 23
f 9 23 18
f 10 21 11
f 11 24 25
f 11 21 20
f 11 19 26
f 11 26 24
f 13 27 14
f 14 27 28
f 14 28 29
f 14 29 17
f 15 30 31
f 15 31 22
f 15 22 16
f 15 17 30
f 17 29 32
f 17 32 33
f 17 33 30
f 18 23 34
f 18 34 35
f 18 35 36
f 18 36 19
f 19 36 35
f 19 35 50
f 19 50 61
f 19 61 60
f 19 60 59
f 19 59 58
f 19 58 69
f 19 69 56
f 19 56 71
f 19 71 75
f 19 75 63
f 19 63 51
f 19 51 37
f 19 37 25
f 19 25 24
f 19 24 26
f 22 31 23
f 23 31 34
f 28 38 29
f 29 38 39
f 29 39 40
f 29 40 32
f 30 41 31
f 30 33 41
f 31 35 34
f 31 41 42
f 31 42 35
f 32 40 43
f 32 43 44
f 32 44 45
f 32 45 46
f 32 46 47
f 32 47 33
f 33 47 48
f 33 48 42
f 33 42 41
f 35 49 50
f 35 42 48
f 35 48 49
f 37 51 52
f 39 53 40
f 40 53 54
f 40 54 55
f 40 55 56
f 40 56 57
f 40 57 43
f 43 57 58
f 43 58 59
f 43 59 60
f 43 60 44
f 44 60 45
f 45 60 46
f 46 60 61
f 46 61 62
f 46 62 48
f 46 48 47
f 48 62 49
f 49 62 61
f 49 61 50
f 51 63 52
f 52 63 64
f 53 65 54
f 54 65 66
f 54 66 67
f 54 67 68
f 54 68 55
f 55 68 56
f 56 69 57
f 56 68 70
f 56 70 71
f 57 69 58
f 63 72 73
f 63 73 74
f 63 74 64
f 63 75 72
f 65 76 66
f 66 76 77
f 66 77 78
f 66 78 79
f 66 79 80
f 66 80 81
f 66 81 70
f 66 70 67
f 67 70 68
f 70 81 71
f 71 81 80
f 71 80 75
f 72 75 82
f 72 82 83
f 75 80 82
f 78 83 82
f 78 82 80
f 78 80 79

