# https://github.com/mikedh/trimesh
v 0.04740105 0.01604514 -0.04323484
v 0.04740105 0.01434924 -0.03629173
v 0.04887063 0.01598547 -0.04323484
v 0.04554549 0.01600431 -0.04323484
v 0.04558798 0.01432411 -0.03629173
v 0.04926016 0.01423932 -0.03629173
v 0.04926016 0.01596663 -0.04323484
v 0.04371470 0.01583472 -0.04323484
v 0.04554549 0.01432097 -0.03629173
v 0.04930265 0.01423618 -0.03629173
v 0.05044999 0.01585985 -0.04323484
v 0.04182727 0.01547042 -0.04323484
v 0.04368638 0.01395353 -0.03629173
v 0.05111927 0.01406345 -0.03629173
v 0.05106261 0.01578762 -0.04323484
v 0.04137400 0.01534480 -0.04323484
v 0.04043913 0.01318095 -0.03629173
v 0.04048516 0.01319351 -0.03629173
v 0.05297838 0.01380906 -0.03629173
v 0.05242596 0.01553009 -0.04323484
v 0.04048162 0.01509355 -0.04323484
v 0.04040726 0.01317153 -0.03629173
v 0.05302087 0.01379964 -0.03629173
v 0.05297838 0.01541703 -0.04323484
v 0.03976277 0.01482974 -0.04323484
v 0.03800281 0.01417337 -0.04323484
v 0.03910057 0.01298624 -0.03744235
v 0.03950781 0.01279152 -0.03629173
v 0.05483749 0.01338195 -0.03629173
v 0.05465335 0.01499933 -0.04323484
v 0.03660405 0.01338509 -0.04323484
v 0.03810196 0.01196870 -0.03629173
v 0.05588922 0.01306161 -0.03629173
v 0.05679575 0.01422362 -0.04323484
v 0.03692984 0.01135943 -0.03669135
v 0.03768765 0.01170803 -0.03629173
v 0.03453955 0.01192473 -0.04323484
v 0.05682054 0.01263763 -0.03629173
v 0.05686304 0.01261565 -0.03629173
v 0.05853447 0.01331914 -0.04323484
v 0.03643762 0.01069363 -0.03629173
v 0.03274419 0.01003725 -0.04323484
v 0.03576125 0.01000899 -0.03629173
v 0.05844948 0.01170803 -0.03629173
v 0.05935601 0.01107050 -0.03629173
v 0.05937372 0.01105793 -0.03629173
v 0.06035108 0.01199068 -0.04323484
v 0.03181640 0.00865540 -0.04323484
v 0.03513801 0.00952534 -0.03666757
v 0.03482993 0.00882185 -0.03629173
v 0.05939497 0.01103595 -0.03629173
v 0.06128949 0.01109562 -0.04323484
v 0.06056709 0.01178968 -0.04323484
v 0.03131356 0.00787026 -0.04323484
v 0.03463162 0.00849524 -0.03629173
v 0.06026609 0.01012833 -0.03629173
v 0.06195877 0.01036073 -0.04323484
v 0.03064074 0.00661718 -0.04323484
v 0.03455372 0.00835391 -0.03629173
v 0.06117617 0.00911707 -0.03629173
v 0.06215708 0.01013461 -0.04323484
v 0.02995729 0.00464491 -0.04323484
v 0.03359761 0.00638164 -0.03629173
v 0.03368968 0.00662974 -0.03629173
v 0.06119742 0.00909194 -0.03629173
v 0.06298216 0.00893491 -0.04323484
v 0.02951110 0.00285479 -0.04323484
v 0.03308414 0.00475797 -0.03629173
v 0.03319037 0.00511599 -0.03629173
v 0.06120804 0.00907624 -0.03629173
v 0.06340356 0.00831622 -0.04323484
v 0.02940487 0.00228949 -0.04323484
v 0.03268753 0.00278570 -0.03629173
v 0.06178171 0.00816862 -0.03629173
v 0.06363020 0.00786398 -0.04323484
v 0.02927030 0.00137873 -0.04323484
v 0.03251047 0.00092649 -0.03629173
v 0.06258556 0.00655123 -0.03629173
v 0.06428531 0.00649784 -0.04323484
v 0.02923844 0.00092649 -0.04323484
v 0.03250693 -0.00092644 -0.03629173
v 0.06260680 0.00650098 -0.03629173
v 0.06445883 0.00596709 -0.04323484
v 0.06309548 0.00516624 -0.03629173
v 0.02923844 -0.00092644 -0.04323484
v 0.03251047 -0.00097041 -0.03629173
v 0.06482711 0.00467004 -0.04323484
v 0.06333274 0.00423978 -0.03629173
v 0.06483419 0.00464491 -0.04323484
v 0.02941903 -0.00260978 -0.04323484
v 0.03268399 -0.00278565 -0.03629173
v 0.06359125 0.00282967 -0.03629173
v 0.06527329 0.00263495 -0.04323484
v 0.06507499 0.00354571 -0.04323484
v 0.02965983 -0.00356765 -0.04323484
v 0.03307352 -0.00474222 -0.03629173
v 0.03269107 -0.00282962 -0.03629173
v 0.06359833 0.00278570 -0.03629173
v 0.06540786 0.00092649 -0.04323484
v 0.06377185 0.00097046 -0.03629173
v 0.06377539 0.00092649 -0.03629173
v 0.02993604 -0.00464486 -0.04323484
v 0.03337097 -0.00583200 -0.03629173
v 0.06541140 -0.00092644 -0.04323484
v 0.06377185 -0.00092644 -0.03629173
v 0.03044597 -0.00622771 -0.04323484
v 0.03367197 -0.00666110 -0.03629173
v 0.06537599 -0.00139438 -0.04323484
v 0.06359479 -0.00278565 -0.03629173
v 0.03061949 -0.00662028 -0.04323484
v 0.03459976 -0.00850147 -0.03629173
v 0.06528392 -0.00233969 -0.04323484
v 0.06333982 -0.00421147 -0.03629173
v 0.06519539 -0.00291128 -0.04323484
v 0.03146228 -0.00826279 -0.04323484
v 0.03482285 -0.00886578 -0.03629173
v 0.06332211 -0.00428684 -0.03629173
v 0.06484127 -0.00464486 -0.04323484
v 0.03253172 -0.00975769 -0.04323484
v 0.03519113 -0.00945934 -0.03629173
v 0.06310256 -0.00518190 -0.03629173
v 0.06429594 -0.00651036 -0.04323484
v 0.03273710 -0.01003720 -0.04323484
v 0.03571522 -0.00999324 -0.03629173
v 0.03287875 -0.01022878 -0.04323484
v 0.03453601 -0.01192782 -0.04323484
v 0.06263867 -0.00646639 -0.03629173
v 0.06353813 -0.00809320 -0.04323484
v 0.06262451 -0.00650093 -0.03629173
v 0.03645178 -0.01073441 -0.03629173
v 0.03632430 -0.01326256 -0.04323484
v 0.03692276 -0.01136252 -0.03667504
v 0.06181712 -0.00815287 -0.03629173
v 0.06179233 -0.00820312 -0.03629173
v 0.06122575 -0.00912958 -0.03629173
v 0.06308132 -0.00882809 -0.04323484
v 0.03702191 -0.01128087 -0.03629173
v 0.03678465 -0.01353579 -0.04323484
v 0.03765932 -0.01169228 -0.03629173
v 0.06032983 -0.01011886 -0.03629173
v 0.06217832 -0.01015655 -0.04323484
v 0.03799927 -0.01418274 -0.04323484
v 0.03953259 -0.01277891 -0.03629173
v 0.03798865 -0.01188699 -0.03629173
v 0.06029797 -0.01015340 -0.03629173
v 0.06025901 -0.01019423 -0.03629173
v 0.06164006 -0.01071871 -0.04323484
v 0.03854815 -0.01439944 -0.04323484
v 0.04046392 -0.01317462 -0.03629173
v 0.05940559 -0.01108301 -0.03629173
v 0.06090704 -0.01145988 -0.04323484
v 0.04014167 -0.01502127 -0.04323484
v 0.04182727 -0.01547037 -0.04323484
v 0.04364388 -0.01391893 -0.03629173
v 0.05848135 -0.01172368 -0.03629173
v 0.05902314 -0.01294536 -0.04323484
v 0.06036170 -0.01200005 -0.04323484
v 0.04237261 -0.01558971 -0.04323484
v 0.04368638 -0.01392836 -0.03629173
v 0.05832554 -0.01341016 -0.04323484
v 0.05681700 -0.01265643 -0.03629173
v 0.04367929 -0.01583154 -0.04323484
v 0.04550299 -0.01430208 -0.03629173
v 0.05678159 -0.01420472 -0.04323484
v 0.05588567 -0.01305842 -0.03629173
v 0.04427421 -0.01589749 -0.04323484
v 0.04554549 -0.01599799 -0.04323484
v 0.04554549 -0.01430522 -0.03629173
v 0.05585735 -0.01306784 -0.03629173
v 0.05483749 -0.01484226 -0.04323484
v 0.04591022 -0.01600741 -0.04323484
v 0.04740105 -0.01603881 -0.04323484
v 0.04735856 -0.01432407 -0.03629173
v 0.05483749 -0.01336620 -0.03629173
v 0.05339624 -0.01526624 -0.04323484
v 0.04926016 -0.01595716 -0.04323484
v 0.04740105 -0.01432407 -0.03629173
v 0.05297838 -0.01378389 -0.03629173
v 0.05297838 -0.01538244 -0.04323484
v 0.05105907 -0.01577186 -0.04323484
v 0.05111927 -0.01403513 -0.03629173
v 0.04926016 -0.01421101 -0.03629173
v 0.04921767 -0.01421415 -0.03629173
v 0.05293589 -0.01379017 -0.03629173
v 0.05173189 -0.01563682 -0.04323484
f 1 2 3
f 1 3 7
f 1 7 11
f 1 11 15
f 1 15 20
f 1 20 24
f 1 24 30
f 1 30 34
f 1 34 40
f 1 40 47
f 1 47 53
f 1 53 52
f 1 52 57
f 1 57 61
f 1 61 66
f 1 66 71
f 1 71 75
f 1 75 79
f 1 79 83
f 1 83 87
f 1 87 89
f 1 89 94
f 1 94 93
f 1 93 99
f 1 99 104
f 1 104 108
f 1 108 112
f 1 112 114
f 1 114 118
f 1 118 122
f 1 122 128
f 1 128 136
f 1 136 141
f 1 141 147
f 1 147 151
f 1 151 157
f 1 157 156
f 1 156 160
f 1 160 164
f 1 164 170
f 1 170 175
f 1 175 179
f 1 179 185
f 1 185 180
f 1 180 176
f 1 176 172
f 1 172 171
f 1 171 167
f 1 167 166
f 1 166 162
f 1 162 158
f 1 158 153
f 1 153 152
f 1 152 148
f 1 148 142
f 1 142 138
f 1 138 131
f 1 131 126
f 1 126 125
f 1 125 123
f 1 123 119
f 1 119 115
f 1 115 110
f 1 110 106
f 1 106 102
f 1 102 95
f 1 95 90
f 1 90 85
f 1 85 80
f 1 80 76
f 1 76 72
f 1 72 67
f 1 67 62
f 1 62 58
f 1 58 54
f 1 54 48
f 1 48 42
f 1 42 37
f 1 37 31
f 1 31 26
f 1 26 25
f 1 25 21
f 1 21 16
f 1 16 12
f 1 12 8
f 1 8 4
f 1 4 5
f 1 5 2
f 2 6 7
f 2 7 3
f 2 5 9
f 2 9 13
f 2 13 18
f 2 18 17
f 2 17 22
f 2 22 28
f 2 28 32
f 2 32 36
f 2 36 41
f 2 41 43
f 2 43 50
f 2 50 55
f 2 55 59
f 2 59 64
f 2 64 63
f 2 63 69
f 2 69 68
f 2 68 73
f 2 73 77
f 2 77 81
f 2 81 86
f 2 86 91
f 2 91 97
f 2 97 96
f 2 96 103
f 2 103 107
f 2 107 111
f 2 111 116
f 2 116 120
f 2 120 124
f 2 124 130
f 2 130 137
f 2 137 139
f 2 139 144
f 2 144 143
f 2 143 149
f 2 149 154
f 2 154 159
f 2 159 163
f 2 163 168
f 2 168 173
f 2 173 177
f 2 177 183
f 2 183 182
f 2 182 181
f 2 181 184
f 2 184 178
f 2 178 174
f 2 174 169
f 2 169 165
f 2 165 161
f 2 161 155
f 2 155 150
f 2 150 146
f 2 146 145
f 2 145 140
f 2 140 135
f 2 135 134
f 2 134 133
f 2 133 129
f 2 129 127
f 2 127 121
f 2 121 117
f 2 117 113
f 2 113 109
f 2 109 105
f 2 105 101
f 2 101 100
f 2 100 98
f 2 98 92
f 2 92 88
f 2 88 84
f 2 84 82
f 2 82 78
f 2 78 74
f 2 74 70
f 2 70 65
f 2 65 60
f 2 60 56
f 2 56 51
f 2 51 46
f 2 46 45
f 2 45 44
f 2 44 39
f 2 39 38
f 2 38 33
f 2 33 29
f 2 29 23
f 2 23 19
f 2 19 14
f 2 14 10
f 2 10 6
f 4 8 9
f 4 9 5
f 6 10 7
f 7 10 11
f 8 12 9
f 9 12 13
f 10 14 11
f 11 14 15
f 12 16 17
f 12 17 18
f 12 18 13
f 14 19 15
f 15 19 20
f 16 21 17
f 17 21 22
f 19 23 24
f 19 24 20
f 21 25 22
f 22 25 26
f 22 26 27
f 22 27 28
f 23 29 24
f 24 29 30
f 26 31 27
f 27 31 32
f 27 32 28
f 29 33 30
f 30 33 34
f 31 35 36
f 31 36 32
f 31 37 35
f 33 38 34
f 34 38 39
f 34 39 40
f 35 41 36
f 35 37 41
f 37 42 43
f 37 43 41
f 39 44 40
f 40 44 45
f 40 45 46
f 40 46 47
f 42 48 49
f 42 49 43
f 43 49 50
f 46 51 52
f 46 52 53
f 46 53 47
f 48 54 50
f 48 50 49
f 50 54 55
f 51 56 52
f 52 56 57
f 54 58 59
f 54 59 55
f 56 60 57
f 57 60 61
f 58 62 63
f 58 63 64
f 58 64 59
f 60 65 61
f 61 65 66
f 62 67 68
f 62 68 69
f 62 69 63
f 65 70 71
f 65 71 66
f 67 72 73
f 67 73 68
f 70 74 71
f 71 74 75
f 72 76 73
f 73 76 77
f 74 78 75
f 75 78 79
f 76 80 77
f 77 80 81
f 78 82 79
f 79 82 84
f 79 84 83
f 80 85 81
f 81 85 86
f 83 84 87
f 84 88 89
f 84 89 87
f 85 90 91
f 85 91 86
f 88 92 93
f 88 93 94
f 88 94 89
f 90 95 96
f 90 96 97
f 90 97 91
f 92 98 93
f 93 98 100
f 93 100 101
f 93 101 99
f 95 102 96
f 96 102 103
f 99 101 104
f 101 105 104
f 102 106 103
f 103 106 107
f 104 105 108
f 105 109 108
f 106 110 107
f 107 110 111
f 108 109 112
f 109 113 114
f 109 114 112
f 110 115 111
f 111 115 116
f 113 117 118
f 113 118 114
f 115 119 120
f 115 120 116
f 117 121 118
f 118 121 122
f 119 123 120
f 120 123 125
f 120 125 126
f 120 126 124
f 121 127 122
f 122 127 129
f 122 129 128
f 124 126 130
f 126 131 132
f 126 132 130
f 128 129 133
f 128 133 134
f 128 134 135
f 128 135 136
f 130 132 137
f 131 138 139
f 131 139 132
f 132 139 137
f 135 140 141
f 135 141 136
f 138 142 143
f 138 143 144
f 138 144 139
f 140 145 141
f 141 145 146
f 141 146 147
f 142 148 149
f 142 149 143
f 146 150 147
f 147 150 151
f 148 152 149
f 149 152 153
f 149 153 154
f 150 155 156
f 150 156 157
f 150 157 151
f 153 158 159
f 153 159 154
f 155 160 156
f 155 161 160
f 158 162 163
f 158 163 159
f 160 161 164
f 161 165 164
f 162 166 163
f 163 166 167
f 163 167 168
f 164 165 169
f 164 169 170
f 167 171 168
f 168 171 172
f 168 172 173
f 169 174 175
f 169 175 170
f 172 176 177
f 172 177 173
f 174 178 179
f 174 179 175
f 176 180 181
f 176 181 182
f 176 182 183
f 176 183 177
f 178 184 180
f 178 180 185
f 178 185 179
f 180 184 181

