# https://github.com/mikedh/trimesh
v -0.01134242 0.01580189 -0.06538624
v -0.01128477 0.01542484 -0.06538624
v -0.01104647 0.01580189 -0.06513906
v -0.01097345 0.01765940 -0.06519289
v -0.01120406 0.01765940 -0.06538624
v -0.01103494 0.01395035 -0.06538624
v -0.01012019 0.01580189 -0.06448126
v -0.01004332 0.01765940 -0.06452711
v 0.00409307 0.00632388 -0.05420764
v 0.00492711 0.00632388 -0.05359170
v 0.00501936 0.00632388 -0.05352392
v -0.01103110 0.01951690 -0.06538624
v -0.01087736 0.01951690 -0.06526066
v -0.01095807 0.01383723 -0.06538624
v 0.00307455 0.00632388 -0.05513852
v -0.00879802 0.01580189 -0.06355038
v -0.00872116 0.01765940 -0.06359822
v -0.00994723 0.01951690 -0.06460086
v 0.00506932 0.00836594 -0.05356379
v 0.00502320 0.00650645 -0.05352791
v 0.01094603 0.00632388 -0.05005951
v -0.01079280 0.02137638 -0.06538624
v -0.01074668 0.02137638 -0.06535036
v -0.00991648 0.01269614 -0.06538624
v -0.00276373 0.00632388 -0.06538624
v -0.00786790 0.01580189 -0.06290055
v -0.00557333 0.01669492 -0.06134575
v -0.00860585 0.01951690 -0.06366998
v -0.00981655 0.02137638 -0.06470053
v 0.00513851 0.01022542 -0.05361163
v -0.00561561 0.01545857 -0.06131585
v 0.01101906 0.00836594 -0.05010736
v 0.01951704 0.00632388 -0.04592933
v -0.01069287 0.02179908 -0.06538624
v -0.01033542 0.02323587 -0.06538624
v 0.02792277 0.00632388 -0.06538624
v -0.00010403 0.01580189 -0.05755244
v -0.00003869 0.01699062 -0.05759829
v -0.00551183 0.01765940 -0.06138562
v 0.00522306 0.01208491 -0.05366943
v -0.00321726 0.01765940 -0.05982285
v -0.00767572 0.01951690 -0.06303810
v -0.00537731 0.01951690 -0.06147731
v -0.00754889 0.02103902 -0.06312580
v -0.00824840 0.02154507 -0.06366001
v -0.00742974 0.02227735 -0.06320753
v -0.00958210 0.02323587 -0.06486199
v 0.01109977 0.01022542 -0.05015918
v 0.01114590 0.01121172 -0.05018908
v 0.02119281 0.00632388 -0.04528150
v 0.02137729 0.00650645 -0.04521970
v 0.01951704 0.00650645 -0.04593930
v -0.01023934 0.02348195 -0.06538624
v 0.02792277 0.02573040 -0.06538624
v 0.02792277 0.00632388 -0.04503233
v 0.00092987 0.01580189 -0.05684880
v 0.00005740 0.01823093 -0.05766407
v 0.00219054 0.01580189 -0.05599167
v 0.00312067 0.01580189 -0.05536377
v 0.00551901 0.01712556 -0.05387076
v 0.00324750 0.01765940 -0.05544948
v 0.00231738 0.01765940 -0.05607738
v 0.00532299 0.01394241 -0.05373920
v -0.00307121 0.01951690 -0.05991853
v 0.00341277 0.01951690 -0.05555911
v 0.00465038 0.01951690 -0.05472789
v -0.00185282 0.02228926 -0.05948797
v 0.00357420 0.02100726 -0.05567074
v -0.00938224 0.02424400 -0.06499953
v -0.00400134 0.02323587 -0.06115240
v 0.01938252 0.00819924 -0.04612069
v 0.01971690 0.01022542 -0.04610873
v 0.01124583 0.01245006 -0.05023493
v 0.00543446 0.01580189 -0.05381296
v 0.02137729 0.00632388 -0.04521173
v 0.02137729 0.00836594 -0.04532934
v 0.02304922 0.00632388 -0.04504230
v 0.02323370 0.00836594 -0.04511605
v 0.02323370 0.01022542 -0.04521373
v -0.00965128 0.02440871 -0.06538624
v 0.02792277 0.02528785 -0.05298174
v 0.01580038 0.02646268 -0.06538624
v 0.02323370 0.00632388 -0.04502436
v 0.02792277 0.00659575 -0.04504230
v 0.00561894 0.01836588 -0.05393255
v 0.00480028 0.01771099 -0.05441295
v 0.00574578 0.01951690 -0.05400432
v 0.00447358 0.02152721 -0.05515846
v 0.00373563 0.02224758 -0.05577838
v -0.00596536 0.02444840 -0.06294441
v -0.00836371 0.02454366 -0.06466665
v -0.00379379 0.02423011 -0.06129393
v 0.00159480 0.02323587 -0.05745078
v 0.01988217 0.01208491 -0.04619245
v 0.02137729 0.01022542 -0.04545890
v 0.02137729 0.01208491 -0.04560641
v 0.01138804 0.01394241 -0.05029872
v 0.02323370 0.01208491 -0.04532934
v 0.02323370 0.00650645 -0.04503233
v -0.00829068 0.02501399 -0.06538624
v 0.02695421 0.02531762 -0.05298174
v 0.02137729 0.02504376 -0.05112196
v 0.02509396 0.02492072 -0.05112196
v 0.02792277 0.02506559 -0.05209072
v 0.01492406 0.02649245 -0.06538624
v 0.02792277 0.01394241 -0.04559047
v 0.01159174 0.01580189 -0.05038642
v 0.01181082 0.01765940 -0.05048409
v 0.00601867 0.02137638 -0.05414983
v 0.01220670 0.01956849 -0.05052994
v 0.00488099 0.02323587 -0.05531194
v -0.00450484 0.02467067 -0.06230455
v 0.00180619 0.02421026 -0.05759032
v -0.00036923 0.02442657 -0.05924678
v -0.00278679 0.02452381 -0.06096702
v -0.00655342 0.02491476 -0.06403874
v 0.02007819 0.01394241 -0.04629012
v 0.02137729 0.01394241 -0.04577385
v 0.02323370 0.01394241 -0.04546887
v -0.00651114 0.02570658 -0.06538624
v 0.02509396 0.02536922 -0.05298174
v 0.02137729 0.02436506 -0.04992397
v 0.02323370 0.02433330 -0.04993393
v 0.02509396 0.02429957 -0.04997778
v 0.01765679 0.02556965 -0.05298174
v 0.01951704 0.02507353 -0.05112196
v 0.02792277 0.02424995 -0.05005951
v 0.02695421 0.02485523 -0.05112196
v 0.02792277 0.02481951 -0.05112196
v 0.01394012 0.02651825 -0.06538624
v 0.02792277 0.01491085 -0.04567817
v 0.02028958 0.01580189 -0.04639776
v 0.00722168 0.02261869 -0.05380698
v 0.01207987 0.02137638 -0.05095053
v 0.01306765 0.02022140 -0.05021699
v 0.00656444 0.02323587 -0.05437707
v 0.00525381 0.02439085 -0.05556509
v 0.00108361 0.02464289 -0.05859895
v 0.00279013 0.02449405 -0.05727737
v -0.00096497 0.02488103 -0.06032916
v 0.02137729 0.01580189 -0.04597518
v 0.02323370 0.01580189 -0.04565226
v 0.02792277 0.01580189 -0.04575990
v -0.00464705 0.02625232 -0.06538624
v 0.00463885 0.02484134 -0.05662555
v 0.00279013 0.02524816 -0.05855509
v 0.02695421 0.02275562 -0.04788080
v 0.02509396 0.02367841 -0.04904889
v 0.02695421 0.02368437 -0.04910271
v 0.01951704 0.02436902 -0.04997978
v 0.02792277 0.02366849 -0.04912863
v -0.00092654 0.02659564 -0.06538624
v 0.01580038 0.02556370 -0.05298174
v 0.01580038 0.02486317 -0.05132329
v 0.01758760 0.02482744 -0.05096648
v 0.02041642 0.01677232 -0.04645956
v 0.01093066 0.02256907 -0.05191530
v 0.01430910 0.02103703 -0.04996184
v 0.01379022 0.02154507 -0.05032862
v 0.01394012 0.02323587 -0.05086283
v 0.01209908 0.02320809 -0.05162428
v 0.00773671 0.02385702 -0.05405614
v 0.00650679 0.02465082 -0.05526012
v 0.01272942 0.02434719 -0.05190335
v 0.01394012 0.02462701 -0.05163823
v 0.02137729 0.01721090 -0.04628215
v 0.02509396 0.01765940 -0.04607285
v 0.02310303 0.01783205 -0.04615856
v 0.02792277 0.01774671 -0.04617650
v 0.02695421 0.01765940 -0.04612268
v -0.00373229 0.02644085 -0.06538624
v 0.00650679 0.02542081 -0.05669731
v 0.02509396 0.02274768 -0.04793263
v 0.02509396 0.02137638 -0.04719908
v 0.02695421 0.02137638 -0.04717118
v 0.02792277 0.02207890 -0.04755390
v 0.02792277 0.02273974 -0.04789476
v 0.01816028 0.02429163 -0.05008144
v -0.00163758 0.02658572 -0.06538624
v 0.01394012 0.02535334 -0.05298174
v -0.00278679 0.02653809 -0.06538624
v 0.01563511 0.02154507 -0.04969872
v 0.01563511 0.02333906 -0.05036050
v 0.01692268 0.02402769 -0.05024290
v 0.02137729 0.01813965 -0.04662301
v 0.02239582 0.01856632 -0.04648348
v 0.02509396 0.01974710 -0.04667085
v 0.02363343 0.01877866 -0.04642368
v 0.02792277 0.02137638 -0.04719908
v 0.02323370 0.02260479 -0.04811602
v 0.02323370 0.02137638 -0.04749609
v 0.02310303 0.01944545 -0.04672666
v 0.02207297 0.02242619 -0.04826751
f 1 2 3
f 1 3 4
f 1 4 5
f 1 5 12
f 1 12 22
f 1 22 34
f 1 34 35
f 1 35 53
f 1 53 80
f 1 80 100
f 1 100 120
f 1 120 144
f 1 144 171
f 1 171 181
f 1 181 179
f 1 179 152
f 1 152 130
f 1 130 105
f 1 105 82
f 1 82 54
f 1 54 36
f 1 36 25
f 1 25 24
f 1 24 14
f 1 14 6
f 1 6 2
f 2 6 3
f 3 7 8
f 3 8 4
f 3 6 9
f 3 9 10
f 3 10 11
f 3 11 7
f 4 12 5
f 4 8 13
f 4 13 12
f 6 14 15
f 6 15 9
f 7 16 8
f 7 11 16
f 8 16 17
f 8 17 18
f 8 18 13
f 9 15 25
f 9 25 36
f 9 36 55
f 9 55 83
f 9 83 77
f 9 77 75
f 9 75 50
f 9 50 33
f 9 33 21
f 9 21 11
f 9 11 10
f 11 19 20
f 11 20 16
f 11 21 19
f 12 13 22
f 13 18 23
f 13 23 22
f 14 24 15
f 15 24 25
f 16 26 27
f 16 27 17
f 16 20 19
f 16 19 26
f 17 28 18
f 17 27 28
f 18 28 29
f 18 29 23
f 19 30 27
f 19 27 31
f 19 31 26
f 19 21 32
f 19 32 30
f 21 33 32
f 22 23 34
f 23 35 34
f 23 29 35
f 26 31 27
f 27 37 38
f 27 38 39
f 27 39 28
f 27 30 40
f 27 40 37
f 28 39 41
f 28 41 42
f 28 42 29
f 29 42 43
f 29 43 44
f 29 44 45
f 29 45 46
f 29 46 47
f 29 47 35
f 30 32 48
f 30 48 49
f 30 49 40
f 32 33 48
f 33 50 51
f 33 51 52
f 33 52 49
f 33 49 48
f 35 47 53
f 36 54 81
f 36 81 104
f 36 104 129
f 36 129 127
f 36 127 151
f 36 151 177
f 36 177 176
f 36 176 189
f 36 189 169
f 36 169 143
f 36 143 131
f 36 131 106
f 36 106 84
f 36 84 55
f 37 40 56
f 37 56 38
f 38 57 43
f 38 43 41
f 38 41 39
f 38 56 58
f 38 58 59
f 38 59 60
f 38 60 61
f 38 61 62
f 38 62 57
f 40 63 58
f 40 58 56
f 40 49 63
f 41 43 42
f 43 57 64
f 43 64 44
f 44 64 45
f 45 64 65
f 45 65 66
f 45 66 46
f 46 67 47
f 46 66 68
f 46 68 67
f 47 69 53
f 47 67 70
f 47 70 69
f 49 52 71
f 49 71 72
f 49 72 73
f 49 73 60
f 49 60 74
f 49 74 63
f 50 75 51
f 51 76 52
f 51 75 77
f 51 77 78
f 51 78 79
f 51 79 76
f 52 72 71
f 52 76 72
f 53 69 80
f 54 82 81
f 55 84 83
f 57 62 61
f 57 61 64
f 58 63 59
f 59 63 74
f 59 74 60
f 60 85 86
f 60 86 61
f 60 73 85
f 61 86 85
f 61 85 64
f 64 85 65
f 65 85 66
f 66 85 87
f 66 87 68
f 67 68 88
f 67 88 89
f 67 89 70
f 68 87 88
f 69 90 91
f 69 91 80
f 69 70 92
f 69 92 90
f 70 89 93
f 70 93 92
f 72 94 73
f 72 76 95
f 72 95 96
f 72 96 94
f 73 94 97
f 73 97 85
f 76 79 98
f 76 98 95
f 77 83 99
f 77 99 78
f 78 99 84
f 78 84 79
f 79 84 98
f 80 91 100
f 81 101 102
f 81 102 103
f 81 103 104
f 81 82 105
f 81 105 101
f 83 84 99
f 84 106 98
f 85 97 107
f 85 107 108
f 85 108 87
f 87 109 88
f 87 108 110
f 87 110 109
f 88 109 89
f 89 109 111
f 89 111 93
f 90 112 91
f 90 92 113
f 90 113 114
f 90 114 115
f 90 115 112
f 91 112 116
f 91 116 100
f 92 93 113
f 93 111 113
f 94 117 107
f 94 107 97
f 94 96 118
f 94 118 117
f 95 98 119
f 95 119 96
f 96 119 118
f 98 106 119
f 100 116 120
f 101 121 102
f 101 105 121
f 102 122 123
f 102 123 124
f 102 124 103
f 102 121 125
f 102 125 126
f 102 126 122
f 103 124 127
f 103 127 128
f 103 128 104
f 104 128 129
f 105 130 125
f 105 125 121
f 106 131 119
f 107 117 108
f 108 117 132
f 108 132 110
f 109 133 111
f 109 110 134
f 109 134 133
f 110 132 135
f 110 135 134
f 111 133 136
f 111 136 137
f 111 137 113
f 112 115 138
f 112 138 116
f 113 137 139
f 113 139 114
f 114 139 138
f 114 138 115
f 116 138 140
f 116 140 120
f 117 118 132
f 118 141 132
f 118 119 142
f 118 142 141
f 119 131 143
f 119 143 142
f 120 140 145
f 120 145 146
f 120 146 144
f 122 147 148
f 122 148 149
f 122 149 123
f 122 126 150
f 122 150 147
f 123 149 124
f 124 149 151
f 124 151 127
f 125 130 152
f 125 152 153
f 125 153 126
f 126 153 154
f 126 154 155
f 126 155 150
f 127 129 128
f 132 156 135
f 132 141 156
f 133 134 157
f 133 157 136
f 134 135 158
f 134 158 159
f 134 159 160
f 134 160 161
f 134 161 157
f 135 156 158
f 136 157 162
f 136 162 137
f 137 163 145
f 137 145 139
f 137 162 164
f 137 164 165
f 137 165 163
f 138 139 145
f 138 145 140
f 141 166 156
f 141 142 166
f 142 167 168
f 142 168 166
f 142 143 167
f 143 169 170
f 143 170 167
f 144 146 172
f 144 172 171
f 145 163 172
f 145 172 146
f 147 149 148
f 147 150 173
f 147 173 174
f 147 174 175
f 147 175 176
f 147 176 177
f 147 177 149
f 149 177 151
f 150 155 178
f 150 178 173
f 152 179 153
f 153 180 154
f 153 179 181
f 153 181 171
f 153 171 180
f 154 178 155
f 154 180 165
f 154 165 178
f 156 166 158
f 157 161 162
f 158 182 160
f 158 160 159
f 158 166 182
f 160 164 161
f 160 182 183
f 160 183 184
f 160 184 164
f 161 164 162
f 163 165 180
f 163 180 172
f 164 184 165
f 165 184 178
f 166 185 182
f 166 168 186
f 166 186 185
f 167 187 168
f 167 170 175
f 167 175 187
f 168 187 188
f 168 188 186
f 169 189 170
f 170 189 175
f 171 172 180
f 173 190 174
f 173 178 190
f 174 190 191
f 174 191 192
f 174 192 186
f 174 186 188
f 174 188 187
f 174 187 175
f 175 189 176
f 178 184 193
f 178 193 190
f 182 185 183
f 183 185 186
f 183 186 184
f 184 186 191
f 184 191 193
f 186 192 191
f 190 193 191

