# https://github.com/mikedh/trimesh
v 0.00094448 -0.02672830 -0.06538417
v 0.00144095 -0.02672183 -0.06538620
v 0.00279039 -0.02671860 -0.06538620
v 0.01765803 -0.02552159 -0.05298068
v 0.01579891 -0.02551189 -0.05298068
v 0.00836774 -0.02562836 -0.05669624
v 0.00650862 -0.02544718 -0.05669624
v 0.00464951 -0.02563159 -0.05855606
v 0.00094448 -0.02551189 -0.06039963
v 0.00094448 -0.02546013 -0.06538620
v 0.01394244 -0.02659566 -0.06538620
v 0.02509449 -0.02533396 -0.05298068
v 0.02137626 -0.02500074 -0.05112086
v 0.01951715 -0.02502985 -0.05112086
v 0.01579891 -0.02483574 -0.05134014
v 0.01394244 -0.02530160 -0.05298068
v 0.01394244 -0.02460282 -0.05165281
v 0.00650862 -0.02467075 -0.05523641
v 0.00463894 -0.02484868 -0.05662518
v 0.00279039 -0.02525308 -0.05855606
v 0.00094448 -0.02466105 -0.05871036
v 0.00094448 0.00632189 -0.06538620
v 0.01579891 -0.02653419 -0.06538620
v 0.02695360 -0.02528543 -0.05298068
v 0.02509449 -0.02487780 -0.05112086
v 0.02695360 -0.02424695 -0.05006304
v 0.02509449 -0.02427930 -0.05001025
v 0.02323537 -0.02431165 -0.04996761
v 0.02137626 -0.02434077 -0.04995543
v 0.01951715 -0.02434400 -0.05000416
v 0.01762634 -0.02479692 -0.05097670
v 0.01822580 -0.02427283 -0.05009553
v 0.01698463 -0.02398167 -0.05025998
v 0.01394244 -0.02323435 -0.05088128
v 0.01275144 -0.02432783 -0.05191473
v 0.00524896 -0.02439253 -0.05556330
v 0.00279039 -0.02449929 -0.05727692
v 0.00108180 -0.02464487 -0.05859463
v 0.00094448 -0.02462546 -0.05865554
v 0.00094448 0.00632189 -0.06346547
v 0.02792277 0.00632189 -0.06538620
v 0.02792277 -0.02579011 -0.06538620
v 0.02792277 -0.02525308 -0.05298068
v 0.02695360 -0.02481310 -0.05112086
v 0.02792277 -0.02449929 -0.05059905
v 0.02792277 -0.02422754 -0.05009147
v 0.02792277 -0.02392667 -0.04960824
v 0.02792277 -0.02364845 -0.04916156
v 0.02695360 -0.02366462 -0.04913313
v 0.02509449 -0.02365815 -0.04908034
v 0.02695360 -0.02273614 -0.04789664
v 0.02509449 -0.02272967 -0.04794943
v 0.02323537 -0.02258732 -0.04812404
v 0.02209719 -0.02241262 -0.04827429
v 0.02323537 -0.02137738 -0.04752306
v 0.02240881 -0.01856281 -0.04648554
v 0.01565895 -0.02331199 -0.05037978
v 0.02137626 -0.01812606 -0.04662766
v 0.02137626 -0.01719758 -0.04628656
v 0.01432535 -0.02101181 -0.04996964
v 0.01379984 -0.02152943 -0.05033714
v 0.01208333 -0.02137738 -0.05096046
v 0.01211237 -0.02319876 -0.05163657
v 0.00773659 -0.02383609 -0.05402631
v 0.00657464 -0.02322464 -0.05435929
v 0.00487661 -0.02323435 -0.05531153
v 0.00180274 -0.02421136 -0.05758960
v 0.00094448 -0.02323435 -0.05788197
v 0.00233089 0.00632189 -0.05669624
v 0.00094448 -0.01379745 -0.05702922
v 0.02792277 0.00632189 -0.04503180
v 0.02792277 -0.02477751 -0.05112086
v 0.02792277 -0.02316641 -0.04849966
v 0.02792277 -0.02271996 -0.04790679
v 0.02695360 -0.02137738 -0.04719210
v 0.02509449 -0.02137738 -0.04722662
v 0.02364734 -0.01876662 -0.04642260
v 0.02311126 -0.01782843 -0.04616271
v 0.02323537 -0.01580000 -0.04565309
v 0.02137626 -0.01580000 -0.04598201
v 0.02042558 -0.01675760 -0.04646523
v 0.01308418 -0.02017714 -0.05022141
v 0.00603064 -0.02137738 -0.05415016
v 0.00724012 -0.02259703 -0.05381922
v 0.01093986 -0.02255497 -0.05192488
v 0.01221536 -0.01953982 -0.05053409
v 0.00373315 -0.02225410 -0.05577648
v 0.00159411 -0.02323435 -0.05744950
v 0.00094448 -0.02241262 -0.05770736
v 0.00307296 0.00632189 -0.05513489
v 0.00094448 -0.01396567 -0.05697643
v 0.02323537 0.00632189 -0.04502571
v 0.02792277 0.00092568 -0.04464603
v 0.02792277 -0.02137738 -0.04721444
v 0.02509449 -0.01880868 -0.04641042
v 0.02509449 -0.01974040 -0.04668248
v 0.02509449 -0.01765697 -0.04608150
v 0.02792277 -0.01580000 -0.04576476
v 0.02323537 -0.01393979 -0.04546223
v 0.02137626 -0.01393979 -0.04577491
v 0.02029882 -0.01580000 -0.04640229
v 0.00446993 -0.02153267 -0.05515723
v 0.01036153 -0.01951717 -0.05152693
v 0.00574807 -0.01951717 -0.05401007
v 0.01182453 -0.01765697 -0.05048535
v 0.00094448 -0.02137738 -0.05748808
v 0.00305975 0.00464609 -0.05511052
v 0.00405533 0.00464609 -0.05418468
v 0.00408966 0.00632189 -0.05420904
v 0.00094448 -0.01577735 -0.05685258
v 0.02305052 0.00632189 -0.04504195
v 0.02323537 0.00464609 -0.04496682
v 0.02323537 0.00278588 -0.04491810
v 0.02323537 0.00092891 -0.04489576
v 0.02323537 -0.00093129 -0.04489576
v 0.02792277 -0.00094747 -0.04465618
v 0.02792277 -0.01774755 -0.04618098
v 0.02695360 -0.01765697 -0.04613022
v 0.02792277 -0.01668966 -0.04594952
v 0.02792277 -0.01393979 -0.04559015
v 0.02792277 -0.00749216 -0.04507037
v 0.02323537 -0.01208282 -0.04533432
v 0.02137626 -0.01022262 -0.04546630
v 0.02137626 -0.01208282 -0.04560842
v 0.02007699 -0.01393979 -0.04629265
v 0.01988157 -0.01208282 -0.04619317
v 0.00464951 -0.01951717 -0.05473491
v 0.00357735 -0.02101504 -0.05567091
v 0.01159478 -0.01580000 -0.05038587
v 0.00562396 -0.01831694 -0.05393698
v 0.00248670 -0.01951717 -0.05618662
v 0.00094448 -0.01991510 -0.05727895
v 0.00304919 0.00278588 -0.05509429
v 0.00403156 0.00278588 -0.05416641
v 0.00498489 0.00464609 -0.05349842
v 0.00495848 0.00278588 -0.05347811
v 0.00501922 0.00632189 -0.05352481
v 0.00094448 -0.01580000 -0.05685258
v 0.00401572 -0.00093129 -0.05415422
v 0.00401572 0.00092891 -0.05415626
v 0.02137626 0.00632189 -0.04521250
v 0.02137626 0.00464609 -0.04513128
v 0.02137626 0.00278588 -0.04507037
v 0.02137626 0.00092891 -0.04504601
v 0.02137626 -0.00093129 -0.04504398
v 0.02323537 -0.00279150 -0.04492216
v 0.02323537 -0.00464847 -0.04497495
v 0.02323537 -0.00650867 -0.04503992
v 0.02323537 -0.00836565 -0.04511707
v 0.02323537 -0.01022262 -0.04521859
v 0.02137626 -0.00836565 -0.04533838
v 0.01972049 -0.01022262 -0.04611195
v 0.01124620 -0.01242251 -0.05023359
v 0.01138880 -0.01393979 -0.05029653
v 0.00094448 -0.01951717 -0.05722211
v 0.00552625 -0.01707788 -0.05387403
v 0.00325781 -0.01765697 -0.05545569
v 0.01089761 0.00464609 -0.05002649
v 0.01085536 0.00278588 -0.05000010
v 0.00494527 0.00092891 -0.05346796
v 0.01083159 0.00092891 -0.04998386
v 0.01095043 0.00632189 -0.05006101
v 0.00094448 -0.01738198 -0.05699267
v 0.00219885 -0.01580000 -0.05599779
v 0.00523312 -0.01208282 -0.05367506
v 0.00514333 -0.01022262 -0.05361212
v 0.00507467 -0.00836565 -0.05356339
v 0.00502186 -0.00650867 -0.05352684
v 0.00409230 -0.00650867 -0.05421310
v 0.00406061 -0.00464847 -0.05419077
v 0.00403420 -0.00279150 -0.05417047
v 0.00496376 -0.00279150 -0.05347811
v 0.00494527 -0.00093129 -0.05346796
v 0.02119140 0.00632189 -0.04528153
v 0.01951715 0.00464609 -0.04583988
v 0.01951715 0.00278588 -0.04576882
v 0.01951715 0.00092891 -0.04573633
v 0.01951715 -0.00093129 -0.04573633
v 0.02137626 -0.00279150 -0.04507647
v 0.02137626 -0.00464847 -0.04513941
v 0.02137626 -0.00650867 -0.04522874
v 0.01951715 -0.00650867 -0.04594343
v 0.00544174 -0.01580000 -0.05381922
v 0.01115113 -0.01118345 -0.05019096
v 0.00232825 -0.01765697 -0.05608307
v 0.00094448 -0.01759874 -0.05701298
v 0.00312841 -0.01580000 -0.05537244
v 0.01208333 0.00092891 -0.04936865
v 0.01082895 -0.00093129 -0.04998386
v 0.01208333 -0.00093129 -0.04936663
v 0.01951715 0.00632189 -0.04592922
v 0.00533611 -0.01393979 -0.05374409
v 0.01110359 -0.01022262 -0.05015847
v 0.01101645 -0.00836565 -0.05010568
v 0.01094515 -0.00650867 -0.05005695
v 0.01088705 -0.00464847 -0.05002040
v 0.01084744 -0.00279150 -0.04999604
v 0.00499017 -0.00464847 -0.05349842
v 0.01951715 -0.00279150 -0.04577288
v 0.01951715 -0.00464847 -0.04584394
f 1 2 3
f 1 3 4
f 1 4 5
f 1 5 6
f 1 6 7
f 1 7 8
f 1 8 9
f 1 9 21
f 1 21 39
f 1 39 68
f 1 68 89
f 1 89 106
f 1 106 132
f 1 132 155
f 1 155 186
f 1 186 163
f 1 163 138
f 1 138 110
f 1 110 91
f 1 91 70
f 1 70 40
f 1 40 22
f 1 22 10
f 1 10 2
f 2 10 22
f 2 22 41
f 2 41 42
f 2 42 23
f 2 23 11
f 2 11 3
f 3 11 4
f 4 11 12
f 4 12 13
f 4 13 14
f 4 14 5
f 5 14 15
f 5 15 16
f 5 16 7
f 5 7 6
f 7 16 17
f 7 17 18
f 7 18 19
f 7 19 20
f 7 20 9
f 7 9 8
f 9 20 21
f 11 23 24
f 11 24 12
f 12 24 13
f 13 24 25
f 13 25 26
f 13 26 27
f 13 27 28
f 13 28 29
f 13 29 14
f 14 29 30
f 14 30 31
f 14 31 15
f 15 31 32
f 15 32 17
f 15 17 16
f 17 32 33
f 17 33 34
f 17 34 35
f 17 35 18
f 18 35 36
f 18 36 19
f 19 36 37
f 19 37 38
f 19 38 21
f 19 21 20
f 21 38 39
f 22 40 69
f 22 69 90
f 22 90 109
f 22 109 137
f 22 137 162
f 22 162 191
f 22 191 174
f 22 174 141
f 22 141 111
f 22 111 92
f 22 92 71
f 22 71 41
f 23 42 43
f 23 43 24
f 24 43 25
f 25 44 26
f 25 43 44
f 26 44 45
f 26 45 46
f 26 46 47
f 26 47 48
f 26 48 27
f 27 48 49
f 27 49 28
f 28 49 29
f 29 49 50
f 29 50 51
f 29 51 30
f 30 32 31
f 30 51 52
f 30 52 32
f 32 52 53
f 32 53 54
f 32 54 33
f 33 54 55
f 33 55 56
f 33 56 57
f 33 57 34
f 34 57 58
f 34 58 59
f 34 59 60
f 34 60 61
f 34 61 62
f 34 62 63
f 34 63 35
f 35 64 36
f 35 63 64
f 36 64 65
f 36 65 66
f 36 66 67
f 36 67 37
f 37 67 39
f 37 39 38
f 39 67 68
f 40 70 69
f 41 71 93
f 41 93 116
f 41 116 121
f 41 121 120
f 41 120 98
f 41 98 119
f 41 119 117
f 41 117 94
f 41 94 74
f 41 74 73
f 41 73 48
f 41 48 47
f 41 47 46
f 41 46 45
f 41 45 72
f 41 72 43
f 41 43 42
f 43 72 44
f 44 72 45
f 48 73 49
f 49 73 51
f 49 51 50
f 51 73 74
f 51 74 75
f 51 75 76
f 51 76 52
f 52 76 53
f 53 76 55
f 53 55 54
f 55 76 56
f 56 76 77
f 56 77 78
f 56 78 59
f 56 59 58
f 56 58 57
f 59 79 80
f 59 80 81
f 59 81 60
f 59 78 79
f 60 82 62
f 60 62 61
f 60 81 82
f 62 83 84
f 62 84 65
f 62 65 85
f 62 85 63
f 62 82 86
f 62 86 83
f 63 85 64
f 64 85 65
f 65 84 83
f 65 83 66
f 66 83 87
f 66 87 67
f 67 87 88
f 67 88 68
f 68 88 87
f 68 87 89
f 69 70 91
f 69 91 90
f 71 92 93
f 74 94 75
f 75 94 95
f 75 95 96
f 75 96 76
f 76 96 77
f 77 95 78
f 77 96 95
f 78 95 97
f 78 97 79
f 79 98 99
f 79 99 100
f 79 100 80
f 79 97 98
f 80 100 101
f 80 101 81
f 81 101 86
f 81 86 82
f 83 102 87
f 83 86 103
f 83 103 104
f 83 104 102
f 86 101 105
f 86 105 103
f 87 102 106
f 87 106 89
f 90 107 108
f 90 108 109
f 90 91 110
f 90 110 107
f 92 111 112
f 92 112 93
f 93 112 113
f 93 113 114
f 93 114 115
f 93 115 116
f 94 117 97
f 94 97 95
f 97 117 118
f 97 118 119
f 97 119 98
f 98 120 99
f 99 120 121
f 99 121 122
f 99 122 151
f 99 151 123
f 99 123 124
f 99 124 100
f 100 125 101
f 100 124 126
f 100 126 125
f 101 125 105
f 102 104 127
f 102 127 128
f 102 128 106
f 103 105 104
f 104 105 129
f 104 129 130
f 104 130 127
f 105 125 129
f 106 128 127
f 106 127 131
f 106 131 132
f 107 133 134
f 107 134 108
f 107 110 133
f 108 135 109
f 108 134 136
f 108 136 135
f 109 135 137
f 110 138 139
f 110 139 140
f 110 140 133
f 111 141 142
f 111 142 112
f 112 142 143
f 112 143 113
f 113 143 144
f 113 144 114
f 114 144 145
f 114 145 115
f 115 145 146
f 115 146 116
f 116 146 147
f 116 147 148
f 116 148 149
f 116 149 150
f 116 150 122
f 116 122 121
f 117 119 118
f 122 150 151
f 123 151 152
f 123 152 124
f 124 152 126
f 125 126 129
f 126 152 153
f 126 153 154
f 126 154 129
f 127 130 131
f 129 154 130
f 130 155 131
f 130 154 156
f 130 156 157
f 130 157 155
f 131 155 132
f 133 140 134
f 134 140 136
f 135 158 137
f 135 136 159
f 135 159 158
f 136 140 160
f 136 160 161
f 136 161 159
f 137 158 162
f 138 163 164
f 138 164 165
f 138 165 166
f 138 166 167
f 138 167 168
f 138 168 169
f 138 169 170
f 138 170 171
f 138 171 139
f 139 171 172
f 139 172 173
f 139 173 160
f 139 160 140
f 141 174 142
f 142 175 176
f 142 176 143
f 142 174 175
f 143 176 177
f 143 177 144
f 144 177 145
f 145 178 179
f 145 179 146
f 145 177 178
f 146 179 147
f 147 179 180
f 147 180 148
f 148 180 149
f 149 180 181
f 149 181 150
f 150 181 151
f 151 181 182
f 151 182 152
f 152 182 153
f 153 183 156
f 153 156 154
f 153 182 184
f 153 184 183
f 155 157 185
f 155 185 186
f 156 183 187
f 156 187 164
f 156 164 157
f 157 164 185
f 158 159 176
f 158 176 162
f 159 161 188
f 159 188 177
f 159 177 176
f 160 189 161
f 160 173 189
f 161 189 190
f 161 190 188
f 162 176 175
f 162 175 191
f 163 186 185
f 163 185 164
f 164 187 192
f 164 192 165
f 165 192 184
f 165 184 193
f 165 193 166
f 166 193 194
f 166 194 195
f 166 195 167
f 167 195 196
f 167 196 168
f 168 196 197
f 168 197 198
f 168 198 169
f 169 198 170
f 170 198 172
f 170 172 171
f 172 197 189
f 172 189 173
f 172 198 197
f 174 191 175
f 177 188 190
f 177 190 178
f 178 190 197
f 178 197 199
f 178 199 179
f 179 199 180
f 180 200 181
f 180 199 200
f 181 200 182
f 182 200 193
f 182 193 184
f 183 184 192
f 183 192 187
f 189 197 190
f 193 200 194
f 194 200 195
f 195 200 199
f 195 199 196
f 196 199 197

