# https://github.com/mikedh/trimesh
v -0.00083586 0.00076819 0.03221844
v -0.00083586 0.00092836 0.03221844
v -0.00082600 -0.00109557 0.03221844
v -0.00464171 -0.00092569 0.03370283
v -0.00082600 0.00278726 0.03221844
v -0.00464171 0.00092836 0.03370283
v -0.00080628 -0.00278459 0.03221844
v -0.00464171 -0.00278459 0.03377524
v -0.00624884 -0.00092569 0.03460191
v -0.00079642 -0.00300300 0.03221844
v -0.00062881 0.00464616 0.03221844
v -0.00623899 0.00092836 0.03460795
v -0.00464171 0.00278726 0.03378731
v -0.00364588 -0.00464349 0.03349164
v -0.00464171 -0.00464349 0.03399247
v -0.00617983 -0.00278459 0.03468036
v -0.00063867 -0.00464349 0.03221844
v -0.00925606 -0.00092569 0.03722676
v -0.00925606 0.00092836 0.03723882
v 0.00022899 0.00653418 0.03221844
v -0.00363602 0.00464616 0.03349164
v -0.00293598 0.00665552 0.03354594
v -0.00616997 0.00278726 0.03468639
v -0.00464171 0.00464616 0.03399247
v -0.00294584 -0.00665771 0.03352784
v -0.00481919 -0.00664315 0.03452347
v -0.00597277 -0.00464349 0.03489155
v -0.00807289 -0.00464349 0.03665955
v -0.00824051 -0.00278459 0.03653283
v -0.00027386 -0.00544918 0.03221844
v -0.00916732 -0.00278459 0.03739571
v -0.01184916 -0.00650240 0.04261522
v -0.01184916 -0.00601219 0.04253074
v -0.01184916 -0.00464349 0.04230145
v -0.01184916 -0.00275547 0.04199371
v -0.01184916 -0.00080435 0.04174027
v -0.01184916 -0.00068787 0.04174027
v -0.01184916 0.00079731 0.04174631
v -0.01184916 0.00093321 0.04175838
v -0.01184916 0.00283579 0.04201181
v -0.00917718 0.00278726 0.03738968
v -0.00824051 0.00278726 0.03653886
v 0.00119524 0.00768447 0.03221844
v -0.00480933 0.00663610 0.03453554
v -0.00278808 0.00836396 0.03411315
v -0.00598263 0.00464616 0.03489155
v -0.00808276 0.00464616 0.03665955
v -0.00278808 -0.00836130 0.03409505
v 0.00021913 -0.00653637 0.03221844
v 0.00137272 -0.00782256 0.03221844
v -0.00662351 -0.00842925 0.03649663
v -0.00760949 -0.00785168 0.03702763
v -0.00418816 -0.00836130 0.03489758
v -0.00783626 -0.00650240 0.03684660
v -0.01184916 -0.00882724 0.04329104
v -0.01184916 -0.00755561 0.04285055
v -0.01184916 0.00650506 0.04262125
v -0.01184916 0.00838337 0.04315226
v -0.00783626 0.00650506 0.03684660
v 0.00146145 0.00798053 0.03221844
v -0.00760949 0.00787375 0.03702763
v -0.00663338 0.00844162 0.03650266
v -0.00418816 0.00836396 0.03490965
v -0.00610095 0.00970353 0.03680437
v -0.00376420 0.00932011 0.03529584
v -0.00278808 0.00956764 0.03495793
v -0.00278808 -0.00956497 0.03495189
v -0.00608123 -0.00970087 0.03680437
v 0.00279252 -0.00839042 0.03221844
v -0.00092460 -0.00990472 0.03457778
v -0.00732356 -0.00909418 0.03726899
v -0.00958143 -0.00971058 0.04046104
v -0.01184916 -0.01014739 0.04430477
v -0.01120828 -0.00940480 0.04266349
v -0.01184916 0.01014035 0.04429271
v -0.01119843 0.00937835 0.04268160
v -0.00958143 0.00970839 0.04046104
v -0.00092460 0.00989282 0.03458984
v 0.01611299 0.01309615 0.03221844
v -0.00733341 0.00911140 0.03726296
v -0.00791514 0.00981517 0.03849995
v -0.00665309 0.01038303 0.03801722
v -0.00501638 0.01094604 0.03753450
v -0.00438536 0.01013064 0.03635784
v -0.00378392 0.01116930 0.03714831
v -0.00379378 -0.01117149 0.03714228
v -0.00438536 -0.01012798 0.03635181
v -0.00502624 -0.01094337 0.03755260
v -0.00663338 -0.01037551 0.03802929
v -0.00791514 -0.00980765 0.03851202
v 0.01610314 -0.01309349 0.03221844
v -0.01184916 -0.01590368 0.04948205
v -0.01184916 -0.01487473 0.04852262
v -0.01184916 -0.01161801 0.04553573
v -0.01184916 0.01145080 0.04538488
v -0.01184916 0.01164495 0.04555384
v -0.01184916 0.01466384 0.04832953
v -0.01184916 0.01590149 0.04949411
v 0.01952446 0.01787687 0.03811377
v 0.01634963 0.01314954 0.03221844
v -0.00720524 0.01105767 0.03927232
v -0.01184916 0.01664408 0.05027856
v -0.01184916 0.01730416 0.05099661
v -0.01184916 0.01826030 0.05218533
v -0.01184916 0.01898348 0.05315683
v -0.01184916 0.02134715 0.05654800
v -0.01184916 -0.02134448 0.05655403
v -0.01184916 -0.01906333 0.05325337
v 0.01952446 -0.01791789 0.03811377
v -0.00717566 -0.01104530 0.03929042
v -0.01184916 -0.01838868 0.05232412
v -0.01184916 -0.01732576 0.05100264
v 0.01766097 -0.01338955 0.03221844
v 0.02137808 -0.01732091 0.03674402
v 0.01952446 0.01851754 0.03923611
v 0.02137808 0.01820692 0.03811377
v 0.02137808 0.01730416 0.03675006
v 0.01766097 0.01339221 0.03221844
v -0.01184916 0.02191501 0.05855736
v 0.00360101 0.02422044 0.05933577
v 0.00465600 0.02394864 0.05821945
v 0.00703219 0.02251199 0.05347060
v -0.01184916 -0.02140273 0.05670488
v 0.01952446 -0.01853429 0.03919991
v 0.02144710 -0.01830618 0.03827669
v 0.01952446 -0.01368562 0.03221844
v 0.02324157 -0.01827220 0.03801722
v 0.02137808 -0.01390402 0.03221844
v 0.02324157 -0.01408361 0.03221844
v 0.02510506 -0.01420980 0.03221844
v 0.02695868 -0.01428745 0.03221844
v 0.02882217 -0.01434084 0.03221844
v 0.02362610 0.01861946 0.03894044
v 0.00650963 0.02357492 0.05669885
v 0.02310354 0.01831855 0.03823445
v 0.02324157 0.01732357 0.03672592
v 0.02882217 0.01436777 0.03221844
v 0.02695868 0.01430953 0.03221844
v 0.02541071 0.01421731 0.03221844
v 0.02510506 0.01419790 0.03221844
v 0.02355708 0.01409598 0.03221844
v 0.02324157 0.01407171 0.03221844
v 0.02169360 0.01394066 0.03221844
v 0.02137808 0.01390669 0.03221844
v 0.01983997 0.01373196 0.03221844
v 0.01952446 0.01369313 0.03221844
v 0.01797648 0.01344560 0.03221844
v -0.01184916 0.02222078 0.06001762
v 0.00291083 0.02436119 0.06051242
v 0.00465600 0.02423500 0.05914870
v -0.01184916 0.02265275 0.06216576
v -0.01184916 -0.02189293 0.05853322
v 0.00705191 -0.02249477 0.05351284
v 0.00465600 -0.02394597 0.05821342
v 0.00359115 -0.02422748 0.05932369
v 0.02087524 -0.01856827 0.03909733
v 0.00650963 -0.02356740 0.05669885
v 0.02324157 -0.01861195 0.03894648
v 0.02211756 -0.01859739 0.03901285
v 0.02510506 -0.01828191 0.03804136
v 0.03811003 -0.01446703 0.03221844
v 0.03996365 -0.01448160 0.03221844
v 0.02466137 0.01861946 0.03894044
v 0.02520366 0.01832340 0.03823445
v 0.04553439 0.02372538 0.05855736
v 0.02510506 0.01733813 0.03671989
v 0.03996365 0.01449397 0.03221844
v 0.03842554 0.01448426 0.03221844
v 0.00093889 0.02470579 0.06413289
v 0.00279252 0.02460387 0.06228041
v 0.05070089 0.02418161 0.06124254
v 0.05123331 0.02404571 0.06054259
v -0.01184916 0.02290513 0.06389152
v -0.01184916 -0.02266464 0.06222610
v 0.00290097 -0.02438279 0.06049431
v 0.00465600 -0.02424204 0.05914267
v 0.02510506 -0.01860709 0.03897062
v 0.04368077 -0.02375183 0.05855736
v 0.02603187 -0.01858768 0.03903699
v 0.04151163 -0.01446218 0.03221844
v 0.04181728 -0.01445733 0.03221844
v 0.04336526 -0.01437482 0.03221844
v 0.04368077 -0.01435540 0.03221844
v 0.06001832 -0.02058248 0.04995271
v 0.06598345 -0.02238314 0.05552823
v 0.04739788 0.02369625 0.05855736
v 0.06598345 0.02240036 0.05547996
v 0.05854922 0.02061912 0.04977168
v 0.05999860 0.02058514 0.04995271
v 0.04368077 0.01437263 0.03221844
v 0.04181728 0.01446970 0.03221844
v 0.00093889 0.02479801 0.06599139
v -0.01184916 0.02293425 0.06413289
v 0.05297848 0.02420587 0.06256402
v 0.05193335 0.02416219 0.06140546
v 0.05297848 0.02396320 0.06041587
v 0.05111500 0.02359918 0.05855736
v 0.04926137 0.02364772 0.05855736
v -0.01184916 -0.02294615 0.06413289
v 0.00093889 -0.02470312 0.06413289
v 0.00279252 -0.02461576 0.06228041
v 0.05122345 -0.02404790 0.06055465
v 0.05068117 -0.02417894 0.06126065
v 0.04739788 -0.02370815 0.05855736
v 0.04553439 -0.02373242 0.05855736
v 0.04522874 -0.01420009 0.03221844
v 0.06709760 -0.02235402 0.05567908
v 0.06776806 -0.02251904 0.05666265
v 0.05297848 -0.02396539 0.06041587
v 0.05111500 -0.02359652 0.05855736
v 0.04926137 -0.02365962 0.05855736
v 0.06778778 0.02253141 0.05666265
v 0.06712718 0.02236153 0.05566099
v 0.04553439 0.01416878 0.03221844
v -0.01184916 0.02298764 0.06599139
v -0.01184916 0.02288572 0.06784990
v -0.01184916 0.02261392 0.06978686
v 0.00089945 0.02448253 0.06792231
v 0.00363059 0.02418646 0.07069801
v 0.00380807 0.02418646 0.07069801
v 0.05104598 0.02410880 0.06772319
v 0.05251508 0.02417675 0.06702323
v 0.05306722 0.02421073 0.06613622
v 0.05297848 0.02425926 0.06413289
v 0.05483211 0.02418161 0.06296227
v 0.05584766 0.02416705 0.06316743
v 0.05483211 0.02411366 0.06203302
v 0.07156405 0.02298764 0.06041587
v 0.06970057 0.02278379 0.05855736
v -0.01184916 -0.02295585 0.06435615
v 0.00093889 -0.02478564 0.06599139
v 0.05191363 -0.02415953 0.06139943
v 0.05605471 -0.02417409 0.06307088
v 0.05297848 -0.02420321 0.06257608
v 0.04553439 -0.01415156 0.03221844
v 0.07259932 -0.01861680 0.05201034
v 0.07384165 -0.01844207 0.05229998
v 0.07528116 -0.01875270 0.05360939
v 0.07069639 -0.02233946 0.05758587
v 0.06970057 -0.02246565 0.05731433
v 0.06970057 -0.02277627 0.05855736
v 0.04708237 -0.01387490 0.03221844
v 0.05483211 -0.02411585 0.06197267
v 0.07156405 -0.02298012 0.06041587
v 0.06970057 0.02246831 0.05731433
v 0.07069639 0.02233727 0.05758587
v 0.07626714 0.01860490 0.05388092
v 0.07528116 0.01875051 0.05362145
v 0.07382193 0.01843018 0.05231808
v 0.07257960 0.01860976 0.05201638
v 0.04739788 0.01379991 0.03221844
v -0.01184916 0.02228873 0.07156692
v -0.01184916 0.02191986 0.07342543
v 0.00718995 0.02239066 0.07641232
v -0.01184916 0.02136171 0.07515722
v 0.04553439 0.02179853 0.07714245
v 0.04926137 0.02175970 0.07714245
v 0.05297848 0.02172087 0.07714245
v 0.05483211 0.02169660 0.07714245
v 0.05111500 0.02382245 0.06970841
v 0.05306722 0.02408454 0.06772319
v 0.05375740 0.02416219 0.06684824
v 0.05483211 0.02419617 0.06567159
v 0.05624205 0.02417675 0.06532764
v 0.05618289 0.02417675 0.06413289
v 0.05710970 0.02414763 0.06413289
v 0.07342754 0.02306530 0.06228041
v 0.05655756 0.02406512 0.06244334
v 0.07339796 0.02272070 0.06040380
v 0.07141615 0.02257509 0.05861771
v -0.01184916 -0.02298983 0.06599139
v 0.00379821 -0.02417894 0.07068594
v 0.00364045 -0.02417894 0.07068594
v 0.00090931 -0.02447501 0.06791628
v -0.01184916 -0.02262096 0.06974462
v -0.01184916 -0.02286364 0.06804299
v -0.01184916 -0.02288305 0.06784990
v -0.01184916 -0.02298498 0.06621466
v 0.05297848 -0.02425175 0.06413289
v 0.05306722 -0.02420807 0.06612414
v 0.05251508 -0.02417409 0.06701719
v 0.05667588 -0.02407217 0.06238903
v 0.07342754 -0.02303837 0.06228041
v 0.05719844 -0.02414982 0.06413289
v 0.05626177 -0.02417894 0.06413289
v 0.07515298 -0.01718986 0.05108109
v 0.07528116 -0.01821396 0.05268013
v 0.07626714 -0.01860709 0.05388092
v 0.04742746 -0.01377298 0.03221844
v 0.04892613 -0.01330219 0.03221844
v 0.07278665 -0.02247050 0.05926335
v 0.07141615 -0.02258213 0.05861167
v 0.07843627 -0.01871387 0.05551617
v 0.07340782 -0.02271318 0.06040380
v 0.07275708 0.02245861 0.05927542
v 0.07843627 0.01871654 0.05550410
v 0.07749960 0.01840106 0.05426710
v 0.07698689 0.01792541 0.05315079
v 0.07528116 0.01820692 0.05269220
v 0.08179843 0.01673144 0.05390506
v 0.04914305 0.01322720 0.03221844
v 0.07714465 0.01696927 0.05171467
v -0.01184916 0.02129376 0.07533824
v 0.00837312 0.02193928 0.07731743
v 0.04181728 0.02182765 0.07714245
v 0.04368077 0.02181309 0.07714245
v 0.01766097 0.02110447 0.07871132
v 0.02882217 0.02104623 0.07865097
v 0.03253929 0.02102196 0.07862684
v 0.03811003 0.02098313 0.07859063
v 0.04368077 0.02094431 0.07854839
v 0.04553439 0.01516375 0.08761767
v 0.05669559 0.02166748 0.07714245
v 0.05854922 0.02162865 0.07714245
v 0.06041271 0.02158497 0.07714245
v 0.06412982 0.02149275 0.07714245
v 0.06598345 0.02143451 0.07714245
v 0.06970057 0.02174514 0.07528394
v 0.05297848 0.02374964 0.06970841
v 0.05483211 0.02400203 0.06784990
v 0.05483211 0.02414763 0.06660084
v 0.05679419 0.02412337 0.06596123
v 0.07528116 0.02299735 0.06413289
v 0.07534032 0.02274982 0.06222610
v 0.07474874 0.02253141 0.06101325
v 0.00719981 -0.02239285 0.07641232
v 0.05107556 -0.02409643 0.06772319
v 0.05111500 -0.02379552 0.06970841
v 0.04739788 -0.02332472 0.07156692
v 0.05483211 -0.02164055 0.07714245
v 0.05297848 -0.02166482 0.07714245
v 0.05111500 -0.02168908 0.07714245
v 0.04739788 -0.02173277 0.07714245
v 0.00150089 -0.02429543 0.06910500
v -0.01184916 -0.02130080 0.07535635
v -0.01184916 -0.02191720 0.07350991
v -0.01184916 -0.02223753 0.07211603
v -0.01184916 -0.02241711 0.07100575
v 0.05614345 -0.02417409 0.06525523
v 0.05374754 -0.02415953 0.06683014
v 0.05306722 -0.02407217 0.06772319
v 0.07533047 -0.02272774 0.06223214
v 0.07528116 -0.02297042 0.06413289
v 0.05673503 -0.02411100 0.06591898
v 0.07714465 -0.01695689 0.05173277
v 0.07817006 -0.01676761 0.05199828
v 0.07698689 -0.01791304 0.05315079
v 0.08171956 -0.01670451 0.05395333
v 0.07750946 -0.01839354 0.05427917
v 0.04913319 -0.01322939 0.03221844
v 0.07473888 -0.02251904 0.06101325
v 0.07966874 -0.01849546 0.05598682
v 0.08095050 -0.01831588 0.05664455
v 0.08099980 -0.01734518 0.05467742
v 0.08271539 -0.01700543 0.05524463
v 0.08098994 0.01833796 0.05664455
v 0.08253792 0.01697412 0.05493086
v 0.08086176 0.01752742 0.05484035
v 0.07820950 0.01677998 0.05198017
v 0.08371122 0.01680910 0.05560668
v 0.08354361 0.01478518 0.05217327
v 0.08231115 0.01507154 0.05180518
v 0.04990225 0.01292628 0.03221844
v -0.01184916 0.01903687 0.07874149
v 0.00837312 0.01509095 0.08772025
v 0.01022674 0.02113359 0.07874149
v 0.01209023 0.02112874 0.07874149
v 0.04553439 0.01394066 0.08817885
v 0.04660910 0.01500359 0.08749096
v 0.06893150 0.02054146 0.07815618
v 0.06784694 0.02063368 0.07824669
v 0.06598345 0.02069192 0.07830100
v 0.01022674 0.01509580 0.08771422
v 0.00601664 0.01313983 0.08931929
v 0.01766097 0.00584498 0.09309062
v 0.06784694 0.02133259 0.07714245
v 0.06961183 0.02092974 0.07713038
v 0.07342754 0.02207032 0.07212206
v 0.07446281 0.02236153 0.07077041
v 0.07342754 0.02241978 0.07119281
v 0.07528116 0.02276923 0.06784990
v 0.07698689 0.02265760 0.06599139
v 0.07687844 0.02265760 0.06413289
v 0.07653335 0.02252170 0.06281141
v 0.08168998 0.01855637 0.05771258
v 0.00837312 -0.02193661 0.07729933
v -0.01184916 -0.02126197 0.07544686
v 0.04553439 -0.02174733 0.07714245
v 0.05483211 -0.02398480 0.06784990
v 0.05297848 -0.02372271 0.06970841
v 0.06970057 -0.02170364 0.07528394
v 0.06598345 -0.02137846 0.07714245
v 0.06412982 -0.02143670 0.07714245
v 0.06041271 -0.02153377 0.07714245
v 0.05854922 -0.02157745 0.07714245
v 0.05669559 -0.02161143 0.07714245
v 0.04926137 -0.02087369 0.07848805
v 0.04553439 -0.02090767 0.07852426
v 0.04368077 -0.02092223 0.07854236
v 0.04181728 -0.02093679 0.07856046
v 0.03811003 -0.02096591 0.07859063
v 0.03439291 -0.02099503 0.07862080
v 0.03253929 -0.02100959 0.07863287
v 0.02510506 -0.02106298 0.07868718
v 0.02137808 -0.02108725 0.07870528
v 0.05483211 -0.02414497 0.06653446
v 0.07652349 -0.02250933 0.06282349
v 0.07687844 -0.02264523 0.06413289
v 0.07694746 -0.02264523 0.06599139
v 0.07528116 -0.02272774 0.06784990
v 0.08226184 -0.01503975 0.05184742
v 0.08350417 -0.01475825 0.05220947
v 0.08370136 -0.01679188 0.05564892
v 0.04990225 -0.01291876 0.03221844
v 0.08163082 -0.01852944 0.05778499
v 0.08355347 0.01852239 0.05972798
v 0.08570288 0.01512493 0.05855736
v 0.08554513 0.01492108 0.05752553
v 0.08573247 0.01335824 0.05526273
v 0.08364220 0.01300393 0.05020011
v 0.08545639 0.01292142 0.05401971
v 0.05004029 0.01285833 0.03221844
v -0.01184916 0.01839620 0.07967074
v 0.00686458 0.01501329 0.08759957
v 0.00532646 0.01313983 0.08931929
v 0.04739788 0.01092177 0.08918654
v 0.04926137 0.00982487 0.08936757
v 0.01917937 0.00575276 0.09303631
v 0.08086176 0.00887843 0.08346620
v 0.08086176 0.01022286 0.08278435
v 0.08086176 0.01152361 0.08203611
v 0.07797287 0.01297967 0.08177061
v 0.07899828 0.01405715 0.08060603
v 0.08086176 0.01360092 0.08044311
v 0.07960958 0.01475606 0.07981556
v 0.08086176 0.01452794 0.07958626
v 0.08234072 0.01510066 0.07834927
v 0.08187731 0.01675571 0.07625543
v 0.01394386 0.00585469 0.09310269
v 0.01580734 0.00584983 0.09309665
v 0.01394386 0.00464616 0.09338026
v 0.01766097 0.00464616 0.09336215
v 0.07630657 0.02237124 0.06890588
v 0.07516285 0.02249743 0.06959980
v 0.08258722 0.01700324 0.07521153
v 0.08372108 0.01681395 0.07454174
v 0.08271539 0.01772156 0.07342543
v 0.07663195 0.02251685 0.06784990
v 0.07791371 0.02221108 0.06599139
v 0.08377038 0.01873110 0.06228041
v 0.08371122 0.01865344 0.06096497
v 0.08231115 0.01876507 0.05895561
v 0.01766097 -0.02110181 0.07872942
v 0.01394386 -0.02111637 0.07874752
v 0.01209023 -0.02112122 0.07875355
v 0.01022674 -0.02112608 0.07875355
v 0.00695332 -0.01497666 0.08755130
v -0.01184916 -0.01904391 0.07875355
v 0.07342754 -0.02240255 0.07110229
v 0.07442337 -0.02234431 0.07072214
v 0.06960196 -0.02089311 0.07713038
v 0.06784694 -0.02127168 0.07714245
v 0.06598345 -0.02066499 0.07828289
v 0.06784694 -0.02060675 0.07822859
v 0.06226634 -0.02072323 0.07833720
v 0.06412982 -0.02069411 0.07831306
v 0.04553439 -0.01512226 0.08758750
v 0.08228156 -0.01874785 0.05902803
v 0.08352389 -0.01851488 0.05976418
v 0.08370136 -0.01864592 0.06100721
v 0.08376052 -0.01872358 0.06228041
v 0.07788413 -0.02218900 0.06599139
v 0.07658264 -0.02249962 0.06784990
v 0.07514313 -0.02247050 0.06957566
v 0.08294217 -0.01401566 0.05103885
v 0.04996141 -0.01289449 0.03221844
v 0.08361263 -0.01297215 0.05023028
v 0.08542682 -0.01288964 0.05406194
v 0.08573247 -0.01334102 0.05529894
v 0.08552541 -0.01488929 0.05759191
v 0.08567331 -0.01508829 0.05855736
v 0.08590008 0.01542099 0.06041587
v 0.08619587 0.01394066 0.05855736
v 0.08586064 0.01396008 0.05682557
v 0.08600854 0.01221281 0.05471966
v 0.08578176 0.01168377 0.05334992
v 0.08547611 0.01109164 0.05210689
v 0.08576205 0.00985399 0.05163019
v 0.08377038 0.00969868 0.04813644
v 0.08345487 0.01094118 0.04848039
v 0.05240662 0.01138771 0.03221844
v -0.01184916 0.01738182 0.08094997
v -0.01184916 0.01590149 0.08256712
v -0.01184916 0.01577530 0.08268780
v -0.01184916 0.01412995 0.08413599
v -0.01184916 0.01400376 0.08423857
v -0.01184916 0.01261080 0.08525230
v 0.00279252 0.01161582 0.08972358
v 0.00292069 0.01004328 0.09073128
v 0.04926137 0.00836396 0.08960290
v 0.05025720 0.00944630 0.08928912
v 0.08086176 0.00650506 0.08437132
v 0.08212381 0.00764564 0.08373774
v 0.08086176 0.00795141 0.08386445
v 0.01969207 0.00482089 0.09320527
v 0.01952446 0.00278726 0.09359145
v 0.08209423 0.01129064 0.08188526
v 0.07899828 0.01279038 0.08163183
v 0.08086176 0.01245063 0.08137236
v 0.08237030 0.01329514 0.08018364
v 0.08297174 0.01404744 0.07912164
v 0.08357319 0.01480459 0.07798119
v 0.08311964 0.01641596 0.07578477
v 0.01209023 0.00578188 0.09306649
v 0.01209023 0.00464616 0.09335612
v 0.01209023 0.00278726 0.09363972
v 0.01766097 0.00278726 0.09361559
v 0.08171956 0.01856608 0.07242980
v 0.08286329 0.01835252 0.07171174
v 0.08357319 0.01854181 0.07043250
v 0.08575218 0.01339221 0.07490379
v 0.08533808 0.01462986 0.07390816
v 0.08557471 0.01495020 0.07267116
v 0.08573247 0.01516375 0.07156692
v 0.08370136 0.01864859 0.06918948
v 0.08377038 0.01873110 0.06784990
v 0.08271539 0.01943000 0.06599139
v 0.08271539 0.01942515 0.06413289
v 0.08380982 0.01878449 0.06413289
v 0.08467748 0.01765847 0.06413289
v 0.08544653 0.01664408 0.06413289
v 0.08454930 0.01765847 0.06228041
v 0.08535780 0.01654215 0.06228041
v 0.01022674 -0.01503490 0.08764181
v 0.00837312 -0.01503004 0.08764181
v 0.00537576 -0.01310805 0.08930119
v -0.01184916 -0.01670451 0.08177061
v -0.01184916 -0.01731120 0.08106462
v -0.01184916 -0.01739371 0.08096204
v -0.01184916 -0.01829647 0.07982763
v -0.01184916 -0.01840810 0.07968281
v 0.07628686 -0.02235887 0.06886967
v 0.08371122 -0.01681129 0.07453571
v 0.08257736 -0.01699572 0.07520549
v 0.08185760 -0.01674819 0.07624336
v 0.06892164 -0.02052424 0.07815014
v 0.07795315 -0.01297215 0.08176458
v 0.04656966 -0.01497180 0.08746079
v 0.04553439 -0.01393800 0.08814264
v 0.01766097 -0.00582776 0.09309062
v 0.00596735 -0.01310805 0.08930119
v 0.08589022 -0.01540377 0.06041587
v 0.08534794 -0.01652978 0.06228041
v 0.08453944 -0.01765580 0.06228041
v 0.08543667 -0.01663171 0.06413289
v 0.08467748 -0.01765580 0.06413289
v 0.08380982 -0.01878667 0.06413289
v 0.08271539 -0.01940307 0.06413289
v 0.08381968 -0.01878667 0.06599139
v 0.08377038 -0.01873329 0.06784990
v 0.08371122 -0.01865563 0.06915931
v 0.08354361 -0.01852458 0.07040234
v 0.05002056 -0.01286052 0.03221844
v 0.08340558 -0.01089969 0.04852262
v 0.08377038 -0.00965719 0.04814247
v 0.08539724 -0.00903594 0.05035700
v 0.08577190 -0.00985133 0.05160002
v 0.08547611 -0.01108898 0.05211292
v 0.08578176 -0.01164713 0.05334992
v 0.05228830 -0.01149182 0.03221844
v 0.08600854 -0.01219558 0.05474380
v 0.08585078 -0.01395256 0.05686177
v 0.08597896 0.01561028 0.06228041
v 0.08641279 0.01394066 0.06041587
v 0.08754665 0.00983458 0.06041587
v 0.08643251 0.01208176 0.05669885
v 0.08602826 0.01037332 0.05283098
v 0.08651139 0.01022286 0.05484035
v 0.08594938 0.00836881 0.05105695
v 0.08564373 0.00775727 0.04999495
v 0.08362249 0.00738840 0.04649516
v 0.05306722 0.01083926 0.03221844
v -0.01184916 0.01179055 0.08575313
v 0.00238827 0.00913082 0.09106919
v 0.00363059 0.00930069 0.09108729
v -0.01184916 0.01167892 0.08581951
v 0.04926137 0.00650506 0.08977789
v 0.08086176 0.00278726 0.08520403
v 0.01952446 0.00092836 0.09381471
v 0.08086176 0.00464616 0.08487215
v 0.08273511 0.00648079 0.08392479
v 0.08335627 0.00708748 0.08350241
v 0.08273511 0.00830572 0.08318260
v 0.08271539 0.01024228 0.08221110
v 0.08333656 0.01087323 0.08159562
v 0.08285343 0.01212544 0.08088963
v 0.08360277 0.01296510 0.07989400
v 0.08550569 0.01114989 0.07807170
v 0.08581134 0.01171289 0.07683471
v 0.08546625 0.01295540 0.07614078
v 0.01105496 0.00566540 0.09300615
v 0.01209023 0.00092836 0.09385695
v 0.01580734 0.00092836 0.09384488
v 0.00180654 0.00789317 0.09112350
v 0.01766097 0.00092836 0.09383281
v 0.08591980 0.01545011 0.06970841
v 0.08603812 0.01223222 0.07542876
v 0.08590008 0.01398435 0.07334095
v 0.08624517 0.01394066 0.07156692
v 0.08536765 0.01655672 0.06784990
v 0.08456902 0.01765847 0.06784990
v 0.08380982 0.01878934 0.06599139
v 0.08544653 0.01664893 0.06599139
v 0.08468734 0.01765847 0.06599139
v 0.08599868 0.01571706 0.06413289
v 0.01394386 -0.00583746 0.09309665
v 0.00354185 -0.00931259 0.09109332
v 0.00287139 -0.01005032 0.09070714
v 0.00279252 -0.01159860 0.08969944
v -0.01184916 -0.01262755 0.08525833
v -0.01184916 -0.01402536 0.08425064
v -0.01184916 -0.01482134 0.08361102
v -0.01184916 -0.01578719 0.08271194
v 0.08284357 -0.01833530 0.07169363
v 0.08271539 -0.01770434 0.07342543
v 0.08357319 -0.01480193 0.07798119
v 0.08309992 -0.01641815 0.07577270
v 0.08572261 -0.01516109 0.07156692
v 0.08557471 -0.01495239 0.07266513
v 0.08533808 -0.01463691 0.07390212
v 0.08576205 -0.01339926 0.07492189
v 0.08233086 -0.01509314 0.07833720
v 0.08086176 -0.01451557 0.07957419
v 0.07958986 -0.01474369 0.07980953
v 0.08086176 -0.01358855 0.08044311
v 0.07835740 -0.01496695 0.08002675
v 0.07898842 -0.01404963 0.08059999
v 0.08086176 -0.01245282 0.08137236
v 0.08210409 -0.01129768 0.08189130
v 0.08086176 -0.01152094 0.08203611
v 0.04926137 -0.00978823 0.08936153
v 0.08086176 -0.01022020 0.08278435
v 0.08086176 -0.00888548 0.08346620
v 0.04739788 -0.01088998 0.08918051
v 0.01908077 -0.00574039 0.09303631
v 0.01766097 -0.00464349 0.09335612
v 0.01580734 -0.00464349 0.09336819
v 0.01394386 -0.00464349 0.09338026
v 0.01580734 -0.00583261 0.09309665
v 0.08616629 -0.01393800 0.05855736
v 0.08640293 -0.01393800 0.06041587
v 0.08596910 -0.01560276 0.06228041
v 0.08543667 -0.01663171 0.06599139
v 0.08598882 -0.01569983 0.06413289
v 0.08598882 -0.01570468 0.06599139
v 0.08467748 -0.01765580 0.06599139
v 0.08455916 -0.01765580 0.06784990
v 0.08536765 -0.01653949 0.06784990
v 0.08590008 -0.01543289 0.06970841
v 0.08361263 -0.00736147 0.04650723
v 0.05242634 -0.01139475 0.03221844
v 0.08565359 -0.00779829 0.04998891
v 0.08594938 -0.00839527 0.05103885
v 0.08603812 -0.01037066 0.05283098
v 0.08652124 -0.01022020 0.05484035
v 0.08644237 -0.01207910 0.05669885
v 0.08655082 0.01394066 0.06228041
v 0.08739876 0.01122754 0.06290193
v 0.08760581 0.01034905 0.06228041
v 0.08787202 0.00836396 0.06041587
v 0.08760581 0.00844647 0.05852719
v 0.08743820 0.00949483 0.05912457
v 0.08748750 0.00787861 0.05716348
v 0.08649166 0.00836396 0.05298183
v 0.08584092 0.00650506 0.04969324
v 0.08634377 0.00650506 0.05112333
v 0.08539724 0.00501988 0.04848039
v 0.08376052 0.00615075 0.04632621
v 0.08262665 0.00278240 0.04499267
v 0.08271539 0.00464616 0.04542109
v 0.05611387 0.00651962 0.03221844
v 0.05512790 0.00838823 0.03221844
v 0.05435884 0.00952881 0.03221844
v -0.01184916 0.01037817 0.08650740
v -0.01184916 0.01022286 0.08658584
v -0.01184916 0.00906772 0.08711684
v -0.01184916 0.00887358 0.08720132
v -0.01184916 0.00805819 0.08751509
v -0.01184916 0.00794656 0.08755733
v -0.01184916 0.00650506 0.08801593
v -0.01184916 0.00464616 0.08847452
v -0.01184916 0.00301052 0.08874605
v -0.01184916 0.00278726 0.08878226
v 0.04279339 0.00026828 0.09111143
v 0.04926137 0.00464616 0.08992271
v 0.08071387 0.00084099 0.08539712
v 0.08271539 0.00092836 0.08485405
v 0.08271539 0.00278726 0.08467302
v 0.08271539 0.00464616 0.08437735
v 0.01952446 -0.00092569 0.09381471
v 0.08371122 0.00584983 0.08372567
v 0.08376052 0.00963558 0.08195164
v 0.08415491 0.01024228 0.08092584
v 0.08579162 0.00991224 0.07853633
v 0.08606770 0.01040730 0.07732950
v 0.01209023 -0.00092569 0.09386298
v 0.00279252 0.00092836 0.09199844
v 0.01766097 -0.00092569 0.09383281
v 0.08646208 0.01394066 0.06970841
v 0.08598882 0.01562969 0.06784990
v 0.08659026 0.01022286 0.07528394
v 0.08651139 0.01208176 0.07342543
v 0.08758609 0.00998989 0.06970841
v 0.08599868 0.01572191 0.06599139
v 0.08660012 0.01394066 0.06413289
v 0.01209023 -0.00464349 0.09335008
v 0.01209023 -0.00576951 0.09306649
v 0.00230939 -0.00911359 0.09106919
v -0.01184916 -0.01170052 0.08583761
v -0.01184916 -0.01251592 0.08533074
v 0.08360277 -0.01296244 0.07989400
v 0.08297174 -0.01404478 0.07911560
v 0.08547611 -0.01296729 0.07615888
v 0.08574232 -0.01158889 0.07714245
v 0.08550569 -0.01115208 0.07807773
v 0.08622545 -0.01393800 0.07156692
v 0.08590008 -0.01398654 0.07334095
v 0.08604797 -0.01224412 0.07544082
v 0.08237030 -0.01328277 0.08018364
v 0.08333656 -0.01087542 0.08158959
v 0.08271539 -0.01023961 0.08221714
v 0.08213367 -0.00765268 0.08374377
v 0.08086176 -0.00650240 0.08437735
v 0.08086176 -0.00464349 0.08487818
v 0.05024734 -0.00941937 0.08927706
v 0.04926137 -0.00836130 0.08959083
v 0.01952446 -0.00278459 0.09359748
v 0.01963291 -0.00478425 0.09321131
v 0.01209023 -0.00278459 0.09363972
v 0.01766097 -0.00278459 0.09360955
v 0.08754665 -0.00981735 0.06041587
v 0.08653110 -0.01393800 0.06228041
v 0.08760581 -0.01034154 0.06231059
v 0.08659026 -0.01393800 0.06413289
v 0.08596910 -0.01560761 0.06784990
v 0.08659026 -0.01393800 0.06599139
v 0.08655082 -0.01393800 0.06784990
v 0.08643251 -0.01393800 0.06970841
v 0.08271539 -0.00464349 0.04542109
v 0.08263651 -0.00280401 0.04499267
v 0.08375066 -0.00611897 0.04633224
v 0.08539724 -0.00503178 0.04848039
v 0.08585078 -0.00650240 0.04968117
v 0.05334329 -0.01055994 0.03221844
v 0.05417151 -0.00978338 0.03221844
v 0.05434898 -0.00952129 0.03221844
v 0.05512790 -0.00834188 0.03221844
v 0.05608429 -0.00651210 0.03221844
v 0.08634377 -0.00650240 0.05112333
v 0.08648181 -0.00836130 0.05298183
v 0.08762553 -0.00658005 0.05661438
v 0.08747764 -0.00786138 0.05717555
v 0.08759595 -0.00843410 0.05853322
v 0.08743820 -0.00948246 0.05913664
v 0.08741848 0.01129064 0.06413289
v 0.08772413 0.01022286 0.06413289
v 0.08800020 0.00836396 0.06228041
v 0.08876926 0.00278726 0.06413289
v 0.08795090 0.00650506 0.05855736
v 0.08762553 0.00657786 0.05660834
v 0.08745792 0.00600515 0.05547392
v 0.08590008 0.00449570 0.04916827
v 0.08753679 0.00447628 0.05485241
v 0.08772413 0.00278726 0.05484035
v 0.08653110 0.00464616 0.05112333
v 0.08610714 0.00278726 0.04926482
v 0.08551555 0.00377738 0.04831746
v 0.08398729 0.00278726 0.04597623
v 0.08304076 0.00092836 0.04490819
v 0.08560429 0.00278726 0.04819678
v 0.05664630 0.00481603 0.03221844
v -0.01184916 0.00115162 0.08892708
v 0.04279339 -0.00025105 0.09111143
v 0.07999411 0.00016635 0.08551780
v 0.04926137 0.00092836 0.09011580
v 0.04926137 0.00278726 0.09003132
v 0.08071387 -0.00085289 0.08540315
v 0.08271539 -0.00092569 0.08484801
v 0.08393800 0.00092836 0.08403944
v 0.08388870 0.00278726 0.08396100
v 0.08379996 0.00464616 0.08382825
v 0.04926137 -0.00650240 0.08977185
v 0.08552541 0.00379194 0.08181285
v 0.08538738 0.00502959 0.08163786
v 0.08585078 0.00650506 0.08043707
v 0.08416477 0.00648079 0.08282055
v 0.08395772 0.00836396 0.08226541
v 0.08566345 0.00780095 0.08013537
v 0.08539724 0.00903860 0.07977332
v 0.08597896 0.00839794 0.07909147
v 0.08657054 0.00836396 0.07714245
v 0.00279252 -0.00092569 0.09199844
v 0.00180654 -0.00787109 0.09112350
v -0.01184916 0.00092836 0.08894518
v 0.08657054 0.01394066 0.06784990
v 0.08735932 0.01114018 0.06873089
v 0.08737904 0.00748062 0.07439692
v 0.08747764 0.00820379 0.07326251
v 0.08737904 0.00932496 0.07253841
v 0.08745792 0.00955307 0.07156692
v 0.08774385 0.00836396 0.07156692
v 0.08793118 0.00836396 0.06970841
v 0.08761567 0.01040244 0.06800679
v 0.08660012 0.01394066 0.06599139
v 0.08742834 0.01129549 0.06599139
v 0.01105496 -0.00565788 0.09300011
v -0.01184916 -0.00278459 0.08879433
v -0.01184916 -0.00464349 0.08848659
v -0.01184916 -0.00650240 0.08803403
v -0.01184916 -0.00782256 0.08761767
v -0.01184916 -0.00797301 0.08756940
v -0.01184916 -0.00890004 0.08721339
v -0.01184916 -0.01003576 0.08669445
v -0.01184916 -0.01022020 0.08660998
v 0.08386898 -0.01172479 0.08035260
v 0.08377038 -0.00963292 0.08195767
v 0.08572261 -0.01022020 0.07842771
v 0.08540709 -0.00905050 0.07978539
v 0.08621559 -0.01022020 0.07714245
v 0.08758609 -0.00997752 0.06970841
v 0.08651139 -0.01207910 0.07342543
v 0.08337599 -0.00706540 0.08350844
v 0.08273511 -0.00830791 0.08318863
v 0.08273511 -0.00646842 0.08392479
v 0.08271539 -0.00464349 0.08438339
v 0.08086176 -0.00278459 0.08521609
v 0.08787202 -0.00836130 0.06041587
v 0.08738890 -0.01121517 0.06295020
v 0.08741848 -0.01128797 0.06413289
v 0.08801006 -0.00836130 0.06228041
v 0.08772413 -0.01022020 0.06413289
v 0.08742834 -0.01131224 0.06599139
v 0.08740862 -0.01124915 0.06744562
v 0.08735932 -0.01112781 0.06868864
v 0.05629135 -0.00604616 0.03221844
v 0.08305062 -0.00092569 0.04492025
v 0.05664630 -0.00485705 0.03221844
v 0.08385912 -0.00464349 0.04617535
v 0.08552541 -0.00378927 0.04831746
v 0.08590008 -0.00450274 0.04916224
v 0.08654096 -0.00464349 0.05112333
v 0.08737904 -0.00376015 0.05388695
v 0.08753679 -0.00448818 0.05485241
v 0.08746777 -0.00600734 0.05547996
v 0.08791146 -0.00464349 0.05669885
v 0.08794104 -0.00650240 0.05855736
v 0.08773399 0.01022286 0.06599139
v 0.08804950 0.00836396 0.06413289
v 0.08879884 0.00278726 0.06599139
v 0.08885799 0.00092836 0.06413289
v 0.08876926 0.00092836 0.06228041
v 0.08791146 0.00464616 0.05669885
v 0.08802978 0.00278726 0.05669885
v 0.08781286 0.00092836 0.05484035
v 0.08748750 0.00092836 0.05357318
v 0.08741848 0.00278726 0.05376024
v 0.08620573 0.00092836 0.04926482
v 0.08569303 0.00092836 0.04807610
v 0.08409575 0.00092836 0.04583744
v 0.05720830 -0.00092569 0.03221844
v 0.05719844 0.00092836 0.03221844
v 0.05701111 0.00278726 0.03221844
v 0.05666602 0.00473352 0.03221844
v 0.08503242 0.00092836 0.04714685
v 0.04926137 -0.00464349 0.08991667
v 0.04926137 -0.00278459 0.09003132
v 0.04926137 -0.00092569 0.09012183
v 0.07999411 -0.00017825 0.08551780
v 0.08271539 -0.00278459 0.08468509
v 0.08387884 -0.00278459 0.08395496
v 0.08392814 -0.00092569 0.08403341
v 0.08568317 -0.00092569 0.08199388
v 0.08568317 0.00092836 0.08199388
v 0.08559443 0.00278726 0.08189733
v 0.08590008 0.00450541 0.08095601
v 0.08639307 0.00650506 0.07900095
v 0.08732974 0.00536933 0.07610458
v 0.08748750 0.00650506 0.07477104
v -0.01184916 -0.00092569 0.08894518
v 0.08739876 0.01123725 0.06748786
v 0.08777343 0.00650506 0.07342543
v 0.08801006 0.00650506 0.07156692
v 0.08802978 0.00836396 0.06784990
v 0.08416477 -0.01023961 0.08092584
v 0.08566345 -0.00781285 0.08013537
v 0.08395772 -0.00836130 0.08227748
v 0.08370136 -0.00582776 0.08371360
v 0.08596910 -0.00840498 0.07909750
v 0.08660012 -0.01022020 0.07528394
v 0.08747764 -0.00821569 0.07325647
v 0.08738890 -0.00749737 0.07442106
v 0.08658040 -0.00836130 0.07714245
v 0.08640293 -0.00650240 0.07900095
v 0.08745792 -0.00954556 0.07156692
v 0.08762553 -0.01039492 0.06798266
v 0.08793118 -0.00836130 0.06970841
v 0.08773399 -0.00836130 0.07156692
v 0.08736918 -0.00931744 0.07252635
v 0.08774385 -0.01022020 0.06599139
v 0.08804950 -0.00836130 0.06413289
v 0.08875940 -0.00278459 0.06413289
v 0.08880870 -0.00278459 0.06599139
v 0.08406617 -0.00092569 0.04584951
v 0.08395772 -0.00278459 0.04598829
v 0.05665615 -0.00480851 0.03221844
v 0.05703083 -0.00278459 0.03221844
v 0.08557471 -0.00278459 0.04823902
v 0.08607755 -0.00278459 0.04926482
v 0.08566345 -0.00092569 0.04811834
v 0.08664942 -0.00278459 0.05112333
v 0.08748750 -0.00092569 0.05357318
v 0.08742834 -0.00278459 0.05374817
v 0.08772413 -0.00278459 0.05484035
v 0.08803964 -0.00278459 0.05669885
v 0.08874954 -0.00092569 0.06228041
v 0.08805936 0.00836396 0.06599139
v 0.08866080 0.00278726 0.06784990
v 0.08882842 0.00092836 0.06784990
v 0.08885799 0.00092836 0.06599139
v 0.08885799 -0.00092569 0.06599139
v 0.08884814 -0.00092569 0.06413289
v 0.08807908 -0.00092569 0.05669885
v 0.08806922 0.00092836 0.05669885
v 0.08781286 -0.00092569 0.05484035
v 0.08617616 -0.00092569 0.04926482
v 0.08379010 -0.00464349 0.08382221
v 0.08559443 -0.00278459 0.08189130
v 0.08609728 -0.00278459 0.08085946
v 0.08618601 -0.00092569 0.08085946
v 0.08618601 0.00092836 0.08085946
v 0.08609728 0.00278726 0.08085946
v 0.08660998 0.00464616 0.07900095
v 0.08742834 0.00413168 0.07640025
v 0.08761567 0.00470925 0.07540462
v 0.08799034 0.00464616 0.07342543
v 0.08586064 -0.00650240 0.08043104
v 0.08415491 -0.00646842 0.08282055
v 0.08537752 -0.00501236 0.08163183
v 0.08551555 -0.00377471 0.08180682
v 0.08778329 -0.00650240 0.07342543
v 0.08748750 -0.00650240 0.07478914
v 0.08732974 -0.00537152 0.07611061
v 0.08761567 -0.00470659 0.07540462
v 0.08742834 -0.00412902 0.07637611
v 0.08661984 -0.00464349 0.07900095
v 0.08590008 -0.00449303 0.08094997
v 0.08802978 -0.00836130 0.06784990
v 0.08801006 -0.00650240 0.07156692
v 0.08804950 -0.00836130 0.06599139
v 0.08881856 -0.00092569 0.06784990
v 0.08790161 -0.00092569 0.07528394
v 0.08806922 0.00278726 0.07342543
v 0.08790161 0.00092836 0.07528394
v 0.08672830 -0.00278459 0.07900095
v 0.08755651 -0.00092569 0.07673213
v 0.08671844 0.00278726 0.07900095
v 0.08755651 0.00092836 0.07672609
v 0.08750721 0.00278726 0.07658731
v 0.08783259 0.00278726 0.07528394
v 0.08799034 -0.00464349 0.07342543
v 0.08783259 -0.00278459 0.07528394
v 0.08749736 -0.00278459 0.07657524
v 0.08806922 -0.00278459 0.07342543
f 1 2 5
f 1 5 11
f 1 11 20
f 1 20 43
f 1 43 60
f 1 60 79
f 1 79 100
f 1 100 118
f 1 118 147
f 1 147 146
f 1 146 145
f 1 145 144
f 1 144 143
f 1 143 142
f 1 142 141
f 1 141 140
f 1 140 139
f 1 139 138
f 1 138 137
f 1 137 168
f 1 168 167
f 1 167 191
f 1 191 190
f 1 190 214
f 1 214 251
f 1 251 301
f 1 301 363
f 1 363 422
f 1 422 491
f 1 491 582
f 1 582 683
f 1 683 682
f 1 682 681
f 1 681 781
f 1 781 873
f 1 873 872
f 1 872 871
f 1 871 870
f 1 870 916
f 1 916 915
f 1 915 847
f 1 847 845
f 1 845 758
f 1 758 757
f 1 757 756
f 1 756 755
f 1 755 754
f 1 754 661
f 1 661 570
f 1 570 563
f 1 563 476
f 1 476 414
f 1 414 350
f 1 350 290
f 1 290 289
f 1 289 242
f 1 242 235
f 1 235 206
f 1 206 183
f 1 183 182
f 1 182 181
f 1 181 180
f 1 180 162
f 1 162 161
f 1 161 132
f 1 132 131
f 1 131 130
f 1 130 129
f 1 129 128
f 1 128 126
f 1 126 113
f 1 113 91
f 1 91 69
f 1 69 50
f 1 50 49
f 1 49 30
f 1 30 17
f 1 17 10
f 1 10 7
f 1 7 3
f 1 3 4
f 1 4 6
f 1 6 2
f 2 6 5
f 3 7 4
f 4 8 9
f 4 9 6
f 4 7 10
f 4 10 8
f 5 6 11
f 6 9 12
f 6 12 13
f 6 13 11
f 8 14 15
f 8 15 16
f 8 16 9
f 8 10 17
f 8 17 14
f 9 16 18
f 9 18 19
f 9 19 12
f 11 13 21
f 11 21 22
f 11 22 20
f 12 23 13
f 12 19 23
f 13 23 24
f 13 24 21
f 14 25 15
f 14 17 25
f 15 26 27
f 15 27 16
f 15 25 26
f 16 27 28
f 16 28 29
f 16 29 18
f 17 30 25
f 18 31 32
f 18 32 33
f 18 33 34
f 18 34 35
f 18 35 36
f 18 36 37
f 18 37 38
f 18 38 19
f 18 29 31
f 19 38 39
f 19 39 40
f 19 40 41
f 19 41 42
f 19 42 23
f 20 22 43
f 21 24 22
f 22 24 44
f 22 44 45
f 22 45 43
f 23 46 24
f 23 42 47
f 23 47 46
f 24 46 44
f 25 48 26
f 25 30 49
f 25 49 50
f 25 50 48
f 26 51 52
f 26 52 27
f 26 48 53
f 26 53 51
f 27 52 54
f 27 54 28
f 28 54 31
f 28 31 29
f 31 55 56
f 31 56 32
f 31 54 55
f 32 56 55
f 32 55 73
f 32 73 94
f 32 94 93
f 32 93 92
f 32 92 112
f 32 112 111
f 32 111 108
f 32 108 107
f 32 107 123
f 32 123 152
f 32 152 174
f 32 174 199
f 32 199 230
f 32 230 271
f 32 271 278
f 32 278 277
f 32 277 276
f 32 276 275
f 32 275 338
f 32 338 337
f 32 337 336
f 32 336 335
f 32 335 387
f 32 387 458
f 32 458 541
f 32 541 540
f 32 540 539
f 32 539 538
f 32 538 537
f 32 537 623
f 32 623 622
f 32 622 621
f 32 621 620
f 32 620 720
f 32 720 719
f 32 719 824
f 32 824 823
f 32 823 822
f 32 822 821
f 32 821 820
f 32 820 819
f 32 819 818
f 32 818 817
f 32 817 889
f 32 889 804
f 32 804 782
f 32 782 693
f 32 693 692
f 32 692 691
f 32 691 690
f 32 690 689
f 32 689 688
f 32 688 687
f 32 687 686
f 32 686 685
f 32 685 684
f 32 684 586
f 32 586 583
f 32 583 497
f 32 497 496
f 32 496 495
f 32 495 494
f 32 494 493
f 32 493 492
f 32 492 423
f 32 423 364
f 32 364 303
f 32 303 255
f 32 255 253
f 32 253 252
f 32 252 217
f 32 217 216
f 32 216 215
f 32 215 193
f 32 193 173
f 32 173 151
f 32 151 148
f 32 148 119
f 32 119 106
f 32 106 105
f 32 105 104
f 32 104 103
f 32 103 102
f 32 102 98
f 32 98 97
f 32 97 96
f 32 96 95
f 32 95 75
f 32 75 58
f 32 58 57
f 32 57 40
f 32 40 39
f 32 39 38
f 32 38 37
f 32 37 36
f 32 36 35
f 32 35 34
f 32 34 33
f 40 57 41
f 41 57 58
f 41 58 59
f 41 59 47
f 41 47 42
f 43 45 60
f 44 46 61
f 44 61 62
f 44 62 63
f 44 63 45
f 45 63 64
f 45 64 65
f 45 65 66
f 45 66 60
f 46 47 59
f 46 59 61
f 48 67 68
f 48 68 53
f 48 50 67
f 50 69 70
f 50 70 67
f 51 71 52
f 51 53 71
f 52 71 72
f 52 72 55
f 52 55 54
f 53 68 71
f 55 72 74
f 55 74 73
f 58 75 76
f 58 76 77
f 58 77 61
f 58 61 59
f 60 66 78
f 60 78 79
f 61 80 62
f 61 77 80
f 62 80 63
f 63 80 64
f 64 80 81
f 64 81 82
f 64 82 83
f 64 83 84
f 64 84 66
f 64 66 65
f 66 84 83
f 66 83 85
f 66 85 78
f 67 86 87
f 67 87 68
f 67 70 86
f 68 88 89
f 68 89 90
f 68 90 71
f 68 87 88
f 69 91 70
f 70 91 86
f 71 90 72
f 72 92 93
f 72 93 94
f 72 94 74
f 72 90 92
f 73 74 94
f 75 95 77
f 75 77 76
f 77 95 96
f 77 96 97
f 77 97 98
f 77 98 81
f 77 81 80
f 78 85 79
f 79 99 100
f 79 85 99
f 81 101 82
f 81 98 102
f 81 102 103
f 81 103 101
f 82 101 83
f 83 101 104
f 83 104 105
f 83 105 106
f 83 106 85
f 85 106 99
f 86 107 108
f 86 108 88
f 86 88 87
f 86 91 109
f 86 109 107
f 88 110 89
f 88 108 111
f 88 111 110
f 89 110 90
f 90 110 112
f 90 112 92
f 91 113 114
f 91 114 109
f 99 115 116
f 99 116 117
f 99 117 100
f 99 106 115
f 100 117 118
f 101 103 104
f 106 119 120
f 106 120 121
f 106 121 122
f 106 122 115
f 107 109 124
f 107 124 123
f 109 114 125
f 109 125 124
f 110 111 112
f 113 126 114
f 114 127 125
f 114 126 128
f 114 128 129
f 114 129 130
f 114 130 131
f 114 131 132
f 114 132 127
f 115 133 116
f 115 122 134
f 115 134 133
f 116 135 136
f 116 136 117
f 116 133 135
f 117 136 137
f 117 137 138
f 117 138 139
f 117 139 140
f 117 140 141
f 117 141 142
f 117 142 143
f 117 143 144
f 117 144 145
f 117 145 146
f 117 146 147
f 117 147 118
f 119 148 120
f 120 149 150
f 120 150 121
f 120 148 151
f 120 151 149
f 121 150 134
f 121 134 122
f 123 124 153
f 123 153 154
f 123 154 155
f 123 155 152
f 124 125 156
f 124 156 157
f 124 157 154
f 124 154 153
f 125 127 158
f 125 158 159
f 125 159 156
f 127 160 158
f 127 132 161
f 127 161 162
f 127 162 160
f 133 163 164
f 133 164 135
f 133 134 163
f 134 150 165
f 134 165 163
f 135 166 136
f 135 164 167
f 135 167 168
f 135 168 166
f 136 166 168
f 136 168 137
f 149 169 170
f 149 170 150
f 149 151 169
f 150 170 171
f 150 171 172
f 150 172 165
f 151 173 169
f 152 155 175
f 152 175 174
f 154 157 176
f 154 176 155
f 155 176 175
f 156 159 157
f 157 159 158
f 157 158 177
f 157 177 178
f 157 178 176
f 158 160 177
f 160 179 177
f 160 162 180
f 160 180 181
f 160 181 182
f 160 182 183
f 160 183 184
f 160 184 185
f 160 185 179
f 163 165 186
f 163 186 187
f 163 187 164
f 164 187 188
f 164 188 189
f 164 189 190
f 164 190 191
f 164 191 167
f 165 172 186
f 169 192 170
f 169 173 193
f 169 193 192
f 170 192 171
f 171 194 195
f 171 195 196
f 171 196 172
f 171 192 194
f 172 196 197
f 172 197 198
f 172 198 186
f 174 175 200
f 174 200 199
f 175 176 201
f 175 201 200
f 176 178 202
f 176 202 203
f 176 203 201
f 177 179 185
f 177 185 204
f 177 204 205
f 177 205 178
f 178 205 202
f 183 206 184
f 184 206 207
f 184 207 185
f 185 207 208
f 185 208 209
f 185 209 210
f 185 210 211
f 185 211 204
f 186 198 187
f 187 198 197
f 187 197 196
f 187 196 212
f 187 212 213
f 187 213 189
f 187 189 188
f 189 214 190
f 189 213 214
f 192 193 215
f 192 215 216
f 192 216 217
f 192 217 218
f 192 218 219
f 192 219 220
f 192 220 221
f 192 221 222
f 192 222 223
f 192 223 224
f 192 224 194
f 194 224 225
f 194 225 195
f 195 225 226
f 195 226 227
f 195 227 196
f 196 227 228
f 196 228 229
f 196 229 212
f 199 200 231
f 199 231 230
f 200 201 231
f 201 203 231
f 202 209 232
f 202 232 203
f 202 205 204
f 202 204 211
f 202 211 209
f 203 232 233
f 203 233 234
f 203 234 231
f 206 235 207
f 207 236 237
f 207 237 238
f 207 238 239
f 207 239 240
f 207 240 241
f 207 241 208
f 207 235 242
f 207 242 236
f 208 241 209
f 209 243 232
f 209 211 210
f 209 241 244
f 209 244 243
f 212 229 213
f 213 229 245
f 213 245 246
f 213 246 247
f 213 247 248
f 213 248 249
f 213 249 250
f 213 250 251
f 213 251 214
f 217 252 218
f 218 252 253
f 218 253 219
f 219 254 220
f 219 253 255
f 219 255 254
f 220 254 256
f 220 256 257
f 220 257 258
f 220 258 259
f 220 259 260
f 220 260 221
f 221 260 261
f 221 261 222
f 222 261 262
f 222 262 223
f 223 262 263
f 223 263 224
f 224 263 264
f 224 264 265
f 224 265 226
f 224 226 225
f 226 265 266
f 226 266 267
f 226 267 268
f 226 268 227
f 227 268 228
f 228 267 269
f 228 269 270
f 228 270 229
f 228 268 267
f 229 270 245
f 230 231 271
f 231 272 273
f 231 273 274
f 231 274 275
f 231 275 276
f 231 276 277
f 231 277 278
f 231 278 271
f 231 234 279
f 231 279 280
f 231 280 281
f 231 281 272
f 232 243 233
f 233 243 282
f 233 282 244
f 233 244 283
f 233 283 284
f 233 284 285
f 233 285 279
f 233 279 234
f 236 242 237
f 237 286 287
f 237 287 288
f 237 288 238
f 237 242 289
f 237 289 290
f 237 290 286
f 238 288 239
f 239 291 292
f 239 292 240
f 239 288 293
f 239 293 291
f 240 292 241
f 241 292 244
f 243 244 282
f 244 292 294
f 244 294 283
f 245 270 246
f 246 270 295
f 246 295 296
f 246 296 297
f 246 297 247
f 247 298 299
f 247 299 249
f 247 249 248
f 247 297 300
f 247 300 298
f 249 299 251
f 249 251 250
f 251 299 302
f 251 302 301
f 254 255 303
f 254 303 304
f 254 304 305
f 254 305 306
f 254 306 256
f 256 306 307
f 256 307 308
f 256 308 257
f 257 308 258
f 258 308 309
f 258 309 310
f 258 310 311
f 258 311 312
f 258 312 259
f 259 313 260
f 259 312 313
f 260 313 314
f 260 314 315
f 260 315 316
f 260 316 317
f 260 317 318
f 260 318 319
f 260 319 320
f 260 320 261
f 261 320 262
f 262 320 321
f 262 321 263
f 263 321 264
f 264 321 322
f 264 322 323
f 264 323 266
f 264 266 265
f 266 323 267
f 267 323 324
f 267 324 269
f 269 295 270
f 269 324 325
f 269 325 295
f 272 326 273
f 272 281 327
f 272 327 328
f 272 328 329
f 272 329 330
f 272 330 331
f 272 331 332
f 272 332 333
f 272 333 326
f 273 334 274
f 273 326 335
f 273 335 336
f 273 336 337
f 273 337 334
f 274 334 337
f 274 337 338
f 274 338 275
f 279 285 339
f 279 339 280
f 280 339 340
f 280 340 281
f 281 340 341
f 281 341 327
f 283 294 342
f 283 342 343
f 283 343 284
f 284 344 339
f 284 339 285
f 284 343 344
f 286 345 287
f 286 290 345
f 287 345 346
f 287 346 347
f 287 347 288
f 288 347 348
f 288 348 349
f 288 349 293
f 290 350 345
f 291 351 294
f 291 294 292
f 291 293 352
f 291 352 353
f 291 353 351
f 293 349 348
f 293 348 354
f 293 354 355
f 293 355 352
f 294 351 342
f 295 325 356
f 295 356 296
f 296 356 357
f 296 357 358
f 296 358 300
f 296 300 297
f 298 302 299
f 298 300 359
f 298 359 302
f 300 357 360
f 300 360 361
f 300 361 362
f 300 362 359
f 300 358 357
f 301 302 359
f 301 359 362
f 301 362 363
f 303 364 365
f 303 365 304
f 304 365 366
f 304 366 367
f 304 367 305
f 305 367 307
f 305 307 306
f 307 367 312
f 307 312 308
f 308 312 309
f 309 312 310
f 310 312 311
f 312 368 369
f 312 369 370
f 312 370 371
f 312 371 372
f 312 372 316
f 312 316 315
f 312 315 314
f 312 314 313
f 312 367 366
f 312 366 373
f 312 373 374
f 312 374 375
f 312 375 368
f 316 372 317
f 317 372 371
f 317 371 376
f 317 376 318
f 318 376 377
f 318 377 378
f 318 378 379
f 318 379 380
f 318 380 319
f 319 380 320
f 320 322 321
f 320 380 381
f 320 381 322
f 322 381 323
f 323 381 382
f 323 382 383
f 323 383 324
f 324 383 384
f 324 384 325
f 325 384 385
f 325 385 356
f 326 386 387
f 326 387 335
f 326 333 388
f 326 388 386
f 327 341 328
f 328 341 389
f 328 389 390
f 328 390 391
f 328 391 392
f 328 392 393
f 328 393 394
f 328 394 395
f 328 395 396
f 328 396 330
f 328 330 329
f 330 396 397
f 330 397 398
f 330 398 399
f 330 399 400
f 330 400 331
f 331 400 332
f 332 400 401
f 332 401 402
f 332 402 403
f 332 403 333
f 333 403 404
f 333 404 405
f 333 405 388
f 339 344 406
f 339 406 340
f 340 406 389
f 340 389 341
f 342 351 407
f 342 407 408
f 342 408 343
f 343 408 409
f 343 409 410
f 343 410 344
f 344 389 406
f 344 410 389
f 345 350 346
f 346 411 348
f 346 348 347
f 346 350 411
f 348 411 412
f 348 412 413
f 348 413 355
f 348 355 354
f 350 414 411
f 351 353 415
f 351 415 407
f 352 355 353
f 353 355 413
f 353 413 415
f 356 385 357
f 357 385 360
f 360 385 416
f 360 416 417
f 360 417 418
f 360 418 419
f 360 419 361
f 361 420 362
f 361 419 421
f 361 421 420
f 362 420 363
f 363 420 422
f 364 423 424
f 364 424 365
f 365 424 425
f 365 425 374
f 365 374 373
f 365 373 366
f 368 426 427
f 368 427 369
f 368 375 428
f 368 428 426
f 369 427 429
f 369 429 430
f 369 430 431
f 369 431 432
f 369 432 370
f 370 432 433
f 370 433 434
f 370 434 435
f 370 435 436
f 370 436 437
f 370 437 438
f 370 438 377
f 370 377 376
f 370 376 371
f 374 425 439
f 374 439 440
f 374 440 375
f 375 440 441
f 375 441 442
f 375 442 428
f 377 438 378
f 378 438 379
f 379 443 444
f 379 444 380
f 379 438 445
f 379 445 446
f 379 446 447
f 379 447 443
f 380 444 381
f 381 444 448
f 381 448 382
f 382 448 449
f 382 449 383
f 383 449 450
f 383 450 451
f 383 451 416
f 383 416 384
f 384 416 452
f 384 452 385
f 385 452 416
f 386 453 454
f 386 454 455
f 386 455 456
f 386 456 457
f 386 457 387
f 386 388 453
f 387 457 458
f 388 405 453
f 389 410 459
f 389 459 390
f 390 459 391
f 391 459 460
f 391 460 461
f 391 461 462
f 391 462 392
f 392 463 393
f 392 462 464
f 392 464 463
f 393 463 394
f 394 465 395
f 394 463 466
f 394 466 465
f 395 465 467
f 395 467 396
f 396 467 397
f 397 467 398
f 398 467 399
f 399 467 400
f 400 467 401
f 401 467 402
f 402 467 403
f 403 467 404
f 404 467 405
f 405 467 453
f 407 415 468
f 407 468 469
f 407 469 408
f 408 469 470
f 408 470 471
f 408 471 472
f 408 472 409
f 409 473 410
f 409 472 473
f 410 473 474
f 410 474 459
f 411 475 412
f 411 414 476
f 411 476 475
f 412 475 477
f 412 477 478
f 412 478 479
f 412 479 413
f 413 469 415
f 413 479 480
f 413 480 481
f 413 481 469
f 415 469 468
f 416 451 482
f 416 482 417
f 417 482 483
f 417 483 484
f 417 484 418
f 418 484 419
f 419 484 485
f 419 485 486
f 419 486 421
f 420 421 486
f 420 486 487
f 420 487 488
f 420 488 489
f 420 489 490
f 420 490 491
f 420 491 422
f 423 492 424
f 424 492 425
f 425 492 493
f 425 493 494
f 425 494 495
f 425 495 496
f 425 496 497
f 425 497 498
f 425 498 499
f 425 499 439
f 426 428 427
f 427 500 501
f 427 501 502
f 427 502 503
f 427 503 504
f 427 504 429
f 427 428 505
f 427 505 506
f 427 506 500
f 428 442 505
f 429 504 503
f 429 503 430
f 430 503 507
f 430 507 431
f 431 507 432
f 432 507 508
f 432 508 433
f 433 508 434
f 434 508 509
f 434 509 510
f 434 510 436
f 434 436 435
f 436 510 437
f 437 510 511
f 437 511 512
f 437 512 438
f 438 512 513
f 438 513 445
f 439 514 515
f 439 515 441
f 439 441 440
f 439 499 514
f 441 515 516
f 441 516 517
f 441 517 442
f 442 517 506
f 442 506 505
f 443 448 444
f 443 447 518
f 443 518 519
f 443 519 520
f 443 520 448
f 445 513 446
f 446 520 519
f 446 519 447
f 446 513 512
f 446 512 521
f 446 521 522
f 446 522 523
f 446 523 524
f 446 524 520
f 447 519 518
f 448 520 449
f 449 520 525
f 449 525 526
f 449 526 527
f 449 527 528
f 449 528 450
f 450 528 529
f 450 529 530
f 450 530 531
f 450 531 532
f 450 532 451
f 451 532 533
f 451 533 482
f 453 467 454
f 454 467 455
f 455 467 456
f 456 534 535
f 456 535 457
f 456 467 534
f 457 535 536
f 457 536 537
f 457 537 538
f 457 538 539
f 457 539 540
f 457 540 541
f 457 541 458
f 459 474 460
f 460 474 542
f 460 542 543
f 460 543 544
f 460 544 545
f 460 545 461
f 461 546 462
f 461 545 546
f 462 546 464
f 463 464 467
f 463 467 466
f 464 546 467
f 465 466 467
f 467 546 547
f 467 547 548
f 467 548 549
f 467 549 550
f 467 550 551
f 467 551 536
f 467 536 534
f 469 481 552
f 469 552 470
f 470 552 553
f 470 553 554
f 470 554 471
f 471 554 555
f 471 555 556
f 471 556 557
f 471 557 558
f 471 558 472
f 472 558 557
f 472 557 559
f 472 559 560
f 472 560 561
f 472 561 562
f 472 562 473
f 473 542 474
f 473 562 542
f 475 476 477
f 476 563 477
f 477 564 565
f 477 565 566
f 477 566 567
f 477 567 568
f 477 568 569
f 477 569 478
f 477 563 570
f 477 570 564
f 478 569 479
f 479 569 571
f 479 571 572
f 479 572 480
f 480 572 481
f 481 572 552
f 482 533 573
f 482 573 574
f 482 574 483
f 483 574 575
f 483 575 576
f 483 576 484
f 484 576 485
f 485 577 486
f 485 576 578
f 485 578 577
f 486 488 487
f 486 577 488
f 488 577 579
f 488 579 580
f 488 580 489
f 489 581 490
f 489 580 581
f 490 581 582
f 490 582 491
f 497 583 499
f 497 499 498
f 499 584 585
f 499 585 514
f 499 583 586
f 499 586 584
f 500 587 588
f 500 588 501
f 500 506 589
f 500 589 587
f 501 588 590
f 501 590 502
f 502 590 591
f 502 591 503
f 503 591 592
f 503 592 593
f 503 593 594
f 503 594 507
f 506 517 589
f 507 594 595
f 507 595 596
f 507 596 510
f 507 510 509
f 507 509 508
f 510 596 597
f 510 597 511
f 511 597 512
f 512 597 598
f 512 598 599
f 512 599 600
f 512 600 521
f 514 601 515
f 514 585 584
f 514 584 601
f 515 601 584
f 515 584 516
f 516 602 603
f 516 603 517
f 516 584 604
f 516 604 602
f 517 603 605
f 517 605 589
f 520 524 606
f 520 606 525
f 521 600 599
f 521 599 607
f 521 607 608
f 521 608 523
f 521 523 522
f 523 608 524
f 524 608 609
f 524 609 606
f 525 606 610
f 525 610 611
f 525 611 526
f 526 612 527
f 526 611 613
f 526 613 614
f 526 614 612
f 527 612 529
f 527 529 528
f 529 612 614
f 529 614 530
f 530 614 531
f 531 533 532
f 531 614 613
f 531 613 714
f 531 714 615
f 531 615 573
f 531 573 533
f 534 536 535
f 536 551 616
f 536 616 617
f 536 617 618
f 536 618 619
f 536 619 620
f 536 620 621
f 536 621 622
f 536 622 623
f 536 623 537
f 542 562 624
f 542 624 625
f 542 625 543
f 543 626 627
f 543 627 544
f 543 625 624
f 543 624 562
f 543 562 628
f 543 628 629
f 543 629 630
f 543 630 631
f 543 631 626
f 544 627 545
f 545 627 626
f 545 626 632
f 545 632 546
f 546 632 633
f 546 633 634
f 546 634 635
f 546 635 636
f 546 636 637
f 546 637 547
f 547 637 638
f 547 638 639
f 547 639 640
f 547 640 548
f 548 641 549
f 548 640 642
f 548 642 643
f 548 643 641
f 549 641 644
f 549 644 645
f 549 645 550
f 550 645 646
f 550 646 647
f 550 647 648
f 550 648 649
f 550 649 551
f 551 649 616
f 552 572 650
f 552 650 651
f 552 651 652
f 552 652 553
f 553 555 554
f 553 652 555
f 555 653 656
f 555 656 556
f 555 652 654
f 555 654 655
f 555 655 653
f 556 656 559
f 556 559 557
f 559 656 560
f 560 656 653
f 560 653 657
f 560 657 561
f 561 657 658
f 561 658 659
f 561 659 628
f 561 628 562
f 564 660 565
f 564 570 661
f 564 661 660
f 565 660 662
f 565 662 566
f 566 662 567
f 567 662 663
f 567 663 664
f 567 664 569
f 567 569 568
f 569 664 571
f 571 664 665
f 571 665 666
f 571 666 572
f 572 666 650
f 573 615 667
f 573 667 574
f 574 667 668
f 574 668 669
f 574 669 575
f 575 669 670
f 575 670 671
f 575 671 672
f 575 672 576
f 576 672 671
f 576 671 673
f 576 673 578
f 577 578 674
f 577 674 579
f 578 673 674
f 579 675 580
f 579 674 676
f 579 676 675
f 580 675 581
f 581 675 677
f 581 677 678
f 581 678 679
f 581 679 680
f 581 680 681
f 581 681 682
f 581 682 683
f 581 683 582
f 584 586 684
f 584 684 685
f 584 685 686
f 584 686 687
f 584 687 688
f 584 688 689
f 584 689 690
f 584 690 691
f 584 691 692
f 584 692 693
f 584 693 604
f 587 589 694
f 587 694 695
f 587 695 696
f 587 696 588
f 588 696 697
f 588 697 698
f 588 698 699
f 588 699 590
f 589 605 708
f 589 708 700
f 589 700 783
f 589 783 694
f 590 699 591
f 591 699 701
f 591 701 592
f 592 701 702
f 592 702 595
f 592 595 593
f 593 595 594
f 595 702 597
f 595 597 596
f 597 702 703
f 597 703 704
f 597 704 598
f 598 704 599
f 599 704 705
f 599 705 607
f 602 706 603
f 602 604 707
f 602 707 706
f 603 706 708
f 603 708 605
f 604 693 707
f 606 609 709
f 606 709 710
f 606 710 610
f 607 705 711
f 607 711 712
f 607 712 608
f 608 712 609
f 609 712 713
f 609 713 709
f 610 613 611
f 610 710 613
f 613 710 714
f 615 714 715
f 615 715 667
f 616 649 648
f 616 648 716
f 616 716 717
f 616 717 617
f 617 718 618
f 617 717 718
f 618 718 719
f 618 719 720
f 618 720 619
f 619 720 620
f 626 721 722
f 626 722 632
f 626 631 723
f 626 723 724
f 626 724 725
f 626 725 721
f 628 659 726
f 628 726 727
f 628 727 629
f 629 727 631
f 629 631 630
f 631 727 728
f 631 728 724
f 631 724 723
f 632 722 729
f 632 729 633
f 633 729 635
f 633 635 634
f 635 729 638
f 635 638 637
f 635 637 636
f 638 729 639
f 639 729 721
f 639 721 730
f 639 730 731
f 639 731 732
f 639 732 643
f 639 643 642
f 639 642 640
f 641 643 732
f 641 732 733
f 641 733 734
f 641 734 735
f 641 735 736
f 641 736 737
f 641 737 738
f 641 738 645
f 641 645 644
f 645 738 646
f 646 738 737
f 646 737 647
f 647 737 740
f 647 740 648
f 648 739 716
f 648 740 739
f 650 666 741
f 650 741 651
f 651 742 652
f 651 741 743
f 651 743 742
f 652 742 744
f 652 744 654
f 653 658 657
f 653 655 745
f 653 745 658
f 654 744 655
f 655 744 746
f 655 746 747
f 655 747 745
f 658 745 659
f 659 745 748
f 659 748 726
f 660 749 750
f 660 750 751
f 660 751 752
f 660 752 753
f 660 753 662
f 660 661 754
f 660 754 755
f 660 755 756
f 660 756 757
f 660 757 758
f 660 758 749
f 662 753 663
f 663 753 759
f 663 759 760
f 663 760 664
f 664 760 665
f 665 760 761
f 665 761 762
f 665 762 666
f 666 762 763
f 666 763 764
f 666 764 741
f 667 715 765
f 667 765 668
f 668 765 766
f 668 766 669
f 669 766 767
f 669 767 670
f 670 767 768
f 670 768 769
f 670 769 671
f 671 769 673
f 673 769 770
f 673 770 674
f 674 770 771
f 674 771 676
f 675 676 772
f 675 772 677
f 676 771 773
f 676 773 774
f 676 774 775
f 676 775 776
f 676 776 772
f 677 772 777
f 677 777 678
f 678 778 779
f 678 779 679
f 678 777 780
f 678 780 778
f 679 779 681
f 679 681 680
f 681 779 781
f 693 782 707
f 694 783 878
f 694 878 784
f 694 784 696
f 694 696 785
f 694 785 786
f 694 786 695
f 695 786 696
f 696 784 787
f 696 787 697
f 696 786 785
f 697 787 788
f 697 788 789
f 697 789 790
f 697 790 698
f 698 790 791
f 698 791 701
f 698 701 699
f 700 708 737
f 700 737 736
f 700 736 792
f 700 792 783
f 701 791 793
f 701 793 794
f 701 794 795
f 701 795 796
f 701 796 797
f 701 797 702
f 702 797 798
f 702 798 799
f 702 799 703
f 703 799 704
f 704 799 798
f 704 798 800
f 704 800 705
f 705 800 801
f 705 801 711
f 706 802 803
f 706 803 718
f 706 718 739
f 706 739 740
f 706 740 708
f 706 707 802
f 707 782 804
f 707 804 889
f 707 889 802
f 708 740 737
f 709 805 710
f 709 713 806
f 709 806 805
f 710 805 714
f 711 801 807
f 711 807 808
f 711 808 809
f 711 809 712
f 712 809 810
f 712 810 713
f 713 810 811
f 713 811 812
f 713 812 813
f 713 813 806
f 714 805 814
f 714 814 715
f 715 814 815
f 715 815 765
f 716 816 717
f 716 739 718
f 716 718 816
f 717 816 718
f 718 803 817
f 718 817 818
f 718 818 819
f 718 819 820
f 718 820 821
f 718 821 822
f 718 822 823
f 718 823 824
f 718 824 719
f 721 825 826
f 721 826 730
f 721 729 722
f 721 725 827
f 721 827 828
f 721 828 825
f 724 728 829
f 724 829 827
f 724 827 725
f 726 748 830
f 726 830 831
f 726 831 727
f 727 831 728
f 728 831 829
f 730 826 832
f 730 832 731
f 731 833 732
f 731 832 833
f 732 833 832
f 732 832 834
f 732 834 733
f 733 834 734
f 734 834 835
f 734 835 836
f 734 836 735
f 735 836 736
f 736 836 792
f 741 764 763
f 741 763 837
f 741 837 743
f 742 743 838
f 742 838 839
f 742 839 744
f 743 837 840
f 743 840 841
f 743 841 838
f 744 839 842
f 744 842 746
f 745 747 748
f 746 842 747
f 747 842 843
f 747 843 748
f 748 843 844
f 748 844 830
f 749 758 845
f 749 845 750
f 750 846 751
f 750 845 847
f 750 847 846
f 751 846 848
f 751 848 849
f 751 849 752
f 752 849 753
f 753 849 850
f 753 850 759
f 759 851 852
f 759 852 853
f 759 853 854
f 759 854 760
f 759 850 851
f 760 854 761
f 761 854 855
f 761 855 856
f 761 856 763
f 761 763 762
f 763 856 837
f 765 815 766
f 766 857 926
f 766 926 858
f 766 858 767
f 766 815 857
f 767 858 768
f 768 859 860
f 768 860 861
f 768 861 769
f 768 858 859
f 769 862 770
f 769 861 862
f 770 862 773
f 770 773 771
f 772 776 780
f 772 780 777
f 773 862 774
f 774 862 863
f 774 863 864
f 774 864 865
f 774 865 866
f 774 866 775
f 775 866 865
f 775 865 776
f 776 867 868
f 776 868 780
f 776 865 867
f 778 869 779
f 778 780 869
f 779 869 846
f 779 846 870
f 779 870 871
f 779 871 872
f 779 872 873
f 779 873 781
f 780 868 874
f 780 874 869
f 783 792 875
f 783 875 876
f 783 876 877
f 783 877 787
f 783 787 878
f 784 878 787
f 787 836 788
f 787 877 876
f 787 876 875
f 787 875 792
f 787 792 836
f 788 836 879
f 788 879 880
f 788 880 881
f 788 881 789
f 789 881 882
f 789 882 883
f 789 883 790
f 790 883 884
f 790 884 791
f 791 884 793
f 793 884 885
f 793 885 795
f 793 795 794
f 795 885 886
f 795 886 800
f 795 800 798
f 795 798 796
f 796 798 797
f 800 886 801
f 801 886 887
f 801 887 888
f 801 888 807
f 802 889 817
f 802 817 803
f 805 806 890
f 805 890 815
f 805 815 814
f 806 813 890
f 807 888 891
f 807 891 808
f 808 891 811
f 808 811 809
f 809 811 810
f 811 891 892
f 811 892 812
f 812 892 859
f 812 859 893
f 812 893 813
f 813 893 857
f 813 857 890
f 815 890 857
f 825 894 826
f 825 828 894
f 826 894 828
f 826 828 895
f 826 895 896
f 826 896 897
f 826 897 832
f 827 829 898
f 827 898 895
f 827 895 828
f 829 831 899
f 829 899 900
f 829 900 901
f 829 901 902
f 829 902 903
f 829 903 898
f 830 904 831
f 830 844 905
f 830 905 906
f 830 906 907
f 830 907 904
f 831 904 908
f 831 908 899
f 832 897 834
f 834 897 835
f 835 897 879
f 835 879 836
f 837 856 840
f 838 841 839
f 839 841 909
f 839 909 842
f 840 910 841
f 840 856 911
f 840 911 912
f 840 912 910
f 841 910 909
f 842 909 843
f 843 909 905
f 843 905 844
f 846 869 913
f 846 913 914
f 846 914 848
f 846 847 915
f 846 915 916
f 846 916 870
f 848 914 849
f 849 917 850
f 849 914 913
f 849 913 917
f 850 918 851
f 850 917 919
f 850 919 918
f 851 918 920
f 851 920 921
f 851 921 922
f 851 922 852
f 852 922 923
f 852 923 853
f 853 923 855
f 853 855 854
f 855 923 924
f 855 924 925
f 855 925 856
f 856 925 911
f 857 893 926
f 858 926 859
f 859 927 928
f 859 928 929
f 859 929 860
f 859 926 893
f 859 892 927
f 860 929 930
f 860 930 931
f 860 931 861
f 861 931 925
f 861 925 932
f 861 932 933
f 861 933 863
f 861 863 862
f 863 933 864
f 864 934 921
f 864 921 865
f 864 933 932
f 864 932 934
f 865 921 867
f 867 935 868
f 867 921 935
f 868 935 919
f 868 919 913
f 868 913 874
f 869 874 913
f 879 897 936
f 879 936 880
f 880 936 937
f 880 937 882
f 880 882 881
f 882 937 938
f 882 938 939
f 882 939 940
f 882 940 883
f 883 940 941
f 883 941 884
f 884 941 885
f 885 941 942
f 885 942 886
f 886 942 943
f 886 943 944
f 886 944 887
f 887 944 888
f 888 944 891
f 891 944 945
f 891 945 892
f 892 945 928
f 892 928 927
f 895 898 946
f 895 946 896
f 896 947 897
f 896 946 947
f 897 947 946
f 897 946 948
f 897 948 949
f 897 949 936
f 898 903 946
f 899 908 900
f 900 908 907
f 900 907 950
f 900 950 901
f 901 950 951
f 901 951 902
f 902 951 903
f 903 951 952
f 903 952 953
f 903 953 954
f 903 954 955
f 903 955 956
f 903 956 946
f 904 907 908
f 905 909 957
f 905 957 906
f 906 957 912
f 906 912 958
f 906 958 907
f 907 958 950
f 909 910 959
f 909 959 957
f 910 912 959
f 911 925 931
f 911 931 912
f 912 931 930
f 912 930 960
f 912 960 958
f 912 957 959
f 913 919 917
f 918 935 920
f 918 919 935
f 920 935 921
f 921 934 923
f 921 923 922
f 923 934 924
f 924 934 932
f 924 932 925
f 928 961 960
f 928 960 930
f 928 930 929
f 928 945 962
f 928 962 963
f 928 963 961
f 936 949 937
f 937 949 956
f 937 956 938
f 938 956 955
f 938 955 964
f 938 964 939
f 939 964 965
f 939 965 940
f 940 966 941
f 940 965 967
f 940 967 966
f 941 966 942
f 942 966 968
f 942 968 943
f 943 968 969
f 943 969 944
f 944 969 945
f 945 969 962
f 946 956 949
f 946 949 948
f 950 953 951
f 950 958 970
f 950 970 953
f 951 953 952
f 953 970 971
f 953 971 954
f 954 971 972
f 954 972 955
f 955 972 965
f 955 965 964
f 958 960 970
f 960 961 973
f 960 973 970
f 961 965 971
f 961 971 973
f 961 963 965
f 962 969 963
f 963 969 967
f 963 967 965
f 965 972 971
f 966 967 968
f 967 969 968
f 970 973 971

