# https://github.com/mikedh/trimesh
v 0.03252960 0.01493811 0.02137762
v 0.03324069 0.01491179 0.01208434
v 0.03138592 0.01490595 0.01766085
v 0.03127926 0.01491179 0.02137762
v 0.03262441 0.01491764 0.02315930
v 0.03453843 0.01490010 0.02496790
v 0.03603764 0.01489133 0.02509439
v 0.04321966 0.01488256 0.00650784
v 0.03624505 0.01492641 0.00650784
v 0.03329402 0.01490302 0.01077096
v 0.03148074 0.01489718 0.01580111
v 0.03506582 0.01490887 0.00650784
v 0.02138325 0.01390904 0.03221574
v 0.03124371 0.01490595 0.01951789
v 0.03148074 0.01489718 0.02248915
v 0.02169138 0.01394120 0.03221574
v 0.02323801 0.01407276 0.03221574
v 0.02355207 0.01409615 0.03221574
v 0.03525545 0.01488256 0.02608212
v 0.02695938 0.01430956 0.03221574
v 0.03572358 0.01488256 0.02608212
v 0.03810574 0.01480363 0.02695413
v 0.03810574 0.01483286 0.02509439
v 0.04282264 0.01487087 0.00946295
v 0.04460036 0.01487087 0.00472615
v 0.04364039 0.01487964 0.00472615
v 0.03640504 0.01490887 0.00472615
v 0.03632801 0.01490887 0.00472615
v 0.03155777 0.01487964 0.01481877
v 0.03516063 0.01489425 0.00540707
v 0.01952256 0.01354946 0.02323466
v 0.02138325 0.01378334 0.02323466
v 0.01952256 0.01369271 0.03221574
v 0.01983662 0.01373071 0.03221574
v 0.02509870 0.01419847 0.03221574
v 0.02541276 0.01421893 0.03221574
v 0.03841980 0.01448789 0.03221574
v 0.03996642 0.01449374 0.03221574
v 0.02881415 0.01436511 0.03221574
v 0.02912821 0.01437095 0.03221574
v 0.04182118 0.01447327 0.03221574
v 0.03996642 0.01468084 0.02881117
v 0.03996642 0.01473639 0.02695413
v 0.04537664 0.01484748 0.00472615
v 0.03549840 0.01484455 0.00472615
v 0.03252960 0.01448789 0.00472615
v 0.01952256 0.01340329 0.01951789
v 0.01952256 0.01348807 0.02137762
v 0.03449695 0.01473639 0.00472615
v 0.01773298 0.01314602 0.01951789
v 0.01680263 0.01299692 0.01951789
v 0.01673745 0.01301154 0.02057290
v 0.01797593 0.01345006 0.03221574
v 0.04368187 0.01437680 0.03221574
v 0.04182118 0.01458144 0.02881117
v 0.04544182 0.01484455 0.00472615
v 0.03245256 0.01447620 0.00472615
v 0.01714040 0.01296184 0.01766085
v 0.00279414 0.00819659 0.01766085
v 0.01610932 0.01309632 0.03221574
v 0.01634042 0.01315187 0.03221574
v 0.01766187 0.01339451 0.03221574
v 0.04554256 0.01416923 0.03221574
v 0.04732621 0.01469546 0.00472615
v 0.04554256 0.01480070 0.00650784
v 0.03059187 0.01418385 0.00472615
v 0.02881415 0.01386519 0.00472615
v 0.01580118 0.01234791 0.01580111
v 0.00279414 0.00802703 0.01580111
v 0.00168603 0.00757681 0.01580111
v 0.00162084 0.00763821 0.01766085
v 0.00145492 0.00798318 0.03221574
v 0.04739732 0.01380088 0.03221574
v 0.04925801 0.01435341 0.00472615
v 0.04918098 0.01436803 0.00472615
v 0.04739732 0.01468669 0.00472615
v 0.02874304 0.01384765 0.00472615
v 0.01396420 0.01138902 0.01400867
v 0.01293904 0.01119314 0.01467074
v 0.01335977 0.01105574 0.01343271
v 0.00185195 0.00744233 0.01486452
v 0.00091568 0.00650390 0.01580111
v 0.00082086 0.00650390 0.01766085
v 0.00023421 0.00653606 0.03221574
v 0.00119419 0.00768791 0.03221574
v 0.04915135 0.01323080 0.03221574
v 0.05111870 0.01379795 0.00472615
v 0.05104166 0.01382134 0.00472615
v 0.02694160 0.01329219 0.00472615
v 0.01063985 0.00607707 0.00902964
v 0.00940136 0.00543976 0.00938490
v 0.00153195 0.00650390 0.01456578
v 0.02617126 0.01291799 0.00472615
v 0.02525277 0.01229237 0.00472615
v 0.02388391 0.01134516 0.00472615
v 0.02295950 0.01059383 0.00472615
v 0.02193434 0.00966709 0.00472615
v 0.00019866 0.00470889 0.01588455
v -0.00063095 0.00464458 0.03221574
v 0.04990392 0.01292676 0.03221574
v 0.05241644 0.01325419 0.00472615
v 0.01010060 0.00474982 0.00870399
v 0.00902211 0.00420021 0.00904041
v 0.00115863 0.00464458 0.01420513
v 0.00869620 0.00278817 0.00874167
v 0.02085585 0.00837200 0.00472615
v 0.00016903 0.00278817 0.01552929
v -0.00003245 0.00413004 0.01656008
v -0.00082650 0.00278817 0.03221574
v 0.05004021 0.01285660 0.03221574
v 0.05246385 0.01323372 0.00472615
v 0.01022504 0.00278817 0.00796925
v 0.00109937 0.00278817 0.01414054
v 0.00846509 0.00092885 0.00853174
v 0.02031661 0.00760605 0.00472615
v 0.00016311 0.00092885 0.01551045
v -0.00005022 0.00278817 0.01645781
v -0.00083835 0.00092885 0.03221574
v 0.05241051 0.01138902 0.03221574
v 0.05339419 0.01269873 0.00472615
v 0.01022504 0.00092885 0.00765436
v 0.01974774 0.00658283 0.00472615
v 0.00108752 0.00092885 0.01414054
v 0.01022504 -0.00092755 0.00765974
v 0.00847102 -0.00092755 0.00853981
v 0.00109937 -0.00278688 0.01414323
v 0.00109345 -0.00092755 0.01414054
v 0.00016311 -0.00092755 0.01550776
v -0.00005615 0.00092885 0.01644166
v -0.00083242 -0.00092755 0.03221574
v -0.00005615 -0.00092755 0.01643897
v -0.00005615 -0.00278688 0.01643897
v 0.05306827 0.01083940 0.03221574
v 0.05465638 0.01176907 0.00472615
v 0.05460897 0.01180707 0.00472615
v 0.01898924 0.00469720 0.00472615
v 0.01865740 0.00339918 0.00472615
v 0.01852110 0.00278817 0.00472615
v 0.01829592 0.00092885 0.00472615
v 0.01829000 0.00056926 0.00472615
v 0.01827222 -0.00092755 0.00472615
v 0.01022504 -0.00278688 0.00797194
v 0.00869620 -0.00278688 0.00873897
v 0.01848555 -0.00278688 0.00472615
v 0.01895961 -0.00468713 0.00472615
v 0.01897146 -0.00473391 0.00472615
v 0.01963515 -0.00641198 0.00472615
v 0.01971218 -0.00660201 0.00472615
v 0.00116456 -0.00464621 0.01420244
v 0.00016903 -0.00278688 0.01551045
v -0.00081464 -0.00278688 0.03221574
v -0.00003837 -0.00416091 0.01653855
v 0.05436601 0.00952677 0.03221574
v 0.05558672 0.01097096 0.00472615
v 0.05469785 0.01173399 0.00472615
v 0.00901619 -0.00419892 0.00902695
v 0.01994921 -0.00700837 0.00472615
v 0.02067808 -0.00818652 0.00472615
v 0.00153195 -0.00650553 0.01455770
v 0.00019866 -0.00472806 0.01587109
v -0.00079687 -0.00300322 0.03221574
v -0.00063687 -0.00464621 0.03221574
v 0.05513044 0.00838954 0.03221574
v 0.05731704 0.00877544 0.00472615
v 0.05638077 0.01004130 0.00472615
v 0.05635114 0.01007930 0.00472615
v 0.00940136 -0.00543847 0.00938490
v 0.02088548 -0.00847595 0.00472615
v 0.02184545 -0.00964534 0.00472615
v 0.00185195 -0.00744396 0.01486183
v 0.00090975 -0.00650553 0.01580111
v 0.00079124 -0.00650553 0.01766085
v -0.00027540 -0.00545016 0.03221574
v 0.05612004 0.00652144 0.03221574
v 0.05785628 0.00785162 0.00472615
v 0.01063985 -0.00607286 0.00903233
v 0.02189879 -0.00970380 0.00472615
v 0.01335384 -0.01105445 0.01337889
v 0.00279414 -0.00804912 0.01580111
v 0.00168010 -0.00758429 0.01580111
v 0.02195212 -0.00975350 0.00472615
v 0.02290617 -0.01063054 0.00472615
v 0.02378910 -0.01135264 0.00472615
v 0.02383058 -0.01138480 0.00472615
v 0.02519943 -0.01228815 0.00472615
v 0.02525277 -0.01232323 0.00472615
v 0.02538906 -0.01240801 0.00472615
v 0.02684679 -0.01323535 0.00472615
v 0.02694160 -0.01328798 0.00472615
v 0.00159714 -0.00765738 0.01766085
v 0.00021644 -0.00653769 0.03221574
v 0.05665336 0.00481706 0.03221574
v 0.05914810 0.00452764 0.00472615
v 0.05847849 0.00650975 0.00472615
v 0.01396420 -0.01140819 0.01397637
v 0.01290941 -0.01121231 0.01461960
v 0.00279414 -0.00823915 0.01766085
v 0.01394642 -0.01174146 0.01580111
v 0.02778899 -0.01354524 0.00472615
v 0.00137196 -0.00782402 0.03221574
v 0.05667113 0.00473520 0.03221574
v 0.05942661 0.00331440 0.00472615
v 0.01580118 -0.01235539 0.01580111
v 0.00278822 -0.00839409 0.03221574
v 0.01717596 -0.01296347 0.01766085
v 0.01680856 -0.01299855 0.01951789
v 0.01673745 -0.01301025 0.02055137
v 0.01609747 -0.01309503 0.03221574
v 0.02881415 -0.01385221 0.00472615
v 0.05700890 0.00278817 0.03221574
v 0.05950957 0.00277063 0.00472615
v 0.01773890 -0.01315057 0.01951789
v 0.03066891 -0.01417379 0.00472615
v 0.03259478 -0.01448367 0.00472615
v 0.01952256 -0.01355109 0.02323466
v 0.01766187 -0.01339030 0.03221574
v 0.05719853 0.00092885 0.03221574
v 0.05955105 0.00247536 0.00472615
v 0.05953327 0.00260692 0.00472615
v 0.01952256 -0.01340199 0.01951789
v 0.01952256 -0.01348385 0.02137762
v 0.03515471 -0.01489588 0.00542052
v 0.03156370 -0.01487834 0.01482684
v 0.03446139 -0.01472340 0.00472615
v 0.02138325 -0.01378497 0.02323466
v 0.02138325 -0.01381712 0.02509439
v 0.01952256 -0.01368557 0.03221574
v 0.03149259 -0.01489296 0.01580111
v 0.05720446 0.00072420 0.03221574
v 0.05969327 0.00092885 0.00472615
v 0.03633986 -0.01491050 0.00472615
v 0.03505989 -0.01491050 0.00650784
v 0.03329994 -0.01490173 0.01077634
v 0.03138000 -0.01490465 0.01766085
v 0.02138325 -0.01390483 0.03221574
v 0.03324069 -0.01491342 0.01208434
v 0.05721038 -0.00092755 0.03221574
v 0.05969919 -0.00092755 0.00472615
v 0.03624505 -0.01492512 0.00650784
v 0.04376483 -0.01487542 0.00472615
v 0.03439028 -0.01492804 0.01208434
v 0.03261256 -0.01491927 0.02315123
v 0.03133259 -0.01490465 0.02137762
v 0.03127333 -0.01490173 0.01951789
v 0.02323801 -0.01408608 0.03221574
v 0.05702668 -0.00278688 0.03221574
v 0.05955698 -0.00248869 0.00472615
v 0.05969327 -0.00100356 0.00472615
v 0.04305967 -0.01487834 0.00650784
v 0.03450880 -0.01491342 0.02316738
v 0.04402557 -0.01486957 0.00472615
v 0.04431593 -0.01486373 0.00499529
v 0.04275153 -0.01486957 0.00929609
v 0.03452065 -0.01490465 0.02498405
v 0.03523174 -0.01488711 0.02610365
v 0.03328809 -0.01489588 0.02429237
v 0.02695938 -0.01429073 0.03221574
v 0.02509870 -0.01420887 0.03221574
v 0.03148666 -0.01489588 0.02247839
v 0.05701483 -0.00285412 0.03221574
v 0.05951550 -0.00278103 0.00472615
v 0.03624505 -0.01489296 0.02509439
v 0.04487295 -0.01484618 0.00472615
v 0.03792796 -0.01483157 0.02677919
v 0.03718724 -0.01486957 0.02604175
v 0.03624505 -0.01488127 0.02609827
v 0.03996642 -0.01448075 0.03221574
v 0.03810574 -0.01446906 0.03221574
v 0.02881415 -0.01434042 0.03221574
v 0.05665928 -0.00480992 0.03221574
v 0.05925476 -0.00406151 0.00472615
v 0.04538257 -0.01482572 0.00472615
v 0.03996642 -0.01474386 0.02695413
v 0.03996642 -0.01469124 0.02881117
v 0.04151305 -0.01446321 0.03221574
v 0.05914810 -0.00452927 0.00472615
v 0.05629188 -0.00604655 0.03221574
v 0.04739732 -0.01465616 0.00472615
v 0.04554256 -0.01477895 0.00650784
v 0.04182118 -0.01458015 0.02881117
v 0.04336781 -0.01437551 0.03221574
v 0.04182118 -0.01445736 0.03221574
v 0.05849627 -0.00651138 0.00472615
v 0.05609041 -0.00651430 0.03221574
v 0.04925801 -0.01432873 0.00472615
v 0.04554256 -0.01415332 0.03221574
v 0.04522850 -0.01420302 0.03221574
v 0.04368187 -0.01439889 0.03067090
v 0.04368187 -0.01435504 0.03221574
v 0.05847257 -0.00656400 0.00472615
v 0.05512451 -0.00834439 0.03221574
v 0.05787406 -0.00788833 0.00472615
v 0.05111870 -0.01378497 0.00472615
v 0.04708918 -0.01387559 0.03221574
v 0.05511266 -0.00836486 0.03221574
v 0.05735852 -0.00877122 0.00472615
v 0.05246385 -0.01322951 0.00472615
v 0.04995725 -0.01289623 0.03221574
v 0.04913357 -0.01323243 0.03221574
v 0.04892617 -0.01329967 0.03221574
v 0.04742695 -0.01377327 0.03221574
v 0.05729334 -0.00887354 0.00472615
v 0.05733482 -0.00880922 0.00472615
v 0.05452008 -0.00926236 0.03221574
v 0.05339419 -0.01270036 0.00472615
v 0.05002243 -0.01286115 0.03221574
v 0.05434824 -0.00952255 0.03221574
v 0.05417047 -0.00978274 0.03221574
v 0.05639855 -0.01006339 0.00472615
v 0.05344752 -0.01266235 0.00472615
v 0.05228607 -0.01149589 0.03221574
v 0.05334678 -0.01056038 0.03221574
v 0.05561042 -0.01099305 0.00472615
v 0.05468008 -0.01177362 0.00472615
v 0.05242236 -0.01139357 0.03221574
v 0.05556894 -0.01102814 0.00472615
f 1 2 3
f 1 3 4
f 1 4 5
f 1 5 6
f 1 6 7
f 1 7 8
f 1 8 9
f 1 9 2
f 2 10 11
f 2 11 3
f 2 9 12
f 2 12 10
f 3 11 13
f 3 13 14
f 3 14 4
f 4 15 5
f 4 14 16
f 4 16 17
f 4 17 18
f 4 18 15
f 5 19 6
f 5 15 20
f 5 20 19
f 6 19 21
f 6 21 7
f 7 21 22
f 7 22 23
f 7 23 24
f 7 24 25
f 7 25 8
f 8 25 26
f 8 26 9
f 9 27 28
f 9 28 12
f 9 26 27
f 10 29 11
f 10 12 30
f 10 30 29
f 11 29 31
f 11 31 32
f 11 32 33
f 11 33 34
f 11 34 13
f 12 28 30
f 13 34 33
f 13 33 53
f 13 53 62
f 13 62 61
f 13 61 60
f 13 60 72
f 13 72 85
f 13 85 84
f 13 84 99
f 13 99 109
f 13 109 118
f 13 118 130
f 13 130 151
f 13 151 161
f 13 161 162
f 13 162 173
f 13 173 191
f 13 191 200
f 13 200 204
f 13 204 208
f 13 208 216
f 13 216 227
f 13 227 235
f 13 235 245
f 13 245 258
f 13 258 257
f 13 257 269
f 13 269 268
f 13 268 267
f 13 267 275
f 13 275 282
f 13 282 281
f 13 281 289
f 13 289 287
f 13 287 286
f 13 286 294
f 13 294 301
f 13 301 300
f 13 300 299
f 13 299 298
f 13 298 306
f 13 306 311
f 13 311 315
f 13 315 312
f 13 312 308
f 13 308 307
f 13 307 304
f 13 304 295
f 13 295 291
f 13 291 284
f 13 284 277
f 13 277 270
f 13 270 260
f 13 260 246
f 13 246 237
f 13 237 229
f 13 229 217
f 13 217 210
f 13 210 201
f 13 201 192
f 13 192 174
f 13 174 163
f 13 163 153
f 13 153 133
f 13 133 119
f 13 119 110
f 13 110 100
f 13 100 86
f 13 86 73
f 13 73 63
f 13 63 54
f 13 54 41
f 13 41 38
f 13 38 37
f 13 37 40
f 13 40 39
f 13 39 20
f 13 20 36
f 13 36 35
f 13 35 18
f 13 18 17
f 13 17 16
f 13 16 14
f 15 18 35
f 15 35 36
f 15 36 20
f 19 37 38
f 19 38 21
f 19 20 39
f 19 39 40
f 19 40 37
f 21 38 41
f 21 41 42
f 21 42 22
f 22 42 43
f 22 43 23
f 23 43 44
f 23 44 24
f 24 44 25
f 25 44 56
f 25 56 64
f 25 64 76
f 25 76 75
f 25 75 74
f 25 74 88
f 25 88 87
f 25 87 101
f 25 101 111
f 25 111 120
f 25 120 135
f 25 135 134
f 25 134 155
f 25 155 154
f 25 154 166
f 25 166 165
f 25 165 164
f 25 164 175
f 25 175 194
f 25 194 193
f 25 193 202
f 25 202 211
f 25 211 219
f 25 219 218
f 25 218 230
f 25 230 238
f 25 238 248
f 25 248 247
f 25 247 261
f 25 261 271
f 25 271 276
f 25 276 283
f 25 283 290
f 25 290 292
f 25 292 296
f 25 296 303
f 25 303 302
f 25 302 309
f 25 309 313
f 25 313 316
f 25 316 314
f 25 314 310
f 25 310 305
f 25 305 297
f 25 297 293
f 25 293 285
f 25 285 278
f 25 278 272
f 25 272 263
f 25 263 251
f 25 251 240
f 25 240 231
f 25 231 224
f 25 224 214
f 25 214 213
f 25 213 209
f 25 209 199
f 25 199 189
f 25 189 188
f 25 188 187
f 25 187 186
f 25 186 185
f 25 185 184
f 25 184 183
f 25 183 182
f 25 182 181
f 25 181 177
f 25 177 169
f 25 169 168
f 25 168 158
f 25 158 157
f 25 157 148
f 25 148 147
f 25 147 146
f 25 146 145
f 25 145 144
f 25 144 141
f 25 141 140
f 25 140 139
f 25 139 138
f 25 138 137
f 25 137 136
f 25 136 122
f 25 122 115
f 25 115 106
f 25 106 97
f 25 97 96
f 25 96 95
f 25 95 94
f 25 94 93
f 25 93 89
f 25 89 77
f 25 77 67
f 25 67 66
f 25 66 57
f 25 57 46
f 25 46 49
f 25 49 45
f 25 45 28
f 25 28 27
f 25 27 26
f 28 45 30
f 29 30 46
f 29 46 47
f 29 47 48
f 29 48 31
f 30 45 49
f 30 49 46
f 31 48 50
f 31 50 51
f 31 51 52
f 31 52 53
f 31 53 33
f 31 33 32
f 41 54 42
f 42 54 55
f 42 55 43
f 43 55 56
f 43 56 44
f 46 57 58
f 46 58 50
f 46 50 47
f 47 50 48
f 50 58 51
f 51 58 59
f 51 59 52
f 52 60 61
f 52 61 62
f 52 62 53
f 52 59 60
f 54 63 64
f 54 64 65
f 54 65 55
f 55 65 56
f 56 65 64
f 57 66 58
f 58 66 67
f 58 67 68
f 58 68 59
f 59 69 70
f 59 70 71
f 59 71 72
f 59 72 60
f 59 68 69
f 63 73 74
f 63 74 75
f 63 75 76
f 63 76 64
f 67 77 68
f 68 77 78
f 68 78 79
f 68 79 69
f 69 79 80
f 69 80 81
f 69 81 70
f 70 82 71
f 70 81 82
f 71 82 83
f 71 83 84
f 71 84 85
f 71 85 72
f 73 86 87
f 73 87 88
f 73 88 74
f 77 89 78
f 78 80 79
f 78 89 80
f 80 89 81
f 81 90 91
f 81 91 92
f 81 92 82
f 81 89 93
f 81 93 94
f 81 94 95
f 81 95 96
f 81 96 97
f 81 97 90
f 82 92 98
f 82 98 83
f 83 98 99
f 83 99 84
f 86 100 87
f 87 100 101
f 90 97 91
f 91 97 102
f 91 102 103
f 91 103 92
f 92 104 98
f 92 103 105
f 92 105 104
f 97 106 102
f 98 104 107
f 98 107 108
f 98 108 99
f 99 108 109
f 100 110 111
f 100 111 101
f 102 112 103
f 102 106 112
f 103 112 105
f 104 113 107
f 104 105 114
f 104 114 113
f 105 112 114
f 106 115 112
f 107 116 117
f 107 117 108
f 107 113 116
f 108 117 109
f 109 117 118
f 110 119 120
f 110 120 111
f 112 121 114
f 112 115 122
f 112 122 121
f 113 123 116
f 113 114 123
f 114 121 124
f 114 124 125
f 114 125 126
f 114 126 127
f 114 127 123
f 116 128 131
f 116 131 129
f 116 129 117
f 116 123 128
f 117 129 118
f 118 129 131
f 118 131 132
f 118 132 130
f 119 133 134
f 119 134 135
f 119 135 120
f 121 122 136
f 121 136 137
f 121 137 138
f 121 138 139
f 121 139 140
f 121 140 141
f 121 141 124
f 123 127 128
f 124 142 143
f 124 143 125
f 124 141 144
f 124 144 145
f 124 145 146
f 124 146 147
f 124 147 148
f 124 148 142
f 125 143 149
f 125 149 126
f 126 149 150
f 126 150 128
f 126 128 127
f 128 150 132
f 128 132 131
f 130 132 151
f 132 152 151
f 132 150 152
f 133 153 154
f 133 154 155
f 133 155 134
f 142 156 143
f 142 148 157
f 142 157 158
f 142 158 156
f 143 156 159
f 143 159 149
f 149 159 160
f 149 160 150
f 150 160 152
f 151 152 161
f 152 162 161
f 152 160 162
f 153 163 164
f 153 164 165
f 153 165 166
f 153 166 154
f 156 167 159
f 156 158 168
f 156 168 169
f 156 169 167
f 159 170 171
f 159 171 160
f 159 167 170
f 160 171 172
f 160 172 162
f 162 172 173
f 163 174 175
f 163 175 164
f 167 176 170
f 167 169 177
f 167 177 176
f 170 178 179
f 170 179 180
f 170 180 171
f 170 176 177
f 170 177 181
f 170 181 182
f 170 182 183
f 170 183 184
f 170 184 185
f 170 185 186
f 170 186 187
f 170 187 188
f 170 188 189
f 170 189 178
f 171 180 190
f 171 190 172
f 172 191 173
f 172 190 191
f 174 192 193
f 174 193 194
f 174 194 175
f 178 195 196
f 178 196 179
f 178 189 195
f 179 197 180
f 179 196 198
f 179 198 197
f 180 197 190
f 189 199 195
f 190 200 191
f 190 197 200
f 192 201 202
f 192 202 193
f 195 199 203
f 195 203 196
f 196 203 198
f 197 204 200
f 197 198 203
f 197 203 205
f 197 205 206
f 197 206 207
f 197 207 208
f 197 208 204
f 199 209 203
f 201 210 202
f 202 210 211
f 203 209 205
f 205 212 206
f 205 209 213
f 205 213 214
f 205 214 212
f 206 212 215
f 206 215 207
f 207 215 216
f 207 216 208
f 210 217 218
f 210 218 219
f 210 219 211
f 212 220 221
f 212 221 215
f 212 214 222
f 212 222 223
f 212 223 220
f 214 224 222
f 215 225 226
f 215 226 227
f 215 227 216
f 215 221 223
f 215 223 228
f 215 228 225
f 217 229 230
f 217 230 218
f 220 223 221
f 222 231 232
f 222 232 233
f 222 233 223
f 222 224 231
f 223 233 228
f 225 228 226
f 226 228 234
f 226 234 227
f 227 234 235
f 228 233 236
f 228 236 234
f 229 237 230
f 230 237 238
f 231 239 232
f 231 240 239
f 232 239 241
f 232 241 236
f 232 236 233
f 234 236 241
f 234 241 242
f 234 242 243
f 234 243 244
f 234 244 235
f 235 244 243
f 235 243 245
f 237 246 247
f 237 247 248
f 237 248 238
f 239 240 249
f 239 249 250
f 239 250 241
f 240 251 252
f 240 252 253
f 240 253 249
f 241 250 242
f 242 250 254
f 242 254 255
f 242 255 256
f 242 256 257
f 242 257 258
f 242 258 259
f 242 259 243
f 243 259 245
f 245 259 258
f 246 260 261
f 246 261 247
f 249 253 262
f 249 262 250
f 250 262 254
f 251 263 252
f 252 263 253
f 253 263 264
f 253 264 265
f 253 265 262
f 254 262 266
f 254 266 255
f 255 266 264
f 255 264 267
f 255 267 268
f 255 268 269
f 255 269 257
f 255 257 256
f 260 270 261
f 261 270 271
f 262 265 266
f 263 272 264
f 264 266 265
f 264 272 273
f 264 273 274
f 264 274 267
f 267 274 275
f 270 276 271
f 270 277 276
f 272 278 279
f 272 279 273
f 273 279 280
f 273 280 274
f 274 280 281
f 274 281 282
f 274 282 275
f 276 277 283
f 277 284 283
f 278 285 286
f 278 286 287
f 278 287 288
f 278 288 279
f 279 288 280
f 280 288 289
f 280 289 281
f 283 284 290
f 284 291 292
f 284 292 290
f 285 293 294
f 285 294 286
f 287 289 288
f 291 295 292
f 292 295 296
f 293 297 298
f 293 298 299
f 293 299 300
f 293 300 301
f 293 301 294
f 295 302 303
f 295 303 296
f 295 304 302
f 297 305 306
f 297 306 298
f 302 304 307
f 302 307 308
f 302 308 309
f 305 310 311
f 305 311 306
f 308 312 313
f 308 313 309
f 310 314 311
f 311 314 315
f 312 315 313
f 313 315 316
f 314 316 315

