# https://github.com/mikedh/trimesh
v 0.00837108 0.03613734 -0.07714853
v 0.00837108 0.03613027 -0.08272142
v 0.00279153 0.03612320 -0.07714853
v 0.00279153 0.03599586 -0.07528812
v 0.00837108 0.03599586 -0.07528812
v 0.06970891 0.03439005 -0.07157007
v 0.07156876 0.03439712 -0.07343049
v 0.07341931 0.03439712 -0.07528812
v 0.07341931 0.03440420 -0.07714853
v 0.07341931 0.03440420 -0.08272142
v 0.00837108 0.03601001 -0.08457904
v 0.00279153 0.03599586 -0.08457904
v 0.00279153 0.03610905 -0.08272142
v 0.00279153 0.03611612 -0.08086379
v 0.07341931 0.03439712 -0.08457904
v 0.07156876 0.03440420 -0.08643946
v 0.06970891 0.03439712 -0.08829708
v 0.06784906 0.03434053 -0.09015751
v 0.00093169 0.03591097 -0.08272142
v -0.00835826 0.03489231 -0.08086379
v -0.00835826 0.03489231 -0.07900616
v -0.00835826 0.03487108 -0.07714853
v -0.00835826 0.03480742 -0.07528812
v -0.00649841 0.03489938 -0.07343049
v -0.00463856 0.03485694 -0.07157007
v -0.00278801 0.03459520 -0.06971244
v -0.00092816 0.03463764 -0.06971244
v 0.06784906 0.03412831 -0.06971244
v 0.06982980 0.03390901 -0.06955043
v 0.07156876 0.03419197 -0.07157007
v 0.07341931 0.03421319 -0.07343049
v 0.07516757 0.03393023 -0.07528812
v 0.07524196 0.03393023 -0.07714853
v 0.07524196 0.03393023 -0.07900616
v 0.07520477 0.03393023 -0.08272142
v 0.01766103 0.03492060 -0.09015751
v 0.01580118 0.03492060 -0.09015751
v -0.00092816 0.03489938 -0.09015751
v 0.05111972 0.03458105 -0.09015751
v -0.00278801 0.03484279 -0.09015751
v -0.00463856 0.03495597 -0.08829708
v -0.00649841 0.03497012 -0.08643946
v 0.07513037 0.03392316 -0.08457904
v 0.07341931 0.03426979 -0.08643946
v 0.07156876 0.03427686 -0.08829708
v 0.06970891 0.03420612 -0.09015751
v 0.06784906 0.03387364 -0.09163522
v -0.00835826 0.03482864 -0.08457904
v -0.00835826 0.03487816 -0.08272142
v -0.01007862 0.03412831 -0.08086379
v -0.01007862 0.03412831 -0.07900616
v -0.01006932 0.03411416 -0.07714853
v -0.00998563 0.03405049 -0.07528812
v -0.00835826 0.03446786 -0.07343049
v -0.00649841 0.03446079 -0.07157007
v -0.00478735 0.03412831 -0.06955322
v -0.00425729 0.03368971 -0.06852524
v -0.00278801 0.03385949 -0.06833808
v -0.00092816 0.03390901 -0.06828221
v 0.00093169 0.03390194 -0.06828501
v 0.06784906 0.03365434 -0.06854480
v 0.06929974 0.03359068 -0.06862580
v 0.07053654 0.03342797 -0.06882135
v 0.07156876 0.03371801 -0.07015939
v 0.07327982 0.03371094 -0.07169298
v 0.07480490 0.03374631 -0.07343049
v 0.07609749 0.03335723 -0.07528812
v 0.07617189 0.03342797 -0.07714853
v 0.07617189 0.03342090 -0.07900616
v 0.07615329 0.03341383 -0.08086379
v 0.07613469 0.03339260 -0.08272142
v 0.01766103 0.03416368 -0.09190060
v 0.05297957 0.03397268 -0.09177211
v -0.00092816 0.03412831 -0.09183635
v 0.01580118 0.03416368 -0.09189222
v 0.00093169 0.03413538 -0.09184473
v -0.00278801 0.03407171 -0.09176372
v -0.00463856 0.03451031 -0.09015751
v -0.00649841 0.03463057 -0.08829708
v -0.00835826 0.03457397 -0.08643946
v 0.07606029 0.03331479 -0.08457904
v 0.07487000 0.03379582 -0.08643946
v 0.07339141 0.03382412 -0.08826357
v 0.07456312 0.03360482 -0.08761828
v 0.07149436 0.03379582 -0.09011839
v 0.07083412 0.03356238 -0.09123018
v 0.06970891 0.03373923 -0.09146483
v 0.06784906 0.03298231 -0.09256543
v 0.05297957 0.03315208 -0.09269952
v -0.00999493 0.03406464 -0.08457904
v -0.01006002 0.03411416 -0.08272142
v -0.01100855 0.03324405 -0.08086379
v -0.01100855 0.03325112 -0.07900616
v -0.01099925 0.03322990 -0.07714853
v -0.00966016 0.03377460 -0.07343049
v -0.01091556 0.03310256 -0.07528812
v -0.00820947 0.03376753 -0.07170136
v -0.00937188 0.03351994 -0.07240810
v -0.00649841 0.03377460 -0.07017615
v -0.00549409 0.03341383 -0.06882693
v -0.00478735 0.03268519 -0.06804757
v -0.00355985 0.03154627 -0.06693578
v -0.00288101 0.03240223 -0.06731848
v -0.00092816 0.03267812 -0.06735201
v 0.00093169 0.03267812 -0.06735759
v 0.06784906 0.03252957 -0.06764811
v 0.06982980 0.03269934 -0.06805315
v 0.07156876 0.03211927 -0.06837998
v 0.07257308 0.03170190 -0.06871240
v 0.07156876 0.03304597 -0.06922918
v 0.07256378 0.03349871 -0.07057841
v 0.07445153 0.03352701 -0.07239413
v 0.07573482 0.03299646 -0.07343049
v 0.07653456 0.03206975 -0.07343049
v 0.07680424 0.03243053 -0.07528812
v 0.07686004 0.03249420 -0.07714853
v 0.07686004 0.03249420 -0.07900616
v 0.07684143 0.03248712 -0.08086379
v 0.07682283 0.03246590 -0.08272142
v 0.07675774 0.03238808 -0.08457904
v 0.01766103 0.03328649 -0.09283081
v -0.00092816 0.03314501 -0.09276656
v -0.00278801 0.03302475 -0.09269393
v -0.00463856 0.03378168 -0.09144248
v -0.00636822 0.03383827 -0.09005974
v -0.00827457 0.03388779 -0.08821608
v -0.00942768 0.03357653 -0.08754007
v -0.00971595 0.03383119 -0.08643946
v 0.07579062 0.03303890 -0.08643946
v 0.07655316 0.03210512 -0.08643946
v 0.07274977 0.03360482 -0.08947591
v 0.07632997 0.03179386 -0.08756241
v 0.07522336 0.03248712 -0.08821049
v 0.07398657 0.03317331 -0.08885856
v 0.07068534 0.03165238 -0.09297327
v 0.06970891 0.03278423 -0.09239224
v 0.07207092 0.03315208 -0.09071340
v 0.07138278 0.03240223 -0.09190060
v 0.06970891 0.03185753 -0.09309060
v 0.06784906 0.03205560 -0.09320233
v 0.06598922 0.03207683 -0.09321630
v 0.05297957 0.03222538 -0.09330289
v 0.05111972 0.03223245 -0.09332245
v -0.01092485 0.03310964 -0.08457904
v -0.01098995 0.03321575 -0.08272142
v -0.01146421 0.03228905 -0.08272142
v -0.01148281 0.03231027 -0.08086379
v -0.01149211 0.03231734 -0.07900616
v -0.01148281 0.03230320 -0.07714853
v -0.01141771 0.03217586 -0.07528812
v -0.01061798 0.03252249 -0.07341932
v -0.01127823 0.03189997 -0.07403387
v -0.00748413 0.03349164 -0.07059517
v -0.01322177 0.02440145 -0.06849731
v -0.01145491 0.02443682 -0.06667600
v -0.00965086 0.02440853 -0.06538823
v -0.00463856 0.02624779 -0.06538823
v -0.00232305 0.03169482 -0.06688550
v -0.00829317 0.02500982 -0.06538823
v -0.00650771 0.02570308 -0.06538823
v -0.00092816 0.03175142 -0.06686595
v 0.00093169 0.03175142 -0.06686595
v 0.06598922 0.03146845 -0.06694975
v 0.06598922 0.03252957 -0.06763693
v 0.06784906 0.03144016 -0.06695534
v 0.06983910 0.03078227 -0.06704193
v 0.07156876 0.03066908 -0.06776264
v 0.07649736 0.02254804 -0.06676818
v 0.07380058 0.03297523 -0.07115665
v 0.07712971 0.02130301 -0.06655588
v 0.07773416 0.02187601 -0.06716205
v 0.07446083 0.03173727 -0.07053651
v 0.07507458 0.03234564 -0.07178237
v 0.07628348 0.03171605 -0.07240531
v 0.07705531 0.03066908 -0.07343049
v 0.07757607 0.03066908 -0.07528812
v 0.07831071 0.02274612 -0.06839954
v 0.07767837 0.03066908 -0.07714853
v 0.07766906 0.03066908 -0.07900616
v 0.07763187 0.03066908 -0.08086379
v 0.07758538 0.03066908 -0.08272142
v 0.07746448 0.03066908 -0.08457904
v 0.01952088 0.03235271 -0.09333363
v -0.00092816 0.03221831 -0.09320793
v -0.00278801 0.03209805 -0.09315764
v -0.00398762 0.03185753 -0.09305428
v -0.00461997 0.03249420 -0.09239224
v -0.00566148 0.03351286 -0.09115196
v -0.00759573 0.03356945 -0.08937814
v -0.00971595 0.03237394 -0.08821608
v -0.01107364 0.03127038 -0.08717134
v -0.01070167 0.03253664 -0.08650650
v -0.00883252 0.03288327 -0.08878034
v 0.07706462 0.03066908 -0.08643946
v 0.07647876 0.03066908 -0.08779706
v 0.07581851 0.03066908 -0.08872448
v 0.07463751 0.03193534 -0.08951502
v 0.07337281 0.03254371 -0.09011560
v 0.07276836 0.03191412 -0.09133354
v 0.07177334 0.03066908 -0.09247884
v 0.07204302 0.02880860 -0.09266600
v 0.07084342 0.03066908 -0.09305149
v 0.06970891 0.03066908 -0.09334759
v 0.06784906 0.03066908 -0.09355151
v 0.05111972 0.03066908 -0.09375822
v -0.01129682 0.03192119 -0.08593106
v -0.01141771 0.03217586 -0.08457904
v -0.01498863 0.02433071 -0.08272142
v -0.01500722 0.02435901 -0.08086379
v -0.01501652 0.02438023 -0.07900616
v -0.01501652 0.02438023 -0.07714853
v -0.01500722 0.02436608 -0.07528812
v -0.01495143 0.02429534 -0.07343049
v -0.01489563 0.02421045 -0.07236620
v -0.01473754 0.02360208 -0.07112871
v -0.01342635 0.02323423 -0.06822076
v -0.01265451 0.02323423 -0.06729055
v -0.01438417 0.02307860 -0.06988005
v -0.01172459 0.02323423 -0.06644414
v -0.01023671 0.02348182 -0.06538823
v -0.00372724 0.02643878 -0.06538823
v -0.00278801 0.02653782 -0.06538823
v -0.00163491 0.02658027 -0.06538823
v -0.00092816 0.02659442 -0.06538823
v 0.01395063 0.02651660 -0.06538823
v 0.06412936 0.03147553 -0.06694696
v 0.05652258 0.02542012 -0.06538823
v 0.05837313 0.02534230 -0.06538823
v 0.05854982 0.02532816 -0.06538823
v 0.06784906 0.02880860 -0.06642738
v 0.06930904 0.03023757 -0.06682405
v 0.07527916 0.02137375 -0.06601954
v 0.07713901 0.01951327 -0.06615921
v 0.07815262 0.02063804 -0.06683522
v 0.07878498 0.02137375 -0.06971244
v 0.07811543 0.02810827 -0.07580211
v 0.07842230 0.02130301 -0.06781013
v 0.07813403 0.02821438 -0.07714853
v 0.07812473 0.02815071 -0.07900616
v 0.07808753 0.02795264 -0.08220742
v 0.07806893 0.02779701 -0.08344770
v 0.07778996 0.02880860 -0.08457904
v 0.07740869 0.02880860 -0.08643946
v 0.02138073 0.03066908 -0.09376940
v 0.01952088 0.03066908 -0.09376940
v -0.00092816 0.03066908 -0.09356269
v -0.00278801 0.03066908 -0.09347050
v -0.00432239 0.03066908 -0.09316602
v -0.00525231 0.03066908 -0.09280288
v -0.00607995 0.03252957 -0.09148438
v -0.00700987 0.03252957 -0.09071340
v -0.00827457 0.03237394 -0.08968821
v -0.00931608 0.03164531 -0.08925244
v -0.01047849 0.03065494 -0.08817138
v -0.01121313 0.03003242 -0.08746744
v -0.01465385 0.02323423 -0.08510420
v -0.01494213 0.02425997 -0.08392817
v 0.07666475 0.02880860 -0.08807082
v 0.07603240 0.02880860 -0.08900103
v 0.07488859 0.03066908 -0.08976363
v 0.07394007 0.03066908 -0.09069105
v 0.07301014 0.03066908 -0.09154863
v 0.07323333 0.02880860 -0.09173858
v 0.07224760 0.02694812 -0.09280846
v 0.07111310 0.02880860 -0.09317440
v 0.06970891 0.02880860 -0.09356827
v 0.06784906 0.02880860 -0.09373868
v 0.06784906 0.02694812 -0.09387276
v 0.04925987 0.02880860 -0.09388113
v 0.03996062 0.02880860 -0.09388673
v -0.01534199 0.02323423 -0.08272142
v -0.01536060 0.02323423 -0.08086379
v -0.01536989 0.02323423 -0.07900616
v -0.01536060 0.02323423 -0.07714853
v -0.01532340 0.02323423 -0.07528812
v -0.01522110 0.02323423 -0.07343049
v -0.01497933 0.02307860 -0.07167622
v -0.01487703 0.02235704 -0.07061472
v -0.01357514 0.02137375 -0.06802801
v -0.01284050 0.02137375 -0.06709781
v -0.01450506 0.02137375 -0.06957277
v -0.01078537 0.02137375 -0.06538823
v -0.01069237 0.02179819 -0.06538823
v -0.01050639 0.02323423 -0.06551393
v -0.01191058 0.02137375 -0.06628212
v -0.01032970 0.02323423 -0.06538823
v 0.06027947 0.02499567 -0.06538823
v 0.06784906 0.02694812 -0.06613407
v 0.06970891 0.02694812 -0.06630727
v 0.06983910 0.02895008 -0.06665644
v 0.06041896 0.02496738 -0.06538823
v 0.07527916 0.01951327 -0.06580445
v 0.06418516 0.02321301 -0.06538823
v 0.07713901 0.01765986 -0.06608379
v 0.07829211 0.01765986 -0.06666761
v 0.07824562 0.01951327 -0.06672628
v 0.07864549 0.01951327 -0.06785203
v 0.07870128 0.01765986 -0.06785203
v 0.07881288 0.01951327 -0.06971244
v 0.07890586 0.01207841 -0.07528812
v 0.07814333 0.02708253 -0.08278566
v 0.07820842 0.02694812 -0.08086379
v 0.07824562 0.02694812 -0.07900616
v 0.07826422 0.02694812 -0.07714853
v 0.07810613 0.02655197 -0.08404550
v 0.07801314 0.02708253 -0.08463212
v 0.07765047 0.02694812 -0.08643946
v 0.02696027 0.02880860 -0.09388113
v 0.02324058 0.02880860 -0.09387555
v 0.02138073 0.02880860 -0.09386997
v -0.00092816 0.02694812 -0.09387276
v -0.00092816 0.02880860 -0.09374426
v 0.03253052 0.02880860 -0.09388673
v -0.00278801 0.02880860 -0.09367721
v -0.00463856 0.02694812 -0.09349285
v -0.00477805 0.02888642 -0.09325821
v -0.00569868 0.02831342 -0.09302076
v -0.00548479 0.02955138 -0.09291182
v -0.00666580 0.03078934 -0.09179166
v -0.00740044 0.03148967 -0.09105978
v -0.00944627 0.03066908 -0.08938093
v -0.01061798 0.02880860 -0.08859877
v -0.00826527 0.03078934 -0.09044802
v -0.01135262 0.02880860 -0.08767136
v -0.01372393 0.02323423 -0.08621040
v -0.01459806 0.01579938 -0.08523550
v -0.01536060 0.01579938 -0.08430528
v -0.01533270 0.01765986 -0.08430249
v -0.01530480 0.01951327 -0.08429411
v -0.01524900 0.02137375 -0.08428853
v -0.01509092 0.02323423 -0.08417400
v -0.01080396 0.02694812 -0.08881946
v 0.07669265 0.02691275 -0.08844793
v 0.07616258 0.02750697 -0.08916584
v 0.07510247 0.02880860 -0.08997314
v 0.07416325 0.02880860 -0.09090335
v 0.07430274 0.02752112 -0.09103743
v 0.07357740 0.02691982 -0.09174137
v 0.07439573 0.02628316 -0.09112124
v 0.07227550 -0.02694927 -0.09282243
v 0.07131768 0.02694812 -0.09325821
v 0.06970891 0.02694812 -0.09371633
v 0.06784906 -0.02694927 -0.09387276
v 0.06598922 0.02694812 -0.09388393
v 0.05111972 0.02694812 -0.09392025
v 0.04925987 0.02694812 -0.09392304
v 0.03810077 0.02694812 -0.09392583
v -0.01563957 0.02137375 -0.08272142
v -0.01563957 0.02137375 -0.08086379
v -0.01563027 0.02137375 -0.07900616
v -0.01561167 0.02137375 -0.07714853
v -0.01557448 0.02137375 -0.07528812
v -0.01546288 0.02137375 -0.07343049
v -0.01518391 0.02137375 -0.07157007
v -0.01492353 0.02137375 -0.07050298
v -0.01293349 0.01951327 -0.06699724
v -0.01457946 0.01951327 -0.06941075
v -0.01364953 0.01951327 -0.06792745
v -0.01102715 0.01951327 -0.06538823
v -0.01201287 0.01951327 -0.06619274
v 0.07527916 0.01765986 -0.06578490
v 0.06513368 0.02239241 -0.06538823
v 0.06598922 0.02145864 -0.06538823
v 0.06763518 0.01952741 -0.06538823
v 0.06770027 0.01941423 -0.06538823
v 0.06776537 0.01923738 -0.06538823
v 0.06948573 0.01388230 -0.06538823
v 0.06951363 0.01379034 -0.06538823
v 0.06991349 0.01207841 -0.06538823
v 0.07527916 0.01579938 -0.06578210
v 0.07527916 -0.01394004 -0.06578210
v 0.07713901 -0.01765393 -0.06608658
v 0.07829211 -0.01765393 -0.06666761
v 0.07871059 0.00278308 -0.06785203
v 0.07883147 0.01207841 -0.06971244
v 0.07882217 0.01579938 -0.06971244
v 0.07892447 0.00836452 -0.07528812
v 0.07875708 0.01207841 -0.07714853
v 0.07810613 0.02566771 -0.08404550
v 0.07877568 0.00836452 -0.07714853
v 0.07801314 -0.02708367 -0.08462373
v 0.07765047 -0.02694927 -0.08643946
v 0.07669265 -0.02694927 -0.08845631
v 0.02138073 0.02694812 -0.09391745
v 0.01952088 0.02694812 -0.09391465
v -0.00092816 -0.02694927 -0.09385599
v -0.00278801 -0.02694927 -0.09379733
v -0.00278801 0.02694812 -0.09381130
v 0.01395063 -0.02694927 -0.09388952
v -0.00463856 -0.02694927 -0.09348448
v -0.00581957 -0.02694927 -0.09308501
v -0.00581957 0.02694812 -0.09308781
v -0.00674949 0.02694812 -0.09247325
v -0.00639612 0.02888642 -0.09242576
v -0.00777241 0.02880860 -0.09139220
v -0.00757712 0.03025171 -0.09121621
v -0.00870234 0.02880860 -0.09054300
v -0.00968806 0.02880860 -0.08961558
v -0.01371463 -0.02323538 -0.08621319
v -0.01460736 -0.00464470 -0.08524667
v -0.01460736 -0.00278422 -0.08524667
v -0.01460736 0.00278308 -0.08524387
v -0.01459806 0.01393889 -0.08523829
v -0.01090626 0.02509471 -0.08896192
v -0.01277541 -0.02323538 -0.08714340
v -0.01538849 0.00650404 -0.08431087
v -0.01537920 0.01207841 -0.08430808
v -0.01536989 0.01393889 -0.08430808
v -0.01596505 0.01021793 -0.08272142
v -0.01592785 0.01393889 -0.08272142
v -0.01589065 0.01579938 -0.08272142
v -0.01583486 0.01765986 -0.08272142
v -0.01576046 0.01951327 -0.08272142
v -0.00987404 0.02694812 -0.08979157
v 0.07624628 -0.02579619 -0.08926640
v 0.07623698 0.02626901 -0.08926081
v 0.07527916 0.02689153 -0.09014912
v 0.07439573 0.02576675 -0.09112124
v 0.07358669 -0.02689975 -0.09174417
v 0.07325192 -0.02880975 -0.09175813
v 0.07206162 -0.02880975 -0.09268555
v 0.07113170 -0.02880975 -0.09318279
v 0.07134558 -0.02694927 -0.09325821
v 0.07437713 -0.02624186 -0.09111006
v 0.06970891 -0.02694927 -0.09371633
v 0.06598922 -0.02694927 -0.09388393
v 0.06784906 -0.02880975 -0.09374147
v 0.05111972 -0.03067023 -0.09376661
v 0.04925987 -0.02880975 -0.09388113
v 0.05111972 -0.02694927 -0.09391186
v 0.04925987 -0.02694927 -0.09391465
v 0.03253052 -0.02694927 -0.09391465
v -0.01576976 0.01951327 -0.08086379
v -0.01573256 0.01951327 -0.07714853
v -0.01568607 0.01951327 -0.07528812
v -0.01558378 0.01951327 -0.07343049
v -0.01530480 0.01951327 -0.07157007
v -0.01498863 0.01951327 -0.07034097
v -0.01298929 0.01827530 -0.06694416
v -0.01463525 0.01765986 -0.06929623
v -0.01467245 0.01579938 -0.06920404
v -0.01378902 0.01579938 -0.06785203
v -0.01357514 0.01765986 -0.06767884
v -0.01120383 0.01765986 -0.06538823
v -0.01225465 0.01765986 -0.06627374
v 0.06993210 0.01195108 -0.06538823
v 0.07007158 0.01021793 -0.06538823
v 0.07008088 0.01009767 -0.06538823
v 0.07014598 0.00824426 -0.06538823
v 0.07018317 0.00639085 -0.06538823
v 0.07022967 0.00278308 -0.06538823
v 0.07024827 0.00092259 -0.06538823
v 0.07527916 -0.01580052 -0.06578490
v 0.07024827 -0.00100155 -0.06538823
v 0.07022967 -0.00278422 -0.06538823
v 0.07017388 -0.00650519 -0.06538823
v 0.07527916 -0.01765393 -0.06578769
v 0.07527916 -0.01951441 -0.06581562
v 0.07713901 -0.01951441 -0.06617039
v 0.07823632 -0.01951441 -0.06673186
v 0.07864549 -0.01951441 -0.06785203
v 0.07870128 -0.01765393 -0.06785203
v 0.07871059 -0.01021908 -0.06785203
v 0.07893376 -0.00464470 -0.07528812
v 0.07883147 -0.01021908 -0.06971244
v 0.07810613 -0.02655312 -0.08403432
v 0.07877568 -0.01021908 -0.07714853
v 0.07806893 -0.02779108 -0.08346167
v 0.07780855 -0.02880975 -0.08457904
v 0.07742728 -0.02880975 -0.08643946
v 0.07667404 -0.02880975 -0.08809316
v 0.07617189 -0.02757179 -0.08917981
v 0.07624628 -0.02632675 -0.08926640
v 0.02510042 -0.02694927 -0.09390907
v 0.01952088 -0.02694927 -0.09390069
v -0.00092816 -0.02880975 -0.09373308
v 0.02324058 -0.02880975 -0.09388393
v 0.02138073 -0.03067023 -0.09378617
v 0.01952088 -0.03067023 -0.09377499
v -0.00278801 -0.02880975 -0.09366884
v -0.00433169 -0.03067023 -0.09316881
v -0.00477805 -0.02888756 -0.09325540
v -0.00570798 -0.02832164 -0.09302076
v -0.00674949 -0.02694927 -0.09247604
v -0.00806069 0.02137375 -0.09157098
v -0.00802349 0.02509471 -0.09156260
v -0.00795840 0.02694812 -0.09154304
v -0.00806069 -0.01580052 -0.09159053
v -0.00806069 0.01207841 -0.09158774
v -0.00806069 0.01951327 -0.09157656
v -0.00888832 0.02694812 -0.09071898
v -0.01464455 -0.02323538 -0.08510420
v -0.01459806 -0.01580052 -0.08523550
v -0.01460736 -0.00835859 -0.08524387
v -0.01090626 -0.02508878 -0.08895354
v -0.01079467 -0.02694927 -0.08880269
v -0.01061798 -0.02880975 -0.08859040
v -0.01538849 -0.00650519 -0.08431646
v -0.01538849 -0.00092374 -0.08431646
v -0.01538849 0.00464356 -0.08431367
v -0.00997633 0.02509471 -0.08986978
v -0.01089696 -0.02323538 -0.08897589
v -0.00997633 -0.02508878 -0.08986978
v -0.01598364 0.00464356 -0.08272142
v -0.01597434 0.00836452 -0.08272142
v -0.01604874 0.00836452 -0.08086379
v -0.01597434 0.01393889 -0.08086379
v -0.01593715 0.01579938 -0.08086379
v -0.01586276 0.01765986 -0.08086379
v 0.07431204 -0.02747982 -0.09104581
v 0.07303804 -0.03067023 -0.09157656
v 0.07418185 -0.02880975 -0.09092290
v 0.07180124 -0.03067023 -0.09250677
v 0.07071323 -0.03167475 -0.09298445
v 0.07087132 -0.03067023 -0.09306546
v 0.06970891 -0.02880975 -0.09357665
v 0.04740002 -0.02880975 -0.09388952
v 0.06784906 -0.03067023 -0.09357107
v 0.05111972 -0.03226897 -0.09332804
v 0.04925987 -0.03067023 -0.09377499
v 0.06784906 -0.03208504 -0.09321630
v 0.04554017 -0.02880975 -0.09389231
v 0.04182047 -0.02880975 -0.09389511
v 0.03996062 -0.02880975 -0.09389511
v 0.03067997 -0.02880975 -0.09389231
v 0.02696027 -0.02880975 -0.09388952
v -0.01585345 0.01765986 -0.07900616
v -0.01582556 0.01765986 -0.07714853
v -0.01578836 0.01765986 -0.07528812
v -0.01567677 0.01765986 -0.07343049
v -0.01539779 0.01765986 -0.07157007
v -0.01503512 0.01765986 -0.07022644
v -0.01302648 0.01703734 -0.06690506
v -0.01507232 0.01579938 -0.07013425
v -0.01467245 -0.01580052 -0.06919846
v -0.01378902 -0.01580052 -0.06785203
v -0.01305438 0.01579938 -0.06687154
v -0.01133402 0.01579938 -0.06538823
v -0.01207796 0.01579938 -0.06601954
v 0.07013668 -0.00835859 -0.06538823
v 0.07007158 -0.01021908 -0.06538823
v 0.06992279 -0.01207956 -0.06538823
v 0.06990420 -0.01217152 -0.06538823
v 0.06952293 -0.01380563 -0.06538823
v 0.07527916 -0.02137489 -0.06603072
v 0.06770957 -0.01942245 -0.06538823
v 0.06599851 -0.02146686 -0.06538823
v 0.06419446 -0.02321415 -0.06538823
v 0.07712041 -0.02129708 -0.06656705
v 0.07814333 -0.02062504 -0.06683802
v 0.07842230 -0.02129708 -0.06781013
v 0.07879427 -0.02137489 -0.06971244
v 0.07881288 -0.01951441 -0.06971244
v 0.07882217 -0.01580052 -0.06971244
v 0.07892447 -0.00835859 -0.07528812
v 0.07812473 -0.02708367 -0.08279404
v 0.07876637 -0.01207956 -0.07714853
v 0.07890586 -0.01207956 -0.07528812
v 0.07885007 -0.01394004 -0.07528812
v 0.07808753 -0.02795378 -0.08222139
v 0.07794804 -0.02866827 -0.08279404
v 0.07761327 -0.03067023 -0.08272142
v 0.07749238 -0.03067023 -0.08457904
v 0.07709251 -0.03067023 -0.08643946
v 0.07650666 -0.03067023 -0.08782500
v 0.07605100 -0.02880975 -0.08902058
v 0.07491649 -0.03067023 -0.08978877
v 0.07512107 -0.02880975 -0.08999269
v -0.00092816 -0.03067023 -0.09355430
v 0.02324058 -0.03067023 -0.09378896
v 0.01952088 -0.03237508 -0.09333642
v -0.00092816 -0.03222653 -0.09320793
v -0.00278801 -0.03067023 -0.09347050
v -0.00400622 -0.03186575 -0.09305708
v -0.00526161 -0.03067023 -0.09280846
v -0.00549409 -0.02955960 -0.09291182
v -0.00639612 -0.02888756 -0.09242297
v -0.00777241 -0.02880975 -0.09138661
v -0.00795840 -0.02694927 -0.09154584
v -0.00803279 -0.02508878 -0.09157377
v -0.00806069 -0.01765393 -0.09158774
v -0.00898131 0.02323423 -0.09080279
v -0.00895341 0.02509471 -0.09079720
v -0.00898131 -0.02323538 -0.09080279
v -0.00899061 0.00464356 -0.09080837
v -0.00899061 0.01021793 -0.09080837
v -0.01494213 -0.02426819 -0.08392259
v -0.01510952 -0.02323538 -0.08417400
v -0.01525831 -0.02137489 -0.08430249
v -0.01530480 -0.01951441 -0.08431087
v -0.01533270 -0.01765393 -0.08430808
v -0.01535130 -0.01580052 -0.08430808
v -0.01121313 -0.03002649 -0.08746464
v -0.01107364 -0.03126445 -0.08718251
v -0.01536989 -0.01207956 -0.08431087
v -0.01537920 -0.01021908 -0.08431087
v -0.00986474 -0.02694927 -0.08978877
v -0.00968806 -0.02880975 -0.08961278
v -0.01047849 -0.03065608 -0.08816859
v -0.00944627 -0.03067023 -0.08937814
v -0.00931608 -0.03163938 -0.08924964
v -0.01598364 -0.00464470 -0.08272142
v -0.00896271 -0.02508878 -0.09079999
v -0.00888832 -0.02694927 -0.09071898
v -0.01606734 -0.00278422 -0.08086379
v -0.01605804 0.00464356 -0.08086379
v -0.01585345 0.01579938 -0.07528812
v -0.01589995 0.01579938 -0.07714853
v -0.01592785 0.01579938 -0.07900616
v 0.07278696 -0.03193649 -0.09135030
v 0.07396796 -0.03067023 -0.09071898
v 0.07141068 -0.03242460 -0.09192574
v 0.07088061 -0.03359182 -0.09126370
v 0.06970891 -0.03282075 -0.09242856
v 0.06970891 -0.03189404 -0.09310736
v 0.06970891 -0.03067023 -0.09336994
v 0.05297957 -0.03319567 -0.09273863
v 0.01766103 -0.03330886 -0.09284757
v 0.04182047 -0.03067023 -0.09378057
v 0.06784906 -0.03301882 -0.09258778
v -0.01547219 0.01579938 -0.07157007
v -0.01574187 0.01579938 -0.07343049
v -0.01507232 -0.01580052 -0.07012866
v -0.01548149 -0.01580052 -0.07157007
v -0.01463525 -0.01765393 -0.06928505
v -0.01365883 -0.01951441 -0.06791348
v -0.01358444 -0.01772467 -0.06767604
v -0.01303578 -0.01715167 -0.06689668
v -0.01305438 -0.01580052 -0.06687154
v -0.01132472 -0.01580052 -0.06538823
v -0.01207796 -0.01580052 -0.06602513
v 0.06784906 -0.02694927 -0.06613686
v 0.06784906 -0.02880975 -0.06642180
v 0.06984840 -0.02895830 -0.06665365
v 0.07055514 -0.02967279 -0.06693858
v 0.06040037 -0.02495437 -0.06538823
v 0.06984840 -0.03076927 -0.06704473
v 0.07649736 -0.02254919 -0.06677377
v 0.07773416 -0.02187008 -0.06715926
v 0.07832001 -0.02274726 -0.06839954
v 0.07759467 -0.03067023 -0.07528812
v 0.07811543 -0.02813064 -0.07574624
v 0.07813403 -0.02822967 -0.07714853
v 0.07811543 -0.02815186 -0.07900616
v 0.07765977 -0.03067023 -0.08086379
v 0.07683214 -0.03246705 -0.08272142
v 0.07677634 -0.03239630 -0.08457904
v 0.07657175 -0.03214164 -0.08643946
v 0.07634858 -0.03181623 -0.08758476
v 0.07583712 -0.03067023 -0.08875520
v 0.07465611 -0.03195771 -0.08953457
v -0.00278801 -0.03210627 -0.09315764
v 0.00093169 -0.03317445 -0.09278612
v -0.00092816 -0.03316030 -0.09277494
v 0.00093169 -0.03224775 -0.09321630
v -0.00462927 -0.03250241 -0.09242018
v -0.00278801 -0.03304004 -0.09270231
v -0.00610784 -0.03253071 -0.09151232
v -0.00740044 -0.03149082 -0.09105978
v -0.00666580 -0.03079049 -0.09179725
v -0.00757712 -0.03025286 -0.09121342
v -0.00870234 -0.02880975 -0.09054300
v -0.01499792 -0.02433893 -0.08272142
v -0.01536060 -0.02323538 -0.08272142
v -0.01129682 -0.03193649 -0.08594223
v -0.01141771 -0.03219116 -0.08457904
v -0.01566747 -0.02137489 -0.08272142
v -0.01576046 -0.01951441 -0.08272142
v -0.01583486 -0.01765393 -0.08272142
v -0.01589065 -0.01580052 -0.08272142
v -0.01591855 -0.01394004 -0.08272142
v -0.01593715 -0.01207956 -0.08272142
v -0.01597434 -0.00650519 -0.08272142
v -0.00970665 -0.03236801 -0.08821049
v -0.00942768 -0.03357060 -0.08753448
v -0.01070167 -0.03254486 -0.08651209
v -0.00827457 -0.03236801 -0.08969100
v -0.00884182 -0.03287734 -0.08877197
v -0.00703777 -0.03253071 -0.09071898
v -0.01604874 -0.00650519 -0.08086379
v -0.01588135 -0.01580052 -0.07714853
v -0.01581626 -0.01580052 -0.07528812
v -0.01573256 -0.01580052 -0.07343049
v 0.07340071 -0.03256608 -0.09013795
v 0.07211742 -0.03318153 -0.09074133
v 0.07276836 -0.03362012 -0.08950105
v 0.07152226 -0.03382527 -0.09013516
v 0.06970891 -0.03424971 -0.09015751
v 0.06970891 -0.03376160 -0.09149835
v 0.06784906 -0.03388186 -0.09166036
v 0.06598922 -0.03389601 -0.09167992
v 0.05297957 -0.03399505 -0.09180842
v 0.01766103 -0.03417190 -0.09191736
v 0.00093169 -0.03414360 -0.09185590
v -0.00092816 -0.03413653 -0.09184473
v -0.01503512 -0.01765393 -0.07021526
v -0.01568607 -0.01765393 -0.07343049
v -0.01541639 -0.01765393 -0.07157007
v -0.01458876 -0.01951441 -0.06940238
v -0.01358444 -0.02137489 -0.06801125
v -0.01295209 -0.01951441 -0.06698327
v -0.01299859 -0.01838963 -0.06693858
v -0.01225465 -0.01772467 -0.06626537
v -0.01130612 -0.01621789 -0.06538823
v 0.06784906 -0.03142008 -0.06696092
v 0.06931835 -0.03021749 -0.06682684
v 0.05874510 -0.02527978 -0.06538823
v 0.05854982 -0.02531515 -0.06538823
v 0.06981120 -0.03268634 -0.06806433
v 0.07156876 -0.03209919 -0.06839395
v 0.07156876 -0.03067023 -0.06777660
v 0.07255448 -0.03168182 -0.06872357
v 0.07445153 -0.03173134 -0.07054488
v 0.07629278 -0.03172427 -0.07239972
v 0.07654386 -0.03207797 -0.07343049
v 0.07707392 -0.03067023 -0.07343049
v 0.07681353 -0.03243875 -0.07528812
v 0.07770626 -0.03067023 -0.07714853
v 0.07768767 -0.03067023 -0.07900616
v 0.07686004 -0.03249534 -0.08086379
v 0.07614399 -0.03340082 -0.08272142
v 0.07606959 -0.03333008 -0.08457904
v 0.07582781 -0.03306834 -0.08643946
v 0.07458171 -0.03361305 -0.08764342
v 0.07524196 -0.03250949 -0.08823563
v 0.07401447 -0.03319567 -0.08888371
v -0.00278801 -0.03407286 -0.09177490
v -0.00463856 -0.03379697 -0.09147042
v -0.00568938 -0.03353523 -0.09118269
v -0.01501652 -0.02437430 -0.08086379
v -0.01147351 -0.03229019 -0.08272142
v -0.01537920 -0.02323538 -0.08086379
v -0.01503512 -0.02440260 -0.07900616
v -0.01092485 -0.03311786 -0.08457904
v -0.01098995 -0.03322397 -0.08272142
v -0.01538849 -0.02323538 -0.07900616
v -0.01566747 -0.02137489 -0.08086379
v -0.01577906 -0.01951441 -0.08086379
v -0.01592785 -0.01580052 -0.08086379
v -0.01597434 -0.01394004 -0.08086379
v -0.01603944 -0.00835859 -0.08086379
v -0.00971595 -0.03381819 -0.08643946
v -0.00759573 -0.03357768 -0.08938652
v -0.00827457 -0.03387479 -0.08821049
v -0.00835826 -0.03455390 -0.08643946
v -0.01591855 -0.01580052 -0.07900616
v -0.01582556 -0.01765393 -0.07714853
v -0.01577906 -0.01765393 -0.07528812
v 0.07340071 -0.03383942 -0.08827753
v 0.07156876 -0.03429923 -0.08829708
v 0.06784906 -0.03436997 -0.09015751
v 0.05111972 -0.03462464 -0.09015751
v 0.01952088 -0.03491468 -0.09015751
v 0.01766103 -0.03492882 -0.09015751
v 0.00093169 -0.03490760 -0.09015751
v -0.00092816 -0.03490053 -0.09015751
v -0.00278801 -0.03483686 -0.09015751
v -0.01498863 -0.01951441 -0.07033259
v -0.01570467 -0.01951441 -0.07528812
v -0.01560238 -0.01951441 -0.07343049
v -0.01532340 -0.01951441 -0.07157007
v -0.01451436 -0.02137489 -0.06955043
v -0.01493283 -0.02137489 -0.07048064
v -0.01343565 -0.02323538 -0.06820679
v -0.01285910 -0.02137489 -0.06708104
v -0.01192917 -0.02137489 -0.06626537
v -0.01202217 -0.01951441 -0.06618435
v -0.01121313 -0.01766808 -0.06538823
v 0.05668997 -0.02540004 -0.06538823
v 0.06598922 -0.03146253 -0.06695255
v 0.06784906 -0.03253071 -0.06766207
v 0.07049934 -0.03341497 -0.06883531
v 0.06926255 -0.03358475 -0.06863698
v 0.07156876 -0.03302590 -0.06924595
v 0.07255448 -0.03349279 -0.07058400
v 0.07379128 -0.03296930 -0.07115106
v 0.07507458 -0.03234678 -0.07177679
v 0.07446083 -0.03352816 -0.07239134
v 0.07573482 -0.03300467 -0.07343049
v 0.07611609 -0.03337253 -0.07528812
v 0.07619048 -0.03344327 -0.07714853
v 0.07686933 -0.03251656 -0.07714853
v 0.07686933 -0.03250949 -0.07900616
v 0.07619048 -0.03344327 -0.07900616
v 0.07617189 -0.03342912 -0.08086379
v 0.07521407 -0.03395260 -0.08272142
v 0.07513967 -0.03394553 -0.08457904
v 0.07489789 -0.03381819 -0.08643946
v -0.00463856 -0.03451853 -0.09015751
v -0.00638682 -0.03385356 -0.09006532
v -0.01148281 -0.03231141 -0.08086379
v -0.01503512 -0.02440260 -0.07714853
v -0.01149211 -0.03231849 -0.07900616
v -0.00999493 -0.03405164 -0.08457904
v -0.01099925 -0.03324519 -0.08086379
v -0.01006002 -0.03409408 -0.08272142
v -0.01537920 -0.02323538 -0.07714853
v -0.01565817 -0.02137489 -0.07900616
v -0.01574187 -0.01951441 -0.07714853
v -0.01584416 -0.01765393 -0.07900616
v -0.00649841 -0.03462464 -0.08829708
v -0.00649841 -0.03495005 -0.08643946
v -0.00835826 -0.03480856 -0.08457904
v 0.07341931 -0.03429923 -0.08643946
v 0.07341931 -0.03443364 -0.08457904
v 0.06970891 -0.03441949 -0.08829708
v 0.00837108 -0.03612434 -0.08272142
v 0.00837108 -0.03601116 -0.08457904
v 0.00279153 -0.03600408 -0.08457904
v -0.00463856 -0.03494297 -0.08829708
v -0.01559308 -0.02137489 -0.07528812
v -0.01548149 -0.02137489 -0.07343049
v -0.01520251 -0.02137489 -0.07157007
v -0.01439347 -0.02310097 -0.06986888
v -0.01488633 -0.02240064 -0.07059237
v -0.01322177 -0.02441675 -0.06848893
v -0.01267311 -0.02323538 -0.06727658
v -0.01174319 -0.02323538 -0.06642738
v -0.01081326 -0.02146686 -0.06538823
v -0.01083186 -0.02137489 -0.06538823
v -0.01102715 -0.01976200 -0.06538823
v -0.01105504 -0.01951441 -0.06538823
v -0.01118523 -0.01802886 -0.06538823
v 0.01395063 -0.02659556 -0.06538823
v 0.03771020 -0.03160401 -0.06692182
v -0.00092816 -0.03267219 -0.06734921
v 0.00465138 -0.03265805 -0.06736877
v 0.00837108 -0.03265097 -0.06738552
v 0.06598922 -0.03253071 -0.06763973
v 0.00279153 -0.02671582 -0.06538823
v 0.01766103 -0.03168182 -0.06688830
v 0.06784906 -0.03364842 -0.06855318
v 0.06598922 -0.03366256 -0.06853921
v 0.06981120 -0.03390308 -0.06955881
v 0.07156876 -0.03371208 -0.07017336
v 0.06784906 -0.03412238 -0.06971244
v 0.07327052 -0.03371916 -0.07169019
v 0.07480490 -0.03374038 -0.07343049
v 0.07341931 -0.03422849 -0.07343049
v 0.07518617 -0.03393845 -0.07528812
v 0.07526056 -0.03395260 -0.07714853
v 0.07526056 -0.03395260 -0.07900616
v 0.07524196 -0.03395260 -0.08086379
v -0.01148281 -0.03231141 -0.07714853
v -0.01501652 -0.02438138 -0.07528812
v -0.01100855 -0.03325227 -0.07900616
v -0.01006932 -0.03410823 -0.08086379
v -0.00835826 -0.03485101 -0.08272142
v -0.01534199 -0.02323538 -0.07528812
v -0.01563027 -0.02137489 -0.07714853
v 0.00093169 -0.03591919 -0.08272142
v 0.00279153 -0.03612434 -0.08272142
v 0.07341931 -0.03444071 -0.08272142
v 0.00837108 -0.03613142 -0.07714853
v -0.01523970 -0.02323538 -0.07343049
v -0.01499792 -0.02310097 -0.07166784
v -0.01473754 -0.02363860 -0.07111475
v -0.01128752 -0.03190112 -0.07402270
v -0.01061798 -0.03252364 -0.07341373
v -0.00936258 -0.03351401 -0.07241927
v -0.01145491 -0.02443797 -0.06666482
v -0.01054358 -0.02323538 -0.06549717
v -0.01069237 -0.02199034 -0.06538823
v 0.01395063 -0.03169597 -0.06688271
v 0.00837108 -0.03171719 -0.06687433
v 0.00465138 -0.03173134 -0.06687154
v -0.00092816 -0.03173842 -0.06686874
v -0.00227655 -0.03169597 -0.06688550
v -0.00285311 -0.03240338 -0.06731848
v -0.00278801 -0.03385356 -0.06833529
v -0.00092816 -0.03391016 -0.06827942
v 0.00279153 -0.03389601 -0.06829060
v 0.00093169 -0.02672997 -0.06538823
v 0.06598922 -0.03413653 -0.06971244
v -0.00092816 -0.03463879 -0.06971244
v 0.07156876 -0.03419312 -0.07157007
v 0.06970891 -0.03439827 -0.07157007
v 0.00837108 -0.03601116 -0.07528812
v 0.07156876 -0.03441242 -0.07343049
v 0.07341931 -0.03441949 -0.07528812
v 0.07341931 -0.03443364 -0.07714853
v 0.07341931 -0.03444071 -0.07900616
v -0.01099925 -0.03324519 -0.07714853
v -0.01141771 -0.03217701 -0.07528812
v -0.01496073 -0.02430356 -0.07343049
v -0.01007862 -0.03410823 -0.07900616
v -0.01006932 -0.03410823 -0.07714853
v -0.00835826 -0.03486516 -0.08086379
v 0.00093169 -0.03591919 -0.07714853
v 0.00279153 -0.03612434 -0.07900616
v 0.00279153 -0.03611727 -0.07714853
v -0.01490493 -0.02421867 -0.07235223
v -0.01091556 -0.03311079 -0.07528812
v -0.00965086 -0.03376160 -0.07343049
v -0.00835826 -0.03445486 -0.07343049
v -0.00820017 -0.03376160 -0.07170695
v -0.00747483 -0.03348571 -0.07060634
v -0.00550339 -0.03341497 -0.06882135
v -0.00967875 -0.02443089 -0.06538823
v -0.01038550 -0.02323538 -0.06538823
v -0.01045059 -0.02298778 -0.06538823
v -0.00092816 -0.02673704 -0.06538823
v -0.00278801 -0.02671582 -0.06538823
v -0.00463856 -0.02631967 -0.06538823
v -0.00351335 -0.03152619 -0.06694137
v -0.00426659 -0.03369086 -0.06852245
v -0.00278801 -0.03459634 -0.06971244
v 0.00279153 -0.03598993 -0.07528812
v -0.00998563 -0.03404456 -0.07528812
v -0.00835826 -0.03486516 -0.07714853
v -0.00835826 -0.03480149 -0.07528812
v -0.00649841 -0.03490053 -0.07343049
v -0.00649841 -0.03445486 -0.07157007
v -0.00649841 -0.03376160 -0.07017895
v -0.00478735 -0.03412238 -0.06955043
v -0.00478735 -0.03268634 -0.06805036
v -0.00929749 -0.02463604 -0.06538823
v -0.00633103 -0.02581741 -0.06538823
v -0.00650771 -0.02576082 -0.06538823
v -0.00767942 -0.02532930 -0.06538823
v -0.00831177 -0.02506049 -0.06538823
v -0.00463856 -0.03485808 -0.07157007
f 1 2 3
f 1 3 4
f 1 4 5
f 1 5 6
f 1 6 7
f 1 7 8
f 1 8 9
f 1 9 10
f 1 10 2
f 2 11 12
f 2 12 13
f 2 13 14
f 2 14 3
f 2 10 15
f 2 15 16
f 2 16 17
f 2 17 18
f 2 18 11
f 3 14 19
f 3 19 20
f 3 20 21
f 3 21 22
f 3 22 23
f 3 23 24
f 3 24 4
f 4 24 25
f 4 25 26
f 4 26 27
f 4 27 5
f 5 27 28
f 5 28 6
f 6 28 29
f 6 29 30
f 6 30 31
f 6 31 7
f 7 31 8
f 8 31 32
f 8 32 33
f 8 33 9
f 9 33 34
f 9 34 10
f 10 34 35
f 10 35 15
f 11 36 37
f 11 37 38
f 11 38 12
f 11 18 39
f 11 39 36
f 12 38 40
f 12 40 41
f 12 41 42
f 12 42 13
f 13 42 19
f 13 19 14
f 15 35 43
f 15 43 44
f 15 44 16
f 16 44 45
f 16 45 17
f 17 45 18
f 18 45 46
f 18 46 47
f 18 47 39
f 19 42 48
f 19 48 49
f 19 49 20
f 20 49 50
f 20 50 51
f 20 51 21
f 21 51 52
f 21 52 22
f 22 52 23
f 23 52 53
f 23 53 54
f 23 54 24
f 24 54 55
f 24 55 25
f 25 55 56
f 25 56 26
f 26 56 57
f 26 57 58
f 26 58 59
f 26 59 27
f 27 59 60
f 27 60 61
f 27 61 28
f 28 61 62
f 28 62 29
f 29 63 64
f 29 64 30
f 29 62 63
f 30 64 65
f 30 65 31
f 31 65 66
f 31 66 32
f 32 66 67
f 32 67 68
f 32 68 33
f 33 68 34
f 34 68 69
f 34 69 35
f 35 69 70
f 35 70 71
f 35 71 43
f 36 72 37
f 36 39 47
f 36 47 73
f 36 73 72
f 37 72 38
f 38 74 40
f 38 72 75
f 38 75 76
f 38 76 74
f 40 74 77
f 40 77 78
f 40 78 79
f 40 79 41
f 41 79 42
f 42 79 80
f 42 80 48
f 43 71 81
f 43 81 82
f 43 82 44
f 44 83 45
f 44 82 84
f 44 84 83
f 45 85 46
f 45 83 85
f 46 85 86
f 46 86 87
f 46 87 47
f 47 87 88
f 47 88 89
f 47 89 73
f 48 80 90
f 48 90 91
f 48 91 49
f 49 91 50
f 50 91 92
f 50 92 93
f 50 93 51
f 51 93 52
f 52 93 94
f 52 94 53
f 53 95 54
f 53 94 96
f 53 96 95
f 54 97 55
f 54 95 98
f 54 98 97
f 55 97 99
f 55 99 56
f 56 100 57
f 56 99 100
f 57 100 101
f 57 101 102
f 57 102 103
f 57 103 58
f 58 104 59
f 58 103 104
f 59 104 105
f 59 105 60
f 60 105 106
f 60 106 61
f 61 106 62
f 62 106 107
f 62 107 63
f 63 107 108
f 63 108 109
f 63 109 110
f 63 110 111
f 63 111 64
f 64 111 65
f 65 111 112
f 65 112 66
f 66 112 113
f 66 113 67
f 67 113 114
f 67 114 115
f 67 115 68
f 68 115 116
f 68 116 117
f 68 117 69
f 69 117 118
f 69 118 70
f 70 118 119
f 70 119 71
f 71 119 120
f 71 120 81
f 72 121 75
f 72 73 89
f 72 89 121
f 74 122 77
f 74 76 121
f 74 121 122
f 75 121 76
f 77 123 124
f 77 124 78
f 77 122 123
f 78 124 125
f 78 125 79
f 79 125 126
f 79 126 80
f 80 126 127
f 80 127 128
f 80 128 90
f 81 129 82
f 81 120 130
f 81 130 129
f 82 129 84
f 83 131 85
f 83 84 131
f 84 129 132
f 84 132 133
f 84 133 134
f 84 134 131
f 85 131 86
f 86 135 136
f 86 136 87
f 86 131 137
f 86 137 138
f 86 138 135
f 87 136 88
f 88 136 139
f 88 139 140
f 88 140 89
f 89 140 141
f 89 141 142
f 89 142 143
f 89 143 121
f 90 128 144
f 90 144 145
f 90 145 91
f 91 145 92
f 92 145 146
f 92 146 147
f 92 147 148
f 92 148 93
f 93 148 149
f 93 149 94
f 94 149 150
f 94 150 96
f 95 96 151
f 95 151 98
f 96 150 152
f 96 152 151
f 97 98 153
f 97 153 99
f 98 151 154
f 98 154 155
f 98 155 153
f 99 153 100
f 100 153 155
f 100 155 156
f 100 156 101
f 101 156 102
f 102 157 158
f 102 158 103
f 102 156 159
f 102 159 160
f 102 160 157
f 103 158 104
f 104 158 161
f 104 161 162
f 104 162 105
f 105 162 163
f 105 163 164
f 105 164 106
f 106 164 163
f 106 163 165
f 106 165 107
f 107 166 108
f 107 165 166
f 108 166 167
f 108 167 168
f 108 168 109
f 109 169 111
f 109 111 110
f 109 168 170
f 109 170 171
f 109 171 172
f 109 172 169
f 111 169 112
f 112 173 174
f 112 174 113
f 112 169 173
f 113 174 114
f 114 175 176
f 114 176 115
f 114 174 177
f 114 177 175
f 115 176 178
f 115 178 116
f 116 178 117
f 117 178 179
f 117 179 118
f 118 179 119
f 119 179 180
f 119 180 181
f 119 181 120
f 120 181 182
f 120 182 130
f 121 183 122
f 121 143 183
f 122 184 185
f 122 185 123
f 122 183 184
f 123 185 186
f 123 186 187
f 123 187 124
f 124 187 188
f 124 188 125
f 125 189 126
f 125 188 189
f 126 189 127
f 127 190 191
f 127 191 192
f 127 192 128
f 127 189 193
f 127 193 190
f 128 192 144
f 129 130 132
f 130 182 194
f 130 194 132
f 131 134 137
f 132 194 195
f 132 195 196
f 132 196 197
f 132 197 133
f 133 197 134
f 134 198 137
f 134 197 198
f 135 138 199
f 135 199 200
f 135 200 201
f 135 201 202
f 135 202 203
f 135 203 139
f 135 139 136
f 137 198 199
f 137 199 138
f 139 203 204
f 139 204 140
f 140 204 205
f 140 205 141
f 141 205 143
f 141 143 142
f 143 205 183
f 144 192 206
f 144 206 207
f 144 207 145
f 145 207 146
f 146 207 208
f 146 208 209
f 146 209 147
f 147 209 210
f 147 210 148
f 148 210 211
f 148 211 212
f 148 212 149
f 149 212 213
f 149 213 150
f 150 213 214
f 150 214 152
f 151 152 154
f 152 214 215
f 152 215 154
f 154 216 217
f 154 217 155
f 154 215 218
f 154 218 216
f 155 217 219
f 155 219 220
f 155 220 156
f 156 220 286
f 156 286 283
f 156 283 282
f 156 282 359
f 156 359 444
f 156 444 538
f 156 538 630
f 156 630 704
f 156 704 768
f 156 768 823
f 156 823 822
f 156 822 821
f 156 821 820
f 156 820 819
f 156 819 863
f 156 863 901
f 156 901 900
f 156 900 899
f 156 899 917
f 156 917 921
f 156 921 920
f 156 920 919
f 156 919 918
f 156 918 904
f 156 904 903
f 156 903 902
f 156 902 873
f 156 873 830
f 156 830 824
f 156 824 769
f 156 769 708
f 156 708 707
f 156 707 636
f 156 636 548
f 156 548 547
f 156 547 546
f 156 546 544
f 156 544 543
f 156 543 542
f 156 542 541
f 156 541 540
f 156 540 456
f 156 456 455
f 156 455 454
f 156 454 452
f 156 452 451
f 156 451 450
f 156 450 449
f 156 449 448
f 156 448 447
f 156 447 446
f 156 446 369
f 156 369 368
f 156 368 367
f 156 367 366
f 156 366 365
f 156 365 364
f 156 364 363
f 156 363 362
f 156 362 293
f 156 293 291
f 156 291 287
f 156 287 229
f 156 229 228
f 156 228 227
f 156 227 225
f 156 225 224
f 156 224 223
f 156 223 222
f 156 222 221
f 156 221 157
f 156 157 160
f 156 160 159
f 157 221 158
f 158 222 161
f 158 221 222
f 161 222 223
f 161 223 224
f 161 224 162
f 162 224 225
f 162 225 226
f 162 226 163
f 163 226 225
f 163 225 227
f 163 227 165
f 165 227 228
f 165 228 229
f 165 229 230
f 165 230 231
f 165 231 166
f 166 231 232
f 166 232 170
f 166 170 167
f 167 170 168
f 169 172 173
f 170 232 233
f 170 233 234
f 170 234 171
f 171 234 177
f 171 177 174
f 171 174 172
f 172 174 173
f 175 177 176
f 176 177 235
f 176 235 236
f 176 236 178
f 177 234 237
f 177 237 235
f 178 236 238
f 178 238 179
f 179 238 239
f 179 239 180
f 180 239 240
f 180 240 181
f 181 240 241
f 181 241 182
f 182 242 243
f 182 243 194
f 182 241 242
f 183 244 245
f 183 245 184
f 183 205 244
f 184 246 185
f 184 245 246
f 185 247 186
f 185 246 247
f 186 248 249
f 186 249 187
f 186 247 248
f 187 249 250
f 187 250 188
f 188 250 251
f 188 251 189
f 189 251 252
f 189 252 193
f 190 193 253
f 190 253 191
f 191 206 192
f 191 253 254
f 191 254 255
f 191 255 256
f 191 256 257
f 191 257 206
f 193 252 253
f 194 243 195
f 195 243 258
f 195 258 259
f 195 259 196
f 196 259 260
f 196 260 197
f 197 260 261
f 197 261 199
f 197 199 198
f 199 261 262
f 199 262 200
f 200 262 201
f 201 262 263
f 201 263 264
f 201 264 265
f 201 265 202
f 202 265 266
f 202 266 203
f 203 266 204
f 204 266 267
f 204 267 205
f 205 267 268
f 205 268 269
f 205 269 270
f 205 270 244
f 206 257 207
f 207 257 208
f 208 257 271
f 208 271 209
f 209 271 272
f 209 272 210
f 210 272 273
f 210 273 211
f 211 273 274
f 211 274 212
f 212 274 275
f 212 275 213
f 213 275 276
f 213 276 214
f 214 276 277
f 214 277 215
f 215 277 278
f 215 278 218
f 216 279 280
f 216 280 217
f 216 218 281
f 216 281 279
f 217 280 219
f 218 278 281
f 219 282 283
f 219 283 284
f 219 284 220
f 219 280 285
f 219 285 282
f 220 284 286
f 229 287 230
f 230 288 289
f 230 289 290
f 230 290 231
f 230 287 291
f 230 291 288
f 231 290 232
f 232 292 233
f 232 290 289
f 232 289 288
f 232 288 293
f 232 293 292
f 233 292 294
f 233 294 295
f 233 295 296
f 233 296 234
f 234 296 237
f 235 237 297
f 235 297 298
f 235 298 299
f 235 299 300
f 235 300 301
f 235 301 302
f 235 302 303
f 235 303 304
f 235 304 238
f 235 238 236
f 237 296 297
f 238 304 239
f 239 304 303
f 239 303 240
f 240 303 302
f 240 302 241
f 241 302 301
f 241 301 305
f 241 305 306
f 241 306 242
f 242 306 243
f 243 306 307
f 243 307 258
f 244 270 313
f 244 313 245
f 245 308 309
f 245 309 310
f 245 310 311
f 245 311 312
f 245 312 246
f 245 313 308
f 246 312 314
f 246 314 247
f 247 314 248
f 248 314 315
f 248 315 316
f 248 316 317
f 248 317 318
f 248 318 249
f 249 318 319
f 249 319 320
f 249 320 250
f 250 320 251
f 251 320 253
f 251 253 252
f 253 321 322
f 253 322 254
f 253 320 323
f 253 323 321
f 254 322 255
f 255 322 324
f 255 324 256
f 256 325 326
f 256 326 327
f 256 327 328
f 256 328 329
f 256 329 330
f 256 330 331
f 256 331 257
f 256 324 322
f 256 322 332
f 256 332 325
f 257 331 271
f 258 333 334
f 258 334 259
f 258 307 333
f 259 334 335
f 259 335 260
f 260 335 336
f 260 336 261
f 261 336 262
f 262 336 263
f 263 336 337
f 263 337 338
f 263 338 264
f 264 338 339
f 264 339 340
f 264 340 341
f 264 341 265
f 265 341 342
f 265 342 266
f 266 342 267
f 267 342 268
f 268 342 425
f 268 425 343
f 268 343 426
f 268 426 344
f 268 344 269
f 269 345 346
f 269 346 270
f 269 344 345
f 270 347 313
f 270 346 347
f 271 348 272
f 271 331 348
f 272 348 273
f 273 348 349
f 273 349 350
f 273 350 274
f 274 350 351
f 274 351 352
f 274 352 275
f 275 352 276
f 276 352 353
f 276 353 277
f 277 353 354
f 277 354 278
f 278 354 355
f 278 355 281
f 279 356 280
f 279 281 357
f 279 357 358
f 279 358 356
f 280 356 285
f 281 355 357
f 282 285 359
f 283 286 284
f 285 356 360
f 285 360 359
f 288 291 293
f 292 361 294
f 292 293 362
f 292 362 363
f 292 363 364
f 292 364 365
f 292 365 366
f 292 366 367
f 292 367 368
f 292 368 369
f 292 369 361
f 294 361 370
f 294 370 371
f 294 371 372
f 294 372 373
f 294 373 295
f 295 373 463
f 295 463 374
f 295 374 298
f 295 298 297
f 295 297 296
f 298 374 375
f 298 375 376
f 298 376 299
f 299 376 377
f 299 377 300
f 300 377 380
f 300 380 378
f 300 378 305
f 300 305 301
f 305 379 306
f 305 378 380
f 305 380 467
f 305 467 379
f 306 379 381
f 306 381 382
f 306 382 307
f 307 382 383
f 307 383 333
f 308 384 385
f 308 385 309
f 308 313 384
f 309 385 311
f 309 311 310
f 311 386 387
f 311 387 388
f 311 388 312
f 311 385 389
f 311 389 386
f 312 388 314
f 313 347 384
f 314 388 315
f 315 317 316
f 315 388 390
f 315 390 391
f 315 391 392
f 315 392 317
f 317 392 393
f 317 393 394
f 317 394 318
f 318 394 319
f 319 394 395
f 319 395 396
f 319 396 320
f 320 396 323
f 321 323 397
f 321 397 398
f 321 398 322
f 322 398 332
f 323 396 397
f 325 399 400
f 325 400 401
f 325 401 402
f 325 402 403
f 325 403 326
f 325 332 404
f 325 404 405
f 325 405 399
f 326 403 500
f 326 500 406
f 326 406 407
f 326 407 408
f 326 408 327
f 327 408 409
f 327 409 410
f 327 410 328
f 328 410 329
f 329 410 411
f 329 411 412
f 329 412 330
f 330 412 413
f 330 413 348
f 330 348 331
f 332 398 414
f 332 414 404
f 333 383 415
f 333 415 416
f 333 416 334
f 334 416 417
f 334 417 337
f 334 337 335
f 335 337 336
f 337 417 339
f 337 339 338
f 339 417 416
f 339 416 415
f 339 415 473
f 339 473 418
f 339 418 340
f 340 419 420
f 340 420 421
f 340 421 422
f 340 422 423
f 340 423 341
f 340 418 424
f 340 424 419
f 341 423 342
f 342 423 425
f 343 425 427
f 343 427 428
f 343 428 429
f 343 429 426
f 344 426 345
f 345 430 431
f 345 431 346
f 345 426 430
f 346 431 347
f 347 431 432
f 347 432 384
f 348 413 433
f 348 433 349
f 349 433 350
f 350 433 434
f 350 434 351
f 351 434 352
f 352 434 435
f 352 435 436
f 352 436 353
f 353 436 437
f 353 437 354
f 354 437 355
f 355 437 438
f 355 438 357
f 356 358 439
f 356 439 360
f 357 438 440
f 357 440 358
f 358 440 441
f 358 441 442
f 358 442 443
f 358 443 439
f 359 360 444
f 360 439 445
f 360 445 444
f 361 369 446
f 361 446 447
f 361 447 448
f 361 448 449
f 361 449 370
f 370 449 450
f 370 450 451
f 370 451 452
f 370 452 454
f 370 454 371
f 371 453 372
f 371 454 455
f 371 455 456
f 371 456 453
f 372 453 457
f 372 457 458
f 372 458 459
f 372 459 373
f 373 460 461
f 373 461 462
f 373 462 463
f 373 459 460
f 374 463 465
f 374 465 375
f 375 464 377
f 375 377 376
f 375 465 464
f 377 464 380
f 379 466 381
f 379 467 466
f 380 464 467
f 381 466 468
f 381 468 469
f 381 469 470
f 381 470 382
f 382 470 471
f 382 471 383
f 383 471 472
f 383 472 473
f 383 473 415
f 384 474 475
f 384 475 385
f 384 432 474
f 385 475 389
f 386 476 387
f 386 389 477
f 386 477 478
f 386 478 479
f 386 479 476
f 387 480 390
f 387 390 388
f 387 476 480
f 389 475 477
f 390 480 481
f 390 481 482
f 390 482 483
f 390 483 391
f 391 484 392
f 391 483 484
f 392 484 393
f 393 485 486
f 393 486 487
f 393 487 395
f 393 395 394
f 393 484 488
f 393 488 489
f 393 489 490
f 393 490 485
f 395 487 491
f 395 491 397
f 395 397 396
f 397 491 414
f 397 414 398
f 399 492 493
f 399 493 494
f 399 494 400
f 399 405 495
f 399 495 496
f 399 496 497
f 399 497 492
f 400 494 498
f 400 498 499
f 400 499 401
f 401 499 500
f 401 500 402
f 402 500 403
f 404 414 501
f 404 501 405
f 405 501 502
f 405 502 503
f 405 503 495
f 406 500 504
f 406 504 407
f 407 504 505
f 407 505 408
f 408 505 409
f 409 505 506
f 409 506 410
f 410 506 507
f 410 507 508
f 410 508 411
f 411 508 412
f 412 508 509
f 412 509 413
f 413 509 433
f 414 491 501
f 418 473 424
f 419 510 420
f 419 424 510
f 420 511 421
f 420 510 512
f 420 512 511
f 421 511 513
f 421 513 514
f 421 514 515
f 421 515 422
f 422 515 516
f 422 516 425
f 422 425 423
f 424 473 510
f 425 516 427
f 426 429 517
f 426 517 430
f 427 516 518
f 427 518 428
f 428 519 520
f 428 520 517
f 428 517 429
f 428 518 521
f 428 521 519
f 430 517 522
f 430 522 431
f 431 522 523
f 431 523 524
f 431 524 432
f 432 524 525
f 432 525 526
f 432 526 474
f 433 509 527
f 433 527 434
f 434 527 528
f 434 528 529
f 434 529 435
f 435 529 436
f 436 529 530
f 436 530 531
f 436 531 437
f 437 531 438
f 438 532 440
f 438 531 532
f 439 443 533
f 439 533 445
f 440 532 534
f 440 534 441
f 441 534 623
f 441 623 535
f 441 535 442
f 442 535 536
f 442 536 629
f 442 629 537
f 442 537 533
f 442 533 443
f 444 445 538
f 445 539 538
f 445 533 539
f 453 456 540
f 453 540 457
f 457 540 541
f 457 541 542
f 457 542 543
f 457 543 544
f 457 544 458
f 458 545 459
f 458 544 546
f 458 546 547
f 458 547 548
f 458 548 545
f 459 545 549
f 459 549 550
f 459 550 460
f 460 550 551
f 460 551 461
f 461 551 552
f 461 552 462
f 462 552 553
f 462 553 554
f 462 554 465
f 462 465 463
f 464 555 467
f 464 465 554
f 464 554 553
f 464 553 555
f 466 556 468
f 466 467 557
f 466 557 558
f 466 558 559
f 466 559 552
f 466 552 556
f 467 555 558
f 467 558 557
f 468 556 552
f 468 552 560
f 468 560 561
f 468 561 562
f 468 562 563
f 468 563 469
f 469 563 470
f 470 563 564
f 470 564 565
f 470 565 471
f 471 565 566
f 471 566 472
f 472 566 567
f 472 567 568
f 472 568 510
f 472 510 473
f 474 526 477
f 474 477 475
f 476 569 480
f 476 479 569
f 477 526 570
f 477 570 478
f 478 570 571
f 478 571 479
f 479 571 572
f 479 572 569
f 480 569 573
f 480 573 481
f 481 573 574
f 481 574 575
f 481 575 576
f 481 576 483
f 481 483 482
f 483 576 577
f 483 577 484
f 484 577 578
f 484 578 579
f 484 579 580
f 484 580 581
f 484 581 488
f 485 490 582
f 485 582 486
f 486 582 583
f 486 583 487
f 487 583 491
f 488 581 584
f 488 584 585
f 488 585 586
f 488 586 489
f 489 582 490
f 489 586 582
f 491 583 501
f 492 587 588
f 492 588 589
f 492 589 590
f 492 590 591
f 492 591 592
f 492 592 493
f 492 497 593
f 492 593 594
f 492 594 587
f 493 592 595
f 493 595 596
f 493 596 498
f 493 498 494
f 495 503 597
f 495 597 496
f 496 597 598
f 496 598 497
f 497 599 593
f 497 598 600
f 497 600 601
f 497 601 599
f 498 596 602
f 498 602 504
f 498 504 499
f 499 504 500
f 501 583 582
f 501 582 586
f 501 586 585
f 501 585 503
f 501 503 502
f 503 585 584
f 503 584 603
f 503 603 604
f 503 604 597
f 504 602 605
f 504 605 606
f 504 606 506
f 504 506 505
f 506 606 607
f 506 607 608
f 506 608 609
f 506 609 507
f 507 609 508
f 508 609 527
f 508 527 509
f 510 568 512
f 511 610 513
f 511 512 611
f 511 611 610
f 512 568 567
f 512 567 611
f 513 610 514
f 514 610 612
f 514 612 613
f 514 613 614
f 514 614 615
f 514 615 616
f 514 616 515
f 515 616 516
f 516 616 518
f 517 520 522
f 518 616 615
f 518 615 521
f 519 521 617
f 519 617 618
f 519 618 571
f 519 571 520
f 520 571 619
f 520 619 523
f 520 523 522
f 521 615 620
f 521 620 617
f 523 619 570
f 523 570 524
f 524 570 525
f 525 570 526
f 527 609 608
f 527 608 528
f 528 608 529
f 529 608 607
f 529 607 622
f 529 622 530
f 530 621 531
f 530 622 621
f 531 621 532
f 532 621 534
f 533 537 539
f 534 621 624
f 534 624 623
f 535 625 626
f 535 626 536
f 535 623 696
f 535 696 625
f 536 626 627
f 536 627 628
f 536 628 629
f 537 629 539
f 538 539 631
f 538 631 630
f 539 629 631
f 545 548 632
f 545 632 633
f 545 633 634
f 545 634 635
f 545 635 549
f 548 636 632
f 549 635 637
f 549 637 638
f 549 638 639
f 549 639 550
f 550 640 551
f 550 639 640
f 551 640 552
f 552 559 558
f 552 558 553
f 552 640 641
f 552 641 642
f 552 642 643
f 552 643 644
f 552 644 560
f 553 558 555
f 560 644 645
f 560 645 562
f 560 562 561
f 562 645 646
f 562 646 647
f 562 647 563
f 563 647 648
f 563 648 564
f 564 648 649
f 564 649 565
f 565 649 650
f 565 650 566
f 566 650 567
f 567 650 651
f 567 651 611
f 569 572 652
f 569 652 573
f 570 619 571
f 571 618 653
f 571 653 654
f 571 654 655
f 571 655 572
f 572 654 652
f 572 655 654
f 573 652 574
f 574 656 575
f 574 652 657
f 574 657 656
f 575 656 658
f 575 658 659
f 575 659 660
f 575 660 576
f 576 660 577
f 577 660 578
f 578 660 661
f 578 661 662
f 578 662 604
f 578 604 579
f 579 604 603
f 579 603 580
f 580 603 584
f 580 584 581
f 587 663 664
f 587 664 588
f 587 594 665
f 587 665 666
f 587 666 663
f 588 664 667
f 588 667 589
f 589 667 668
f 589 668 669
f 589 669 670
f 589 670 590
f 590 670 671
f 590 671 591
f 591 671 592
f 592 671 672
f 592 672 673
f 592 673 595
f 593 599 594
f 594 599 601
f 594 601 674
f 594 674 675
f 594 675 676
f 594 676 665
f 595 673 602
f 595 602 596
f 597 604 598
f 598 604 662
f 598 662 600
f 600 662 659
f 600 659 601
f 601 677 678
f 601 678 674
f 601 659 679
f 601 679 677
f 602 673 680
f 602 680 605
f 605 680 681
f 605 681 682
f 605 682 607
f 605 607 606
f 607 682 683
f 607 683 622
f 610 611 651
f 610 651 684
f 610 684 685
f 610 685 612
f 612 685 613
f 613 685 686
f 613 686 687
f 613 687 688
f 613 688 689
f 613 689 614
f 614 689 620
f 614 620 615
f 617 620 690
f 617 690 691
f 617 691 692
f 617 692 693
f 617 693 618
f 618 693 694
f 618 694 695
f 618 695 653
f 620 689 690
f 621 622 624
f 622 683 624
f 623 624 696
f 624 697 698
f 624 698 696
f 624 683 697
f 625 696 758
f 625 758 699
f 625 699 626
f 626 700 701
f 626 701 702
f 626 702 627
f 626 699 700
f 627 702 628
f 628 702 703
f 628 703 704
f 628 704 631
f 628 631 629
f 630 631 704
f 632 636 633
f 633 705 706
f 633 706 634
f 633 636 707
f 633 707 708
f 633 708 705
f 634 706 635
f 635 706 637
f 637 709 710
f 637 710 711
f 637 711 638
f 637 706 705
f 637 705 709
f 638 711 710
f 638 710 712
f 638 712 639
f 639 712 713
f 639 713 714
f 639 714 640
f 640 714 715
f 640 715 716
f 640 716 641
f 641 716 715
f 641 715 717
f 641 717 718
f 641 718 642
f 642 718 643
f 643 718 719
f 643 719 645
f 643 645 644
f 645 719 720
f 645 720 646
f 646 720 785
f 646 785 721
f 646 721 647
f 647 721 722
f 647 722 648
f 648 722 723
f 648 723 649
f 649 723 724
f 649 724 725
f 649 725 651
f 649 651 650
f 651 725 726
f 651 726 684
f 652 654 657
f 653 695 654
f 654 695 727
f 654 727 657
f 656 657 728
f 656 728 729
f 656 729 658
f 657 727 728
f 658 679 659
f 658 729 679
f 659 661 660
f 659 662 661
f 663 730 664
f 663 666 731
f 663 731 730
f 664 732 667
f 664 730 733
f 664 733 732
f 665 676 734
f 665 734 666
f 666 734 735
f 666 735 731
f 667 732 736
f 667 736 737
f 667 737 738
f 667 738 668
f 668 738 739
f 668 739 669
f 669 739 670
f 670 739 740
f 670 740 671
f 671 740 741
f 671 741 672
f 672 741 673
f 673 741 680
f 674 678 675
f 675 742 676
f 675 678 743
f 675 743 744
f 675 744 745
f 675 745 742
f 676 742 734
f 677 679 678
f 678 679 743
f 679 729 743
f 680 741 681
f 681 741 746
f 681 746 747
f 681 747 748
f 681 748 682
f 682 748 683
f 683 748 697
f 684 726 685
f 685 726 686
f 686 726 724
f 686 724 749
f 686 749 687
f 687 750 688
f 687 749 750
f 688 751 690
f 688 690 689
f 688 750 806
f 688 806 751
f 690 751 752
f 690 752 691
f 691 752 692
f 692 752 753
f 692 753 754
f 692 754 693
f 693 754 755
f 693 755 694
f 694 755 756
f 694 756 695
f 695 756 757
f 695 757 727
f 696 698 758
f 697 759 760
f 697 760 698
f 697 748 759
f 698 760 761
f 698 761 758
f 699 762 700
f 699 758 763
f 699 763 762
f 700 762 764
f 700 764 765
f 700 765 701
f 701 765 766
f 701 766 767
f 701 767 702
f 702 767 703
f 703 767 768
f 703 768 704
f 705 708 769
f 705 769 770
f 705 770 771
f 705 771 709
f 709 772 710
f 709 771 773
f 709 773 772
f 710 772 774
f 710 774 712
f 712 774 775
f 712 775 776
f 712 776 713
f 713 777 714
f 713 776 777
f 714 777 778
f 714 778 779
f 714 779 715
f 715 779 780
f 715 780 717
f 717 780 781
f 717 781 782
f 717 782 718
f 718 782 783
f 718 783 720
f 718 720 719
f 720 783 784
f 720 784 785
f 721 785 786
f 721 786 787
f 721 787 722
f 722 787 788
f 722 788 723
f 723 788 724
f 724 788 749
f 724 726 725
f 727 757 789
f 727 789 728
f 728 789 729
f 729 789 790
f 729 790 743
f 730 731 733
f 731 735 795
f 731 795 791
f 731 791 733
f 732 733 736
f 733 792 736
f 733 791 793
f 733 793 792
f 734 742 794
f 734 794 735
f 735 794 796
f 735 796 795
f 736 792 797
f 736 797 798
f 736 798 737
f 737 798 738
f 738 798 799
f 738 799 747
f 738 747 800
f 738 800 746
f 738 746 739
f 739 746 740
f 740 746 741
f 742 745 794
f 743 790 744
f 744 790 801
f 744 801 745
f 745 801 802
f 745 802 803
f 745 803 794
f 746 800 747
f 747 799 759
f 747 759 748
f 749 804 750
f 749 788 804
f 750 804 805
f 750 805 806
f 751 806 807
f 751 807 808
f 751 808 752
f 752 808 753
f 753 808 754
f 754 808 809
f 754 809 755
f 755 809 756
f 756 809 757
f 757 810 801
f 757 801 789
f 757 809 810
f 758 761 763
f 759 811 760
f 759 799 850
f 759 850 811
f 760 811 812
f 760 812 813
f 760 813 761
f 761 813 763
f 762 814 764
f 762 763 815
f 762 815 814
f 763 813 815
f 764 816 817
f 764 817 765
f 764 814 816
f 765 817 818
f 765 818 766
f 766 818 819
f 766 819 820
f 766 820 821
f 766 821 822
f 766 822 767
f 767 822 823
f 767 823 768
f 769 824 770
f 770 825 826
f 770 826 827
f 770 827 828
f 770 828 829
f 770 829 771
f 770 824 830
f 770 830 831
f 770 831 825
f 771 832 773
f 771 829 833
f 771 833 832
f 772 773 834
f 772 834 835
f 772 835 775
f 772 775 774
f 773 832 836
f 773 836 834
f 775 837 778
f 775 778 776
f 775 835 837
f 776 778 777
f 778 838 779
f 778 837 839
f 778 839 838
f 779 838 780
f 780 838 840
f 780 840 781
f 781 840 841
f 781 841 842
f 781 842 784
f 781 784 782
f 782 784 783
f 784 842 843
f 784 843 786
f 784 786 785
f 786 843 805
f 786 805 787
f 787 805 804
f 787 804 788
f 789 801 790
f 791 795 846
f 791 846 793
f 792 793 844
f 792 844 845
f 792 845 797
f 793 846 883
f 793 883 844
f 794 803 796
f 795 796 847
f 795 847 846
f 796 803 848
f 796 848 847
f 797 845 849
f 797 849 811
f 797 811 850
f 797 850 798
f 798 850 799
f 801 810 802
f 802 851 803
f 802 810 809
f 802 809 852
f 802 852 851
f 803 851 848
f 805 843 853
f 805 853 807
f 805 807 806
f 807 854 852
f 807 852 808
f 807 853 854
f 808 852 809
f 811 849 855
f 811 855 812
f 812 855 856
f 812 856 813
f 813 856 815
f 814 815 857
f 814 857 816
f 815 856 857
f 816 858 859
f 816 859 860
f 816 860 861
f 816 861 817
f 816 857 858
f 817 861 818
f 818 861 862
f 818 862 863
f 818 863 819
f 825 831 826
f 826 831 864
f 826 864 865
f 826 865 866
f 826 866 867
f 826 867 868
f 826 868 869
f 826 869 870
f 826 870 871
f 826 871 827
f 827 871 872
f 827 872 828
f 828 872 829
f 829 872 833
f 830 873 865
f 830 865 864
f 830 864 831
f 832 833 836
f 833 874 836
f 833 872 875
f 833 875 874
f 834 876 835
f 834 836 877
f 834 877 876
f 835 876 837
f 836 874 878
f 836 878 877
f 837 876 839
f 838 839 840
f 839 876 877
f 839 877 879
f 839 879 880
f 839 880 840
f 840 880 841
f 841 880 881
f 841 881 882
f 841 882 853
f 841 853 842
f 842 853 843
f 844 883 884
f 844 884 885
f 844 885 845
f 845 885 849
f 846 847 886
f 846 886 887
f 846 887 883
f 847 848 888
f 847 888 886
f 848 851 888
f 849 885 855
f 851 889 910
f 851 910 888
f 851 852 890
f 851 890 889
f 852 854 890
f 853 882 854
f 854 882 881
f 854 881 880
f 854 880 879
f 854 879 877
f 854 877 878
f 854 878 891
f 854 891 890
f 855 885 892
f 855 892 856
f 856 892 857
f 857 892 858
f 858 884 893
f 858 893 859
f 858 892 884
f 859 893 894
f 859 894 860
f 860 894 895
f 860 895 896
f 860 896 897
f 860 897 861
f 861 897 898
f 861 898 899
f 861 899 862
f 862 899 900
f 862 900 901
f 862 901 863
f 865 873 866
f 866 873 902
f 866 902 867
f 867 902 903
f 867 903 868
f 868 903 904
f 868 904 905
f 868 905 869
f 869 905 906
f 869 906 870
f 870 906 907
f 870 907 871
f 871 907 875
f 871 875 872
f 874 875 878
f 875 907 908
f 875 908 878
f 878 908 891
f 883 893 884
f 883 887 909
f 883 909 893
f 884 892 885
f 886 910 887
f 886 888 910
f 887 910 911
f 887 911 909
f 889 890 891
f 889 891 912
f 889 912 911
f 889 911 910
f 891 908 912
f 893 909 894
f 894 909 895
f 895 911 912
f 895 912 913
f 895 913 896
f 895 909 911
f 896 913 914
f 896 914 897
f 897 914 898
f 898 915 906
f 898 906 916
f 898 916 899
f 898 914 915
f 899 916 905
f 899 905 917
f 904 918 905
f 905 916 906
f 905 918 919
f 905 919 920
f 905 920 921
f 905 921 917
f 906 915 907
f 907 915 922
f 907 922 908
f 908 922 912
f 912 922 913
f 913 922 915
f 913 915 914

